<svg xmlns="http://www.w3.org/2000/svg" width="100" viewBox="0 0 375 375" height="100" version="1.0"><path fill="#0C417C" d="M 164.226562 287.769531 L 210.464844 287.769531 C 217.734375 287.519531 217.726562 277.039062 210.464844 276.792969 L 164.226562 276.792969 C 156.960938 277.042969 156.964844 287.519531 164.226562 287.769531 Z M 164.226562 287.769531"/><path fill="#0C417C" d="M 314.3125 88.910156 C 312.464844 70.792969 305.726562 53.734375 294.539062 39.078125 C 290.230469 33.4375 281.507812 40.101562 285.8125 45.742188 C 297.613281 61.203125 303.851562 79.675781 303.851562 99.164062 L 303.851562 196.871094 L 70.523438 196.871094 C 70.523438 178.886719 70.523438 93.113281 70.523438 93.113281 C 72.117188 69.691406 83.113281 48.753906 99.503906 33.878906 L 99.503906 99.523438 C 100.484375 123.257812 134.335938 123.261719 135.316406 99.523438 L 135.316406 14.140625 C 142.789062 12.082031 150.65625 10.980469 158.773438 10.980469 L 215.597656 10.980469 C 233.660156 10.980469 251.023438 16.394531 265.816406 26.644531 C 271.652344 30.6875 277.902344 21.664062 272.070312 17.621094 C 255.429688 6.09375 235.902344 0 215.597656 0 L 158.773438 0 C 108.671875 0 65.175781 39.074219 60.0625 88.992188 C 40.683594 91.574219 25.6875 108.210938 25.6875 128.285156 L 25.6875 244.632812 C 25.6875 264.921875 40.898438 281.703125 60.433594 284.003906 C 77.703125 404.609375 298.507812 406.054688 314.351562 284 C 334.011719 281.675781 349.3125 264.90625 349.3125 244.632812 L 349.3125 128.285156 C 349.3125 107.996094 333.992188 91.214844 314.3125 88.910156 Z M 124.335938 99.523438 C 123.960938 108.699219 110.855469 108.691406 110.484375 99.523438 L 110.484375 25.382812 C 114.847656 22.519531 119.484375 20.035156 124.335938 17.96875 Z M 281.570312 207.851562 C 278.976562 222.148438 266.433594 233.023438 251.402344 233.023438 L 123.292969 233.023438 C 108.257812 233.023438 95.714844 222.148438 93.121094 207.851562 Z M 36.664062 244.632812 L 36.664062 128.285156 C 36.664062 114.464844 46.5 102.894531 59.542969 100.210938 L 59.542969 272.753906 C 46.519531 270.164062 36.664062 258.539062 36.664062 244.632812 Z M 145.164062 357.773438 C 113.140625 348.167969 88.675781 329.015625 78.039062 305.230469 C 76.953125 302.78125 85.875 310.726562 88.054688 312.183594 C 93.960938 316.121094 100.054688 306.992188 94.152344 303.050781 C 85.804688 297.480469 75.003906 287.875 70.523438 273.59375 L 70.523438 207.851562 L 82.011719 207.851562 C 84.707031 228.226562 102.191406 244 123.292969 244 L 251.402344 244 C 272.5 244 289.984375 228.226562 292.679688 207.851562 L 303.851562 207.851562 L 303.851562 273.945312 C 299.847656 298.257812 258.128906 316.363281 236.289062 317.78125 C 233.671875 307.953125 224.695312 300.691406 214.054688 300.691406 L 160.640625 300.691406 C 149.996094 300.691406 141.019531 307.957031 138.40625 317.789062 C 133.59375 317.476562 128.8125 316.804688 124.148438 315.769531 C 117.222656 314.234375 114.847656 324.957031 121.777344 326.488281 C 127.148438 327.679688 132.660156 328.445312 138.203125 328.773438 C 140.519531 339.023438 149.699219 346.699219 160.640625 346.699219 L 214.054688 346.699219 C 224.996094 346.699219 234.175781 339.019531 236.492188 328.769531 C 257.222656 327.523438 278.039062 320.027344 294.019531 306.59375 C 267.910156 358.636719 197.246094 373.796875 145.164062 357.773438 Z M 226.078125 323.695312 C 226.078125 330.324219 220.683594 335.722656 214.050781 335.722656 L 160.640625 335.722656 C 144.679688 335.058594 144.695312 312.324219 160.640625 311.667969 L 214.050781 311.667969 C 220.683594 311.667969 226.078125 317.0625 226.078125 323.695312 Z M 338.335938 244.632812 C 338.335938 258.617188 328.265625 270.296875 314.984375 272.796875 C 314.984375 272.796875 314.828125 129.359375 314.828125 100.085938 C 328.179688 102.519531 338.335938 114.238281 338.335938 128.285156 Z M 338.335938 244.632812"/><path fill="#0C417C" d="M 162.679688 35.875 L 212.011719 35.875 C 219.28125 35.625 219.277344 25.148438 212.011719 24.898438 L 162.679688 24.898438 C 155.410156 25.148438 155.417969 35.625 162.679688 35.875 Z M 162.679688 35.875"/><path fill="#0C417C" d="M 162.679688 61.339844 L 212.011719 61.339844 C 219.28125 61.089844 219.277344 50.609375 212.011719 50.359375 L 162.679688 50.359375 C 155.410156 50.613281 155.417969 61.089844 162.679688 61.339844 Z M 162.679688 61.339844"/><path fill="#0C417C" d="M 217.503906 81.3125 C 217.503906 78.28125 215.046875 75.824219 212.011719 75.824219 L 162.679688 75.824219 C 155.410156 76.078125 155.417969 86.554688 162.679688 86.804688 L 212.011719 86.804688 C 215.046875 86.804688 217.503906 84.34375 217.503906 81.3125 Z M 217.503906 81.3125"/><path fill="#0C417C" d="M 141.757812 138.5625 C 128.582031 138.5625 117.859375 149.277344 117.859375 162.449219 C 119.171875 194.136719 164.351562 194.128906 165.660156 162.449219 C 165.65625 149.277344 154.9375 138.5625 141.757812 138.5625 Z M 141.757812 175.355469 C 134.636719 175.355469 128.839844 169.566406 128.839844 162.449219 C 129.550781 145.324219 153.972656 145.332031 154.679688 162.449219 C 154.679688 169.566406 148.882812 175.355469 141.757812 175.355469 Z M 141.757812 175.355469"/><path fill="#0C417C" d="M 97.980469 147.683594 C 89.835938 147.683594 83.207031 154.308594 83.207031 162.449219 C 84.019531 182.039062 111.945312 182.035156 112.753906 162.449219 C 112.753906 154.308594 106.125 147.683594 97.980469 147.683594 Z M 97.980469 166.238281 C 92.964844 166.078125 92.96875 158.820312 97.980469 158.660156 C 102.996094 158.820312 102.996094 166.078125 97.980469 166.238281 Z M 97.980469 166.238281"/><path fill="#0C417C" d="M 112.320312 131.195312 C 105.257812 131.195312 105.246094 142.175781 112.320312 142.175781 C 119.386719 142.175781 119.398438 131.195312 112.320312 131.195312 Z M 112.320312 131.195312"/><path fill="#0C417C" d="M 232.933594 186.335938 C 246.109375 186.335938 256.832031 175.621094 256.832031 162.449219 C 255.519531 130.761719 210.339844 130.769531 209.03125 162.449219 C 209.035156 175.621094 219.753906 186.335938 232.933594 186.335938 Z M 232.933594 149.542969 C 240.058594 149.542969 245.851562 155.332031 245.851562 162.449219 C 245.144531 179.574219 220.71875 179.566406 220.011719 162.449219 C 220.011719 155.332031 225.808594 149.542969 232.933594 149.542969 Z M 232.933594 149.542969"/><path fill="#0C417C" d="M 276.710938 177.214844 C 284.859375 177.214844 291.484375 170.59375 291.484375 162.449219 C 290.675781 142.859375 262.746094 142.863281 261.9375 162.449219 C 261.9375 170.59375 268.566406 177.214844 276.710938 177.214844 Z M 276.710938 158.660156 C 281.726562 158.820312 281.726562 166.078125 276.710938 166.238281 C 271.695312 166.078125 271.695312 158.820312 276.710938 158.660156 Z M 276.710938 158.660156"/><path fill="#0C417C" d="M 262.371094 131.195312 C 255.308594 131.195312 255.296875 142.175781 262.371094 142.175781 C 269.4375 142.175781 269.449219 131.195312 262.371094 131.195312 Z M 262.371094 131.195312"/></svg>