<svg id="Layer_1" enable-background="new 0 0 512 512" height="100" viewBox="0 0 512 512" width="100"
     xmlns="http://www.w3.org/2000/svg">
    <g>
        <g>
            <g>
                <circle cx="131.9" cy="46.9" fill="#05fffc" r="14.4"/>
                <circle cx="374" cy="46.9" fill="#05fffc" r="14.4"/>
                <circle cx="256" cy="25.3" fill="#fff245" r="17.8"/>
                <g fill="#ff6ef9">
                    <circle cx="418.2" cy="99.1" r="14.4"/>
                    <circle cx="96" cy="99.1" r="14.4"/>
                </g>
                <g>
                    <g>
                        <path d="m256 236-80.1 33.5 80.1 33.4 80.1-33.4z" fill="#05eaf2"/>
                    </g>
                    <g>
                        <path d="m256 104.1-80.1 33.5 80.1 33.4 80.1-33.4z" fill="#05fffc"/>
                        <path d="m256 263.3-80.1-33.5v-92.2l80.1 33.4z" fill="#0eb0ad"/>
                        <path d="m256 263.3 80.1-33.5v-92.2l-80.1 33.4z" fill="#0dd1cf"/>
                    </g>
                    <g>
                        <path d="m133.9 289.4-80.1 33.4 80.1 33.4 80.1-33.4z" fill="#05fffc"/>
                        <path d="m133.9 448.5-80.1-33.4v-92.3l80.1 33.4z" fill="#0eb0ad"/>
                        <path d="m133.9 448.5 80.1-33.4v-92.3l-80.1 33.4z" fill="#0dd1cf"/>
                    </g>
                    <g>
                        <path d="m133.9 157.5-80.1 33.4 80.1 33.4 80.1-33.4z" fill="#ff6ef9"/>
                        <path d="m133.9 316.6-80.1-33.4v-92.3l80.1 33.4z" fill="#cc21c4"/>
                        <path d="m133.9 316.6 80.1-33.4v-92.3l-80.1 33.4z" fill="#e643de"/>
                    </g>
                    <g>
                        <path d="m378.1 292-80.1 33.5 80.1 33.4 80.1-33.4z" fill="#05fffc"/>
                        <path d="m378.1 451.2-80.1-33.5v-92.2l80.1 33.4z" fill="#0eb0ad"/>
                        <path d="m378.1 451.2 80.1-33.5v-92.2l-80.1 33.4z" fill="#0dd1cf"/>
                    </g>
                    <g>
                        <path d="m378.1 160.1-80.1 33.5 80.1 33.4 80.1-33.4z" fill="#ff6ef9"/>
                        <path d="m378.1 319.3-80.1-33.5v-92.2l80.1 33.4z" fill="#cc21c4"/>
                        <path d="m378.1 319.3 80.1-33.5v-92.2l-80.1 33.4z" fill="#e643de"/>
                        <g>
                            <path d="m428.2 206.1v92.3l30-12.6v-92.2z" fill="#de2fd5"/>
                        </g>
                        <g>
                            <path d="m428.2 338v92.3l30-12.6v-92.2z" fill="#00c4c2"/>
                        </g>
                    </g>
                    <g>
                        <path d="m256 345.4-80.1 33.4 80.1 33.4 80.1-33.4z" fill="#ff6ef9"/>
                        <path d="m256 504.5-80.1-33.4v-92.3l80.1 33.4z" fill="#cc21c4"/>
                        <path d="m256 504.5 80.1-33.4v-92.3l-80.1 33.4z" fill="#e643de"/>
                    </g>
                    <g>
                        <path d="m256 213.5-80.1 33.4 80.1 33.4 80.1-33.4z" fill="#fff245"/>
                        <path d="m256 372.6-80.1-33.4v-92.3l80.1 33.4z" fill="#ffc517"/>
                        <path d="m256 372.6 80.1-33.4v-92.3l-80.1 33.4z" fill="#ffd747"/>
                    </g>
                </g>
            </g>
            <g>
                <path d="m306.1 259.4v92.3l30-12.5v-92.3z" fill="#ffc830"/>
            </g>
            <g>
                <path d="m306.1 391.3v92.3l30-12.5v-92.3z" fill="#de2fd5"/>
            </g>
        </g>
    </g>
    <path d="m461.1 292.8c2.8-1.2 4.6-3.9 4.6-6.9v-92.1c.1-3-1.7-5.8-4.6-7.1l-35.6-14.9v-52.1c22.8-8.5 17.3-42-7.3-42.5-24.4.4-30.1 33.6-7.7 42.4v46l-29.5-12.4c-1.8-.8-3.9-.8-5.8 0l-31.6 13.2v-28.8c0-3.1-2-5.9-4.8-7l-38.3-16v-26.4l29.9-33.8h23.1c8.6 22.6 42 17 42.4-7.5-.5-24.5-33.8-30.1-42.4-7.5h-26.5c-2.1 0-4.2.9-5.6 2.5l-34 38.4c-1.2 1.4-1.9 3.1-1.9 5v23l-22-9.2v-49.7c27.3-9 21.6-48.7-7.5-49.4-29.1.7-34.8 40.4-7.5 49.4v49.7l-22.6 9.4v-23.2c0-1.8-.7-3.6-1.9-5l-34-38.4c-1.4-1.6-3.5-2.5-5.6-2.5h-32c-8.6-22.6-42-17-42.4 7.5.5 24.5 33.8 30.1 42.4 7.5h28.6l29.9 33.8v26.6l-37.9 15.9c-2.8 1.1-4.6 3.9-4.6 6.9v26.2l-31.6-13.2c-1.8-.8-3.9-.8-5.8 0l-27.5 11.4v-42.4c22.6-8.6 17-42-7.5-42.4-24.5.5-30.1 33.8-7.5 42.4v48.7l-37.5 15.6c-2.8 1.1-4.8 3.9-4.8 7v20.1c0 9.7 15 9.7 15 0v-8.8l65.1 27.2v76l-65.1-27.2v-21.5c0-9.7-15-9.7-15 0v26.5c0 3 1.8 5.8 4.6 6.9l31 12.9-30.9 12.9c-2.8 1.2-4.6 3.9-4.6 6.9v92.3c0 3 1.8 5.8 4.6 6.9l80.1 33.4c1.8.7 4 .8 5.8 0l31.6-13.2v28.8c0 3 1.8 5.8 4.6 6.9l80.1 33.4c1.8.8 4 .8 5.8 0l80.1-33.3c2.8-1.2 4.6-3.9 4.6-6.9v-26.2l31.6 13.2c1.8.7 4 .8 5.8 0l25.7-10.7c8.9-3.7 3.2-17.6-5.8-13.8l-15.3 6.4v-76l65.1-27.2v76l-11.5 4.8c-8.8 3.7-2.9 17.5 5.8 13.8l16.2-6.7c2.8-1.2 4.6-3.9 4.6-6.9v-92.3c0-3.1-2-5.9-4.8-7l-30.7-12.8zm-42.9-200.6c3.8 0 6.9 3.1 6.9 6.9-.3 9.1-13.4 9.1-13.8 0 0-3.8 3.1-6.9 6.9-6.9zm-44.2-52.2c3.8 0 6.9 3.1 6.9 6.9-.3 9.1-13.4 9.1-13.8 0 0-3.8 3.1-6.9 6.9-6.9zm-242.1 13.8c-3.8 0-6.9-3.1-6.9-6.9.3-9.1 13.4-9.1 13.8 0-.1 3.8-3.1 6.9-6.9 6.9zm-35.9 38.4c3.8 0 6.9 3.1 6.9 6.9-.3 9.1-13.4 9.1-13.8 0 0-3.8 3.1-6.9 6.9-6.9zm247.6 204.5v-49.8c0-3-1.8-5.7-4.6-6.9l-33.5-14v-21.2l65.1 27.2v76zm-87.6 107.4-60.6-25.3 28-11.7 29.7 12.4c1.8.8 4 .8 5.8 0l29.7-12.4 28 11.7zm-114.6-174.8 65.1-27.2v23.9l-33.5 14c-2.8 1.1-4.6 3.9-4.6 6.9v45.3l-27 12.3zm114.6-7.7 39 16.3c.1 0 .2.1.3.1l21.3 8.9-60.6 25.3-60.6-25.3 21.3-8.9c.1 0 .2-.1.3-.1zm-72.6 112.6v-76l65.1 27.2v76zm80.1 27.1v-76l65.1-27.2v76zm187.2-80.5-65.1 27.2v-76l65.1-27.2zm-72.6-112.5 60.6 25.3-60.6 25.3-60.6-25.3zm-83 18.4c-2.8 1.2-4.7 4.1-4.6 7.1v26l-27-11.3v-32.5l65.1-27.2v23.9zm-39.1-23.8-60.6-25.3 60.6-25.3 60.6 25.3zm0-147.9c5.7 0 10.3 4.6 10.3 10.3-.6 13.6-20 13.6-20.6 0 0-5.7 4.6-10.3 10.3-10.3zm-72.6 133.8c7.9 3.3 58.6 24.5 65.1 27.2v32.5l-27 11.3v-28.8c0-3.1-2-5.9-4.8-7l-33.3-14zm-49.5 16.8 60.6 25.3-60.6 25.3-60.6-25.3zm-3.4 157.7c2.5 1 5.9.7 8-1l29.9-13.6v25l-34.5 14.4-60.6-25.3 28-11.7zm-69.2 10.8 65.1 27.2v76l-65.1-27.2zm80.1 103.1v-76l34-14.2 28.6 11.9-31 13c-2.8 1.1-4.6 3.9-4.6 6.9v47.2zm42-6.1c0-.1 0-.2 0-.3v-40.7l65.1 27.2v76l-65.1-27.2zm80.1 62.1v-76l65.1-27.2v43.4.3 32.3zm80.1-114.4c0-3-1.8-5.8-4.6-6.9l-30.9-12.9 25.4-10.6 37.2 15.5v76l-27-11.3zm95.2-53.3-60.6 25.3-34.5-14.4v-23.4l31.6 13.2c1.8.8 4 .8 5.8 0l29.7-12.4z"/>
</svg>