<svg xmlns="http://www.w3.org/2000/svg" width="100" viewBox="0 0 375 375" height="100" version="1.0"><path fill="#0C417C" d="M 337.71875 214.453125 C 339.769531 213.574219 341.089844 211.597656 341.089844 209.398438 L 341.089844 141.941406 C 341.160156 139.746094 339.84375 137.695312 337.71875 136.742188 L 311.644531 125.828125 L 311.644531 87.671875 C 328.34375 81.445312 324.316406 56.910156 306.296875 56.542969 C 288.425781 56.835938 284.253906 81.152344 300.660156 87.597656 L 300.660156 121.289062 L 279.050781 112.207031 C 277.734375 111.621094 276.195312 111.621094 274.804688 112.207031 L 251.660156 121.875 L 251.660156 100.78125 C 251.660156 98.511719 250.195312 96.460938 248.144531 95.652344 L 220.09375 83.933594 L 220.09375 64.597656 L 241.992188 39.84375 L 258.910156 39.84375 C 265.210938 56.394531 289.671875 52.292969 289.964844 34.351562 C 289.597656 16.40625 265.210938 12.304688 258.910156 28.855469 L 239.503906 28.855469 C 237.964844 28.855469 236.425781 29.515625 235.402344 30.6875 L 210.5 58.8125 C 209.617188 59.839844 209.105469 61.082031 209.105469 62.476562 L 209.105469 79.320312 L 192.992188 72.582031 L 192.992188 36.179688 C 212.988281 29.589844 208.8125 0.511719 187.5 0 C 166.1875 0.511719 162.011719 29.589844 182.007812 36.179688 L 182.007812 72.582031 L 165.453125 79.46875 L 165.453125 62.476562 C 165.453125 61.15625 164.941406 59.839844 164.0625 58.8125 L 139.160156 30.6875 C 138.136719 29.515625 136.597656 28.855469 135.058594 28.855469 L 111.621094 28.855469 C 105.324219 12.304688 80.859375 16.40625 80.566406 34.351562 C 80.933594 52.292969 105.324219 56.394531 111.621094 39.84375 L 132.570312 39.84375 L 154.46875 64.597656 L 154.46875 84.082031 L 126.710938 95.726562 C 124.660156 96.53125 123.339844 98.582031 123.339844 100.78125 L 123.339844 119.96875 L 100.195312 110.300781 C 98.878906 109.714844 97.339844 109.714844 95.949219 110.300781 L 75.804688 118.652344 L 75.804688 87.597656 C 92.359375 81.296875 88.257812 56.835938 70.3125 56.542969 C 52.367188 56.910156 48.265625 81.296875 64.820312 87.597656 L 64.820312 123.265625 L 37.355469 134.691406 C 35.304688 135.496094 33.839844 137.546875 33.839844 139.820312 L 33.839844 154.539062 C 33.839844 161.644531 44.824219 161.644531 44.824219 154.539062 L 44.824219 148.09375 L 92.503906 168.015625 L 92.503906 223.679688 L 44.824219 203.757812 L 44.824219 188.011719 C 44.824219 180.90625 33.839844 180.90625 33.839844 188.011719 L 33.839844 207.421875 C 33.839844 209.617188 35.15625 211.667969 37.207031 212.476562 L 59.914062 221.921875 L 37.28125 231.371094 C 35.230469 232.25 33.910156 234.226562 33.910156 236.425781 L 33.910156 304.027344 C 33.910156 306.226562 35.230469 308.277344 37.28125 309.082031 L 95.949219 333.542969 C 97.265625 334.058594 98.878906 334.128906 100.195312 333.542969 L 123.339844 323.875 L 123.339844 344.96875 C 123.339844 347.167969 124.660156 349.21875 126.710938 350.023438 L 185.375 374.488281 C 186.695312 375.074219 188.304688 375.074219 189.625 374.488281 L 248.292969 350.097656 C 250.34375 349.21875 251.660156 347.242188 251.660156 345.042969 L 251.660156 325.855469 L 274.804688 335.523438 C 276.125 336.035156 277.734375 336.109375 279.054688 335.523438 L 297.875 327.683594 C 304.394531 324.976562 300.21875 314.792969 293.628906 317.578125 L 282.421875 322.265625 L 282.421875 266.601562 L 330.101562 246.679688 L 330.101562 302.34375 L 321.679688 305.859375 C 315.234375 308.570312 319.554688 318.675781 325.929688 315.964844 L 337.792969 311.058594 C 339.84375 310.179688 341.164062 308.203125 341.164062 306.003906 L 341.164062 238.402344 C 341.164062 236.132812 339.699219 234.082031 337.648438 233.277344 L 315.160156 223.902344 Z M 306.296875 67.527344 C 309.082031 67.527344 311.351562 69.800781 311.351562 72.582031 C 311.132812 79.246094 301.539062 79.246094 301.246094 72.582031 C 301.246094 69.800781 303.515625 67.527344 306.296875 67.527344 Z M 273.925781 29.296875 C 276.707031 29.296875 278.980469 31.566406 278.980469 34.351562 C 278.757812 41.015625 269.164062 41.015625 268.871094 34.351562 C 268.871094 31.566406 271.140625 29.296875 273.925781 29.296875 Z M 96.605469 39.402344 C 93.824219 39.402344 91.550781 37.132812 91.550781 34.351562 C 91.773438 27.683594 101.367188 27.683594 101.660156 34.351562 C 101.585938 37.132812 99.390625 39.402344 96.605469 39.402344 Z M 70.3125 67.527344 C 73.09375 67.527344 75.367188 69.800781 75.367188 72.582031 C 75.144531 79.246094 65.550781 79.246094 65.257812 72.582031 C 65.257812 69.800781 67.527344 67.527344 70.3125 67.527344 Z M 251.660156 217.308594 L 251.660156 180.835938 C 251.660156 178.636719 250.34375 176.660156 248.289062 175.78125 L 223.753906 165.527344 L 223.753906 150 L 271.433594 169.921875 L 271.433594 225.585938 Z M 187.5 295.972656 L 143.113281 277.441406 L 163.621094 268.871094 L 185.375 277.953125 C 186.695312 278.539062 188.304688 278.539062 189.625 277.953125 L 211.375 268.871094 L 231.882812 277.441406 Z M 103.5625 167.945312 L 151.246094 148.023438 L 151.246094 165.527344 L 126.707031 175.78125 C 124.65625 176.585938 123.339844 178.636719 123.339844 180.835938 L 123.339844 214.011719 L 103.5625 223.023438 Z M 187.5 162.304688 L 216.0625 174.242188 C 216.136719 174.242188 216.210938 174.316406 216.285156 174.316406 L 231.882812 180.835938 L 187.5 199.363281 L 143.113281 180.835938 L 158.714844 174.316406 C 158.789062 174.316406 158.863281 174.242188 158.933594 174.242188 Z M 134.324219 244.773438 L 134.324219 189.109375 L 182.007812 209.03125 L 182.007812 264.695312 Z M 192.992188 264.625 L 192.992188 208.960938 L 240.671875 189.039062 L 240.671875 244.703125 Z M 330.101562 205.664062 L 282.421875 225.585938 L 282.421875 169.921875 L 330.101562 150 Z M 276.929688 123.265625 L 321.3125 141.796875 L 276.929688 160.328125 L 232.542969 141.796875 Z M 216.136719 136.742188 C 214.085938 137.621094 212.695312 139.746094 212.769531 141.941406 L 212.769531 160.984375 L 192.992188 152.710938 L 192.992188 128.90625 L 240.671875 108.984375 L 240.671875 126.488281 Z M 187.5 119.3125 L 143.113281 100.78125 L 187.5 82.25 L 231.882812 100.78125 Z M 187.5 10.984375 C 191.675781 10.984375 195.042969 14.355469 195.042969 18.53125 C 194.605469 28.492188 180.394531 28.492188 179.957031 18.53125 C 179.957031 14.355469 183.324219 10.984375 187.5 10.984375 Z M 134.324219 108.984375 C 140.113281 111.402344 177.246094 126.929688 182.007812 128.90625 L 182.007812 152.710938 L 162.230469 160.984375 L 162.230469 139.890625 C 162.230469 137.621094 160.765625 135.570312 158.714844 134.765625 L 134.324219 124.511719 Z M 98.070312 121.289062 L 142.457031 139.820312 L 98.070312 158.347656 L 53.6875 139.820312 Z M 95.582031 236.792969 C 97.410156 237.523438 99.902344 237.304688 101.441406 236.058594 L 123.339844 226.097656 L 123.339844 244.410156 L 98.070312 254.957031 L 53.6875 236.425781 L 74.195312 227.855469 Z M 44.898438 244.703125 L 92.578125 264.625 L 92.578125 320.289062 L 44.898438 300.367188 Z M 103.5625 320.214844 L 103.5625 264.550781 L 128.464844 254.148438 L 149.414062 262.867188 L 126.707031 272.386719 C 124.65625 273.191406 123.339844 275.242188 123.339844 277.441406 L 123.339844 312.011719 Z M 134.324219 315.746094 C 134.324219 315.671875 134.324219 315.601562 134.324219 315.527344 L 134.324219 285.71875 L 182.007812 305.640625 L 182.007812 361.304688 L 134.324219 341.382812 Z M 192.992188 361.230469 L 192.992188 305.566406 L 240.671875 285.644531 L 240.671875 341.308594 Z M 251.660156 277.441406 C 251.660156 275.242188 250.34375 273.191406 248.289062 272.386719 L 225.660156 262.9375 L 244.261719 255.175781 L 271.507812 266.527344 L 271.507812 322.191406 L 251.734375 313.914062 Z M 321.386719 238.402344 L 277 256.933594 L 251.734375 246.386719 L 251.734375 229.246094 L 274.878906 238.914062 C 276.195312 239.5 277.808594 239.5 279.125 238.914062 L 300.878906 229.832031 Z M 321.386719 238.402344"/></svg>