<svg xmlns="http://www.w3.org/2000/svg" width="100" viewBox="0 0 375 375" height="100" version="1.0"><path fill="#0C417C" d="M 369.507812 288.847656 C 372.542969 288.847656 375 286.390625 375 283.355469 L 375 29.902344 C 375 12.695312 360.707031 1.019531 344.292969 0.101562 L 220.449219 0.101562 C 210.578125 0.136719 201.300781 4 194.320312 10.976562 L 146.539062 58.761719 C 145.648438 56.65625 144.351562 54.722656 142.683594 53.0625 L 132.148438 42.574219 C 125.195312 35.648438 113.878906 35.648438 106.925781 42.574219 L 101.386719 48.085938 L 63.703125 10.398438 C 57.074219 3.773438 48.265625 0.125 38.890625 0.125 L 5.492188 0.125 C 2.460938 0.125 0 2.582031 0 5.617188 L 0 31.632812 C 0 34.664062 2.460938 37.125 5.492188 37.125 L 29.84375 37.125 C 33.136719 37.125 36.230469 38.40625 38.558594 40.734375 L 73.589844 75.765625 L 69.953125 79.386719 C 63.113281 86.195312 63.101562 97.773438 69.953125 104.597656 L 80.488281 115.089844 C 82.386719 116.980469 84.617188 118.355469 86.988281 119.214844 C 83.929688 123.984375 82.289062 129.53125 82.289062 135.332031 L 82.289062 344.894531 C 82.289062 361.4375 95.796875 374.898438 112.398438 374.898438 L 344.890625 374.898438 C 361.492188 374.898438 375 361.4375 375 344.894531 L 375 312.621094 C 375 305.519531 364.011719 305.519531 364.011719 312.621094 L 364.011719 344.894531 C 364.011719 355.378906 355.433594 363.910156 344.890625 363.910156 L 112.398438 363.910156 C 101.855469 363.910156 93.277344 355.378906 93.277344 344.894531 L 93.277344 135.332031 C 93.277344 130.257812 95.261719 125.484375 98.867188 121.894531 L 202.089844 18.746094 C 207.003906 13.832031 213.539062 11.113281 220.488281 11.085938 L 344.320312 11.085938 C 354.796875 10.730469 364.011719 19.605469 364.011719 29.902344 L 364.011719 283.355469 C 364.011719 286.390625 366.472656 288.847656 369.507812 288.847656 Z M 46.324219 32.964844 C 41.921875 28.5625 36.070312 26.140625 29.84375 26.140625 L 10.988281 26.140625 L 10.988281 11.109375 L 38.890625 11.109375 C 45.328125 11.109375 51.382812 13.617188 55.933594 18.167969 L 93.601562 55.835938 L 81.375 68.015625 Z M 77.707031 96.816406 C 75.03125 93.601562 75.03125 90.386719 77.707031 87.171875 L 85.242188 79.664062 C 85.246094 79.664062 85.25 79.660156 85.25 79.660156 C 85.25 79.65625 85.253906 79.65625 85.253906 79.652344 L 114.675781 50.355469 C 117.917969 47.6875 121.15625 47.6875 124.398438 50.355469 L 134.929688 60.847656 C 137.339844 63.695312 137.578125 66.628906 135.644531 69.65625 L 97.730469 107.523438 C 95.035156 109.96875 90.84375 109.894531 88.238281 107.304688 Z M 77.707031 96.816406"/><path fill="#0C417C" d="M 349.515625 74.808594 L 349.515625 30.222656 C 349.515625 26.960938 346.820312 25.4375 344.011719 25.003906 L 220.527344 25.003906 C 216.496094 25.015625 212.710938 26.59375 209.863281 29.441406 L 168.3125 70.917969 C 166.738281 72.488281 166.265625 74.851562 167.117188 76.90625 C 167.964844 78.960938 169.96875 80.300781 172.191406 80.300781 L 344.023438 80.300781 C 347.058594 80.300781 349.519531 77.839844 349.519531 74.808594 Z M 338.53125 69.3125 L 185.46875 69.3125 L 217.628906 37.210938 C 218.425781 36.417969 219.441406 35.992188 220.558594 35.988281 L 338.53125 35.988281 Z M 338.53125 69.3125"/><path fill="#0C417C" d="M 5.492188 157.28125 C 2.460938 157.28125 0 159.738281 0 162.773438 L 0 238.027344 C 0.253906 245.300781 10.738281 245.292969 10.988281 238.027344 L 10.988281 162.773438 C 10.988281 159.738281 8.527344 157.28125 5.492188 157.28125 Z M 5.492188 157.28125"/><path fill="#0C417C" d="M 5.492188 259.480469 C 2.460938 259.480469 0 261.9375 0 264.972656 L 0 288.789062 C 0.253906 296.0625 10.738281 296.054688 10.988281 288.789062 L 10.988281 264.972656 C 10.988281 261.9375 8.527344 259.480469 5.492188 259.480469 Z M 5.492188 259.480469"/><path fill="#0C417C" d="M 5.492188 61.289062 C 2.460938 61.289062 0 63.746094 0 66.78125 L 0 90.59375 C 0.253906 97.867188 10.738281 97.863281 10.988281 90.59375 L 10.988281 66.78125 C 10.988281 63.746094 8.527344 61.289062 5.492188 61.289062 Z M 5.492188 61.289062"/><path fill="#0C417C" d="M 334.449219 220.296875 C 334.449219 190.449219 322.027344 163.445312 302.078125 144.191406 L 325.347656 120.921875 C 330.371094 115.898438 322.601562 108.128906 317.582031 113.152344 L 293.769531 136.964844 C 257.714844 107.40625 200.160156 107.125 163.507812 136.949219 L 139.710938 113.152344 C 134.6875 108.128906 126.917969 115.898438 131.941406 120.917969 L 155.1875 144.164062 C 150.527344 148.652344 146.253906 153.589844 142.4375 158.941406 C 138.316406 164.726562 147.261719 171.101562 151.382812 165.320312 C 204.769531 90.730469 323.203125 128.460938 323.464844 220.296875 C 323.464844 272.578125 280.929688 315.113281 228.644531 315.113281 C 164.753906 315.945312 117.597656 250.074219 138.804688 189.890625 C 141.082031 183.164062 130.675781 179.644531 128.398438 186.371094 C 114.917969 224.171875 126.75 269.863281 154.984375 296.175781 L 131.941406 319.214844 C 126.917969 324.238281 134.6875 332.007812 139.710938 326.984375 L 163.265625 303.429688 C 199.628906 333.40625 257.671875 333.402344 294.027344 303.429688 L 317.582031 326.984375 C 322.601562 332.007812 330.371094 324.238281 325.351562 319.214844 L 302.308594 296.175781 C 322.121094 276.9375 334.449219 250.027344 334.449219 220.296875 Z M 334.449219 220.296875"/><path fill="#0C417C" d="M 156.574219 221.011719 C 155.546875 222.046875 154.96875 223.445312 154.972656 224.902344 C 155.007812 251.03125 169.148438 275.363281 191.875 288.40625 C 194.375 289.84375 197.921875 288.890625 199.367188 286.394531 L 228.652344 235.792969 L 258.03125 286.367188 C 259.480469 288.863281 263.023438 289.808594 265.519531 288.371094 C 276.667969 281.957031 285.980469 272.660156 292.453125 261.480469 C 298.925781 250.296875 302.335938 237.605469 302.316406 224.777344 C 302.3125 221.746094 299.851562 219.289062 296.820312 219.292969 L 238.175781 219.339844 L 267.433594 168.789062 C 268.839844 165.722656 268.167969 163.21875 265.414062 161.269531 C 242.691406 148.234375 214.476562 148.25 191.769531 161.308594 C 189.015625 163.257812 188.347656 165.765625 189.757812 168.828125 L 219.105469 219.351562 L 160.460938 219.398438 C 159.003906 219.402344 157.605469 219.980469 156.574219 221.011719 Z M 291.09375 230.285156 C 289.601562 248.324219 279.5625 265.617188 264.660156 275.910156 L 238.183594 230.324219 Z M 255.039062 168.269531 L 228.636719 213.890625 L 202.152344 168.292969 C 218.871094 160.558594 238.3125 160.550781 255.039062 168.269531 Z M 219.113281 230.339844 L 192.71875 275.945312 C 177.617188 265.414062 167.871094 248.664062 166.210938 230.382812 Z M 219.113281 230.339844"/></svg>