<svg id="svg" version="1.1" xmlns="http://www.w3.org/2000/svg" xmlns:xlink="http://www.w3.org/1999/xlink"
     width="100" height="100" viewBox="0, 0, 400,400">
    <g id="svgg">
        <path id="path0"
              d="M30.860 161.294 C 30.815 194.850,30.919 206.434,31.278 207.775 L 31.756 209.562 37.879 209.681 L 44.001 209.800 44.001 165.300 L 44.000 120.800 37.808 120.800 C 30.894 120.800,31.476 121.059,31.070 117.800 C 30.987 117.140,30.893 136.712,30.860 161.294 M330.860 161.294 C 330.815 194.850,330.919 206.434,331.278 207.775 L 331.756 209.562 337.879 209.681 L 344.001 209.800 344.001 165.300 L 344.000 120.800 337.808 120.800 C 330.894 120.800,331.476 121.059,331.070 117.800 C 330.987 117.140,330.893 136.712,330.860 161.294 M380.860 161.294 C 380.815 194.850,380.919 206.434,381.278 207.775 L 381.756 209.562 387.879 209.681 L 394.001 209.800 394.001 165.300 L 394.000 120.800 387.808 120.800 C 380.894 120.800,381.476 121.059,381.070 117.800 C 380.987 117.140,380.893 136.712,380.860 161.294 M18.800 118.800 L 18.600 120.600 12.400 120.670 L 6.200 120.740 6.098 165.270 L 5.995 209.800 12.198 209.672 L 18.400 209.544 18.436 210.672 L 18.472 211.800 18.838 210.538 C 19.052 209.798,19.161 190.152,19.102 163.138 C 19.046 137.762,18.910 117.810,18.800 118.800 M68.721 117.900 C 68.586 118.395,68.503 118.841,68.537 118.891 C 68.572 118.941,78.050 119.076,89.600 119.191 C 107.907 119.373,110.600 119.477,110.600 120.000 C 110.600 120.527,107.270 120.611,83.400 120.692 L 56.200 120.783 56.098 165.292 L 55.995 209.800 62.698 209.690 C 67.308 209.614,69.213 209.706,68.800 209.984 C 68.362 210.279,68.341 210.389,68.724 210.394 C 69.012 210.397,69.155 210.550,69.041 210.733 C 68.928 210.917,69.052 211.067,69.318 211.067 C 69.583 211.067,69.826 210.647,69.858 210.133 C 69.893 209.557,69.693 209.200,69.334 209.200 C 69.014 209.200,68.866 209.017,69.004 208.793 C 69.142 208.570,69.451 208.508,69.689 208.655 C 69.932 208.805,70.010 208.740,69.866 208.507 C 69.725 208.278,69.873 207.871,70.196 207.603 C 70.628 207.245,70.677 206.918,70.382 206.367 C 70.068 205.779,70.156 205.510,70.791 205.113 C 71.236 204.835,71.600 204.381,71.600 204.104 C 71.600 203.827,71.737 203.600,71.904 203.600 C 72.071 203.600,72.444 203.221,72.733 202.758 C 73.022 202.295,73.066 202.036,72.830 202.182 C 71.992 202.699,72.424 202.093,74.344 200.060 C 75.413 198.927,76.583 198.000,76.944 198.000 C 77.305 198.000,77.600 197.820,77.600 197.600 C 77.600 197.380,77.960 197.200,78.400 197.200 C 78.840 197.200,79.200 197.020,79.200 196.800 C 79.200 196.580,79.470 196.400,79.800 196.400 C 80.130 196.400,80.400 196.220,80.400 196.000 C 80.400 195.780,80.835 195.600,81.367 195.600 C 81.898 195.600,82.397 195.409,82.474 195.177 C 82.662 194.615,92.544 194.632,92.731 195.194 C 92.806 195.417,93.212 195.600,93.633 195.600 C 94.055 195.600,94.400 195.780,94.400 196.000 C 94.400 196.220,94.535 196.379,94.700 196.353 C 95.390 196.244,95.892 196.439,96.625 197.100 C 97.051 197.485,98.040 198.229,98.821 198.754 C 99.603 199.278,100.639 200.313,101.125 201.054 C 101.610 201.794,102.186 202.400,102.404 202.400 C 102.622 202.400,102.800 202.720,102.800 203.112 C 102.800 203.503,103.160 204.083,103.600 204.400 C 104.082 204.747,104.400 205.435,104.400 206.131 C 104.400 206.982,104.555 207.226,104.987 207.060 C 105.310 206.936,105.698 207.035,105.849 207.279 C 106.010 207.540,105.942 207.612,105.686 207.453 C 105.421 207.289,105.272 207.491,105.307 207.964 C 105.368 208.775,105.968 208.892,106.517 208.200 C 106.694 207.976,106.782 208.153,106.717 208.600 C 106.605 209.362,106.859 209.405,112.100 209.511 C 116.002 209.590,117.600 209.491,117.600 209.168 C 117.600 208.919,117.864 208.816,118.187 208.940 C 118.510 209.064,118.881 208.993,119.011 208.783 C 119.141 208.572,118.922 208.394,118.524 208.387 C 117.834 208.375,117.834 208.349,118.505 207.839 C 119.176 207.330,119.272 205.938,118.677 205.344 C 118.525 205.191,118.400 204.477,118.400 203.757 C 118.400 203.037,118.220 202.336,118.000 202.200 C 117.780 202.064,117.600 201.603,117.600 201.176 C 117.600 200.749,117.420 200.400,117.200 200.400 C 116.980 200.400,116.800 200.135,116.800 199.812 C 116.800 198.773,114.138 194.430,112.719 193.153 C 112.324 192.797,112.000 192.202,112.000 191.829 C 112.000 191.457,111.820 191.264,111.600 191.400 C 111.380 191.536,111.200 191.451,111.200 191.210 C 111.200 190.641,108.557 188.000,107.988 188.000 C 107.746 188.000,107.094 187.460,106.539 186.800 C 105.983 186.140,105.275 185.600,104.964 185.600 C 104.654 185.600,104.400 185.420,104.400 185.200 C 104.400 184.980,104.130 184.800,103.800 184.800 C 103.470 184.800,103.200 184.620,103.200 184.400 C 103.200 184.180,102.851 184.000,102.424 184.000 C 101.997 184.000,101.536 183.820,101.400 183.600 C 101.264 183.380,100.803 183.200,100.376 183.200 C 99.949 183.200,99.600 183.020,99.600 182.800 C 99.600 182.580,99.161 182.400,98.624 182.400 C 98.087 182.400,97.536 182.220,97.400 182.000 C 97.264 181.780,96.623 181.600,95.976 181.600 C 95.329 181.600,94.800 181.428,94.800 181.218 C 94.800 180.985,92.107 180.885,87.900 180.963 C 80.872 181.093,78.000 181.406,78.000 182.044 C 78.000 182.240,77.561 182.400,77.024 182.400 C 76.487 182.400,75.936 182.580,75.800 182.800 C 75.664 183.020,75.203 183.200,74.776 183.200 C 74.349 183.200,74.000 183.380,74.000 183.600 C 74.000 183.820,73.640 184.000,73.200 184.000 C 72.760 184.000,72.400 184.180,72.400 184.400 C 72.400 184.620,72.203 184.800,71.962 184.800 C 71.721 184.800,71.001 185.172,70.362 185.627 L 69.200 186.454 69.200 180.276 C 69.200 173.453,69.149 173.594,71.902 172.735 C 72.836 172.444,73.600 172.069,73.600 171.903 C 73.600 171.736,73.992 171.600,74.472 171.600 C 74.951 171.600,75.986 171.404,76.772 171.164 C 80.088 170.151,80.732 170.033,83.400 169.944 C 84.940 169.893,86.425 169.682,86.700 169.476 C 87.011 169.243,87.389 169.246,87.700 169.485 C 87.975 169.695,89.728 169.911,91.596 169.964 C 93.464 170.018,95.174 170.192,95.396 170.351 C 95.618 170.511,96.430 170.692,97.200 170.755 C 97.970 170.817,98.771 171.032,98.980 171.234 C 99.189 171.435,99.763 171.600,100.256 171.600 C 100.749 171.600,101.264 171.780,101.400 172.000 C 101.536 172.220,101.928 172.400,102.272 172.400 C 103.061 172.400,110.554 175.990,110.733 176.455 C 110.807 176.645,111.033 176.800,111.237 176.800 C 111.441 176.800,112.172 177.340,112.863 178.000 C 113.554 178.660,114.281 179.200,114.479 179.200 C 115.110 179.200,121.600 186.050,121.600 186.716 C 121.600 186.885,121.960 187.283,122.400 187.600 C 122.840 187.917,123.200 188.407,123.200 188.688 C 123.200 188.970,123.380 189.200,123.600 189.200 C 123.820 189.200,124.000 189.436,124.000 189.725 C 124.000 190.013,124.360 190.636,124.800 191.108 C 125.240 191.580,125.601 192.199,125.601 192.483 C 125.602 192.767,125.960 193.585,126.396 194.300 C 126.832 195.015,127.079 195.600,126.945 195.600 C 126.811 195.600,126.939 195.885,127.228 196.233 C 127.517 196.582,127.780 197.228,127.813 197.670 C 127.845 198.112,128.036 198.592,128.236 198.737 C 128.436 198.882,128.640 199.450,128.688 200.000 C 128.867 202.031,129.295 204.000,129.559 204.000 C 129.904 204.000,130.070 205.196,130.131 208.132 C 130.157 209.414,130.244 210.268,130.324 210.029 C 130.403 209.790,130.633 209.697,130.834 209.821 C 131.035 209.945,131.200 209.902,131.200 209.724 C 131.200 209.246,143.339 209.321,143.708 209.800 C 143.878 210.020,143.976 208.637,143.927 206.727 C 143.878 204.816,143.694 203.342,143.519 203.450 C 143.343 203.559,143.200 202.657,143.200 201.447 C 143.200 200.237,143.020 199.136,142.800 199.000 C 142.580 198.864,142.400 198.133,142.400 197.376 C 142.400 196.619,142.220 196.000,142.000 196.000 C 141.780 196.000,141.599 195.505,141.598 194.900 C 141.596 194.295,141.326 193.284,140.998 192.654 C 140.669 192.024,140.400 191.340,140.400 191.135 C 140.400 190.929,140.040 190.016,139.600 189.106 C 139.160 188.195,138.800 187.229,138.800 186.958 C 138.800 186.688,138.665 186.407,138.500 186.333 C 138.335 186.260,137.767 185.345,137.237 184.300 C 136.708 183.255,136.123 182.400,135.937 182.400 C 135.752 182.400,135.600 182.080,135.600 181.688 C 135.600 181.297,135.240 180.717,134.800 180.400 C 134.360 180.083,134.000 179.627,134.000 179.387 C 134.000 179.146,133.460 178.432,132.800 177.800 C 132.140 177.168,131.600 176.498,131.600 176.311 C 131.600 175.618,121.864 166.442,120.701 166.039 C 120.445 165.951,119.879 165.546,119.443 165.139 C 119.006 164.733,118.413 164.400,118.125 164.400 C 117.836 164.400,117.600 164.239,117.600 164.042 C 117.600 163.284,106.626 158.400,104.924 158.400 C 104.416 158.400,104.000 158.220,104.000 158.000 C 104.000 157.780,103.381 157.600,102.624 157.600 C 101.867 157.600,101.136 157.420,101.000 157.200 C 100.864 156.980,99.953 156.800,98.976 156.800 C 97.999 156.800,97.200 156.620,97.200 156.400 C 97.200 156.145,93.867 156.000,88.000 156.000 C 82.133 156.000,78.800 156.145,78.800 156.400 C 78.800 156.620,77.900 156.800,76.800 156.800 C 75.700 156.800,74.800 156.980,74.800 157.200 C 74.800 157.420,74.080 157.600,73.200 157.600 C 72.320 157.600,71.600 157.780,71.600 158.000 C 71.600 158.220,71.060 158.400,70.400 158.400 L 69.200 158.400 69.200 144.995 L 69.200 131.591 85.100 131.695 L 101.000 131.800 101.127 133.400 C 101.196 134.280,101.421 135.171,101.627 135.380 C 101.832 135.589,102.000 136.339,102.000 137.047 C 102.000 137.754,102.172 138.393,102.382 138.467 C 102.593 138.540,102.810 139.275,102.864 140.100 C 102.919 140.925,103.107 141.600,103.282 141.600 C 103.457 141.600,103.600 142.129,103.600 142.776 C 103.600 143.423,103.780 144.064,104.000 144.200 C 104.220 144.336,104.400 144.809,104.400 145.252 C 104.400 146.358,105.339 147.200,106.571 147.200 C 107.137 147.200,107.600 147.380,107.600 147.600 C 107.600 147.820,108.140 148.000,108.800 148.000 C 109.460 148.000,110.000 148.180,110.000 148.400 C 110.000 148.620,110.450 148.800,111.000 148.800 C 111.550 148.800,112.000 148.980,112.000 149.200 C 112.000 149.420,112.324 149.600,112.720 149.600 C 113.614 149.600,115.593 150.494,115.597 150.900 C 115.599 151.065,115.960 151.200,116.400 151.200 C 116.840 151.200,117.200 151.380,117.200 151.600 C 117.200 151.820,117.650 152.000,118.200 152.000 C 118.750 152.000,119.201 152.135,119.203 152.300 C 119.207 152.657,121.142 153.600,121.869 153.600 C 122.615 153.600,126.000 151.896,126.000 151.520 C 126.000 151.344,126.360 151.200,126.800 151.200 C 127.240 151.200,127.600 151.042,127.600 150.849 C 127.600 150.655,128.140 150.273,128.800 150.000 C 129.460 149.727,130.003 149.390,130.006 149.251 C 130.010 149.113,130.910 148.560,132.006 148.021 C 133.103 147.483,134.000 146.898,134.000 146.721 C 134.000 145.551,136.244 147.474,144.385 155.620 C 152.566 163.805,154.443 166.000,153.263 166.000 C 153.077 166.000,152.495 166.855,151.968 167.900 C 151.442 168.945,150.905 169.890,150.776 170.000 C 150.646 170.110,150.104 171.010,149.570 172.000 C 149.037 172.990,148.387 174.026,148.126 174.302 C 147.866 174.579,147.538 175.164,147.399 175.602 C 147.260 176.041,146.978 176.400,146.773 176.400 C 146.320 176.400,146.270 179.472,146.718 179.749 C 146.893 179.858,147.629 181.173,148.353 182.673 C 149.077 184.173,150.014 186.092,150.435 186.938 C 150.856 187.784,151.200 188.819,151.200 189.238 C 151.200 189.657,151.380 190.000,151.600 190.000 C 151.820 190.000,152.000 190.540,152.000 191.200 C 152.000 191.860,152.180 192.400,152.400 192.400 C 152.620 192.400,152.800 192.863,152.800 193.429 C 152.800 194.575,153.625 195.600,154.548 195.600 C 154.881 195.600,155.264 195.780,155.400 196.000 C 155.536 196.220,156.267 196.400,157.024 196.400 C 157.781 196.400,158.400 196.580,158.400 196.800 C 158.400 197.020,159.120 197.200,160.000 197.200 C 160.880 197.200,161.600 197.380,161.600 197.600 C 161.600 197.820,162.309 198.000,163.176 198.000 C 164.043 198.000,164.864 198.180,165.000 198.400 C 165.136 198.620,165.672 198.800,166.191 198.800 C 168.369 198.800,168.400 198.881,168.400 204.619 C 168.400 207.743,168.566 210.055,168.800 210.200 C 169.020 210.336,169.200 210.257,169.200 210.024 C 169.200 209.745,171.185 209.600,175.000 209.600 L 180.800 209.600 180.840 210.700 L 180.880 211.800 181.200 210.800 C 181.376 210.250,181.538 204.895,181.560 198.900 L 181.600 188.000 180.400 188.000 C 179.740 188.000,179.200 187.820,179.200 187.600 C 179.200 187.380,178.480 187.200,177.600 187.200 C 176.720 187.200,176.000 187.020,176.000 186.800 C 176.000 186.580,175.280 186.400,174.400 186.400 C 173.520 186.400,172.800 186.220,172.800 186.000 C 172.800 185.780,172.170 185.600,171.400 185.600 C 170.630 185.600,170.000 185.420,170.000 185.200 C 170.000 184.980,169.280 184.800,168.400 184.800 C 167.520 184.800,166.800 184.620,166.800 184.400 C 166.800 184.180,166.289 184.000,165.664 184.000 C 164.532 184.000,163.600 182.817,163.600 181.381 C 163.600 181.062,163.420 180.800,163.200 180.800 C 162.980 180.800,162.800 180.455,162.800 180.033 C 162.800 179.612,162.575 179.162,162.300 179.033 C 161.900 178.847,161.900 178.753,162.300 178.567 C 162.575 178.438,162.800 177.988,162.800 177.567 C 162.800 177.145,162.980 176.800,163.200 176.800 C 163.420 176.800,163.600 176.522,163.600 176.183 C 163.600 175.844,163.960 175.180,164.400 174.708 C 164.840 174.236,165.200 173.613,165.200 173.325 C 165.200 173.036,165.380 172.800,165.600 172.800 C 165.820 172.800,166.000 172.530,166.000 172.200 C 166.000 171.870,166.159 171.600,166.353 171.600 C 166.548 171.600,166.813 171.285,166.942 170.900 C 167.187 170.174,168.179 168.407,169.323 166.662 C 169.687 166.106,170.346 165.008,170.788 164.221 L 171.591 162.792 154.818 145.994 C 138.554 129.707,138.002 129.200,136.623 129.298 C 135.841 129.354,135.201 129.496,135.201 129.614 C 135.199 130.046,132.902 131.170,132.592 130.889 C 132.416 130.730,132.401 130.825,132.559 131.100 C 132.812 131.538,132.596 131.668,131.770 131.574 C 131.643 131.559,131.217 131.919,130.823 132.374 C 130.429 132.828,129.712 133.200,129.229 133.200 C 128.747 133.200,128.464 133.380,128.600 133.600 C 128.736 133.820,128.567 134.000,128.224 134.000 C 127.881 134.000,127.600 134.180,127.600 134.400 C 127.600 134.620,127.274 134.800,126.875 134.800 C 126.477 134.800,125.802 135.120,125.375 135.510 C 122.970 137.713,119.200 138.472,119.200 136.752 C 119.200 136.614,118.705 136.392,118.100 136.261 C 116.570 135.928,116.042 135.506,115.887 134.493 C 115.814 134.013,115.629 133.496,115.477 133.344 C 115.325 133.191,115.200 132.593,115.200 132.013 C 115.200 131.434,115.021 130.781,114.802 130.562 C 114.584 130.344,114.371 129.633,114.330 128.982 C 114.289 128.332,114.116 127.611,113.945 127.381 C 113.775 127.150,113.592 126.307,113.538 125.507 C 113.484 124.706,113.296 124.141,113.120 124.249 C 112.944 124.358,112.800 123.907,112.800 123.247 C 112.800 122.587,112.620 121.936,112.400 121.800 C 112.180 121.664,112.000 121.193,112.000 120.753 C 112.000 120.313,111.820 120.064,111.600 120.200 C 111.202 120.446,111.047 119.943,111.169 118.800 C 111.226 118.267,111.188 118.267,110.823 118.800 C 110.546 119.204,110.410 119.237,110.406 118.900 C 110.401 118.507,106.016 118.400,89.829 118.400 C 70.560 118.400,69.249 118.356,69.113 117.700 C 68.995 117.131,68.922 117.168,68.721 117.900 M368.800 118.800 L 368.600 120.600 362.400 120.670 L 356.200 120.740 356.098 165.270 L 355.995 209.800 362.198 209.672 L 368.400 209.544 368.436 210.672 L 368.472 211.800 368.838 210.538 C 369.052 209.798,369.161 190.152,369.102 163.138 C 369.046 137.762,368.910 117.810,368.800 118.800 M272.364 118.831 C 272.054 119.027,271.957 119.191,272.149 119.194 C 272.341 119.197,272.276 119.468,272.004 119.796 C 271.732 120.123,271.361 120.300,271.180 120.187 C 270.998 120.075,270.932 120.437,271.033 120.992 C 271.133 121.546,271.032 122.000,270.808 122.000 C 270.584 122.000,270.400 121.730,270.400 121.400 C 270.400 120.892,269.422 120.800,264.000 120.800 C 260.000 120.800,257.600 120.950,257.600 121.200 C 257.600 121.420,257.269 121.285,256.863 120.900 C 256.458 120.515,256.215 120.020,256.322 119.800 C 256.446 119.547,256.353 119.550,256.070 119.809 C 255.824 120.033,255.563 120.612,255.489 121.094 C 255.415 121.577,254.944 122.328,254.441 122.765 C 253.938 123.201,253.644 123.747,253.787 123.979 C 253.930 124.210,253.756 124.400,253.400 124.400 C 253.044 124.400,252.861 124.575,252.993 124.789 C 253.126 125.003,252.852 125.498,252.385 125.889 C 251.917 126.280,251.169 127.309,250.721 128.175 C 250.274 129.041,249.658 129.999,249.354 130.303 C 249.049 130.608,248.800 131.125,248.800 131.452 C 248.800 131.779,248.620 131.936,248.400 131.800 C 248.180 131.664,248.000 131.841,248.000 132.193 C 248.000 132.546,247.817 133.051,247.593 133.317 C 246.581 134.517,244.873 137.395,245.026 137.642 C 245.119 137.793,244.919 138.022,244.581 138.152 C 244.243 138.282,243.643 139.110,243.248 139.992 C 242.853 140.875,242.396 141.462,242.232 141.298 C 242.068 141.134,241.993 141.210,242.067 141.467 C 242.219 142.001,240.368 145.200,239.906 145.200 C 239.738 145.200,239.600 145.470,239.600 145.800 C 239.600 146.130,239.454 146.400,239.275 146.400 C 239.096 146.400,238.702 147.030,238.400 147.800 C 238.098 148.570,237.704 149.200,237.525 149.200 C 237.346 149.200,237.200 149.470,237.200 149.800 C 237.200 150.130,237.042 150.400,236.849 150.400 C 236.655 150.400,236.273 150.940,236.000 151.600 C 235.727 152.260,235.367 152.800,235.200 152.800 C 235.033 152.800,234.673 153.340,234.400 154.000 C 234.127 154.660,233.745 155.200,233.551 155.200 C 233.358 155.200,233.200 155.478,233.200 155.817 C 233.200 156.156,232.840 156.820,232.400 157.292 C 231.960 157.764,231.600 158.387,231.600 158.675 C 231.600 158.964,231.420 159.200,231.200 159.200 C 230.586 159.200,230.661 205.468,231.278 207.775 L 231.756 209.562 237.879 209.681 L 244.001 209.800 244.001 189.500 L 244.000 169.200 275.000 169.200 L 306.000 169.200 305.999 189.500 L 305.999 209.800 312.199 209.672 L 318.400 209.544 318.440 210.672 L 318.480 211.800 318.800 210.800 C 319.286 209.284,319.286 159.200,318.800 159.200 C 318.580 159.200,318.400 158.964,318.400 158.675 C 318.400 158.387,318.040 157.764,317.600 157.292 C 317.160 156.820,316.800 156.196,316.800 155.905 C 316.800 155.614,316.440 155.117,316.000 154.800 C 315.560 154.483,315.200 153.903,315.200 153.512 C 315.200 153.120,315.020 152.800,314.800 152.800 C 314.580 152.800,314.400 152.564,314.400 152.275 C 314.400 151.987,314.085 151.394,313.700 150.958 C 312.812 149.953,311.617 148.009,311.329 147.100 C 311.207 146.715,310.948 146.400,310.753 146.400 C 310.559 146.400,310.400 146.130,310.400 145.800 C 310.400 145.470,310.220 145.200,310.000 145.200 C 309.780 145.200,309.600 144.930,309.600 144.600 C 309.600 144.270,309.420 144.000,309.200 144.000 C 308.980 144.000,308.800 143.745,308.800 143.433 C 308.800 143.122,308.665 142.807,308.500 142.733 C 308.335 142.660,307.660 141.566,307.000 140.301 C 306.340 139.037,305.564 138.002,305.276 138.001 C 304.988 138.001,304.842 137.856,304.950 137.681 C 305.059 137.505,304.711 136.650,304.178 135.781 C 303.644 134.911,303.095 133.885,302.957 133.500 C 302.820 133.115,302.548 132.800,302.353 132.800 C 302.159 132.800,302.000 132.549,302.000 132.243 C 302.000 131.936,301.756 131.592,301.459 131.478 C 300.858 131.247,299.040 128.004,299.506 127.994 C 299.668 127.991,299.620 127.852,299.400 127.686 C 298.634 127.107,296.204 124.282,296.730 124.582 C 297.169 124.832,297.169 124.726,296.730 123.957 C 295.939 122.573,295.332 122.005,294.983 122.319 C 294.812 122.474,294.794 122.387,294.942 122.128 C 295.091 121.868,295.027 121.540,294.800 121.400 C 294.573 121.260,294.505 120.954,294.648 120.722 C 294.821 120.443,294.698 120.418,294.286 120.649 C 293.943 120.842,290.454 120.910,286.531 120.800 C 278.347 120.570,278.537 120.520,279.659 122.615 C 280.126 123.487,280.475 124.290,280.434 124.400 C 280.393 124.510,280.786 125.140,281.306 125.800 C 281.827 126.460,282.378 127.270,282.531 127.600 C 282.684 127.930,283.122 128.678,283.504 129.261 C 284.816 131.263,286.400 134.101,286.400 134.450 C 286.400 134.643,286.580 134.800,286.800 134.800 C 287.020 134.800,287.200 135.036,287.200 135.325 C 287.200 135.613,287.560 136.236,288.000 136.708 C 288.440 137.180,288.800 137.754,288.800 137.983 C 288.800 138.212,288.980 138.400,289.200 138.400 C 289.420 138.400,289.600 138.670,289.600 139.000 C 289.600 139.330,289.736 139.600,289.902 139.600 C 290.069 139.600,290.460 140.185,290.772 140.900 C 291.084 141.615,291.668 142.491,292.070 142.847 C 292.471 143.203,292.800 143.788,292.800 144.147 C 292.800 144.506,292.980 144.800,293.200 144.800 C 293.420 144.800,293.571 144.935,293.536 145.100 C 293.432 145.594,294.112 146.948,294.880 147.775 C 295.276 148.202,295.600 148.787,295.600 149.075 C 295.600 149.364,295.780 149.600,296.000 149.600 C 296.220 149.600,296.400 149.763,296.400 149.963 C 296.400 150.162,297.209 151.557,298.198 153.063 L 299.996 155.800 275.335 155.903 C 261.771 155.960,250.599 155.932,250.509 155.842 C 250.344 155.677,251.197 153.975,251.632 153.600 C 251.760 153.490,252.119 152.815,252.430 152.100 C 252.741 151.385,253.131 150.800,253.298 150.800 C 253.464 150.800,253.600 150.545,253.600 150.233 C 253.600 149.922,253.767 149.607,253.970 149.533 C 254.174 149.460,254.399 149.137,254.470 148.816 C 254.542 148.494,254.915 147.875,255.300 147.440 C 255.685 147.005,256.000 146.413,256.000 146.125 C 256.000 145.836,256.210 145.600,256.467 145.600 C 256.723 145.600,256.813 145.480,256.666 145.332 C 256.519 145.185,256.697 144.735,257.061 144.332 C 257.426 143.930,257.566 143.600,257.373 143.600 C 257.180 143.600,257.422 143.320,257.911 142.977 C 258.400 142.635,258.800 142.087,258.800 141.761 C 258.800 141.434,259.131 140.811,259.536 140.377 C 259.941 139.942,260.518 139.095,260.819 138.493 C 261.119 137.892,261.627 137.084,261.947 136.697 C 262.543 135.977,262.986 135.247,264.308 132.800 C 266.145 129.401,266.926 128.179,267.453 127.875 C 267.763 127.697,267.920 127.394,267.802 127.203 C 267.683 127.011,267.954 126.598,268.402 126.283 C 268.916 125.924,269.125 125.469,268.966 125.056 C 268.797 124.616,268.926 124.400,269.357 124.400 C 269.711 124.400,269.979 124.265,269.953 124.100 C 269.831 123.328,270.035 122.774,270.365 122.979 C 270.566 123.103,270.970 122.664,271.263 122.002 C 271.556 121.341,271.931 120.800,272.098 120.800 C 272.264 120.800,272.355 120.582,272.300 120.314 C 272.242 120.034,272.656 119.817,273.280 119.801 C 273.874 119.786,274.487 119.646,274.643 119.490 C 274.799 119.334,275.129 119.375,275.377 119.581 C 275.686 119.837,275.829 119.712,275.829 119.188 C 275.829 118.480,275.757 118.467,274.914 119.019 C 274.411 119.349,274.000 119.454,274.000 119.252 C 274.000 118.690,272.995 118.431,272.364 118.831 M268.400 187.400 L 268.400 194.000 275.000 194.000 L 281.600 194.000 281.600 187.400 L 281.600 180.800 275.000 180.800 L 268.400 180.800 268.400 187.400 M268.647 206.623 C 268.260 207.631,268.358 209.927,268.800 210.200 C 269.020 210.336,269.200 210.257,269.200 210.024 C 269.200 209.745,271.185 209.600,275.000 209.600 L 280.800 209.600 280.836 210.700 C 280.871 211.756,280.888 211.746,281.258 210.460 C 281.470 209.723,281.589 208.463,281.522 207.660 L 281.400 206.200 275.147 206.090 C 269.707 205.994,268.861 206.064,268.647 206.623 M105.623 210.228 C 105.905 210.567,105.900 210.788,105.607 210.931 C 105.372 211.046,105.410 211.094,105.690 211.037 C 106.429 210.887,106.546 209.733,105.823 209.733 C 105.384 209.733,105.328 209.872,105.623 210.228 M130.688 211.733 C 130.242 212.866,130.315 213.445,130.838 212.922 C 131.078 212.682,131.208 212.151,131.126 211.742 C 130.982 211.026,130.966 211.026,130.688 211.733 M105.554 211.700 C 105.284 212.293,105.335 214.000,105.624 214.000 C 105.831 214.000,106.000 213.460,106.000 212.800 C 106.000 211.819,105.765 211.238,105.554 211.700 M69.000 213.600 C 68.864 213.820,68.963 214.000,69.219 214.000 C 69.476 214.000,69.579 214.278,69.447 214.621 C 69.316 214.962,69.376 215.139,69.579 215.013 C 70.007 214.748,69.973 213.200,69.538 213.200 C 69.378 213.200,69.136 213.380,69.000 213.600 "
              stroke="none" fill="#487be6" fill-rule="evenodd"></path>
        <path id="path1"
              d="M69.400 6.400 C 69.264 6.620,68.724 6.800,68.200 6.800 C 67.676 6.800,67.136 6.980,67.000 7.200 C 66.864 7.420,66.403 7.600,65.976 7.600 C 65.549 7.600,65.200 7.780,65.200 8.000 C 65.200 8.220,64.930 8.400,64.600 8.400 C 64.270 8.400,64.000 8.580,64.000 8.800 C 64.000 9.020,63.812 9.200,63.583 9.200 C 62.968 9.200,62.166 9.911,59.800 12.553 C 59.580 12.799,59.145 13.495,58.832 14.100 C 58.520 14.705,58.115 15.200,57.932 15.200 C 57.750 15.200,57.600 15.549,57.600 15.976 C 57.600 16.403,57.420 16.864,57.200 17.000 C 56.980 17.136,56.800 17.676,56.800 18.200 C 56.800 18.724,56.620 19.264,56.400 19.400 C 56.148 19.556,56.000 24.004,56.000 31.424 L 56.000 43.200 45.900 43.242 C 32.727 43.296,31.087 43.344,30.555 43.689 C 30.311 43.849,29.546 44.022,28.855 44.075 C 28.165 44.127,27.600 44.312,27.600 44.485 C 27.600 44.658,27.165 44.800,26.633 44.800 C 26.102 44.800,25.604 44.988,25.527 45.218 C 25.451 45.448,24.986 45.666,24.494 45.703 C 24.002 45.740,23.600 45.912,23.600 46.085 C 23.600 46.258,23.227 46.400,22.771 46.400 C 21.893 46.400,20.800 47.264,20.800 47.959 C 20.800 48.188,20.519 48.267,20.176 48.135 C 19.755 47.974,19.477 48.184,19.321 48.782 C 19.146 49.449,19.005 49.536,18.751 49.134 C 18.497 48.734,18.411 48.726,18.406 49.100 C 18.403 49.375,18.124 49.600,17.787 49.600 C 17.451 49.600,17.072 49.869,16.946 50.198 C 16.819 50.526,16.600 50.734,16.458 50.658 C 16.316 50.583,15.630 51.124,14.934 51.860 C 13.805 53.056,13.756 53.286,14.655 53.166 C 14.796 53.147,15.063 53.372,15.249 53.666 C 15.506 54.072,15.589 54.026,15.594 53.476 C 15.598 53.005,15.774 52.857,16.100 53.053 C 16.458 53.268,16.449 53.167,16.067 52.696 C 15.573 52.087,17.491 52.044,42.067 52.119 L 68.600 52.200 68.827 55.400 C 68.951 57.160,69.086 51.085,69.127 41.900 C 69.167 32.715,69.342 25.200,69.515 25.200 C 69.688 25.200,69.872 24.650,69.923 23.979 C 70.046 22.359,72.343 20.047,73.951 19.925 C 74.608 19.875,75.056 19.691,74.949 19.517 C 74.841 19.343,131.114 19.200,200.000 19.200 C 283.396 19.200,325.165 19.334,325.000 19.600 C 324.853 19.838,325.329 20.000,326.176 20.000 C 326.959 20.000,327.600 20.180,327.600 20.400 C 327.600 20.620,327.900 20.800,328.267 20.800 C 328.633 20.800,328.817 20.917,328.674 21.059 C 328.531 21.202,328.766 21.624,329.196 21.997 C 329.626 22.369,330.021 23.243,330.074 23.937 C 330.127 24.632,330.312 25.200,330.485 25.200 C 330.658 25.200,330.831 32.445,330.869 41.300 C 330.907 50.155,331.042 56.230,331.169 54.800 L 331.400 52.200 357.385 52.114 C 377.413 52.048,383.439 52.140,383.672 52.514 C 383.838 52.781,384.294 53.008,384.687 53.019 C 385.079 53.029,385.368 53.216,385.328 53.434 C 385.289 53.653,385.783 54.184,386.427 54.616 C 387.071 55.047,387.598 55.625,387.599 55.900 C 387.599 56.175,387.774 56.400,387.987 56.400 C 388.515 56.400,387.995 55.114,387.225 54.513 C 386.881 54.245,386.742 54.020,386.916 54.013 C 387.089 54.006,386.999 53.749,386.716 53.442 C 386.432 53.135,386.092 52.949,385.960 53.028 C 385.828 53.108,385.482 52.727,385.190 52.182 C 384.833 51.514,384.433 51.263,383.964 51.412 C 383.581 51.533,383.134 51.417,382.972 51.154 C 382.792 50.863,382.846 50.781,383.111 50.945 C 383.349 51.092,383.639 51.060,383.755 50.873 C 384.048 50.399,382.709 50.423,382.100 50.904 C 381.825 51.120,381.600 51.161,381.600 50.993 C 381.600 50.825,381.915 50.449,382.300 50.157 C 382.754 49.812,382.819 49.621,382.483 49.613 C 382.199 49.606,381.575 49.236,381.097 48.790 C 380.619 48.345,379.997 48.069,379.714 48.178 C 379.431 48.286,379.200 48.111,379.200 47.787 C 379.200 47.464,378.919 47.200,378.576 47.200 C 378.233 47.200,378.064 47.020,378.200 46.800 C 378.340 46.573,378.004 46.400,377.424 46.400 C 376.861 46.400,376.400 46.243,376.400 46.050 C 376.400 45.747,374.595 45.135,373.400 45.034 C 373.180 45.015,372.856 44.775,372.680 44.500 C 372.504 44.225,371.769 44.000,371.047 44.000 C 370.324 44.000,369.598 43.865,369.433 43.700 C 369.081 43.348,367.551 43.302,354.100 43.244 L 344.000 43.200 344.000 31.424 C 344.000 24.004,343.852 19.556,343.600 19.400 C 343.380 19.264,343.200 18.724,343.200 18.200 C 343.200 17.676,343.020 17.136,342.800 17.000 C 342.580 16.864,342.400 16.403,342.400 15.976 C 342.400 15.549,342.220 15.200,342.000 15.200 C 341.780 15.200,341.600 14.930,341.600 14.600 C 341.600 14.270,341.420 14.000,341.200 14.000 C 340.980 14.000,340.845 13.862,340.900 13.692 C 341.048 13.238,337.177 9.467,335.900 8.821 C 335.295 8.515,334.800 8.115,334.800 7.932 C 334.800 7.750,334.451 7.600,334.024 7.600 C 333.597 7.600,333.136 7.420,333.000 7.200 C 332.864 6.980,332.313 6.800,331.776 6.800 C 331.239 6.800,330.800 6.620,330.800 6.400 C 330.800 6.134,287.008 6.000,200.224 6.000 C 113.604 6.000,69.564 6.135,69.400 6.400 M80.869 44.096 C 80.907 51.413,81.042 56.230,81.169 54.800 L 81.400 52.200 87.370 52.089 C 91.877 52.005,93.419 52.103,93.663 52.489 C 93.842 52.770,93.991 50.975,93.994 48.500 L 94.000 44.000 100.000 44.000 L 106.000 44.000 106.000 48.176 C 106.000 50.529,106.175 52.461,106.400 52.600 C 106.620 52.736,106.800 52.652,106.800 52.413 C 106.800 52.115,108.655 52.013,112.700 52.089 L 118.600 52.200 118.829 55.400 C 118.955 57.160,119.045 52.390,119.029 44.800 L 119.000 31.000 99.900 30.896 L 80.800 30.792 80.869 44.096 M130.869 44.096 C 130.907 51.413,131.042 56.230,131.169 54.800 L 131.400 52.200 137.370 52.089 C 141.877 52.005,143.419 52.103,143.663 52.489 C 143.842 52.770,143.991 50.975,143.994 48.500 L 144.000 44.000 150.000 44.000 L 156.000 44.000 156.000 48.176 C 156.000 50.529,156.175 52.461,156.400 52.600 C 156.620 52.736,156.800 52.652,156.800 52.413 C 156.800 52.115,158.655 52.013,162.700 52.089 L 168.600 52.200 168.829 55.400 C 168.955 57.160,169.045 52.390,169.029 44.800 L 169.000 31.000 149.900 30.896 L 130.800 30.792 130.869 44.096 M180.869 44.096 C 180.907 51.413,181.042 56.230,181.169 54.800 L 181.400 52.200 187.370 52.089 C 191.877 52.005,193.419 52.103,193.663 52.489 C 193.842 52.770,193.991 50.975,193.994 48.500 L 194.000 44.000 200.000 44.000 L 206.000 44.000 206.000 48.176 C 206.000 50.529,206.175 52.461,206.400 52.600 C 206.620 52.736,206.800 52.652,206.800 52.413 C 206.800 52.115,208.655 52.013,212.700 52.089 L 218.600 52.200 218.829 55.400 C 218.955 57.160,219.045 52.390,219.029 44.800 L 219.000 31.000 199.900 30.896 L 180.800 30.792 180.869 44.096 M11.756 55.802 C 10.600 57.101,10.446 57.585,11.409 56.894 C 11.815 56.603,13.319 54.398,13.109 54.402 C 13.049 54.403,12.440 55.033,11.756 55.802 M34.660 57.013 C 34.787 57.343,35.189 57.449,35.732 57.295 C 36.209 57.159,41.010 56.935,46.400 56.798 L 56.200 56.547 45.329 56.516 C 36.471 56.490,34.495 56.582,34.660 57.013 M353.600 56.803 C 358.990 56.938,363.791 57.159,364.268 57.295 C 364.822 57.452,365.213 57.342,365.348 56.992 C 365.524 56.533,363.761 56.452,354.679 56.500 L 343.800 56.558 353.600 56.803 M369.000 58.400 C 370.111 58.878,370.895 58.878,370.600 58.400 C 370.464 58.180,369.868 58.013,369.276 58.028 C 368.315 58.053,368.286 58.093,369.000 58.400 M21.052 67.516 C 20.430 68.522,20.048 70.000,20.410 70.000 C 20.624 70.000,20.800 69.676,20.800 69.280 C 20.800 68.884,21.013 68.347,21.273 68.087 C 21.534 67.826,21.642 67.508,21.513 67.380 C 21.385 67.252,21.177 67.313,21.052 67.516 M33.000 72.931 C 32.780 73.206,32.552 73.694,32.494 74.016 C 32.425 74.398,32.598 74.332,32.994 73.824 C 33.327 73.396,33.600 72.901,33.600 72.724 C 33.600 72.292,33.477 72.334,33.000 72.931 "
              stroke="none" fill="#14a9d6" fill-rule="evenodd"></path>
        <path id="path2"
              d="M380.243 288.233 C 379.922 289.069,379.930 291.004,380.253 290.681 C 380.488 290.445,380.791 287.600,380.581 287.600 C 380.529 287.600,380.376 287.885,380.243 288.233 M6.115 293.922 C 6.084 294.515,6.151 294.774,6.264 294.498 C 6.376 294.221,6.633 294.097,6.834 294.221 C 7.396 294.568,7.268 293.755,6.685 293.271 C 6.289 292.942,6.158 293.091,6.115 293.922 M19.617 293.568 C 19.323 294.117,19.339 294.380,19.674 294.491 C 19.931 294.577,20.009 294.862,19.847 295.124 C 19.365 295.904,8.400 295.786,8.400 295.000 C 8.400 294.670,8.209 294.400,7.976 294.400 C 7.743 294.400,7.655 294.565,7.780 294.768 C 7.905 294.970,7.736 295.407,7.404 295.739 C 6.712 296.430,6.613 297.437,7.200 297.800 C 7.420 297.936,7.600 298.397,7.600 298.824 C 7.600 299.251,7.780 299.600,8.000 299.600 C 8.220 299.600,8.400 299.971,8.400 300.424 C 8.400 300.946,8.570 301.142,8.863 300.961 C 9.180 300.765,9.255 300.947,9.100 301.538 C 8.959 302.079,9.098 302.527,9.473 302.737 C 9.802 302.921,10.058 303.236,10.041 303.436 C 9.974 304.215,10.476 305.200,10.829 304.982 C 11.033 304.856,11.200 305.044,11.200 305.400 C 11.200 306.331,14.292 310.035,16.400 311.629 C 17.390 312.378,18.491 313.308,18.847 313.695 C 19.203 314.083,19.705 314.400,19.964 314.400 C 20.222 314.400,20.791 314.733,21.227 315.139 C 21.664 315.546,22.781 316.124,23.710 316.423 C 24.640 316.722,25.490 317.065,25.600 317.185 C 25.954 317.573,28.629 318.400,29.528 318.400 C 30.008 318.400,30.400 318.580,30.400 318.800 C 30.400 319.065,50.415 319.200,89.644 319.200 L 148.888 319.200 148.672 320.500 C 148.166 323.556,147.756 324.924,146.753 326.895 C 146.559 327.277,146.400 327.855,146.400 328.180 C 146.400 328.832,144.614 332.234,143.748 333.231 C 143.447 333.579,143.200 334.066,143.200 334.313 C 143.200 334.561,142.750 335.214,142.200 335.764 C 141.650 336.314,141.200 336.962,141.200 337.205 C 141.200 337.448,141.020 337.536,140.800 337.400 C 140.580 337.264,140.400 337.439,140.400 337.790 C 140.400 338.616,137.816 341.200,136.990 341.200 C 136.639 341.200,136.464 341.380,136.600 341.600 C 136.736 341.820,136.626 342.000,136.355 342.000 C 136.084 342.000,135.575 342.261,135.223 342.579 C 134.705 343.048,132.417 343.187,123.192 343.308 C 110.871 343.471,109.602 343.662,105.105 346.034 C 104.723 346.235,104.138 346.400,103.805 346.400 C 103.472 346.400,103.200 346.580,103.200 346.800 C 103.200 347.020,102.930 347.200,102.600 347.200 C 102.270 347.200,102.000 347.380,102.000 347.600 C 102.000 347.820,101.775 348.000,101.500 348.000 C 101.225 348.001,100.520 348.406,99.934 348.900 C 97.516 350.940,97.181 351.200,96.977 351.200 C 96.860 351.200,96.314 351.650,95.764 352.200 C 95.214 352.750,94.862 353.200,94.982 353.200 C 95.102 353.200,94.885 353.529,94.500 353.930 C 93.071 355.420,92.000 356.992,92.000 357.599 C 92.000 357.942,91.640 358.483,91.200 358.800 C 90.760 359.117,90.400 359.601,90.400 359.876 C 90.400 360.151,90.040 361.017,89.600 361.800 C 89.160 362.583,88.800 363.579,88.800 364.012 C 88.800 364.445,88.620 364.800,88.400 364.800 C 88.180 364.800,88.000 365.419,88.000 366.176 C 88.000 366.933,87.820 367.664,87.600 367.800 C 87.060 368.134,87.060 380.800,87.600 380.800 C 87.820 380.800,88.000 381.340,88.000 382.000 C 88.000 382.660,88.180 383.200,88.400 383.200 C 88.620 383.200,88.800 383.560,88.800 384.000 C 88.800 384.440,88.950 384.800,89.132 384.800 C 89.315 384.800,89.717 385.295,90.026 385.900 C 90.888 387.590,94.417 390.907,96.301 391.800 C 97.231 392.240,97.993 392.735,97.995 392.900 C 97.998 393.065,98.540 393.200,99.200 393.200 C 99.860 393.200,100.400 393.380,100.400 393.600 C 100.400 393.866,133.867 394.000,200.000 394.000 C 266.133 394.000,299.600 393.866,299.600 393.600 C 299.600 393.380,300.140 393.200,300.800 393.200 C 301.460 393.200,302.000 393.020,302.000 392.800 C 302.000 392.580,302.360 392.400,302.800 392.400 C 303.240 392.400,303.600 392.242,303.600 392.049 C 303.600 391.855,304.125 391.480,304.767 391.214 C 306.075 390.672,309.103 387.579,309.968 385.900 C 310.280 385.295,310.685 384.800,310.868 384.800 C 311.050 384.800,311.200 384.440,311.200 384.000 C 311.200 383.560,311.380 383.200,311.600 383.200 C 311.820 383.200,312.000 382.660,312.000 382.000 C 312.000 381.340,312.180 380.800,312.400 380.800 C 312.651 380.800,312.800 378.333,312.800 374.200 C 312.800 370.067,312.651 367.600,312.400 367.600 C 312.180 367.600,312.000 366.970,312.000 366.200 C 312.000 365.430,311.820 364.800,311.600 364.800 C 311.380 364.800,311.200 364.445,311.200 364.012 C 311.200 363.579,310.840 362.583,310.400 361.800 C 309.960 361.017,309.600 360.111,309.600 359.788 C 309.600 359.465,309.453 359.200,309.274 359.200 C 309.095 359.200,308.654 358.582,308.294 357.827 C 307.346 355.840,301.886 349.613,301.083 349.604 C 300.909 349.602,300.380 349.240,299.908 348.800 C 299.436 348.360,298.813 348.000,298.525 348.000 C 298.236 348.000,298.000 347.841,298.000 347.646 C 298.000 347.244,296.403 346.463,291.481 344.456 C 290.866 344.205,289.951 344.000,289.448 344.000 C 288.945 344.000,288.398 343.865,288.233 343.700 C 287.817 343.284,288.384 343.305,276.296 343.250 L 265.392 343.200 264.313 342.200 C 263.720 341.650,263.029 341.200,262.778 341.200 C 262.188 341.200,258.800 337.621,258.800 336.998 C 258.800 336.737,258.439 336.197,257.997 335.797 C 257.555 335.398,256.959 334.605,256.671 334.035 C 255.958 332.625,255.043 331.043,254.800 330.800 C 254.320 330.320,253.600 328.760,253.600 328.200 C 253.600 327.864,253.441 327.277,253.247 326.895 C 252.244 324.924,251.834 323.556,251.328 320.500 L 251.112 319.200 310.333 319.200 C 349.381 319.200,369.637 319.064,369.800 318.800 C 369.936 318.580,370.489 318.400,371.029 318.400 C 371.569 318.400,372.323 318.235,372.705 318.034 C 373.087 317.832,374.075 317.382,374.900 317.034 C 378.075 315.692,379.200 315.096,379.200 314.754 C 379.200 314.559,379.436 314.400,379.725 314.400 C 380.013 314.400,380.598 314.080,381.025 313.689 C 381.451 313.298,382.430 312.543,383.200 312.010 C 383.970 311.478,385.140 310.425,385.800 309.670 C 386.460 308.915,387.585 307.623,388.300 306.800 C 389.015 305.977,389.600 305.010,389.600 304.652 C 389.600 304.293,389.791 304.000,390.024 304.000 C 390.257 304.000,390.336 303.820,390.200 303.600 C 390.064 303.380,390.173 303.200,390.443 303.200 C 390.713 303.200,390.822 303.089,390.686 302.952 C 390.550 302.816,390.700 302.443,391.019 302.124 C 391.339 301.804,391.600 301.106,391.600 300.571 C 391.600 300.037,391.780 299.600,392.000 299.600 C 392.220 299.600,392.400 299.251,392.400 298.824 C 392.400 298.397,392.580 297.936,392.800 297.800 C 393.020 297.664,393.200 296.933,393.200 296.176 C 393.200 295.419,393.380 294.800,393.600 294.800 C 394.350 294.800,394.003 294.094,393.142 293.869 C 392.535 293.710,392.409 293.769,392.711 294.071 C 393.910 295.270,392.771 295.530,386.108 295.581 C 380.134 295.627,379.527 295.570,379.995 295.006 C 380.280 294.662,380.400 294.267,380.261 294.128 C 379.917 293.784,378.000 295.897,378.000 296.621 C 378.000 296.939,377.865 297.208,377.700 297.219 C 377.535 297.229,376.770 298.130,376.000 299.221 C 375.230 300.313,374.105 301.428,373.500 301.700 C 372.895 301.973,372.400 302.331,372.400 302.498 C 372.400 302.664,372.187 302.800,371.926 302.800 C 371.665 302.800,371.080 303.144,370.626 303.564 C 370.172 303.985,369.350 304.390,368.800 304.464 C 368.250 304.539,367.703 304.729,367.584 304.887 C 367.466 305.045,366.334 305.208,365.070 305.249 C 363.805 305.291,362.676 305.476,362.562 305.662 C 362.254 306.160,37.708 306.098,37.400 305.600 C 37.264 305.380,36.098 305.200,34.810 305.200 C 33.521 305.200,32.407 305.022,32.333 304.803 C 32.260 304.585,31.714 304.367,31.119 304.318 C 30.524 304.269,30.122 304.144,30.226 304.041 C 30.496 303.771,27.475 302.430,27.108 302.657 C 26.938 302.762,26.800 302.577,26.800 302.247 C 26.800 301.917,26.592 301.519,26.338 301.362 C 26.034 301.174,25.976 301.269,26.169 301.638 C 26.329 301.947,26.124 301.821,25.712 301.357 C 25.301 300.893,24.432 300.008,23.782 299.391 C 23.132 298.774,22.870 298.427,23.200 298.619 C 23.530 298.812,23.350 298.415,22.800 297.737 C 22.250 297.059,21.691 296.565,21.558 296.640 C 21.425 296.715,21.400 296.333,21.503 295.793 C 21.625 295.154,21.481 294.729,21.090 294.579 C 20.727 294.440,20.569 294.041,20.691 293.574 C 20.953 292.573,20.152 292.568,19.617 293.568 M237.200 321.176 C 237.200 322.263,237.380 323.264,237.600 323.400 C 237.820 323.536,238.000 324.357,238.000 325.224 C 238.000 326.091,238.180 326.800,238.400 326.800 C 238.620 326.800,238.800 327.520,238.800 328.400 C 238.800 329.280,238.980 330.000,239.200 330.000 C 239.420 330.000,239.600 330.540,239.600 331.200 C 239.600 331.860,239.780 332.400,240.000 332.400 C 240.220 332.400,240.400 332.850,240.400 333.400 C 240.400 333.950,240.580 334.400,240.800 334.400 C 241.020 334.400,241.197 334.625,241.194 334.900 C 241.185 335.626,244.044 341.097,244.928 342.046 C 245.342 342.490,245.602 342.932,245.505 343.028 C 245.409 343.125,224.860 343.158,199.842 343.102 L 154.354 343.000 155.077 342.198 C 155.737 341.465,156.583 340.042,158.199 336.943 C 158.527 336.314,158.796 335.496,158.798 335.124 C 158.799 334.752,158.980 334.336,159.200 334.200 C 159.420 334.064,159.600 333.603,159.600 333.176 C 159.600 332.749,159.780 332.400,160.000 332.400 C 160.220 332.400,160.400 331.860,160.400 331.200 C 160.400 330.540,160.580 330.000,160.800 330.000 C 161.020 330.000,161.200 329.280,161.200 328.400 C 161.200 327.520,161.380 326.800,161.600 326.800 C 161.820 326.800,162.000 326.091,162.000 325.224 C 162.000 324.357,162.180 323.536,162.400 323.400 C 162.620 323.264,162.800 322.263,162.800 321.176 L 162.800 319.200 200.000 319.200 L 237.200 319.200 237.200 321.176 M284.000 357.372 C 284.990 357.530,286.367 357.915,287.060 358.229 C 287.754 358.543,288.609 358.800,288.960 358.800 C 289.312 358.800,289.600 358.980,289.600 359.200 C 289.600 359.420,289.920 359.600,290.312 359.600 C 290.703 359.600,291.283 359.960,291.600 360.400 C 291.917 360.840,292.325 361.200,292.506 361.200 C 292.957 361.200,294.800 363.075,294.800 363.533 C 294.800 363.736,295.084 364.138,295.431 364.426 C 296.186 365.052,298.000 368.532,298.000 369.353 C 298.000 369.672,298.183 369.994,298.407 370.069 C 298.638 370.146,298.824 371.706,298.839 373.683 C 298.868 377.722,297.417 380.000,294.813 380.000 C 294.146 380.000,293.600 380.180,293.600 380.400 C 293.600 380.666,262.133 380.800,200.000 380.800 C 137.867 380.800,106.400 380.666,106.400 380.400 C 106.400 380.180,105.854 380.000,105.187 380.000 C 102.576 380.000,101.200 377.796,101.200 373.613 C 101.200 371.471,101.363 370.000,101.600 370.000 C 101.820 370.000,102.000 369.723,102.000 369.384 C 102.000 368.763,103.493 365.572,103.957 365.200 C 104.095 365.090,104.656 364.326,105.204 363.503 C 105.752 362.679,106.308 362.004,106.441 362.003 C 106.573 362.001,107.246 361.460,107.937 360.800 C 108.628 360.140,109.464 359.600,109.796 359.600 C 110.128 359.600,110.400 359.420,110.400 359.200 C 110.400 358.980,110.715 358.799,111.100 358.798 C 111.485 358.796,112.270 358.550,112.844 358.250 C 113.419 357.950,114.934 357.591,116.212 357.452 C 117.490 357.312,118.626 357.107,118.738 356.995 C 119.054 356.679,281.974 357.050,284.000 357.372 "
              stroke="none" fill="#8b41f8" fill-rule="evenodd"></path>
        <path id="path3"
              d="M75.200 199.075 L 74.200 200.102 75.500 199.365 C 76.215 198.959,76.800 198.486,76.800 198.314 C 76.800 197.752,76.220 198.028,75.200 199.075 M73.275 201.216 C 72.286 202.137,72.161 202.467,72.909 202.180 C 73.362 202.006,74.598 200.400,74.279 200.400 C 74.208 200.400,73.757 200.767,73.275 201.216 M70.472 205.313 C 70.188 205.655,70.177 206.023,70.440 206.413 C 70.756 206.884,70.810 206.842,70.717 206.200 C 70.648 205.728,70.805 205.441,71.100 205.500 C 71.375 205.555,71.600 205.420,71.600 205.200 C 71.600 204.639,70.979 204.702,70.472 205.313 M30.851 233.900 C 30.823 248.915,30.938 261.200,31.106 261.200 C 31.274 261.200,31.723 261.920,32.104 262.800 C 32.486 263.680,33.008 264.400,33.265 264.400 C 33.523 264.400,33.622 264.511,33.486 264.648 C 33.181 264.952,33.955 265.752,34.900 266.110 C 35.285 266.256,35.600 266.651,35.600 266.987 C 35.600 267.333,35.948 267.600,36.400 267.600 C 36.840 267.600,37.200 267.791,37.200 268.024 C 37.200 268.257,37.365 268.345,37.568 268.220 C 37.770 268.095,38.207 268.264,38.539 268.596 C 39.237 269.294,361.200 269.541,361.200 268.843 C 361.200 268.647,361.892 268.210,362.738 267.871 C 364.678 267.095,367.381 264.526,367.733 263.124 C 367.881 262.537,368.266 261.791,368.589 261.468 C 369.094 260.963,369.173 257.297,369.151 235.340 C 369.138 221.293,368.981 210.250,368.803 210.800 L 368.480 211.800 368.440 210.700 L 368.400 209.600 362.833 209.600 C 359.771 209.600,356.981 209.709,356.633 209.843 C 356.066 210.060,356.000 212.478,356.000 233.043 L 356.000 256.000 350.003 256.000 L 344.006 256.000 343.903 232.900 L 343.800 209.800 337.768 209.690 L 331.736 209.580 331.319 208.090 C 331.016 207.009,330.887 213.379,330.851 231.300 L 330.800 256.000 325.000 256.000 L 319.200 256.000 319.160 232.900 C 319.138 220.195,318.976 210.250,318.800 210.800 L 318.480 211.800 318.440 210.700 L 318.400 209.600 312.833 209.600 C 309.771 209.600,306.981 209.709,306.633 209.843 C 306.066 210.060,306.000 212.478,306.000 233.043 L 306.000 256.000 275.003 256.000 L 244.006 256.000 243.903 232.900 L 243.800 209.800 237.768 209.690 L 231.736 209.580 231.319 208.090 C 231.016 207.009,230.887 213.381,230.851 231.305 L 230.800 256.009 198.782 255.995 C 180.015 255.987,166.856 255.833,166.986 255.623 C 167.108 255.426,166.936 254.993,166.604 254.661 C 166.272 254.329,166.000 253.774,166.000 253.429 C 166.000 253.083,165.820 252.800,165.600 252.800 C 165.380 252.800,165.200 252.440,165.200 252.000 C 165.200 251.560,165.040 251.200,164.843 251.200 C 164.647 251.200,164.208 250.504,163.868 249.653 C 163.527 248.802,162.943 247.801,162.570 247.427 C 162.064 246.921,162.007 246.633,162.346 246.294 C 162.596 246.044,162.800 245.426,162.800 244.920 C 162.800 244.414,162.980 244.000,163.200 244.000 C 163.420 244.000,163.600 243.640,163.600 243.200 C 163.600 242.760,163.791 242.400,164.024 242.400 C 164.257 242.400,164.344 242.232,164.217 242.028 C 163.859 241.449,164.359 241.246,167.800 240.574 C 168.460 240.445,169.360 240.187,169.800 240.000 C 170.742 239.600,172.416 239.217,174.500 238.926 C 175.325 238.810,176.000 238.555,176.000 238.358 C 176.000 238.161,176.720 238.000,177.600 238.000 C 178.480 238.000,179.200 237.820,179.200 237.600 C 179.200 237.380,179.740 237.200,180.400 237.200 L 181.600 237.200 181.560 223.500 C 181.538 215.965,181.376 210.250,181.200 210.800 L 180.880 211.800 180.840 210.700 L 180.800 209.600 175.000 209.600 C 171.185 209.600,169.200 209.745,169.200 210.024 C 169.200 210.257,169.020 210.336,168.800 210.200 C 168.539 210.038,168.400 212.654,168.400 217.749 C 168.400 226.110,168.297 226.482,166.105 226.062 C 165.832 226.010,165.202 226.189,164.705 226.461 C 164.207 226.733,163.323 226.908,162.740 226.851 C 162.156 226.795,161.561 226.940,161.416 227.174 C 161.271 227.408,160.713 227.600,160.176 227.600 C 159.639 227.600,159.197 227.825,159.194 228.100 C 159.190 228.433,159.058 228.400,158.800 228.000 C 158.542 227.600,158.410 227.567,158.406 227.900 C 158.402 228.202,157.855 228.400,157.024 228.400 C 156.267 228.400,155.536 228.580,155.400 228.800 C 155.264 229.020,154.881 229.200,154.548 229.200 C 153.625 229.200,152.800 230.225,152.800 231.371 C 152.800 231.937,152.620 232.400,152.400 232.400 C 152.180 232.400,152.000 232.940,152.000 233.600 C 152.000 234.260,151.853 234.800,151.672 234.800 C 151.492 234.800,151.100 235.700,150.800 236.800 C 150.500 237.900,150.108 238.800,149.928 238.800 C 149.747 238.800,149.600 239.160,149.600 239.600 C 149.600 240.040,149.420 240.400,149.200 240.400 C 148.980 240.400,148.800 240.816,148.800 241.325 C 148.800 241.833,148.485 242.607,148.100 243.045 C 146.521 244.840,145.626 248.800,146.800 248.800 C 147.020 248.800,147.200 249.036,147.200 249.325 C 147.200 249.613,147.515 250.207,147.900 250.645 C 148.889 251.770,149.600 253.086,149.600 253.795 C 149.600 254.128,149.759 254.400,149.953 254.400 C 150.148 254.400,150.401 254.760,150.516 255.200 C 150.722 255.988,150.528 256.000,137.963 256.000 C 130.943 256.000,125.200 255.899,125.200 255.776 C 125.200 255.652,126.325 254.391,127.700 252.972 C 131.876 248.664,132.400 248.068,132.400 247.626 C 132.400 247.391,132.535 247.199,132.700 247.197 C 132.865 247.196,133.450 246.521,133.999 245.697 C 134.549 244.874,135.224 243.962,135.499 243.671 C 135.775 243.381,136.000 242.989,136.000 242.800 C 136.000 242.611,136.225 242.215,136.500 241.918 C 137.174 241.192,138.802 237.924,138.801 237.300 C 138.800 237.025,138.936 236.800,139.102 236.800 C 139.269 236.800,139.640 236.215,139.929 235.500 C 140.217 234.785,140.631 233.871,140.849 233.469 C 141.067 233.068,141.350 231.853,141.478 230.769 C 141.606 229.686,141.866 228.800,142.056 228.800 C 142.245 228.800,142.400 228.206,142.400 227.480 C 142.400 226.754,142.562 225.989,142.759 225.780 C 143.490 225.007,144.378 212.361,143.850 210.254 C 143.624 209.354,131.201 208.858,131.200 209.749 C 131.200 209.941,130.975 209.912,130.700 209.685 C 130.314 209.366,130.181 209.697,130.117 211.136 C 130.037 212.935,130.055 212.965,130.603 212.000 C 131.154 211.031,131.172 211.027,131.186 211.880 C 131.194 212.364,130.885 212.944,130.500 213.168 C 130.112 213.394,130.023 213.581,130.300 213.588 C 130.575 213.595,130.800 213.791,130.800 214.024 C 130.800 214.257,130.620 214.336,130.400 214.200 C 129.833 213.850,129.903 214.536,130.500 215.179 C 130.823 215.527,130.835 215.625,130.533 215.456 C 130.201 215.269,130.076 215.832,130.099 217.412 C 130.116 218.631,129.921 219.839,129.665 220.095 C 129.409 220.351,129.200 221.143,129.200 221.856 C 129.200 222.569,129.042 223.250,128.850 223.369 C 128.657 223.488,128.500 223.994,128.500 224.493 C 128.499 224.992,128.101 226.247,127.614 227.281 C 127.128 228.316,126.834 229.332,126.962 229.539 C 127.091 229.747,126.926 230.019,126.598 230.146 C 126.269 230.272,126.000 230.636,126.000 230.955 C 126.000 231.678,124.706 233.994,124.300 233.997 C 124.135 233.999,124.000 234.360,124.000 234.800 C 124.000 235.240,123.850 235.600,123.668 235.600 C 123.485 235.600,123.083 236.095,122.775 236.700 C 122.467 237.305,121.717 238.297,121.108 238.903 C 120.498 239.510,120.000 240.151,120.000 240.328 C 120.000 240.732,119.000 241.756,116.611 243.800 C 115.582 244.680,114.080 245.981,113.274 246.692 C 112.467 247.402,111.265 248.202,110.603 248.469 C 109.942 248.737,109.109 249.281,108.753 249.678 C 108.397 250.075,107.812 250.400,107.453 250.400 C 107.094 250.400,106.800 250.580,106.800 250.800 C 106.800 251.020,106.440 251.200,106.000 251.200 C 105.560 251.200,105.200 251.380,105.200 251.600 C 105.200 251.820,104.660 252.000,104.000 252.000 C 103.340 252.000,102.800 252.180,102.800 252.400 C 102.800 252.620,102.440 252.800,102.000 252.800 C 101.560 252.800,101.200 252.980,101.200 253.200 C 101.200 253.420,100.581 253.600,99.824 253.600 C 99.067 253.600,98.336 253.780,98.200 254.000 C 98.064 254.220,97.344 254.400,96.600 254.400 C 95.856 254.400,95.136 254.580,95.000 254.800 C 94.863 255.021,93.063 255.200,90.976 255.200 C 88.725 255.200,87.200 255.362,87.200 255.600 C 87.200 255.855,83.933 256.000,78.200 256.000 L 69.200 256.000 69.200 247.600 C 69.200 239.358,69.319 238.621,70.481 239.700 C 70.777 239.975,71.283 240.259,71.606 240.332 C 71.928 240.405,72.285 240.613,72.397 240.795 C 72.510 240.978,73.276 241.253,74.101 241.408 C 74.925 241.562,75.600 241.849,75.600 242.045 C 75.600 242.240,75.960 242.400,76.400 242.400 C 76.840 242.400,77.200 242.580,77.200 242.800 C 77.200 243.020,77.830 243.200,78.600 243.200 C 79.370 243.200,80.000 243.380,80.000 243.600 C 80.000 243.852,82.733 244.000,87.400 244.000 C 92.067 244.000,94.800 243.852,94.800 243.600 C 94.800 243.380,95.520 243.200,96.400 243.200 C 97.280 243.200,98.000 243.020,98.000 242.800 C 98.000 242.580,98.272 242.400,98.605 242.400 C 98.938 242.400,99.523 242.231,99.905 242.024 C 100.287 241.817,101.082 241.547,101.672 241.424 C 102.262 241.300,102.982 240.971,103.272 240.693 C 103.562 240.414,104.911 239.474,106.268 238.604 C 107.626 237.733,108.656 236.890,108.557 236.731 C 108.458 236.571,108.788 236.222,109.289 235.956 C 110.403 235.363,112.800 232.806,112.800 232.210 C 112.800 231.972,113.160 231.517,113.600 231.200 C 114.040 230.883,114.400 230.369,114.400 230.059 C 114.400 229.748,114.788 229.158,115.261 228.747 C 115.770 228.305,115.909 228.000,115.600 228.000 C 115.291 228.000,115.430 227.695,115.939 227.253 C 116.412 226.842,116.800 226.122,116.800 225.653 C 116.800 225.184,116.980 224.800,117.200 224.800 C 117.420 224.800,117.600 224.260,117.600 223.600 C 117.600 222.940,117.762 222.400,117.960 222.400 C 119.058 222.400,119.471 208.991,118.375 208.908 C 117.949 208.876,117.600 209.024,117.600 209.236 C 117.600 209.471,115.448 209.579,112.100 209.511 C 106.870 209.405,106.604 209.361,106.688 208.600 C 106.737 208.160,106.674 208.033,106.549 208.317 C 106.395 208.668,106.169 208.706,105.845 208.437 C 105.492 208.144,105.358 208.400,105.331 209.421 C 105.311 210.179,105.464 210.800,105.671 210.800 C 105.878 210.800,105.944 210.632,105.817 210.428 C 105.691 210.223,105.770 209.942,105.993 209.804 C 106.217 209.666,106.400 209.839,106.400 210.189 C 106.400 210.539,106.130 210.929,105.800 211.055 C 105.470 211.182,105.200 211.457,105.200 211.666 C 105.200 211.876,105.380 211.936,105.600 211.800 C 105.833 211.656,106.000 212.063,106.000 212.776 C 106.000 213.485,105.790 214.003,105.500 214.006 C 105.167 214.010,105.200 214.142,105.600 214.400 C 106.000 214.658,106.033 214.790,105.700 214.794 C 105.425 214.797,105.200 215.259,105.200 215.819 C 105.200 216.380,104.840 217.584,104.400 218.494 C 103.960 219.405,103.600 220.397,103.600 220.699 C 103.600 221.000,103.420 221.136,103.200 221.000 C 102.980 220.864,102.800 221.123,102.800 221.576 C 102.800 222.029,102.620 222.400,102.400 222.400 C 102.180 222.400,102.000 222.681,102.000 223.024 C 102.000 223.367,101.865 223.565,101.700 223.466 C 101.535 223.366,101.168 223.535,100.884 223.842 C 100.463 224.297,100.463 224.403,100.884 224.416 C 101.168 224.425,100.900 224.703,100.288 225.035 C 99.677 225.367,99.285 225.814,99.418 226.029 C 99.551 226.244,99.511 226.380,99.330 226.331 C 98.763 226.177,97.200 226.835,97.200 227.227 C 97.200 227.432,96.987 227.600,96.726 227.600 C 96.465 227.600,95.806 228.005,95.261 228.500 C 94.717 228.995,94.403 229.171,94.565 228.890 C 94.729 228.606,94.220 228.740,93.418 229.190 C 91.821 230.087,82.400 230.437,82.400 229.600 C 82.400 229.380,82.147 229.200,81.838 229.200 C 81.173 229.200,78.029 227.616,77.271 226.900 C 76.981 226.625,76.396 226.400,75.971 226.400 C 75.547 226.400,75.200 226.142,75.200 225.827 C 75.200 225.512,74.840 225.140,74.400 225.000 C 73.960 224.860,73.600 224.405,73.600 223.989 C 73.600 223.572,73.206 222.864,72.725 222.416 C 72.243 221.967,71.980 221.600,72.140 221.600 C 72.300 221.600,72.064 221.206,71.616 220.725 C 71.167 220.243,70.778 219.613,70.750 219.325 C 70.647 218.248,70.593 218.060,70.300 217.767 C 70.135 217.602,70.000 216.856,70.000 216.110 C 70.000 215.225,69.847 214.847,69.560 215.025 C 69.247 215.218,69.250 215.054,69.569 214.457 C 69.956 213.734,69.920 213.649,69.309 213.842 C 68.640 214.053,68.639 214.033,69.290 213.496 C 69.737 213.127,69.961 212.414,69.926 211.475 C 69.877 210.163,69.817 210.090,69.306 210.712 C 68.995 211.090,68.855 211.175,68.994 210.900 C 69.133 210.625,69.012 210.397,68.724 210.394 C 68.343 210.389,68.364 210.282,68.800 210.000 C 69.466 209.570,57.739 209.418,56.633 209.843 C 56.066 210.060,56.000 212.478,56.000 233.043 L 56.000 256.000 50.003 256.000 L 44.006 256.000 43.903 232.900 L 43.800 209.800 37.768 209.690 L 31.736 209.580 31.319 208.090 C 31.017 207.013,30.887 214.173,30.851 233.900 M380.851 246.820 C 380.818 272.769,380.659 287.181,380.404 287.436 C 380.152 287.688,380.141 288.298,380.374 289.111 C 380.609 289.930,380.598 290.478,380.343 290.635 C 380.124 290.770,380.034 291.111,380.141 291.392 C 380.249 291.673,380.136 292.104,379.889 292.351 C 379.557 292.683,379.565 292.800,379.920 292.800 C 380.184 292.800,380.400 292.974,380.400 293.187 C 380.400 293.401,380.153 293.480,379.852 293.364 C 379.330 293.164,378.819 293.892,378.561 295.200 C 378.496 295.530,378.781 295.353,379.194 294.806 C 379.607 294.259,380.073 293.940,380.230 294.096 C 380.386 294.253,380.280 294.662,379.995 295.006 C 379.527 295.570,380.134 295.627,386.108 295.581 C 392.771 295.530,393.910 295.270,392.711 294.071 C 392.409 293.769,392.534 293.710,393.137 293.868 L 393.989 294.091 393.895 251.945 L 393.800 209.800 387.768 209.690 L 381.736 209.580 381.319 208.090 C 381.021 207.027,380.887 218.116,380.851 246.820 M6.493 209.867 C 5.810 210.142,5.781 293.645,6.464 293.495 C 6.704 293.443,6.991 293.650,7.102 293.956 C 7.226 294.296,7.129 294.403,6.852 294.232 C 6.603 294.078,6.400 294.143,6.400 294.376 C 6.400 294.609,6.599 294.800,6.843 294.800 C 7.086 294.800,7.182 295.070,7.055 295.400 C 6.929 295.730,6.999 296.000,7.213 296.000 C 7.570 296.000,7.762 295.426,7.647 294.700 C 7.621 294.535,7.780 294.400,8.000 294.400 C 8.220 294.400,8.400 294.670,8.400 295.000 C 8.400 295.786,19.365 295.904,19.847 295.124 C 20.009 294.862,19.931 294.577,19.674 294.491 C 19.320 294.373,19.323 294.125,19.688 293.468 C 19.953 292.990,20.115 292.420,20.047 292.200 C 19.979 291.980,19.896 290.870,19.862 289.733 C 19.828 288.596,19.665 287.531,19.500 287.367 C 19.335 287.202,19.182 269.682,19.160 248.433 C 19.138 227.185,18.976 210.250,18.800 210.800 L 18.480 211.800 18.440 210.700 L 18.400 209.600 12.700 209.632 C 9.565 209.649,6.772 209.755,6.493 209.867 M269.200 210.024 C 269.200 210.257,269.020 210.336,268.800 210.200 C 268.542 210.041,268.400 211.596,268.400 214.576 L 268.400 219.200 275.000 219.200 L 281.600 219.200 281.560 214.500 C 281.535 211.527,281.403 210.167,281.200 210.800 L 280.880 211.800 280.840 210.700 L 280.800 209.600 275.000 209.600 C 271.185 209.600,269.200 209.745,269.200 210.024 M268.400 237.400 L 268.400 244.000 275.000 244.000 L 281.600 244.000 281.600 237.400 L 281.600 230.800 275.000 230.800 L 268.400 230.800 268.400 237.400 M43.200 287.000 C 43.200 291.690,43.322 293.201,43.700 293.206 C 44.033 293.210,44.000 293.342,43.600 293.600 C 43.200 293.859,45.285 293.990,49.865 293.994 L 56.730 294.000 56.780 287.400 L 56.831 280.800 50.015 280.800 L 43.200 280.800 43.200 287.000 M68.400 287.157 C 68.400 294.712,67.647 294.000,75.633 294.000 L 81.600 294.000 81.600 287.400 L 81.600 280.800 75.000 280.800 L 68.400 280.800 68.400 287.157 M93.200 287.000 C 93.200 291.690,93.322 293.201,93.700 293.206 C 94.033 293.210,94.000 293.342,93.600 293.600 C 93.200 293.859,95.285 293.990,99.865 293.994 L 106.730 294.000 106.780 287.400 L 106.831 280.800 100.015 280.800 L 93.200 280.800 93.200 287.000 M21.422 296.288 C 21.276 296.666,21.280 296.854,21.429 296.705 C 21.577 296.556,22.035 296.831,22.445 297.317 C 23.184 298.191,23.185 298.187,22.566 296.900 C 21.844 295.398,21.777 295.362,21.422 296.288 M23.600 299.268 C 24.602 300.245,25.110 300.425,24.618 299.629 C 24.473 299.395,23.960 298.999,23.478 298.749 C 22.683 298.336,22.694 298.385,23.600 299.268 M25.200 300.751 C 25.200 301.452,26.305 302.077,26.626 301.558 C 26.815 301.253,26.755 301.181,26.462 301.362 C 26.188 301.531,26.000 301.393,26.000 301.024 C 26.000 300.681,25.820 300.400,25.600 300.400 C 25.380 300.400,25.200 300.558,25.200 300.751 M373.829 301.029 C 373.405 301.338,373.136 301.669,373.230 301.763 C 373.324 301.857,373.748 301.681,374.171 301.371 C 374.595 301.062,374.864 300.731,374.770 300.637 C 374.676 300.543,374.252 300.719,373.829 301.029 "
              stroke="none" fill="#685fef" fill-rule="evenodd"></path>
        <path id="path4"
              d="M383.039 50.738 C 382.900 50.961,382.982 51.265,383.220 51.412 C 383.835 51.793,384.232 51.272,383.718 50.758 C 383.431 50.471,383.207 50.464,383.039 50.738 M15.655 52.322 C 15.779 53.187,15.546 54.143,15.294 53.800 C 14.559 52.800,13.641 53.231,12.765 54.985 C 12.269 55.977,11.543 56.891,11.152 57.015 C 10.737 57.147,10.533 57.481,10.662 57.817 C 10.784 58.135,10.596 58.503,10.244 58.639 C 9.892 58.773,9.687 59.018,9.788 59.181 C 9.890 59.345,9.653 59.821,9.264 60.239 C 8.447 61.117,8.400 61.245,8.400 62.624 C 8.400 63.204,8.227 63.540,8.000 63.400 C 7.780 63.264,7.600 63.513,7.600 63.953 C 7.600 64.393,7.420 64.864,7.200 65.000 C 6.980 65.136,6.800 65.856,6.800 66.600 C 6.800 67.344,6.620 68.064,6.400 68.200 C 6.140 68.361,6.000 77.595,6.000 94.596 L 6.000 120.745 12.300 120.673 L 18.600 120.600 18.862 118.600 C 19.006 117.500,19.147 107.105,19.175 95.500 C 19.204 83.895,19.357 74.400,19.516 74.400 C 19.675 74.400,19.861 73.375,19.930 72.122 C 19.998 70.869,20.340 69.204,20.689 68.422 C 21.038 67.640,21.294 66.860,21.258 66.689 C 21.222 66.518,21.463 66.274,21.794 66.147 C 22.125 66.020,22.296 65.755,22.174 65.558 C 22.052 65.361,22.143 65.200,22.376 65.200 C 22.609 65.200,22.800 64.939,22.800 64.620 C 22.800 64.301,23.115 63.856,23.500 63.632 C 23.885 63.408,24.062 63.219,23.893 63.212 C 23.323 63.190,26.463 60.400,27.058 60.400 C 27.382 60.400,27.536 60.220,27.400 60.000 C 27.264 59.780,27.441 59.600,27.793 59.600 C 28.145 59.600,28.825 59.236,29.303 58.790 C 29.781 58.345,30.403 58.069,30.686 58.178 C 30.969 58.286,31.203 58.156,31.206 57.887 C 31.210 57.579,31.355 57.621,31.600 58.000 C 31.950 58.541,32.173 58.289,32.046 57.496 C 32.019 57.329,32.643 57.272,33.431 57.370 C 34.510 57.504,34.815 57.416,34.662 57.016 C 34.495 56.583,36.452 56.473,45.229 56.423 L 56.000 56.362 56.000 62.381 L 56.000 68.400 48.000 68.450 C 38.546 68.509,39.423 68.431,38.408 69.300 C 37.959 69.685,37.357 70.000,37.071 70.000 C 36.785 70.000,36.164 70.360,35.692 70.800 C 35.220 71.240,34.668 71.600,34.465 71.600 C 34.263 71.600,33.876 72.134,33.605 72.787 C 33.335 73.439,32.860 74.184,32.550 74.442 C 30.771 75.918,30.741 76.354,30.884 98.458 C 30.959 109.976,31.170 119.715,31.353 120.100 C 31.649 120.722,32.372 120.800,37.843 120.800 L 44.000 120.800 44.000 101.200 L 44.000 81.600 50.000 81.600 L 56.000 81.600 56.000 101.192 L 56.000 120.784 83.300 120.692 C 107.259 120.611,110.600 120.527,110.600 120.000 C 110.600 119.477,107.907 119.373,89.600 119.191 C 78.050 119.076,68.559 118.941,68.510 118.891 C 68.460 118.841,68.595 118.338,68.810 117.774 C 69.030 117.195,69.200 111.796,69.200 105.374 L 69.200 94.000 199.962 94.000 L 330.724 94.000 330.888 106.700 C 331.091 122.438,330.283 120.800,337.843 120.800 L 344.000 120.800 344.000 101.200 L 344.000 81.600 350.000 81.600 L 356.000 81.600 356.000 101.173 L 356.000 120.745 362.300 120.673 L 368.600 120.600 368.865 118.600 C 369.388 114.653,369.229 78.313,368.682 76.800 C 367.416 73.296,363.467 69.200,361.354 69.200 C 361.049 69.200,360.800 69.020,360.800 68.800 C 360.800 68.580,360.665 68.421,360.500 68.447 C 360.335 68.473,356.555 68.473,352.100 68.447 L 344.000 68.400 344.000 62.400 L 344.000 56.400 353.424 56.400 C 360.846 56.400,362.787 56.506,362.565 56.900 C 362.339 57.300,362.390 57.300,362.821 56.900 C 363.601 56.176,365.637 56.237,365.354 56.976 C 365.178 57.434,365.465 57.520,366.748 57.392 C 367.951 57.272,368.312 57.363,368.164 57.749 C 368.020 58.125,368.304 58.217,369.207 58.084 C 370.231 57.934,370.490 58.057,370.680 58.785 C 370.854 59.450,370.995 59.536,371.249 59.134 C 371.503 58.734,371.589 58.726,371.594 59.100 C 371.597 59.375,371.971 59.600,372.424 59.600 C 372.877 59.600,373.136 59.780,373.000 60.000 C 372.864 60.220,372.910 60.400,373.103 60.400 C 373.562 60.400,377.200 64.043,377.200 64.502 C 377.200 64.697,377.472 65.129,377.804 65.461 C 378.136 65.793,378.305 66.230,378.180 66.432 C 378.055 66.635,378.143 66.800,378.376 66.800 C 378.609 66.800,378.762 66.935,378.715 67.100 C 378.668 67.265,378.855 67.805,379.129 68.300 C 379.404 68.795,379.487 69.203,379.314 69.206 C 379.141 69.209,379.207 69.344,379.460 69.506 C 380.272 70.025,380.484 74.552,380.756 97.200 C 380.903 109.410,381.173 119.715,381.355 120.100 C 381.649 120.722,382.372 120.800,387.843 120.800 L 394.000 120.800 394.000 94.176 C 394.000 76.529,393.865 67.636,393.600 67.800 C 393.367 67.944,393.200 67.545,393.200 66.847 C 393.200 66.187,393.020 65.536,392.800 65.400 C 392.580 65.264,392.400 64.713,392.400 64.176 C 392.400 63.639,392.220 63.200,392.000 63.200 C 391.780 63.200,391.600 62.851,391.600 62.424 C 391.600 61.997,391.410 61.530,391.179 61.387 C 390.947 61.244,390.828 60.918,390.914 60.663 C 391.000 60.409,390.784 59.962,390.435 59.670 C 389.928 59.247,389.920 59.194,390.400 59.404 C 390.730 59.549,390.458 59.154,389.796 58.526 C 389.134 57.897,388.652 57.073,388.725 56.693 C 388.819 56.205,388.674 56.074,388.229 56.244 C 387.846 56.391,387.600 56.272,387.600 55.939 C 387.600 55.638,387.233 55.163,386.784 54.883 C 386.336 54.603,386.075 54.202,386.205 53.991 C 386.343 53.769,386.140 53.722,385.721 53.879 C 385.096 54.114,385.071 54.063,385.532 53.496 C 386.003 52.916,385.945 52.863,385.023 53.030 C 384.339 53.154,383.904 53.016,383.755 52.626 C 383.439 51.804,331.851 51.672,331.342 52.492 C 331.168 52.771,330.954 59.255,330.865 66.900 L 330.704 80.800 200.007 80.800 L 69.311 80.800 69.119 66.865 C 69.014 59.201,68.795 52.716,68.634 52.455 C 68.309 51.928,15.579 51.796,15.655 52.322 M81.394 52.409 C 81.255 52.635,81.037 56.505,80.909 61.009 L 80.677 69.200 100.002 69.200 L 119.327 69.200 119.061 60.958 C 118.915 56.425,118.696 52.555,118.574 52.358 C 118.249 51.832,106.800 51.896,106.800 52.424 C 106.800 52.657,106.620 52.736,106.400 52.600 C 106.156 52.449,106.000 53.063,106.000 54.176 L 106.000 56.000 100.000 56.000 L 94.000 56.000 94.000 54.633 C 94.000 51.949,94.123 52.000,87.581 52.000 C 83.965 52.000,81.548 52.160,81.394 52.409 M131.394 52.409 C 131.255 52.635,131.037 56.505,130.909 61.009 L 130.677 69.200 150.002 69.200 L 169.327 69.200 169.061 60.958 C 168.915 56.425,168.696 52.555,168.574 52.358 C 168.249 51.832,156.800 51.896,156.800 52.424 C 156.800 52.657,156.620 52.736,156.400 52.600 C 156.156 52.449,156.000 53.063,156.000 54.176 L 156.000 56.000 150.000 56.000 L 144.000 56.000 144.000 54.633 C 144.000 51.949,144.123 52.000,137.581 52.000 C 133.965 52.000,131.548 52.160,131.394 52.409 M181.394 52.409 C 181.255 52.635,181.037 56.505,180.909 61.009 L 180.677 69.200 200.002 69.200 L 219.327 69.200 219.061 60.958 C 218.915 56.425,218.696 52.555,218.574 52.358 C 218.249 51.832,206.800 51.896,206.800 52.424 C 206.800 52.657,206.620 52.736,206.400 52.600 C 206.156 52.449,206.000 53.063,206.000 54.176 L 206.000 56.000 200.000 56.000 L 194.000 56.000 194.000 54.633 C 194.000 51.949,194.123 52.000,187.581 52.000 C 183.965 52.000,181.548 52.160,181.394 52.409 M268.200 106.914 C 267.100 107.381,266.140 107.906,266.067 108.081 C 265.993 108.257,265.628 108.400,265.255 108.400 C 264.882 108.400,264.317 108.760,264.000 109.200 C 263.683 109.640,263.193 110.000,262.912 110.000 C 262.630 110.000,262.400 110.189,262.400 110.420 C 262.400 110.652,261.801 111.417,261.069 112.120 C 259.644 113.490,258.400 115.300,258.400 116.003 C 258.400 116.240,258.040 116.820,257.600 117.292 C 257.160 117.764,256.800 118.387,256.800 118.675 C 256.800 118.964,256.650 119.200,256.467 119.200 C 256.283 119.200,256.138 119.425,256.144 119.700 C 256.158 120.294,257.600 121.781,257.600 121.200 C 257.600 120.950,260.000 120.800,264.000 120.800 C 269.422 120.800,270.400 120.892,270.400 121.400 C 270.400 121.730,270.584 122.000,270.808 122.000 C 271.032 122.000,271.133 121.546,271.033 120.992 C 270.932 120.437,270.998 120.075,271.180 120.187 C 271.566 120.426,272.494 119.428,272.179 119.113 C 271.793 118.726,273.060 118.466,273.625 118.815 C 274.270 119.214,273.980 119.615,272.937 119.768 C 272.531 119.828,272.245 119.994,272.300 120.138 C 272.355 120.282,272.400 120.512,272.400 120.649 C 272.400 120.786,272.666 120.678,272.990 120.408 C 273.695 119.823,276.800 119.584,276.800 120.114 C 276.800 120.318,277.068 120.383,277.395 120.257 C 277.723 120.132,277.954 120.157,277.909 120.314 C 277.808 120.672,279.923 124.000,280.251 124.000 C 280.384 124.000,280.201 123.556,279.846 123.014 C 279.094 121.867,278.996 121.027,279.662 121.438 C 279.950 121.616,280.015 121.548,279.834 121.255 C 279.675 120.998,279.332 120.909,279.072 121.058 C 278.813 121.206,278.729 121.186,278.886 121.012 C 279.144 120.726,291.131 120.685,293.633 120.961 C 294.289 121.034,294.667 120.879,294.667 120.538 C 294.667 120.242,294.416 120.000,294.110 120.000 C 293.803 120.000,293.664 119.820,293.800 119.600 C 293.936 119.380,293.857 119.200,293.624 119.200 C 293.391 119.200,293.200 118.908,293.200 118.551 C 293.200 118.030,293.086 117.997,292.621 118.383 C 292.137 118.784,292.071 118.702,292.220 117.880 C 292.324 117.307,292.150 116.691,291.803 116.403 C 291.476 116.131,291.307 115.750,291.428 115.555 C 291.549 115.360,291.457 115.200,291.224 115.200 C 290.991 115.200,290.845 115.047,290.900 114.861 C 291.038 114.392,287.507 110.000,286.993 110.000 C 286.764 110.000,286.317 109.640,286.000 109.200 C 285.683 108.760,285.103 108.400,284.712 108.400 C 284.320 108.400,284.000 108.220,284.000 108.000 C 284.000 107.780,283.640 107.600,283.200 107.600 C 282.760 107.600,282.400 107.420,282.400 107.200 C 282.400 106.980,281.950 106.800,281.400 106.800 C 280.850 106.800,280.400 106.620,280.400 106.400 C 280.400 105.558,270.401 105.980,268.200 106.914 M110.419 118.600 C 110.426 119.012,111.574 120.692,111.633 120.376 C 111.846 119.250,111.803 118.400,111.533 118.400 C 111.350 118.400,111.197 118.625,111.194 118.900 C 111.190 119.233,111.058 119.200,110.800 118.800 C 110.587 118.470,110.415 118.380,110.419 118.600 "
              stroke="none" fill="#249cdc" fill-rule="evenodd"></path>
    </g>
</svg>