<svg xmlns="http://www.w3.org/2000/svg" width="100" viewBox="0 0 375 375" height="100" version="1.0">
    <path fill="#0C417C"
          d="M 337.117188 276.734375 L 224.550781 276.734375 C 225.265625 274.46875 224.929688 269.160156 225 266.746094 C 225 258.707031 218.457031 252.164062 210.417969 252.164062 L 163.71875 252.164062 C 155.675781 252.164062 149.132812 258.707031 149.132812 266.746094 L 149.132812 270.226562 L 78.496094 246.546875 C 69.128906 243.015625 58.195312 248.359375 55.238281 257.953125 L 35.714844 321.367188 C 32.542969 331.667969 39.746094 342.882812 50.472656 344.246094 L 74.425781 347.285156 L 74.429688 357.414062 C 74.164062 367.476562 83.027344 375.804688 93.011719 374.9375 C 135.460938 371.234375 156.128906 357.839844 165.570312 348.535156 C 168.558594 352.429688 173.257812 354.945312 178.535156 354.945312 L 195.601562 354.945312 C 203.289062 354.945312 209.753906 349.605469 211.484375 342.4375 C 225.601562 342.410156 239.851562 342.414062 253.90625 342.449219 C 260.328125 341.457031 261.238281 331.476562 253.933594 331.460938 C 240.019531 331.429688 225.917969 331.425781 211.9375 331.449219 L 211.9375 287.738281 L 337.117188 287.738281 C 343.957031 287.738281 344.601562 276.734375 337.117188 276.734375 Z M 160.121094 266.746094 C 160.121094 264.765625 161.734375 263.148438 163.71875 263.148438 L 210.417969 263.148438 C 212.398438 263.148438 214.015625 264.765625 214.015625 266.746094 L 214.015625 273.136719 C 214.015625 275.121094 212.398438 276.734375 210.417969 276.734375 L 163.71875 276.734375 C 161.65625 276.734375 160.121094 275.046875 160.121094 273.136719 Z M 92.054688 363.992188 C 88.476562 364.304688 85.414062 360.875 85.414062 357.488281 L 85.410156 348.679688 C 94.445312 350.375 103.675781 344.414062 105.910156 335.496094 L 111.265625 314.128906 C 113.347656 305.824219 109.625 295.886719 98.476562 292.96875 C 87.378906 290.0625 79.28125 296.914062 77.019531 305.183594 L 74.75 313.496094 C 72.878906 320.347656 83.476562 323.242188 85.347656 316.390625 L 87.617188 308.078125 C 89.21875 302.21875 94.628906 303.320312 95.695312 303.597656 C 96.355469 303.769531 102.113281 305.460938 100.609375 311.457031 L 95.253906 332.824219 C 94.417969 336.15625 91.226562 338.347656 87.8125 337.910156 L 51.855469 333.34375 C 47.726562 332.820312 44.992188 328.578125 46.214844 324.601562 L 65.738281 261.183594 C 66.9375 257.289062 70.972656 255.609375 74.898438 256.925781 L 153.128906 283.15625 C 155.460938 285.621094 158.640625 287.273438 162.199219 287.644531 L 162.199219 335.507812 C 159.382812 339.882812 144 359.464844 92.054688 363.992188 Z M 200.949219 338.609375 C 200.949219 341.558594 198.550781 343.957031 195.601562 343.957031 L 178.535156 343.957031 C 175.585938 343.957031 173.1875 341.558594 173.1875 338.609375 L 173.1875 287.722656 L 200.949219 287.722656 Z M 200.949219 338.609375"/>
    <path fill="#0C417C"
          d="M 337.128906 331.460938 C 320.402344 331.425781 304.050781 331.425781 287.140625 331.460938 C 279.859375 331.476562 280.800781 341.261719 287.164062 342.445312 C 304.058594 342.410156 320.394531 342.410156 337.105469 342.445312 C 343.523438 341.457031 344.433594 331.476562 337.128906 331.460938 Z M 337.128906 331.460938"/>
    <path fill="#0C417C"
          d="M 124.023438 107.957031 L 185.820312 133.855469 C 187.164062 134.425781 188.785156 134.425781 190.121094 133.851562 L 251.910156 107.957031 C 253.949219 107.101562 255.277344 105.101562 255.277344 102.890625 L 255.277344 31.402344 C 255.277344 31.347656 255.277344 31.289062 255.273438 31.234375 C 255.210938 29.015625 253.796875 27.074219 251.792969 26.285156 L 190.089844 0.425781 C 188.734375 -0.140625 187.203125 -0.140625 185.84375 0.425781 L 124.140625 26.285156 C 122.089844 27.09375 120.65625 29.144531 120.65625 31.402344 L 120.65625 102.890625 C 120.65625 105.101562 121.984375 107.101562 124.023438 107.957031 Z M 244.292969 99.234375 L 193.460938 120.539062 L 193.460938 60.964844 L 244.292969 39.660156 Z M 131.640625 39.660156 L 145.046875 45.277344 C 151.597656 48.023438 155.84375 37.890625 149.292969 35.144531 L 140.359375 31.402344 L 187.96875 11.449219 L 235.574219 31.402344 L 187.96875 51.355469 L 176.40625 46.507812 C 169.855469 43.761719 165.609375 53.894531 172.15625 56.640625 L 182.472656 60.964844 L 182.472656 120.539062 L 131.640625 99.234375 Z M 131.640625 39.660156"/>
    <path fill="#0C417C"
          d="M 187.5 210.15625 C 194.820312 210.15625 194.832031 199.167969 187.5 199.167969 C 180.179688 199.167969 180.167969 210.15625 187.5 210.15625 Z M 187.5 210.15625"/>
    <path fill="#0C417C"
          d="M 187.5 175.167969 C 180.179688 175.167969 180.167969 186.152344 187.5 186.152344 C 194.820312 186.152344 194.832031 175.167969 187.5 175.167969 Z M 187.5 175.167969"/>
    <path fill="#0C417C"
          d="M 212.609375 186.152344 C 219.925781 186.152344 219.9375 175.167969 212.609375 175.167969 C 205.289062 175.167969 205.277344 186.152344 212.609375 186.152344 Z M 212.609375 186.152344"/>
    <path fill="#0C417C"
          d="M 212.609375 151.167969 C 205.289062 151.167969 205.277344 162.152344 212.609375 162.152344 C 219.925781 162.152344 219.9375 151.167969 212.609375 151.167969 Z M 212.609375 151.167969"/>
    <path fill="#0C417C"
          d="M 237.714844 151.167969 C 230.398438 151.167969 230.386719 162.152344 237.714844 162.152344 C 245.035156 162.152344 245.046875 151.167969 237.714844 151.167969 Z M 237.714844 151.167969"/>
    <path fill="#0C417C"
          d="M 262.824219 138.152344 C 270.144531 138.152344 270.15625 127.164062 262.824219 127.164062 C 255.507812 127.164062 255.496094 138.152344 262.824219 138.152344 Z M 262.824219 138.152344"/>
    <path fill="#0C417C"
          d="M 287.933594 114.148438 C 295.25 114.148438 295.261719 103.164062 287.933594 103.164062 C 280.613281 103.164062 280.601562 114.148438 287.933594 114.148438 Z M 287.933594 114.148438"/>
    <path fill="#0C417C"
          d="M 313.039062 90.148438 C 320.359375 90.148438 320.371094 79.164062 313.039062 79.164062 C 305.722656 79.164062 305.710938 90.148438 313.039062 90.148438 Z M 313.039062 90.148438"/>
    <path fill="#0C417C"
          d="M 287.933594 90.148438 C 295.25 90.148438 295.261719 79.164062 287.933594 79.164062 C 280.613281 79.164062 280.601562 90.148438 287.933594 90.148438 Z M 287.933594 90.148438"/>
    <path fill="#0C417C"
          d="M 338.148438 66.148438 C 345.46875 66.148438 345.480469 55.160156 338.148438 55.160156 C 330.832031 55.160156 330.820312 66.148438 338.148438 66.148438 Z M 338.148438 66.148438"/>
    <path fill="#0C417C"
          d="M 313.039062 66.148438 C 320.359375 66.148438 320.371094 55.160156 313.039062 55.160156 C 305.722656 55.160156 305.710938 66.148438 313.039062 66.148438 Z M 313.039062 66.148438"/>
    <path fill="#0C417C"
          d="M 287.933594 66.148438 C 295.25 66.148438 295.261719 55.160156 287.933594 55.160156 C 280.613281 55.160156 280.601562 66.148438 287.933594 66.148438 Z M 287.933594 66.148438"/>
    <path fill="#0C417C"
          d="M 112.175781 138.152344 C 119.492188 138.152344 119.503906 127.164062 112.175781 127.164062 C 104.855469 127.164062 104.84375 138.152344 112.175781 138.152344 Z M 112.175781 138.152344"/>
    <path fill="#0C417C"
          d="M 87.066406 114.148438 C 94.386719 114.148438 94.398438 103.164062 87.066406 103.164062 C 79.75 103.164062 79.738281 114.148438 87.066406 114.148438 Z M 87.066406 114.148438"/>
    <path fill="#0C417C"
          d="M 61.957031 90.148438 C 69.277344 90.148438 69.289062 79.164062 61.957031 79.164062 C 54.640625 79.164062 54.628906 90.148438 61.957031 90.148438 Z M 61.957031 90.148438"/>
    <path fill="#0C417C"
          d="M 87.066406 90.148438 C 94.386719 90.148438 94.398438 79.164062 87.066406 79.164062 C 79.75 79.164062 79.738281 90.148438 87.066406 90.148438 Z M 87.066406 90.148438"/>
    <path fill="#0C417C"
          d="M 36.851562 55.160156 C 29.53125 55.160156 29.519531 66.148438 36.851562 66.148438 C 44.167969 66.148438 44.179688 55.160156 36.851562 55.160156 Z M 36.851562 55.160156"/>
    <path fill="#0C417C"
          d="M 61.957031 66.148438 C 69.277344 66.148438 69.289062 55.160156 61.957031 55.160156 C 54.640625 55.160156 54.628906 66.148438 61.957031 66.148438 Z M 61.957031 66.148438"/>
    <path fill="#0C417C"
          d="M 87.066406 66.148438 C 94.386719 66.148438 94.398438 55.160156 87.066406 55.160156 C 79.75 55.160156 79.738281 66.148438 87.066406 66.148438 Z M 87.066406 66.148438"/>
    <path fill="#0C417C"
          d="M 187.5 151.167969 C 180.179688 151.167969 180.167969 162.152344 187.5 162.152344 C 194.820312 162.152344 194.832031 151.167969 187.5 151.167969 Z M 187.5 151.167969"/>
    <path fill="#0C417C"
          d="M 162.390625 186.152344 C 169.710938 186.152344 169.722656 175.167969 162.390625 175.167969 C 155.074219 175.167969 155.0625 186.152344 162.390625 186.152344 Z M 162.390625 186.152344"/>
    <path fill="#0C417C"
          d="M 162.390625 151.167969 C 155.074219 151.167969 155.0625 162.152344 162.390625 162.152344 C 169.710938 162.152344 169.722656 151.167969 162.390625 151.167969 Z M 162.390625 151.167969"/>
    <path fill="#0C417C"
          d="M 137.285156 162.152344 C 144.601562 162.152344 144.613281 151.167969 137.285156 151.167969 C 129.964844 151.167969 129.953125 162.152344 137.285156 162.152344 Z M 137.285156 162.152344"/>
    <path fill="#0C417C"
          d="M 195.316406 239.660156 C 196.394531 240.769531 199.984375 242.617188 203.082031 239.773438 L 329.488281 117.046875 C 334.582031 112.097656 326.929688 104.21875 321.832031 109.164062 L 195.429688 231.890625 C 193.253906 234.003906 193.203125 237.480469 195.316406 239.660156 Z M 195.316406 239.660156"/>
    <path fill="#0C417C"
          d="M 45.140625 117.046875 L 171.097656 239.332031 C 173.703125 241.4375 176.292969 241.398438 178.867188 239.214844 C 180.980469 237.039062 180.929688 233.5625 178.75 231.449219 L 52.792969 109.164062 C 50.613281 107.050781 47.136719 107.101562 45.023438 109.28125 C 42.910156 111.457031 42.960938 114.933594 45.140625 117.046875 Z M 45.140625 117.046875"/>
    <path fill="#0C417C"
          d="M 324.257812 137.867188 L 292.589844 168.394531 C 290.40625 170.5 290.34375 173.976562 292.449219 176.160156 C 293.527344 177.277344 297.398438 178.894531 300.214844 176.300781 L 331.882812 145.777344 C 336.996094 140.847656 329.371094 132.9375 324.257812 137.867188 Z M 324.257812 137.867188"/>
    <path fill="#0C417C"
          d="M 42.746094 145.777344 L 75.703125 177.550781 C 78.3125 179.648438 80.898438 179.597656 83.46875 177.40625 C 85.574219 175.222656 85.511719 171.746094 83.328125 169.640625 L 50.371094 137.867188 C 48.1875 135.761719 44.707031 135.824219 42.601562 138.011719 C 40.496094 140.195312 40.558594 143.671875 42.746094 145.777344 Z M 42.746094 145.777344"/>
</svg>