<svg xmlns="http://www.w3.org/2000/svg" width="100" viewBox="0 0 375 375" height="100" version="1.0"><path fill="#0C417C" d="M 369.507812 23.324219 C 372.542969 23.324219 375 20.863281 375 17.832031 L 375 5.492188 C 375 2.460938 372.542969 0 369.507812 0 L 315.671875 0 C 312.640625 0 310.179688 2.460938 310.179688 5.492188 L 310.179688 59.324219 C 310.179688 62.359375 312.640625 64.820312 315.671875 64.820312 L 369.507812 64.820312 C 372.542969 64.820312 375 62.359375 375 59.324219 L 375 46.632812 C 375 39.53125 364.011719 39.53125 364.011719 46.632812 L 364.011719 53.832031 L 321.167969 53.832031 L 321.167969 10.984375 L 364.011719 10.984375 L 364.011719 17.832031 C 364.011719 20.863281 366.472656 23.324219 369.507812 23.324219 Z M 369.507812 23.324219"/><path fill="#0C417C" d="M 369.507812 112.257812 L 315.671875 112.257812 C 308.570312 112.257812 308.570312 123.242188 315.671875 123.242188 L 369.507812 123.242188 C 376.609375 123.242188 376.609375 112.257812 369.507812 112.257812 Z M 369.507812 112.257812"/><path fill="#0C417C" d="M 347.535156 169.753906 C 354.636719 169.753906 354.636719 158.765625 347.535156 158.765625 L 315.671875 158.765625 C 308.570312 158.765625 308.570312 169.753906 315.671875 169.753906 Z M 347.535156 169.753906"/><path fill="#0C417C" d="M 369.507812 135.511719 L 315.671875 135.511719 C 308.570312 135.511719 308.570312 146.5 315.671875 146.5 L 369.507812 146.5 C 376.609375 146.5 376.609375 135.511719 369.507812 135.511719 Z M 369.507812 135.511719"/><path fill="#0C417C" d="M 355.976562 271.390625 C 347.101562 271.390625 339.628906 277.5 337.535156 285.730469 L 294.273438 285.730469 L 294.273438 250.148438 L 307.394531 250.148438 C 309.578125 258.25 316.984375 264.230469 325.761719 264.230469 C 351 263.183594 350.992188 227.222656 325.761719 226.179688 C 317.386719 226.179688 310.257812 231.628906 307.726562 239.164062 L 273.382812 239.164062 L 273.382812 146.5 L 289.898438 146.5 C 297 146.5 297 135.511719 289.898438 135.511719 L 273.382812 135.511719 L 273.382812 38.453125 L 289.898438 38.453125 C 297 38.453125 297 27.464844 289.898438 27.464844 L 267.890625 27.464844 C 264.855469 27.464844 262.398438 29.925781 262.398438 32.957031 L 262.398438 239.164062 L 249.234375 239.164062 L 249.234375 208.855469 C 249.234375 203.476562 247.140625 198.417969 243.332031 194.617188 L 234.585938 185.867188 L 234.585938 164.433594 C 234.585938 159.054688 232.488281 153.996094 228.683594 150.191406 L 217.792969 139.300781 C 213.988281 135.496094 208.929688 133.402344 203.550781 133.402344 L 192.015625 133.402344 L 178.332031 119.714844 C 174.527344 115.910156 169.46875 113.816406 164.089844 113.816406 L 151.609375 113.816406 C 146.230469 113.816406 141.171875 115.910156 137.367188 119.714844 L 124.617188 132.46875 L 111.867188 119.71875 C 108.0625 115.914062 103.003906 113.816406 97.621094 113.816406 L 85.144531 113.816406 C 79.761719 113.816406 74.707031 115.914062 70.902344 119.71875 L 57.214844 133.402344 L 45.679688 133.402344 C 40.300781 133.402344 35.242188 135.496094 31.441406 139.300781 L 20.546875 150.191406 C 16.746094 153.996094 14.648438 159.054688 14.648438 164.433594 L 14.648438 185.863281 L 5.898438 194.613281 C 2.09375 198.417969 0 203.476562 0 208.855469 L 0 279.960938 C 0 285.339844 2.09375 290.394531 5.898438 294.203125 L 14.648438 302.953125 L 14.648438 324.382812 C 14.648438 329.761719 16.742188 334.820312 20.546875 338.625 L 31.4375 349.515625 C 35.242188 353.320312 40.300781 355.414062 45.679688 355.414062 L 57.214844 355.414062 L 70.902344 369.101562 C 74.707031 372.90625 79.765625 375 85.144531 375 L 97.621094 375 C 103 375 108.058594 372.90625 111.863281 369.097656 L 124.617188 356.347656 L 137.367188 369.097656 C 141.171875 372.90625 146.230469 375 151.609375 375 L 164.089844 375 C 169.46875 375 174.527344 372.90625 178.332031 369.101562 L 192.015625 355.414062 L 203.550781 355.414062 C 208.933594 355.414062 213.988281 353.320312 217.792969 349.515625 L 228.683594 338.625 C 232.488281 334.820312 234.585938 329.761719 234.585938 324.382812 L 234.585938 302.953125 L 243.332031 294.203125 C 247.136719 290.398438 249.234375 285.339844 249.234375 279.960938 L 249.234375 250.148438 L 283.289062 250.148438 L 283.289062 291.222656 C 283.289062 294.253906 285.746094 296.714844 288.78125 296.714844 L 307.984375 296.714844 L 307.984375 319.242188 C 300.164062 321.605469 294.453125 328.875 294.453125 337.453125 C 295.496094 362.691406 331.460938 362.683594 332.5 337.453125 C 332.5 328.875 326.789062 321.605469 318.96875 319.242188 L 318.96875 296.714844 L 338.027344 296.714844 C 345.34375 316.621094 374.589844 311.882812 375 290.417969 C 375 279.925781 366.464844 271.390625 355.976562 271.390625 Z M 238.246094 279.960938 C 238.246094 282.40625 237.292969 284.703125 235.566406 286.433594 L 225.207031 296.792969 C 224.175781 297.824219 223.597656 299.21875 223.597656 300.675781 L 223.597656 324.382812 C 223.597656 326.828125 222.644531 329.128906 220.917969 330.859375 L 210.027344 341.746094 C 208.296875 343.476562 205.996094 344.429688 203.550781 344.429688 L 192.058594 344.429688 L 167.78125 320.152344 L 167.78125 304.527344 C 167.78125 297.425781 156.792969 297.425781 156.792969 304.527344 L 156.792969 322.425781 C 156.792969 323.882812 157.375 325.28125 158.402344 326.3125 L 181.992188 349.902344 L 170.5625 361.332031 C 168.835938 363.0625 166.535156 364.011719 164.089844 364.011719 L 151.609375 364.011719 C 149.164062 364.011719 146.867188 363.0625 145.136719 361.332031 L 130.109375 346.304688 L 130.109375 241.96875 C 130.109375 234.863281 119.125 234.863281 119.125 241.96875 L 119.125 346.304688 L 104.097656 361.332031 C 102.367188 363.0625 100.066406 364.011719 97.621094 364.011719 L 85.144531 364.011719 C 82.699219 364.011719 80.398438 363.0625 78.671875 361.332031 L 67.261719 349.921875 L 90.871094 326.308594 C 91.902344 325.28125 92.480469 323.882812 92.480469 322.425781 L 92.480469 304.527344 C 92.480469 301.492188 90.023438 299.03125 86.988281 299.03125 C 83.953125 299.03125 81.496094 301.492188 81.496094 304.527344 L 81.496094 320.152344 L 57.214844 344.429688 L 45.679688 344.429688 C 43.269531 344.429688 40.910156 343.453125 39.207031 341.746094 L 28.316406 330.855469 C 26.585938 329.128906 25.636719 326.828125 25.636719 324.382812 L 25.636719 302.875 L 40.726562 287.78125 L 56.148438 287.78125 C 57.605469 287.78125 59.003906 287.203125 60.035156 286.171875 L 72.890625 273.316406 C 77.914062 268.292969 70.144531 260.523438 65.125 265.546875 L 53.875 276.796875 L 38.453125 276.796875 C 36.996094 276.796875 35.597656 277.375 34.566406 278.40625 L 20.101562 292.867188 L 13.667969 286.433594 C 11.9375 284.703125 10.984375 282.40625 10.984375 279.960938 L 10.984375 208.855469 C 10.984375 206.410156 11.9375 204.113281 13.667969 202.382812 L 20.140625 195.90625 L 34.164062 209.929688 C 35.191406 210.957031 36.589844 211.539062 38.046875 211.539062 L 53.46875 211.539062 L 65.125 223.191406 C 70.144531 228.210938 77.914062 220.445312 72.890625 215.421875 L 59.628906 202.160156 C 58.597656 201.128906 57.203125 200.550781 55.746094 200.550781 L 40.320312 200.550781 L 25.636719 185.863281 L 25.636719 164.433594 C 25.636719 161.988281 26.585938 159.6875 28.316406 157.960938 L 39.207031 147.070312 C 40.9375 145.339844 43.234375 144.386719 45.679688 144.386719 L 57.214844 144.386719 L 81.496094 168.664062 L 81.496094 184.289062 C 81.496094 191.394531 92.480469 191.394531 92.480469 184.289062 L 92.480469 166.390625 C 92.480469 164.933594 91.902344 163.535156 90.871094 162.507812 L 67.257812 138.894531 L 78.667969 127.484375 C 80.398438 125.753906 82.699219 124.800781 85.144531 124.800781 L 97.621094 124.800781 C 100.066406 124.800781 102.367188 125.753906 104.09375 127.484375 L 119.125 142.511719 L 119.125 212.683594 C 119.125 219.785156 130.109375 219.785156 130.109375 212.683594 L 130.109375 142.511719 L 145.136719 127.484375 C 146.867188 125.753906 149.164062 124.800781 151.609375 124.800781 L 164.089844 124.800781 C 166.535156 124.800781 168.835938 125.753906 170.5625 127.484375 L 181.996094 138.914062 L 158.402344 162.507812 C 157.375 163.535156 156.796875 164.933594 156.796875 166.390625 L 156.796875 184.289062 C 156.796875 191.394531 167.78125 191.394531 167.78125 184.289062 L 167.78125 168.664062 L 192.0625 144.386719 L 203.554688 144.386719 C 206 144.386719 208.296875 145.339844 210.027344 147.070312 L 220.917969 157.960938 C 222.648438 159.6875 223.597656 161.988281 223.597656 164.433594 L 223.597656 188.140625 C 223.597656 189.597656 224.175781 190.992188 225.207031 192.023438 L 235.566406 202.382812 C 237.296875 204.113281 238.246094 206.410156 238.246094 208.855469 L 238.246094 239.160156 L 227.78125 239.160156 C 220.679688 239.160156 220.679688 250.148438 227.78125 250.148438 L 238.246094 250.148438 Z M 325.761719 237.167969 C 330.195312 237.167969 333.800781 240.773438 333.800781 245.207031 C 333.359375 255.867188 318.164062 255.867188 317.726562 245.207031 C 317.726562 240.773438 321.332031 237.167969 325.761719 237.167969 Z M 321.515625 337.453125 C 321.515625 341.886719 317.910156 345.492188 313.476562 345.492188 C 302.8125 345.050781 302.816406 329.855469 313.476562 329.417969 C 317.910156 329.417969 321.515625 333.023438 321.515625 337.453125 Z M 355.976562 298.453125 C 351.542969 298.453125 347.9375 294.847656 347.9375 290.414062 C 348.378906 279.753906 363.574219 279.753906 364.011719 290.417969 C 364.011719 294.847656 360.40625 298.453125 355.976562 298.453125 Z M 355.976562 298.453125"/><path fill="#0C417C" d="M 204.695312 209.679688 L 151.859375 209.679688 C 148.828125 209.679688 146.367188 212.136719 146.367188 215.171875 L 146.367188 273.644531 C 146.367188 280.746094 157.355469 280.746094 157.355469 273.644531 L 157.355469 220.664062 L 199.203125 220.664062 L 199.203125 273.644531 C 199.203125 280.746094 210.1875 280.746094 210.1875 273.644531 L 210.1875 215.171875 C 210.1875 212.136719 207.730469 209.679688 204.695312 209.679688 Z M 204.695312 209.679688"/><path fill="#0C417C" d="M 187.589844 256.726562 C 184.554688 256.726562 182.097656 259.1875 182.097656 262.222656 L 182.097656 273.644531 C 182.097656 280.746094 193.082031 280.746094 193.082031 273.644531 L 193.082031 262.222656 C 193.082031 259.1875 190.625 256.726562 187.589844 256.726562 Z M 187.589844 256.726562"/><path fill="#0C417C" d="M 168.964844 256.726562 C 165.929688 256.726562 163.472656 259.1875 163.472656 262.222656 L 163.472656 273.644531 C 163.472656 280.746094 174.457031 280.746094 174.457031 273.644531 L 174.457031 262.222656 C 174.457031 259.1875 172 256.726562 168.964844 256.726562 Z M 168.964844 256.726562"/></svg>