<svg xmlns="http://www.w3.org/2000/svg" width="100" viewBox="0 0 375 375" height="100" version="1.0"><path fill="#0C417C" d="M 134.664062 340.507812 L 146.402344 340.507812 L 146.402344 351.515625 L 134.664062 351.515625 Z M 134.664062 340.507812"/><path fill="#0C417C" d="M 134.664062 317.027344 L 146.402344 317.027344 L 146.402344 328.035156 L 134.664062 328.035156 Z M 134.664062 317.027344"/><path fill="#0C417C" d="M 164.84375 93.953125 C 162.382812 93.835938 159.992188 94.226562 157.777344 95.085938 L 157.777344 87.695312 C 157.777344 78.1875 150.042969 70.449219 140.535156 70.449219 C 138.335938 70.449219 136.230469 70.863281 134.296875 71.617188 L 134.296875 64.210938 C 134.296875 54.703125 126.558594 46.964844 117.050781 46.964844 C 107.539062 46.964844 99.804688 54.703125 99.804688 64.210938 L 99.804688 71.617188 C 97.867188 70.863281 95.765625 70.449219 93.566406 70.449219 C 84.058594 70.449219 76.320312 78.1875 76.320312 87.695312 L 76.320312 118.570312 C 74.105469 117.710938 71.710938 117.320312 69.257812 117.4375 C 60.050781 117.871094 52.835938 125.582031 52.835938 134.992188 L 52.835938 158.144531 L 63.84375 158.144531 L 63.84375 134.992188 C 63.84375 131.53125 66.503906 128.585938 69.773438 128.433594 C 71.507812 128.355469 73.144531 128.960938 74.386719 130.148438 C 75.632812 131.335938 76.320312 132.941406 76.320312 134.664062 L 76.320312 187.132812 L 81.824219 187.132812 C 91.738281 187.132812 99.804688 195.199219 99.804688 205.113281 L 110.8125 205.113281 C 110.8125 191.011719 100.691406 179.226562 87.328125 176.648438 L 87.328125 87.695312 C 87.328125 84.257812 90.128906 81.457031 93.566406 81.457031 C 97.007812 81.457031 99.804688 84.257812 99.804688 87.695312 L 99.804688 169.886719 L 110.8125 169.886719 L 110.8125 64.210938 C 110.8125 60.773438 113.609375 57.972656 117.050781 57.972656 C 120.488281 57.972656 123.289062 60.773438 123.289062 64.210938 L 123.289062 169.886719 L 134.296875 169.886719 L 134.296875 87.695312 C 134.296875 84.257812 137.09375 81.457031 140.535156 81.457031 C 143.972656 81.457031 146.769531 84.257812 146.769531 87.695312 L 146.769531 169.886719 L 157.777344 169.886719 L 157.777344 111.179688 C 157.777344 109.457031 158.464844 107.855469 159.710938 106.664062 C 160.957031 105.476562 162.589844 104.867188 164.324219 104.949219 C 167.59375 105.101562 170.253906 108.046875 170.253906 111.511719 L 170.253906 169.886719 L 181.261719 169.886719 L 181.261719 111.511719 C 181.261719 102.097656 174.050781 94.386719 164.84375 93.953125 Z M 164.84375 93.953125"/><path fill="#0C417C" d="M 170.253906 199.242188 C 170.253906 228.578125 146.386719 252.445312 117.050781 252.445312 C 87.710938 252.445312 63.84375 228.578125 63.84375 199.242188 L 63.84375 181.628906 L 52.835938 181.628906 L 52.835938 199.242188 C 52.835938 216.175781 59.425781 231.601562 70.179688 243.085938 L 58.183594 375 L 175.914062 375 L 163.921875 243.085938 C 174.671875 231.601562 181.261719 216.175781 181.261719 199.242188 L 181.261719 181.628906 L 170.253906 181.628906 Z M 151.96875 253.105469 C 148.75 269.441406 134.316406 281.800781 117.050781 281.800781 C 99.785156 281.800781 85.351562 269.441406 82.128906 253.105469 C 92.1875 259.648438 104.183594 263.453125 117.050781 263.453125 C 129.917969 263.453125 141.914062 259.648438 151.96875 253.105469 Z M 78.5625 272.453125 C 85.980469 283.300781 97.867188 290.867188 111.546875 292.484375 L 111.546875 363.992188 L 70.238281 363.992188 Z M 122.554688 363.992188 L 122.554688 292.484375 C 136.234375 290.867188 148.117188 283.300781 155.539062 272.453125 L 163.859375 363.992188 Z M 122.554688 363.992188"/><path fill="#0C417C" d="M 293.867188 122.554688 L 310.421875 122.554688 L 310.421875 0 L 205.480469 0 L 205.480469 46.601562 L 216.488281 46.601562 L 216.488281 11.007812 L 299.414062 11.007812 L 299.414062 88.0625 L 216.488281 88.0625 L 216.488281 58.339844 L 205.480469 58.339844 L 205.480469 122.554688 L 222.035156 122.554688 C 204.972656 134.109375 193.738281 153.644531 193.738281 175.757812 L 193.738281 193.371094 L 204.746094 193.371094 L 204.746094 175.757812 C 204.746094 157.105469 214.394531 140.664062 228.960938 131.160156 L 228.960938 157.777344 L 286.9375 157.777344 L 286.9375 131.160156 C 301.503906 140.664062 311.15625 157.105469 311.15625 175.757812 L 311.15625 193.371094 L 322.164062 193.371094 L 322.164062 175.757812 C 322.164062 153.644531 310.925781 134.109375 293.867188 122.554688 Z M 216.488281 111.546875 L 216.488281 99.070312 L 299.414062 99.070312 L 299.414062 111.546875 Z M 275.929688 146.769531 L 239.96875 146.769531 L 239.96875 125.679688 C 245.589844 123.65625 251.644531 122.554688 257.949219 122.554688 C 264.257812 122.554688 270.3125 123.65625 275.929688 125.679688 Z M 275.929688 146.769531"/><path fill="#0C417C" d="M 304.917969 199.609375 C 300.386719 199.609375 296.257812 201.367188 293.175781 204.234375 C 290.09375 201.367188 285.964844 199.609375 281.433594 199.609375 C 276.902344 199.609375 272.773438 201.367188 269.691406 204.234375 C 266.609375 201.367188 262.480469 199.609375 257.949219 199.609375 C 253.417969 199.609375 249.289062 201.367188 246.207031 204.234375 C 243.128906 201.367188 239 199.609375 234.464844 199.609375 C 232.269531 199.609375 230.164062 200.023438 228.230469 200.777344 L 228.230469 198.351562 C 241.589844 195.773438 251.710938 183.992188 251.710938 169.886719 L 240.703125 169.886719 C 240.703125 179.800781 232.640625 187.867188 222.726562 187.867188 L 217.222656 187.867188 L 217.222656 200.777344 C 215.285156 200.023438 213.183594 199.609375 210.984375 199.609375 C 201.472656 199.609375 193.738281 207.34375 193.738281 216.855469 L 193.738281 240.007812 C 193.738281 249.417969 200.949219 257.128906 210.15625 257.5625 C 210.4375 257.578125 210.71875 257.582031 210.996094 257.582031 C 213.160156 257.582031 215.261719 257.1875 217.222656 256.429688 L 217.222656 287.304688 C 217.222656 296.8125 224.957031 304.550781 234.464844 304.550781 C 236.664062 304.550781 238.769531 304.136719 240.703125 303.382812 L 240.703125 310.789062 C 240.703125 320.296875 248.441406 328.035156 257.949219 328.035156 C 267.460938 328.035156 275.195312 320.296875 275.195312 310.789062 L 275.195312 303.382812 C 277.128906 304.136719 279.234375 304.550781 281.433594 304.550781 C 290.941406 304.550781 298.679688 296.8125 298.679688 287.304688 L 298.679688 279.914062 C 300.640625 280.671875 302.738281 281.066406 304.902344 281.066406 C 305.183594 281.066406 305.460938 281.058594 305.742188 281.046875 C 314.949219 280.613281 322.164062 272.902344 322.164062 263.488281 L 322.164062 216.855469 C 322.164062 207.34375 314.425781 199.609375 304.917969 199.609375 Z M 234.464844 245.839844 C 237.90625 245.839844 240.703125 248.640625 240.703125 252.078125 C 240.703125 255.519531 237.90625 258.316406 234.464844 258.316406 C 231.027344 258.316406 228.230469 255.519531 228.230469 252.078125 C 228.230469 248.640625 231.027344 245.839844 234.464844 245.839844 Z M 257.949219 257.582031 C 261.390625 257.582031 264.1875 260.382812 264.1875 263.820312 C 264.1875 267.261719 261.390625 270.058594 257.949219 270.058594 C 254.511719 270.058594 251.710938 267.261719 251.710938 263.820312 C 251.710938 260.382812 254.511719 257.582031 257.949219 257.582031 Z M 281.433594 258.316406 C 277.992188 258.316406 275.195312 255.519531 275.195312 252.078125 C 275.195312 248.640625 277.992188 245.839844 281.433594 245.839844 C 284.871094 245.839844 287.671875 248.640625 287.671875 252.078125 C 287.671875 255.519531 284.871094 258.316406 281.433594 258.316406 Z M 281.433594 210.617188 C 284.871094 210.617188 287.671875 213.414062 287.671875 216.855469 L 287.671875 236 C 285.734375 235.246094 283.632812 234.832031 281.433594 234.832031 C 279.234375 234.832031 277.128906 235.246094 275.195312 236 L 275.195312 216.855469 C 275.195312 213.414062 277.992188 210.617188 281.433594 210.617188 Z M 257.949219 210.617188 C 261.390625 210.617188 264.1875 213.414062 264.1875 216.855469 L 264.1875 247.742188 C 262.253906 246.988281 260.148438 246.574219 257.949219 246.574219 C 255.75 246.574219 253.648438 246.988281 251.710938 247.742188 L 251.710938 216.855469 C 251.710938 213.414062 254.511719 210.617188 257.949219 210.617188 Z M 234.464844 210.617188 C 237.90625 210.617188 240.703125 213.414062 240.703125 216.855469 L 240.703125 236 C 238.769531 235.246094 236.664062 234.832031 234.464844 234.832031 C 232.269531 234.832031 230.164062 235.246094 228.230469 236 L 228.230469 216.855469 C 228.230469 213.414062 231.027344 210.617188 234.464844 210.617188 Z M 210.984375 210.617188 C 214.421875 210.617188 217.222656 213.414062 217.222656 216.855469 C 217.222656 220.292969 214.421875 223.09375 210.984375 223.09375 C 207.542969 223.09375 204.746094 220.292969 204.746094 216.855469 C 204.746094 213.414062 207.542969 210.617188 210.984375 210.617188 Z M 215.289062 244.851562 C 214.042969 246.039062 212.40625 246.644531 210.675781 246.566406 C 207.40625 246.414062 204.746094 243.46875 204.746094 240.007812 L 204.746094 232.933594 C 206.679688 233.6875 208.785156 234.101562 210.984375 234.101562 C 213.183594 234.101562 215.285156 233.6875 217.222656 232.933594 L 217.222656 240.335938 C 217.222656 242.058594 216.535156 243.664062 215.289062 244.851562 Z M 234.464844 293.542969 C 231.027344 293.542969 228.230469 290.742188 228.230469 287.304688 L 228.230469 268.15625 C 230.164062 268.910156 232.269531 269.324219 234.464844 269.324219 C 236.664062 269.324219 238.769531 268.910156 240.703125 268.15625 L 240.703125 287.304688 C 240.703125 290.742188 237.90625 293.542969 234.464844 293.542969 Z M 264.1875 310.789062 C 264.1875 314.226562 261.390625 317.027344 257.949219 317.027344 C 254.511719 317.027344 251.710938 314.226562 251.710938 310.789062 L 251.710938 279.898438 C 253.648438 280.652344 255.75 281.066406 257.949219 281.066406 C 260.148438 281.066406 262.253906 280.652344 264.1875 279.898438 Z M 281.433594 293.542969 C 277.992188 293.542969 275.195312 290.742188 275.195312 287.304688 L 275.195312 268.15625 C 277.128906 268.910156 279.234375 269.324219 281.433594 269.324219 C 283.632812 269.324219 285.734375 268.910156 287.671875 268.15625 L 287.671875 287.304688 C 287.671875 290.742188 284.871094 293.542969 281.433594 293.542969 Z M 305.226562 270.050781 C 303.5 270.128906 301.855469 269.523438 300.613281 268.335938 C 299.367188 267.144531 298.679688 265.542969 298.679688 263.820312 L 298.679688 256.414062 C 300.613281 257.167969 302.71875 257.582031 304.917969 257.582031 C 307.117188 257.582031 309.21875 257.167969 311.15625 256.414062 L 311.15625 263.488281 C 311.15625 266.953125 308.496094 269.898438 305.226562 270.050781 Z M 298.679688 240.335938 C 298.679688 236.898438 301.476562 234.101562 304.917969 234.101562 C 308.355469 234.101562 311.15625 236.898438 311.15625 240.335938 C 311.15625 243.777344 308.355469 246.574219 304.917969 246.574219 C 301.476562 246.574219 298.679688 243.777344 298.679688 240.335938 Z M 311.15625 224.257812 C 309.21875 223.507812 307.117188 223.09375 304.917969 223.09375 C 302.71875 223.09375 300.613281 223.507812 298.679688 224.257812 L 298.679688 216.855469 C 298.679688 213.414062 301.476562 210.617188 304.917969 210.617188 C 308.355469 210.617188 311.15625 213.414062 311.15625 216.855469 Z M 311.15625 224.257812"/><path fill="#0C417C" d="M 240.335938 64.578125 L 251.101562 64.578125 L 251.101562 75.585938 L 240.335938 75.585938 Z M 240.335938 64.578125"/><path fill="#0C417C" d="M 261.863281 64.578125 L 272.628906 64.578125 L 272.628906 75.585938 L 261.863281 75.585938 Z M 261.863281 64.578125"/></svg>