<svg id="Layer_1" enable-background="new 0 0 512 512" height="100" viewBox="0 0 512 512" width="100"
     xmlns="http://www.w3.org/2000/svg">
    <g>
        <g>
            <path d="m153.314 91.145-71.642-71.642c-7.578-7.578-17.856-11.835-28.572-11.835h-45.6v35.52h33.245c6.452 0 12.639 2.563 17.201 7.125l67.803 67.803z"
                  fill="#e4e4f5"/>
            <g>
                <path d="m189.517 101.558-50.476 50.263c-6.589 6.561-17.267 6.561-23.856 0l-14.382-14.321c-6.597-6.569-6.597-17.226 0-23.796l50.476-50.263c6.589-6.561 17.267-6.561 23.856 0l14.382 14.321c6.598 6.569 6.598 17.226 0 23.796z"
                      fill="#fff245"/>
                <path d="m189.517 77.762-14.382-14.322c-.071-.071-.149-.13-.221-.199 3.969 6.477 3.158 15.044-2.468 20.646l-50.476 50.263c-6.518 6.491-17.031 6.55-23.635.199.685 1.119 1.496 2.182 2.468 3.15l14.382 14.322c6.589 6.561 17.267 6.561 23.856 0l50.476-50.262c6.598-6.571 6.598-17.228 0-23.797z"
                      fill="#ffe32b"/>
                <path d="m473.751 7.49c-1.207-.304-2.424-.454-3.65-.452l-169.088.601c-11.482.041-22.276 4.535-30.395 12.653l-90.574 90.574c-.351.351-.678.716-.987 1.092l-49.361 49.151c-6.302 6.276-9.843 14.787-9.843 23.663v286.125c0 18.482 15.046 33.464 33.607 33.464h317.434c18.56 0 33.606-14.982 33.606-33.464v-430.072c0-17.522-13.527-31.89-30.749-33.335zm-238.651 94.647 56.733-56.633c2.48-2.48 5.778-3.854 9.287-3.866l168.588-.375v60.874z"
                      fill="#6947b5"/>
                <g>
                    <path d="m473.751 7.49c-1.207-.304-2.424-.454-3.65-.452l-28.284.1c.647.075 1.292.19 1.934.352 17.222 1.445 30.749 15.813 30.749 33.335v430.072c0 18.482-15.046 33.464-33.606 33.464h30c18.56 0 33.606-14.982 33.606-33.464v-430.072c0-17.522-13.527-31.89-30.749-33.335z"
                          fill="#603ab5"/>
                </g>
            </g>
            <g>
                <g>
                    <g>
                        <circle cx="312.177" cy="300.777" fill="#fff" r="136.959"/>
                        <g>
                            <path d="m265.569 226.743 42.466 73.109 4.142 7.131 46.467-80.286c-29.869-17.141-65.253-15.958-93.075.046z"
                                  fill="#fff245"/>
                            <path d="m297.215 215.51c10.767 1.758 21.409 5.436 31.428 11.186l-31.494 54.415 10.885 18.74 4.142 7.131 46.467-80.286c-19.347-11.102-41.007-14.508-61.428-11.186z"
                                  fill="#ffe32b"/>
                            <path d="m312.177 306.983 46.607 80.24c13.69-7.874 25.55-19.335 34.02-33.97s12.483-30.599 12.461-46.342z"
                                  fill="#fff245"/>
                            <path d="m375.266 306.934c.017 15.735-3.995 31.691-12.461 46.319-3.822 6.603-8.339 12.553-13.397 17.826l9.377 16.144c13.69-7.874 25.55-19.335 34.02-33.97s12.483-30.599 12.461-46.342z"
                                  fill="#ffe32b"/>
                            <path d="m265.71 387.269 46.467-80.286-93.089.072c.042 31.994 16.753 63.073 46.622 80.214z"
                                  fill="#fff245"/>
                            <path d="m282.163 307.006-37.134 64.161c5.953 6.164 12.861 11.615 20.681 16.102l46.467-80.286z"
                                  fill="#ffe32b"/>
                        </g>
                    </g>
                </g>
            </g>
        </g>
        <g>
            <path d="m504.5 394.375c4.143 0 7.5-3.358 7.5-7.5v-346.05c0-23.492-19.514-39.431-41.926-40.686h-169.088c-13.476.047-26.144 5.321-35.672 14.85l-65.242 65.242c-1.211-2.874-2.984-5.514-5.263-7.784l-14.382-14.321c-9.495-9.455-24.945-9.456-34.44 0l-7.559 7.527-51.453-51.454c-9.049-9.048-21.079-14.031-33.875-14.031h-45.6c-4.142 0-7.5 3.358-7.5 7.5v35.52c0 4.142 3.358 7.5 7.5 7.5h33.246c4.494 0 8.719 1.75 11.897 4.928l47.83 47.83-4.963 4.942c-9.337 9.296-9.358 25.107 0 34.425l14.382 14.321c2.595 2.584 5.636 4.463 8.878 5.634-4.178 6.513-6.417 14.086-6.417 22.003v286.125c0 22.587 18.44 40.964 41.106 40.964h317.434c22.666 0 41.106-18.376 41.106-40.964v-44.062c0-9.697-15-9.697-15 0v44.062c0 14.316-11.711 25.964-26.106 25.964h-317.433c-14.395 0-26.106-11.647-26.106-25.964v-286.124c0-6.929 2.711-13.445 7.635-18.348l140.933-140.829c6.709-6.709 15.629-10.423 25.117-10.457h169.073c14.305-.49 26.888 11.629 26.888 25.687v346.05c0 4.142 3.357 7.5 7.5 7.5zm-441.25-349.365c-6.011-6.011-14.003-9.322-22.504-9.322h-25.746v-20.52h38.1c8.79 0 17.054 3.423 23.269 9.638l51.43 51.431-16.697 16.626zm42.844 87.174c-3.653-4.389-3.653-8.778 0-13.167l10.291-10.247c.003-.003.007-.006.01-.01.002-.002.004-.005.007-.007l40.169-39.999c4.424-3.643 8.848-3.643 13.272 0l14.382 14.321c3.292 3.889 3.617 7.898.976 12.027l-51.768 51.702c-3.677 3.341-9.4 3.241-12.956-.299z"/>
            <path d="m477.208 102.137v-60.874c0-4.453-3.682-6.533-7.517-7.125h-168.598c-5.501.019-10.674 2.172-14.56 6.058l-56.732 56.633c-2.147 2.144-2.792 5.371-1.631 8.175 1.16 2.804 3.896 4.633 6.93 4.633h234.608c4.143 0 7.5-3.357 7.5-7.5zm-15-7.5h-208.979l43.907-43.83c1.086-1.086 2.473-1.664 4-1.669h161.072z"/>
            <path d="m7.5 214.74c-4.142 0-7.5 3.358-7.5 7.5v102.746c0 4.142 3.358 7.5 7.5 7.5s7.5-3.358 7.5-7.5v-102.746c0-4.142-3.358-7.5-7.5-7.5z"/>
            <path d="m7.5 354.276c-4.142 0-7.5 3.358-7.5 7.5v32.515c0 4.142 3.358 7.5 7.5 7.5s7.5-3.358 7.5-7.5v-32.515c0-4.142-3.358-7.5-7.5-7.5z"/>
            <path d="m7.5 83.678c-4.142 0-7.5 3.358-7.5 7.5v32.515c0 4.142 3.358 7.5 7.5 7.5s7.5-3.358 7.5-7.5v-32.515c0-4.142-3.358-7.5-7.5-7.5z"/>
            <path d="m456.636 300.778c0-40.753-16.963-77.62-44.199-103.908l31.773-31.774c6.857-6.857-3.749-17.462-10.607-10.606l-32.51 32.51c-24.533-19.214-55.41-30.681-88.916-30.681-32.538 0-63.805 11.057-88.935 30.663l-32.492-32.492c-6.857-6.857-17.464 3.75-10.606 10.606l31.738 31.738c-6.36 6.124-12.196 12.866-17.407 20.176-5.629 7.896 6.585 16.603 12.214 8.707 24.283-34.062 63.719-54.398 105.488-54.398 71.384 0 129.459 58.075 129.459 129.459s-58.075 129.459-129.459 129.459-129.459-58.075-129.459-129.459c0-14.215 2.287-28.182 6.797-41.513 3.107-9.186-11.101-13.991-14.209-4.807-5.035 14.882-7.588 30.467-7.588 46.32 0 40.595 16.832 77.333 43.883 103.601l-31.458 31.458c-6.858 6.856 3.75 17.463 10.606 10.606l32.162-32.162c24.589 19.38 55.6 30.955 89.265 30.955s64.677-11.575 89.265-30.955l32.161 32.161c6.857 6.857 17.465-3.749 10.607-10.606l-31.457-31.458c27.052-26.268 43.884-63.005 43.884-103.6z"/>
            <path d="m213.778 301.757c-1.405 1.409-2.193 3.318-2.191 5.308.048 35.674 19.356 68.899 50.389 86.708 3.412 1.958 8.252.66 10.225-2.748l39.987-69.091 40.11 69.054c1.977 3.404 6.815 4.695 10.225 2.734 15.223-8.756 27.938-21.451 36.772-36.715 8.836-15.268 13.493-32.595 13.47-50.109-.006-4.139-3.362-7.49-7.5-7.49h-.006l-80.071.062 39.946-69.019c1.922-4.184 1.003-7.605-2.758-10.262-31.021-17.8-69.546-17.781-100.547.049-3.759 2.662-4.674 6.085-2.746 10.269l40.069 68.983-80.072.062c-1.988.004-3.896.797-5.302 2.205zm183.661 12.659c-1.089 12.288-4.879 24.285-11.126 35.079-6.259 10.814-14.805 20.111-24.961 27.216l-36.151-62.239zm-49.224-84.673-36.05 62.287-36.159-62.253c22.827-10.562 49.372-10.573 72.209-.034zm-49.05 84.75-36.038 62.267c-20.621-14.381-33.928-37.253-36.194-62.211z"/>
        </g>
    </g>
</svg>