<svg id="svg" version="1.1" xmlns="http://www.w3.org/2000/svg" xmlns:xlink="http://www.w3.org/1999/xlink"
     width="100" height="100" viewBox="0, 0, 400,400">
    <g id="svgg">
        <path id="path0"
              d="M280.800 135.180 C 280.800 136.049,280.964 137.624,281.165 138.680 C 281.761 141.820,282.393 145.980,282.824 149.600 C 283.207 152.812,283.453 154.514,284.358 160.200 C 284.568 161.520,284.947 163.950,285.200 165.600 C 285.744 169.153,286.222 172.115,286.781 175.400 C 287.220 177.978,287.860 182.057,289.200 190.800 C 289.675 193.899,290.030 196.186,290.786 201.000 C 291.027 202.540,291.401 204.970,291.616 206.400 C 291.832 207.830,292.189 210.170,292.411 211.600 C 293.359 217.707,293.522 220.109,293.175 222.900 C 292.977 224.495,292.633 226.970,292.411 228.400 C 292.189 229.830,291.830 232.170,291.613 233.600 C 291.396 235.030,291.047 237.280,290.839 238.600 C 290.630 239.920,290.273 242.260,290.045 243.800 C 289.817 245.340,289.429 247.860,289.181 249.400 C 288.670 252.583,288.243 255.359,287.645 259.400 C 286.973 263.941,286.496 267.085,285.642 272.600 C 285.200 275.460,284.380 280.858,283.821 284.596 C 282.629 292.565,281.744 298.146,281.194 301.167 C 280.978 302.358,280.800 303.793,280.800 304.356 L 280.800 305.378 281.491 304.389 C 282.128 303.477,287.713 296.468,290.407 293.200 C 291.042 292.430,293.920 288.830,296.803 285.200 C 299.686 281.570,302.349 278.236,302.722 277.792 C 303.095 277.348,303.892 276.328,304.494 275.527 C 305.096 274.725,305.816 273.824,306.094 273.525 C 306.372 273.225,307.228 272.175,307.994 271.190 C 308.761 270.206,309.608 269.130,309.876 268.800 C 310.144 268.470,314.608 262.890,319.796 256.400 C 324.983 249.910,329.627 244.137,330.114 243.572 C 330.601 243.006,331.399 241.987,331.886 241.307 L 332.772 240.070 332.852 187.304 C 332.896 158.282,332.802 134.326,332.642 134.068 C 332.426 133.718,325.841 133.600,306.576 133.600 L 280.800 133.600 280.800 135.180 M332.800 160.000 L 332.800 166.000 320.000 166.000 L 307.200 166.000 307.200 160.000 L 307.200 154.000 320.000 154.000 L 332.800 154.000 332.800 160.000 M145.816 197.700 C 145.729 197.975,145.270 199.370,144.796 200.800 C 143.969 203.294,143.619 204.173,142.128 207.500 C 140.129 211.958,133.888 219.709,129.400 223.307 C 127.823 224.572,122.104 228.400,121.793 228.400 C 121.659 228.400,120.436 228.921,119.075 229.558 C 117.714 230.196,115.250 231.147,113.600 231.672 C 109.293 233.043,109.442 233.738,114.400 235.401 C 122.114 237.989,127.070 240.997,133.181 246.800 C 134.574 248.123,138.400 252.597,138.400 252.903 C 138.400 253.035,139.081 254.191,139.914 255.472 C 141.251 257.527,142.598 260.108,143.634 262.600 C 143.817 263.040,144.407 264.750,144.945 266.400 C 146.374 270.781,147.452 270.502,148.806 265.400 C 150.860 257.666,158.858 246.781,166.000 242.000 C 167.430 241.043,168.690 240.144,168.800 240.002 C 169.297 239.362,176.012 236.280,178.949 235.345 C 184.258 233.654,184.311 233.032,179.286 231.449 C 175.602 230.288,168.400 226.921,168.400 226.360 C 168.400 226.162,168.130 226.000,167.800 226.000 C 167.470 226.000,167.200 225.820,167.200 225.600 C 167.200 225.380,166.971 225.200,166.692 225.200 C 166.051 225.200,162.565 222.208,159.250 218.812 C 154.599 214.048,150.592 207.141,148.394 200.100 C 147.516 197.287,146.305 196.160,145.816 197.700 M193.209 279.500 C 192.665 280.545,192.098 281.490,191.950 281.600 C 191.802 281.710,188.073 289.015,183.663 297.832 C 179.253 306.650,175.410 314.057,175.123 314.291 C 174.615 314.706,165.013 318.149,162.600 318.782 C 161.488 319.074,158.000 320.412,158.000 320.546 C 158.000 320.880,161.990 332.523,162.163 332.697 C 162.292 332.825,165.772 331.816,169.898 330.455 C 174.024 329.094,177.672 327.985,178.004 327.990 C 178.336 327.996,182.294 331.690,186.800 336.200 C 191.306 340.710,195.177 344.400,195.403 344.400 C 195.930 344.400,204.400 335.917,204.400 335.390 C 204.400 335.171,200.800 331.396,196.400 327.000 C 192.000 322.604,188.400 318.817,188.400 318.584 C 188.400 318.350,192.180 310.609,196.800 301.381 C 201.420 292.153,205.200 284.238,205.200 283.794 C 205.200 283.071,198.631 279.225,197.339 279.191 C 197.153 279.186,196.550 278.830,196.000 278.400 C 194.568 277.280,194.313 277.380,193.209 279.500 M350.200 278.162 C 349.760 278.447,347.645 279.711,345.500 280.969 C 340.747 283.758,340.750 283.082,345.458 290.952 C 347.581 294.498,349.630 297.940,350.012 298.600 C 355.058 307.309,360.799 316.508,361.933 317.698 C 363.131 318.957,382.229 332.000,382.873 332.000 C 383.177 332.000,390.000 321.757,390.000 321.301 C 390.000 321.092,385.891 318.187,380.869 314.846 L 371.737 308.770 363.435 294.948 C 352.402 276.579,352.481 276.680,350.200 278.162 M104.753 308.897 L 95.707 326.994 93.953 327.299 C 92.989 327.466,90.760 327.774,89.000 327.983 C 83.289 328.660,72.449 330.021,66.600 330.796 C 65.060 331.000,62.090 331.365,60.000 331.607 C 57.910 331.849,55.120 332.210,53.800 332.411 C 52.480 332.611,50.262 332.890,48.871 333.030 C 45.810 333.339,45.742 333.464,46.334 337.741 C 46.582 339.533,46.896 342.007,47.031 343.239 C 47.399 346.593,47.294 346.532,51.845 346.055 C 57.033 345.511,87.360 341.743,91.144 341.172 C 94.689 340.637,94.685 340.635,95.425 344.446 C 96.454 349.751,96.859 351.775,97.218 353.400 C 97.413 354.280,97.773 356.080,98.018 357.400 C 98.263 358.720,98.618 360.520,98.807 361.400 C 98.996 362.280,99.379 364.125,99.658 365.500 C 100.204 368.191,100.194 368.184,102.354 367.627 C 103.149 367.423,104.880 367.053,106.200 366.807 C 109.826 366.131,112.567 365.481,112.885 365.221 C 113.043 365.094,111.828 358.259,110.185 350.034 C 108.543 341.809,107.200 334.832,107.200 334.529 C 107.200 334.226,111.423 325.539,116.584 315.224 C 127.161 294.085,126.496 296.360,122.600 294.650 C 121.720 294.264,119.621 293.239,117.937 292.374 C 116.252 291.508,114.632 290.800,114.337 290.800 C 114.029 290.801,109.935 298.531,104.753 308.897 M279.900 333.422 C 277.095 335.270,274.800 336.970,274.800 337.199 C 274.800 337.429,276.960 340.849,279.600 344.800 C 282.240 348.751,284.400 352.168,284.400 352.393 C 284.400 352.618,282.293 354.969,279.718 357.617 C 271.772 365.787,271.539 367.973,277.951 374.185 L 280.000 376.170 280.000 388.085 L 280.000 400.000 286.600 400.000 L 293.200 400.000 293.200 385.693 L 293.200 371.386 292.122 369.793 C 291.529 368.917,290.809 367.962,290.522 367.671 C 289.612 366.750,289.915 366.268,293.846 362.392 C 299.788 356.532,300.904 354.241,299.472 350.836 C 298.684 348.963,285.864 330.016,285.400 330.040 C 285.180 330.052,282.705 331.574,279.900 333.422 "
              stroke="none" fill="#ec9726" fill-rule="evenodd"></path>
        <path id="path1"
              d="M280.230 133.551 C 280.109 133.747,280.188 135.188,280.405 136.754 C 281.337 143.474,281.568 145.114,281.630 145.447 C 281.666 145.641,281.673 146.025,281.647 146.300 C 281.569 147.124,30.285 147.025,29.600 146.200 C 29.178 145.692,27.331 145.600,17.551 145.600 L 6.000 145.600 6.000 159.592 L 6.000 173.585 7.074 173.854 C 7.665 174.003,13.920 173.967,20.974 173.776 C 28.028 173.585,90.500 173.422,159.800 173.414 L 285.800 173.400 286.292 175.200 L 286.785 177.000 286.607 175.200 C 286.510 174.210,286.256 172.320,286.045 171.000 C 285.833 169.680,285.453 167.250,285.200 165.600 C 284.947 163.950,284.568 161.520,284.358 160.200 C 283.453 154.514,283.207 152.812,282.824 149.600 C 282.393 145.980,281.761 141.820,281.165 138.680 C 280.964 137.624,280.800 136.048,280.800 135.177 L 280.800 133.594 306.700 133.697 L 332.600 133.800 332.800 143.667 C 332.910 149.095,333.138 153.673,333.307 153.841 C 333.476 154.009,333.566 149.479,333.507 143.774 L 333.400 133.400 306.925 133.297 C 291.744 133.238,280.357 133.346,280.230 133.551 M333.100 166.533 C 332.935 166.936,332.800 183.638,332.800 203.649 L 332.800 240.032 331.900 241.288 C 331.405 241.978,330.601 243.006,330.114 243.572 C 329.627 244.137,324.983 249.910,319.796 256.400 C 314.608 262.890,310.144 268.470,309.876 268.800 C 309.608 269.130,308.761 270.206,307.994 271.190 C 307.228 272.175,306.372 273.225,306.094 273.525 C 305.816 273.824,305.096 274.725,304.494 275.527 C 303.892 276.328,303.095 277.348,302.722 277.792 C 302.349 278.236,299.686 281.570,296.803 285.200 C 293.920 288.830,291.042 292.430,290.407 293.200 C 287.713 296.468,282.128 303.477,281.491 304.389 L 280.800 305.378 280.800 304.309 C 280.800 303.721,280.966 302.376,281.169 301.320 C 281.600 299.080,282.666 292.263,284.594 279.400 C 286.513 266.605,286.786 264.867,287.219 262.669 C 287.429 261.608,287.581 260.078,287.557 259.269 L 287.514 257.800 287.188 259.400 C 287.008 260.280,286.482 263.520,286.019 266.600 C 285.030 273.169,284.504 276.571,284.009 279.600 C 283.812 280.810,283.448 283.150,283.200 284.800 C 282.952 286.450,282.592 288.790,282.400 290.000 C 282.208 291.210,281.848 293.550,281.600 295.200 C 281.352 296.850,280.989 299.190,280.792 300.400 C 279.549 308.051,278.965 308.490,292.046 291.946 C 295.151 288.019,317.757 259.771,318.733 258.599 C 319.100 258.158,320.027 256.988,320.794 255.999 C 321.561 255.009,322.371 254.004,322.594 253.763 C 322.817 253.523,323.450 252.730,324.000 252.000 C 324.550 251.270,325.182 250.477,325.405 250.237 C 326.017 249.577,331.731 242.371,332.730 240.999 L 333.604 239.798 333.502 202.799 C 333.446 182.450,333.265 166.130,333.100 166.533 M286.875 178.400 C 286.908 180.797,287.501 182.623,287.525 180.400 C 287.535 179.410,287.389 178.240,287.200 177.800 C 286.924 177.157,286.860 177.274,286.875 178.400 M287.600 183.169 C 287.600 184.039,288.765 191.948,290.434 202.400 C 290.873 205.150,291.414 208.660,291.637 210.200 C 291.860 211.740,292.228 213.958,292.456 215.130 C 292.988 217.861,292.986 222.154,292.452 224.870 C 292.222 226.042,291.831 228.440,291.583 230.200 C 291.336 231.960,290.983 234.300,290.800 235.400 C 290.617 236.500,290.266 238.750,290.021 240.400 C 289.776 242.050,289.131 246.184,288.588 249.586 C 288.045 252.989,287.600 256.214,287.600 256.753 C 287.600 258.553,288.083 257.279,288.446 254.523 C 288.643 253.025,288.989 250.630,289.215 249.200 C 289.441 247.770,289.813 245.340,290.043 243.800 C 290.272 242.260,290.630 239.920,290.839 238.600 C 291.047 237.280,291.396 235.030,291.613 233.600 C 291.830 232.170,292.189 229.830,292.411 228.400 C 292.633 226.970,292.977 224.495,293.175 222.900 C 293.522 220.109,293.359 217.707,292.411 211.600 C 292.189 210.170,291.830 207.830,291.613 206.400 C 291.396 204.970,291.047 202.720,290.839 201.400 C 290.630 200.080,290.253 197.650,290.000 196.000 C 289.747 194.350,289.387 192.010,289.200 190.800 C 289.013 189.590,288.686 187.285,288.474 185.677 C 288.095 182.809,287.600 181.389,287.600 183.169 M145.700 196.900 C 145.481 197.175,145.077 198.120,144.802 199.000 C 144.527 199.880,144.144 200.913,143.951 201.295 C 143.758 201.677,143.600 202.259,143.600 202.588 C 143.600 203.601,139.296 211.660,137.399 214.200 C 131.821 221.668,122.408 228.455,114.400 230.781 C 111.651 231.579,110.111 232.333,109.853 233.007 C 109.593 233.684,110.894 235.200,111.734 235.200 C 112.669 235.200,117.310 236.836,120.000 238.114 C 130.835 243.263,140.964 254.705,143.976 265.200 C 146.049 272.420,147.288 272.289,149.627 264.600 C 150.364 262.177,153.326 256.213,154.678 254.430 C 154.940 254.084,155.995 252.669,157.022 251.287 C 158.969 248.664,164.809 243.069,166.703 242.012 C 167.306 241.675,167.891 241.281,168.001 241.136 C 168.534 240.437,176.188 236.835,179.200 235.865 C 184.423 234.184,185.218 232.726,181.509 231.628 C 180.569 231.350,179.487 230.960,179.105 230.761 C 178.723 230.562,178.136 230.400,177.800 230.400 C 177.464 230.400,176.877 230.227,176.495 230.016 C 176.113 229.805,174.540 229.052,173.000 228.342 C 162.157 223.346,153.048 212.763,149.133 200.617 C 147.818 196.536,146.836 195.473,145.700 196.900 M148.394 200.100 C 150.592 207.141,154.599 214.048,159.250 218.812 C 162.565 222.208,166.051 225.200,166.692 225.200 C 166.971 225.200,167.200 225.380,167.200 225.600 C 167.200 225.820,167.470 226.000,167.800 226.000 C 168.130 226.000,168.400 226.162,168.400 226.360 C 168.400 226.921,175.602 230.288,179.286 231.449 C 184.311 233.032,184.258 233.654,178.949 235.345 C 176.012 236.280,169.297 239.362,168.800 240.002 C 168.690 240.144,167.430 241.043,166.000 242.000 C 158.858 246.781,150.860 257.666,148.806 265.400 C 147.452 270.502,146.374 270.781,144.945 266.400 C 144.407 264.750,143.817 263.040,143.634 262.600 C 142.598 260.108,141.251 257.527,139.914 255.472 C 139.081 254.191,138.400 253.035,138.400 252.903 C 138.400 252.597,134.574 248.123,133.181 246.800 C 127.070 240.997,122.114 237.989,114.400 235.401 C 109.442 233.738,109.293 233.043,113.600 231.672 C 115.250 231.147,117.714 230.196,119.075 229.558 C 120.436 228.921,121.659 228.400,121.793 228.400 C 122.104 228.400,127.823 224.572,129.400 223.307 C 133.888 219.709,140.129 211.958,142.128 207.500 C 143.619 204.173,143.969 203.294,144.796 200.800 C 145.270 199.370,145.729 197.975,145.816 197.700 C 146.305 196.160,147.516 197.287,148.394 200.100 M35.898 217.523 C 33.619 219.765,31.475 221.600,31.133 221.600 C 30.791 221.600,25.109 227.000,18.506 233.600 L 6.501 245.600 3.250 245.600 L 0.000 245.600 0.000 322.800 L 0.000 400.000 140.000 400.000 L 280.000 400.000 280.000 388.085 L 280.000 376.170 277.951 374.185 C 271.539 367.973,271.772 365.787,279.718 357.617 C 282.293 354.969,284.400 352.618,284.400 352.393 C 284.400 352.168,282.240 348.751,279.600 344.800 C 276.960 340.849,274.800 337.429,274.800 337.200 C 274.800 336.795,284.939 329.990,285.513 330.010 C 285.910 330.023,298.820 349.285,299.472 350.836 C 300.904 354.241,299.788 356.532,293.846 362.392 C 289.915 366.268,289.612 366.750,290.522 367.671 C 290.809 367.962,291.529 368.917,292.122 369.793 L 293.200 371.386 293.200 385.693 L 293.200 400.000 346.600 400.000 L 400.000 400.000 400.000 312.985 L 400.000 225.970 396.300 226.085 L 392.600 226.200 392.265 228.200 C 392.081 229.300,391.766 230.513,391.565 230.895 C 391.364 231.277,391.200 232.132,391.200 232.795 C 391.200 233.458,391.020 234.000,390.800 234.000 C 390.580 234.000,390.400 234.720,390.400 235.600 C 390.400 236.480,390.220 237.200,390.000 237.200 C 389.780 237.200,389.600 237.920,389.600 238.800 C 389.600 239.680,389.420 240.400,389.200 240.400 C 388.980 240.400,388.800 241.120,388.800 242.000 C 388.800 242.880,388.620 243.600,388.400 243.600 C 388.180 243.600,388.000 244.219,388.000 244.976 C 388.000 245.733,387.820 246.464,387.600 246.600 C 387.380 246.736,387.200 247.456,387.200 248.200 C 387.200 248.944,387.020 249.664,386.800 249.800 C 386.580 249.936,386.400 250.667,386.400 251.424 C 386.400 252.181,386.220 252.800,386.000 252.800 C 385.780 252.800,385.600 253.520,385.600 254.400 C 385.600 255.280,385.457 256.000,385.282 256.000 C 385.107 256.000,384.919 256.675,384.864 257.500 C 384.810 258.325,384.593 259.060,384.382 259.133 C 384.172 259.207,384.000 259.972,384.000 260.833 C 384.000 261.695,383.820 262.400,383.600 262.400 C 383.380 262.400,383.200 263.120,383.200 264.000 C 383.200 264.880,383.020 265.600,382.800 265.600 C 382.580 265.600,382.400 266.219,382.400 266.976 C 382.400 267.733,382.220 268.464,382.000 268.600 C 381.780 268.736,381.600 269.456,381.600 270.200 C 381.600 270.944,381.420 271.664,381.200 271.800 C 380.980 271.936,380.800 272.656,380.800 273.400 C 380.800 274.144,380.620 274.864,380.400 275.000 C 380.180 275.136,379.994 275.822,379.987 276.524 C 379.961 279.193,380.106 279.160,367.965 279.316 C 361.934 279.394,356.520 279.598,355.932 279.769 C 354.982 280.047,354.744 279.898,353.762 278.415 C 352.500 276.507,351.860 276.487,349.168 278.269 C 347.028 279.685,347.191 279.897,349.450 278.634 C 352.767 276.780,351.950 275.827,363.435 294.948 L 371.737 308.770 380.869 314.846 C 385.891 318.187,390.000 321.092,390.000 321.301 C 390.000 321.757,383.177 332.000,382.873 332.000 C 382.229 332.000,363.131 318.957,361.933 317.698 C 360.799 316.508,355.058 307.309,350.012 298.600 C 349.630 297.940,347.562 294.467,345.417 290.882 C 342.825 286.551,341.585 284.101,341.721 283.581 C 341.833 283.151,341.762 282.900,341.563 283.023 C 341.363 283.146,341.200 283.498,341.200 283.804 C 341.200 284.281,337.968 287.014,328.200 294.797 C 326.467 296.178,321.920 299.810,317.200 303.583 C 316.430 304.198,314.810 305.496,313.600 306.467 C 281.360 332.343,280.774 332.800,279.843 332.800 C 278.909 332.800,206.311 284.348,206.114 283.593 C 205.906 282.796,205.394 282.482,199.581 279.574 C 193.844 276.705,193.965 276.712,192.798 279.203 C 191.765 281.411,191.642 281.470,186.200 282.365 C 184.660 282.618,181.780 283.102,179.800 283.439 C 177.820 283.777,175.210 284.209,174.000 284.399 C 172.790 284.589,171.260 284.840,170.600 284.955 C 169.940 285.071,168.140 285.364,166.600 285.607 C 165.060 285.850,162.990 286.203,162.000 286.390 C 161.010 286.578,158.940 286.933,157.400 287.179 C 155.860 287.425,152.980 287.902,151.000 288.239 C 149.020 288.577,146.320 289.018,145.000 289.220 C 143.680 289.421,140.440 289.959,137.800 290.414 C 135.160 290.870,132.010 291.396,130.800 291.584 C 129.590 291.772,126.940 292.217,124.911 292.573 C 122.882 292.929,120.799 293.115,120.281 292.985 C 119.754 292.852,107.266 280.670,91.875 265.274 C 76.769 250.163,58.926 232.320,52.225 225.623 L 40.041 213.446 35.898 217.523 M196.000 278.400 C 196.550 278.830,197.153 279.186,197.339 279.191 C 198.631 279.225,205.200 283.071,205.200 283.794 C 205.200 284.238,201.420 292.153,196.800 301.381 C 192.180 310.609,188.400 318.350,188.400 318.584 C 188.400 318.817,192.000 322.604,196.400 327.000 C 200.800 331.396,204.400 335.171,204.400 335.390 C 204.400 335.917,195.930 344.400,195.403 344.400 C 195.177 344.400,191.306 340.710,186.800 336.200 C 182.294 331.690,178.336 327.996,178.004 327.990 C 177.672 327.985,174.024 329.094,169.898 330.455 C 165.772 331.816,162.292 332.825,162.163 332.697 C 161.990 332.523,158.000 320.880,158.000 320.546 C 158.000 320.412,161.488 319.074,162.600 318.782 C 165.013 318.149,174.615 314.706,175.123 314.291 C 175.410 314.057,179.253 306.650,183.663 297.832 C 188.073 289.015,191.802 281.710,191.950 281.600 C 192.098 281.490,192.665 280.545,193.209 279.500 C 194.313 277.380,194.568 277.280,196.000 278.400 M345.281 280.572 C 344.556 281.084,343.836 281.639,343.681 281.803 C 343.264 282.247,345.673 280.959,346.600 280.243 C 347.875 279.259,346.737 279.542,345.281 280.572 M117.937 292.374 C 119.621 293.239,121.720 294.264,122.600 294.650 C 126.496 296.360,127.161 294.085,116.584 315.224 C 111.423 325.539,107.200 334.226,107.200 334.529 C 107.200 334.832,108.543 341.809,110.185 350.034 C 111.828 358.259,113.043 365.094,112.885 365.221 C 112.567 365.481,109.826 366.131,106.200 366.807 C 104.880 367.053,103.149 367.423,102.354 367.627 C 100.194 368.184,100.204 368.191,99.658 365.500 C 99.379 364.125,98.996 362.280,98.807 361.400 C 98.618 360.520,98.263 358.720,98.018 357.400 C 97.773 356.080,97.413 354.280,97.218 353.400 C 96.859 351.775,96.454 349.751,95.425 344.446 C 94.685 340.635,94.689 340.637,91.144 341.172 C 87.360 341.743,57.033 345.511,51.845 346.055 C 47.294 346.532,47.399 346.593,47.031 343.239 C 46.896 342.007,46.582 339.533,46.334 337.741 C 45.742 333.464,45.810 333.339,48.871 333.030 C 50.262 332.890,52.480 332.611,53.800 332.411 C 55.120 332.210,57.910 331.849,60.000 331.607 C 62.090 331.365,65.060 331.000,66.600 330.796 C 72.449 330.021,83.289 328.660,89.000 327.983 C 90.760 327.774,92.989 327.466,93.953 327.299 L 95.707 326.994 104.753 308.897 C 109.935 298.531,114.029 290.801,114.337 290.800 C 114.632 290.800,116.252 291.508,117.937 292.374 "
              stroke="none" fill="#fbbc6c" fill-rule="evenodd"></path>
        <path id="path2"
              d="M199.117 6.216 C 198.961 6.372,196.351 6.663,193.317 6.862 C 183.833 7.487,182.211 7.651,181.820 8.031 C 181.611 8.234,180.497 8.400,179.344 8.400 C 178.191 8.400,177.136 8.580,177.000 8.800 C 176.864 9.020,175.899 9.200,174.856 9.200 C 173.813 9.200,172.789 9.362,172.580 9.559 C 172.371 9.756,171.435 10.026,170.500 10.159 C 166.301 10.754,165.582 10.906,165.374 11.242 C 165.252 11.439,164.544 11.600,163.800 11.600 C 163.056 11.600,162.319 11.808,162.161 12.062 C 161.844 12.576,161.693 12.600,168.600 11.032 C 189.844 6.209,213.913 5.565,235.800 9.234 C 290.828 18.458,338.992 54.818,362.921 105.200 C 366.146 111.992,366.493 112.772,367.803 116.200 C 368.392 117.740,369.031 119.360,369.224 119.800 C 369.416 120.240,370.251 122.670,371.079 125.200 C 371.907 127.730,372.640 129.517,372.708 129.170 C 372.868 128.354,370.086 120.021,367.910 114.800 C 367.681 114.250,367.359 113.440,367.195 113.000 C 366.881 112.154,365.246 108.584,363.120 104.100 C 362.416 102.615,361.516 100.922,361.120 100.338 C 360.724 99.754,360.400 98.989,360.400 98.638 C 360.400 98.287,360.264 98.000,360.098 98.000 C 359.931 98.000,359.541 97.415,359.230 96.700 C 358.919 95.985,358.555 95.310,358.423 95.200 C 358.290 95.090,357.570 93.830,356.824 92.400 C 356.077 90.970,355.344 89.710,355.193 89.600 C 355.043 89.490,354.686 88.950,354.400 88.400 C 353.765 87.180,349.543 80.678,349.205 80.400 C 349.071 80.290,348.526 79.570,347.994 78.800 C 347.462 78.030,346.795 77.162,346.513 76.871 C 346.231 76.581,346.000 76.184,346.000 75.990 C 346.000 75.795,345.591 75.223,345.091 74.718 C 344.592 74.213,343.740 73.170,343.199 72.400 C 342.088 70.820,341.501 70.121,337.003 65.023 C 331.304 58.565,324.886 52.336,316.981 45.593 C 316.331 45.039,315.170 44.145,314.400 43.606 C 313.630 43.067,312.460 42.126,311.800 41.515 C 311.140 40.904,310.375 40.403,310.100 40.402 C 309.825 40.401,309.600 40.259,309.600 40.086 C 309.600 39.914,309.105 39.480,308.500 39.121 C 307.895 38.763,306.989 38.114,306.487 37.677 C 305.986 37.241,304.096 35.939,302.287 34.782 C 300.479 33.626,298.550 32.379,298.000 32.010 C 297.450 31.642,295.830 30.728,294.400 29.980 C 292.970 29.231,291.710 28.525,291.600 28.410 C 291.032 27.814,280.343 22.400,279.736 22.400 C 279.441 22.400,279.200 22.220,279.200 22.000 C 279.200 21.780,278.947 21.600,278.638 21.600 C 278.329 21.600,277.294 21.214,276.338 20.743 C 275.382 20.272,274.240 19.756,273.800 19.597 C 272.575 19.153,269.884 18.066,267.900 17.213 C 263.812 15.456,250.042 11.448,246.297 10.925 C 245.471 10.810,244.695 10.555,244.574 10.358 C 244.452 10.161,243.654 10.000,242.800 10.000 C 241.946 10.000,241.136 9.820,241.000 9.600 C 240.864 9.380,239.899 9.200,238.856 9.200 C 237.813 9.200,236.789 9.036,236.580 8.835 C 236.210 8.480,234.119 8.195,228.800 7.775 C 227.370 7.661,225.840 7.403,225.400 7.200 C 224.100 6.600,199.648 5.684,199.117 6.216 M158.800 12.798 C 158.250 12.982,155.730 13.784,153.200 14.581 C 146.614 16.654,140.987 18.851,134.200 21.999 C 132.660 22.714,130.950 23.501,130.400 23.748 C 129.850 23.996,129.310 24.292,129.200 24.405 C 129.090 24.519,127.560 25.345,125.800 26.242 C 120.616 28.885,118.034 30.361,113.886 33.057 C 111.734 34.455,109.799 35.600,109.586 35.600 C 109.374 35.600,109.200 35.738,109.200 35.906 C 109.200 36.074,108.480 36.656,107.600 37.200 C 106.720 37.744,106.000 38.326,106.000 38.494 C 106.000 38.662,105.764 38.800,105.475 38.800 C 105.187 38.800,104.596 39.115,104.162 39.500 C 103.727 39.885,102.568 40.823,101.586 41.585 C 100.604 42.347,99.740 43.112,99.667 43.285 C 99.593 43.458,99.293 43.600,99.000 43.600 C 98.707 43.600,98.407 43.735,98.333 43.900 C 98.260 44.065,97.211 45.010,96.001 46.000 C 94.792 46.990,93.262 48.281,92.601 48.870 C 91.941 49.458,90.950 50.326,90.400 50.798 C 87.156 53.584,78.955 61.969,75.311 66.227 C 74.382 67.312,73.237 68.650,72.766 69.200 C 72.295 69.750,71.436 70.830,70.857 71.600 C 70.278 72.370,69.705 73.090,69.584 73.200 C 68.501 74.180,59.200 87.616,59.200 88.200 C 59.200 88.328,58.840 88.820,58.400 89.292 C 57.960 89.764,57.600 90.387,57.600 90.675 C 57.600 90.964,57.420 91.200,57.200 91.200 C 56.980 91.200,56.800 91.560,56.800 92.000 C 56.800 92.440,56.665 92.800,56.499 92.800 C 56.334 92.800,55.753 93.655,55.209 94.700 C 54.665 95.745,54.116 96.690,53.989 96.800 C 53.399 97.312,47.359 110.131,45.555 114.700 C 44.737 116.772,44.287 117.840,43.953 118.495 C 43.759 118.877,43.600 119.541,43.600 119.971 C 43.600 120.401,43.420 120.864,43.200 121.000 C 42.980 121.136,42.800 121.676,42.800 122.200 C 42.800 122.724,42.620 123.264,42.400 123.400 C 42.180 123.536,42.000 124.087,42.000 124.624 C 42.000 125.161,41.820 125.600,41.600 125.600 C 41.380 125.600,41.200 126.140,41.200 126.800 C 41.200 127.460,41.020 128.000,40.800 128.000 C 40.580 128.000,40.400 128.529,40.400 129.176 C 40.400 129.823,40.220 130.464,40.000 130.600 C 39.780 130.736,39.600 131.366,39.600 132.000 C 39.600 132.634,39.420 133.264,39.200 133.400 C 38.980 133.536,38.800 134.166,38.800 134.800 C 38.800 135.434,38.639 136.052,38.442 136.174 C 38.245 136.295,37.975 137.116,37.842 137.997 C 37.709 138.879,37.491 140.321,37.358 141.203 C 37.225 142.084,36.955 142.905,36.758 143.026 C 36.561 143.148,36.425 144.092,36.454 145.124 C 36.484 146.156,36.583 146.550,36.673 146.000 C 36.763 145.450,36.990 144.550,37.176 144.000 C 37.362 143.450,37.738 141.920,38.010 140.600 C 39.489 133.444,44.239 118.769,47.236 112.100 C 47.656 111.165,48.378 109.545,48.840 108.500 C 50.258 105.294,54.864 96.262,55.654 95.138 C 56.064 94.554,56.400 93.988,56.400 93.879 C 56.400 93.553,59.540 88.466,62.448 84.083 C 80.191 57.336,107.561 34.109,135.600 22.003 C 137.250 21.290,139.550 20.278,140.712 19.754 C 141.873 19.229,143.001 18.800,143.217 18.800 C 143.434 18.800,143.923 18.641,144.305 18.447 C 146.214 17.476,151.287 15.726,157.200 14.000 C 161.308 12.801,162.122 12.453,160.800 12.459 C 160.250 12.461,159.350 12.614,158.800 12.798 M195.800 27.050 C 192.056 27.293,176.870 29.563,174.200 30.278 C 172.880 30.632,171.170 31.057,170.400 31.223 C 167.132 31.927,160.845 33.666,158.900 34.404 C 157.745 34.842,155.810 35.560,154.600 36.000 C 147.137 38.714,147.482 38.567,138.800 42.721 C 120.757 51.352,99.325 68.424,87.982 83.200 C 87.222 84.190,86.504 85.090,86.386 85.200 C 82.254 89.065,64.800 118.797,64.800 121.971 C 64.800 122.148,64.452 123.172,64.027 124.247 C 61.550 130.505,57.200 144.678,57.200 146.490 C 57.200 146.551,107.687 146.554,169.394 146.499 L 281.587 146.397 281.360 143.899 C 281.235 142.524,280.968 140.878,280.767 140.240 C 280.565 139.602,280.400 138.504,280.400 137.800 C 280.400 137.096,280.193 135.925,279.940 135.199 C 279.075 132.719,278.176 132.800,306.644 132.800 C 320.774 132.800,332.619 132.909,332.967 133.043 C 333.540 133.263,333.600 138.375,333.600 186.842 L 333.600 240.398 332.287 241.899 C 331.564 242.724,330.505 244.030,329.932 244.800 C 329.359 245.570,328.555 246.581,328.145 247.047 C 327.735 247.512,326.950 248.489,326.400 249.218 C 325.210 250.794,323.500 252.920,323.196 253.200 C 323.077 253.310,322.354 254.209,321.590 255.199 C 320.825 256.188,319.898 257.358,319.528 257.799 C 319.158 258.239,316.495 261.570,313.609 265.200 C 310.724 268.830,307.838 272.430,307.196 273.200 C 306.555 273.970,303.474 277.840,300.349 281.800 C 297.225 285.760,294.562 289.090,294.432 289.200 C 294.302 289.310,293.704 290.059,293.104 290.865 C 292.503 291.671,291.784 292.576,291.506 292.875 C 291.228 293.175,290.372 294.225,289.606 295.210 C 287.943 297.344,288.018 297.249,284.379 301.800 C 279.473 307.936,279.125 307.769,280.823 300.094 C 281.030 299.156,281.200 297.865,281.200 297.225 C 281.200 296.585,281.371 295.192,281.581 294.131 C 281.790 293.069,282.149 290.940,282.379 289.400 C 282.608 287.860,283.254 283.651,283.815 280.046 C 284.376 276.441,285.097 271.671,285.418 269.446 C 286.046 265.092,286.287 263.512,287.596 255.200 C 288.435 249.870,288.861 247.088,289.618 242.000 C 289.830 240.570,290.177 238.320,290.388 237.000 C 290.598 235.680,290.966 233.340,291.203 231.800 C 291.441 230.260,291.830 227.830,292.067 226.400 C 292.304 224.970,292.498 222.090,292.498 220.000 C 292.498 217.910,292.304 215.030,292.067 213.600 C 291.830 212.170,291.441 209.740,291.203 208.200 C 290.966 206.660,290.598 204.320,290.388 203.000 C 290.177 201.680,289.830 199.430,289.618 198.000 C 288.862 192.915,288.435 190.131,287.596 184.800 C 287.129 181.830,286.576 178.254,286.368 176.854 C 286.160 175.453,285.892 174.148,285.771 173.954 C 285.646 173.750,236.405 173.600,169.631 173.600 L 53.710 173.600 53.462 176.900 C 53.207 180.284,54.084 195.503,54.781 199.800 C 54.996 201.120,55.351 203.370,55.570 204.800 C 56.494 210.813,56.770 212.124,58.522 218.800 C 59.532 222.650,61.165 228.050,62.151 230.800 C 63.136 233.550,64.001 236.114,64.072 236.498 C 64.142 236.882,76.731 249.726,92.046 265.040 L 119.892 292.884 121.846 292.671 C 122.921 292.553,124.430 292.348,125.200 292.215 C 126.574 291.977,128.716 291.616,133.700 290.782 C 135.075 290.552,137.100 290.204,138.200 290.009 C 139.300 289.814,141.460 289.455,143.000 289.212 C 144.540 288.969,146.790 288.592,148.000 288.375 C 149.210 288.158,155.690 287.075,162.400 285.968 C 179.243 283.189,179.086 283.215,182.000 282.751 C 184.548 282.345,187.005 281.938,190.200 281.393 C 191.626 281.150,191.903 280.906,192.742 279.160 C 193.805 276.950,194.325 276.794,196.662 277.981 C 197.508 278.410,198.920 279.109,199.800 279.533 C 204.017 281.566,205.694 282.565,206.128 283.303 C 206.387 283.745,219.124 292.434,234.430 302.612 C 249.737 312.790,262.550 321.407,262.902 321.760 C 263.748 322.605,264.418 322.336,277.200 316.015 C 289.879 309.745,308.668 295.691,317.400 285.945 C 318.280 284.963,320.373 282.639,322.051 280.780 C 331.148 270.702,348.400 242.859,348.400 238.256 C 348.400 237.983,348.543 237.589,348.718 237.380 C 348.893 237.171,349.265 236.280,349.545 235.400 C 349.824 234.520,350.209 233.440,350.400 233.000 C 351.460 230.554,353.319 224.823,354.358 220.800 C 355.012 218.270,355.833 215.120,356.183 213.800 C 360.814 196.348,360.934 164.505,356.434 147.200 C 353.925 137.553,352.694 133.249,351.627 130.400 C 349.700 125.253,348.771 122.704,348.418 121.600 C 346.940 116.972,335.832 96.676,332.438 92.400 C 331.826 91.630,329.919 89.122,328.199 86.827 C 326.479 84.532,324.156 81.644,323.036 80.410 C 321.916 79.176,319.740 76.758,318.200 75.037 C 311.696 67.770,296.233 54.901,289.198 50.902 C 288.429 50.464,286.270 49.156,284.400 47.994 C 280.718 45.705,266.923 38.868,264.000 37.882 C 263.010 37.549,261.390 36.971,260.400 36.599 C 259.410 36.227,257.610 35.562,256.400 35.122 C 255.190 34.682,253.840 34.172,253.400 33.988 C 252.960 33.805,251.430 33.360,250.000 33.000 C 248.570 32.640,245.330 31.808,242.800 31.152 C 240.270 30.495,235.950 29.610,233.200 29.185 C 230.450 28.760,226.490 28.134,224.400 27.794 C 220.678 27.188,201.398 26.687,195.800 27.050 M199.497 40.500 C 200.105 41.270,200.468 52.972,199.902 53.538 C 199.639 53.801,198.211 54.000,196.593 54.000 C 195.028 54.000,192.679 54.179,191.373 54.397 C 190.068 54.615,187.740 54.990,186.200 55.230 C 184.660 55.470,182.992 55.745,182.494 55.842 C 181.454 56.044,180.968 55.114,180.379 51.800 C 180.183 50.700,179.748 48.540,179.412 47.000 C 178.542 43.021,178.569 42.888,180.300 42.462 C 182.414 41.943,190.328 40.820,194.600 40.434 C 196.580 40.255,198.403 40.084,198.651 40.054 C 198.899 40.024,199.280 40.225,199.497 40.500 M165.122 47.500 C 166.542 51.223,168.788 58.969,168.519 59.217 C 168.344 59.379,166.320 60.167,164.023 60.967 C 156.728 63.508,148.229 67.503,142.000 71.320 C 140.570 72.196,139.040 73.113,138.600 73.357 C 133.443 76.215,123.750 84.192,116.288 91.717 C 111.005 97.045,110.304 97.621,109.688 97.139 C 109.102 96.680,106.893 94.793,101.500 90.142 C 99.965 88.818,99.755 89.147,106.500 82.305 C 113.657 75.046,128.926 62.400,130.534 62.400 C 130.635 62.400,132.400 61.347,134.458 60.061 C 139.127 57.142,151.561 50.800,152.614 50.800 C 152.721 50.800,153.572 50.455,154.504 50.033 C 155.437 49.612,157.370 48.880,158.800 48.407 C 160.230 47.934,161.760 47.392,162.200 47.203 C 163.111 46.811,164.082 46.478,164.451 46.432 C 164.590 46.414,164.892 46.895,165.122 47.500 M372.901 130.841 C 373.020 131.368,373.850 134.680,374.746 138.200 C 381.586 165.080,381.579 195.082,374.728 221.963 C 372.558 230.475,372.624 230.156,373.096 229.864 C 373.486 229.623,373.744 228.700,374.263 225.696 C 374.387 224.979,374.649 224.294,374.844 224.173 C 375.040 224.052,375.200 223.344,375.200 222.600 C 375.200 221.856,375.380 221.136,375.600 221.000 C 375.820 220.864,376.000 220.054,376.000 219.200 C 376.000 218.346,376.161 217.548,376.358 217.426 C 376.706 217.211,377.006 215.694,377.434 212.000 C 377.548 211.010,377.804 209.840,378.002 209.400 C 378.199 208.960,378.462 207.610,378.586 206.400 C 378.709 205.190,378.986 202.850,379.202 201.200 C 380.934 187.932,380.928 172.281,379.186 158.600 C 378.962 156.840,378.678 154.410,378.554 153.200 C 378.431 151.990,378.165 150.829,377.965 150.620 C 377.764 150.411,377.600 149.387,377.600 148.344 C 377.600 147.301,377.420 146.336,377.200 146.200 C 376.980 146.064,376.800 145.254,376.800 144.400 C 376.800 143.546,376.620 142.736,376.400 142.600 C 376.180 142.464,376.000 141.654,376.000 140.800 C 376.000 139.946,375.820 139.136,375.600 139.000 C 375.380 138.864,375.200 138.144,375.200 137.400 C 375.200 136.656,375.020 135.936,374.800 135.800 C 374.580 135.664,374.400 135.034,374.400 134.400 C 374.400 133.766,374.220 133.136,374.000 133.000 C 373.780 132.864,373.600 132.234,373.600 131.600 C 373.600 130.966,373.394 130.320,373.142 130.164 C 372.828 129.970,372.752 130.182,372.901 130.841 M33.100 173.832 C 32.694 174.240,32.759 182.739,33.230 190.800 C 33.690 198.676,34.268 203.597,35.578 210.800 C 35.799 212.010,36.093 213.677,36.233 214.504 C 36.501 216.082,36.972 216.692,37.396 216.007 C 37.534 215.783,37.480 215.600,37.276 215.600 C 37.071 215.600,36.803 214.835,36.680 213.900 C 36.557 212.965,36.252 211.120,36.002 209.800 C 34.605 202.427,33.944 195.105,33.661 183.865 C 33.517 178.181,33.265 173.666,33.100 173.832 M148.327 197.885 C 148.567 198.498,149.109 200.085,149.531 201.410 C 153.178 212.870,162.191 223.045,173.400 228.357 C 174.940 229.087,176.513 229.845,176.895 230.042 C 177.277 230.239,177.941 230.400,178.371 230.400 C 178.801 230.400,179.264 230.580,179.400 230.800 C 179.536 231.020,180.006 231.200,180.443 231.200 C 184.973 231.200,184.552 234.213,179.800 235.809 C 177.820 236.474,175.143 237.509,173.852 238.109 C 172.560 238.709,171.428 239.200,171.336 239.200 C 171.244 239.200,169.601 240.258,167.685 241.551 C 158.965 247.432,152.230 256.360,149.391 265.800 C 148.290 269.461,147.692 270.470,146.707 270.325 C 145.760 270.185,144.474 268.265,144.429 266.924 C 144.413 266.442,144.220 265.936,144.000 265.800 C 143.780 265.664,143.600 265.186,143.600 264.737 C 143.600 260.589,133.004 246.096,127.700 242.989 C 126.985 242.570,126.400 242.086,126.400 241.914 C 126.400 241.741,126.164 241.600,125.875 241.600 C 125.587 241.600,125.002 241.279,124.575 240.886 C 123.142 239.564,116.564 236.610,112.677 235.541 C 110.434 234.924,109.422 233.992,109.777 232.872 C 110.037 232.052,110.405 231.879,115.000 230.412 C 118.379 229.334,123.950 226.678,125.119 225.589 C 125.585 225.155,126.113 224.800,126.291 224.800 C 128.637 224.800,138.649 213.125,141.555 207.000 C 142.286 205.460,143.045 203.887,143.242 203.505 C 143.439 203.123,143.600 202.536,143.600 202.200 C 143.600 201.864,143.758 201.277,143.951 200.895 C 144.144 200.513,144.532 199.480,144.812 198.600 C 145.700 195.820,147.385 195.477,148.327 197.885 M230.359 203.091 C 232.582 206.441,234.400 209.340,234.400 209.533 C 234.400 210.038,224.294 216.800,223.539 216.800 C 222.838 216.800,214.800 204.889,214.800 203.850 C 214.800 202.878,225.274 195.955,225.859 196.540 C 226.112 196.793,228.137 199.741,230.359 203.091 M249.652 232.033 C 253.033 237.111,255.996 241.610,256.236 242.030 C 256.475 242.451,256.970 243.125,257.336 243.529 C 257.701 243.933,258.000 244.375,258.000 244.513 C 258.000 244.650,259.724 247.301,261.830 250.404 C 264.986 255.050,265.575 256.148,265.173 256.633 C 264.564 257.367,261.282 259.600,260.813 259.600 C 260.623 259.600,260.407 259.742,260.333 259.915 C 260.139 260.375,255.087 263.600,254.561 263.600 C 254.316 263.600,251.895 260.225,249.181 256.100 C 246.468 251.975,244.146 248.510,244.023 248.400 C 243.900 248.290,243.544 247.705,243.232 247.100 C 242.920 246.495,242.515 246.000,242.332 246.000 C 242.150 246.000,242.000 245.841,242.000 245.646 C 242.000 245.451,239.840 242.086,237.200 238.167 C 231.730 230.046,231.836 230.363,234.100 228.945 C 235.035 228.360,235.890 227.772,236.000 227.640 C 236.110 227.507,236.692 227.145,237.293 226.835 C 237.895 226.526,238.705 225.977,239.093 225.616 C 239.637 225.112,243.183 222.823,243.452 222.804 C 243.480 222.802,246.270 226.955,249.652 232.033 M371.013 235.039 C 369.585 239.322,367.658 244.377,365.707 248.959 C 365.323 249.862,363.437 253.750,361.517 257.600 C 358.194 264.264,356.878 266.594,352.027 274.400 C 350.865 276.270,350.285 277.465,350.739 277.055 C 351.889 276.015,357.610 266.739,359.099 263.500 C 359.478 262.675,359.926 262.000,360.094 262.000 C 360.262 262.000,360.400 261.640,360.400 261.200 C 360.400 260.760,360.580 260.400,360.800 260.400 C 361.020 260.400,361.200 260.055,361.200 259.633 C 361.200 259.212,361.336 258.807,361.502 258.733 C 361.795 258.604,363.086 256.041,365.649 250.500 C 366.336 249.015,367.056 247.395,367.249 246.900 C 367.442 246.405,367.763 245.595,367.963 245.100 C 370.409 239.041,372.875 231.681,372.722 230.899 C 372.655 230.557,371.886 232.420,371.013 235.039 M220.045 246.104 C 221.060 247.037,225.200 250.769,229.245 254.399 C 233.290 258.028,236.978 261.358,237.440 261.799 C 237.902 262.239,239.657 263.828,241.340 265.328 C 245.040 268.627,245.027 268.093,241.500 272.040 C 239.905 273.824,237.946 276.015,237.147 276.908 L 235.694 278.532 234.682 277.736 C 234.126 277.298,232.080 275.495,230.135 273.729 C 226.692 270.602,221.231 265.692,214.421 259.600 C 207.916 253.781,208.261 254.590,211.012 251.600 C 211.923 250.610,213.732 248.602,215.034 247.138 C 217.866 243.951,217.733 243.979,220.045 246.104 "
              stroke="none" fill="#ccf3f3" fill-rule="evenodd"></path>
        <path id="path3"
              d="M196.200 7.034 C 182.127 8.065,168.449 10.545,156.000 14.323 C 150.106 16.112,146.161 17.503,144.305 18.447 C 143.923 18.641,143.434 18.800,143.217 18.800 C 143.001 18.800,141.873 19.229,140.712 19.754 C 139.550 20.278,137.250 21.290,135.600 22.003 C 107.561 34.109,80.191 57.336,62.448 84.083 C 59.540 88.466,56.400 93.553,56.400 93.879 C 56.400 93.988,56.064 94.554,55.654 95.138 C 54.864 96.262,50.258 105.294,48.840 108.500 C 48.378 109.545,47.656 111.165,47.236 112.100 C 44.232 118.786,39.463 133.524,38.015 140.600 C 37.745 141.920,37.361 143.413,37.162 143.919 C 36.963 144.424,36.800 145.279,36.800 145.819 L 36.800 146.800 47.000 146.800 C 52.610 146.800,57.200 146.706,57.200 146.590 C 57.200 144.690,61.481 130.679,64.027 124.247 C 64.452 123.172,64.800 122.148,64.800 121.971 C 64.800 118.797,82.254 89.065,86.386 85.200 C 86.504 85.090,87.222 84.190,87.982 83.200 C 99.325 68.424,120.757 51.352,138.800 42.721 C 147.482 38.567,147.137 38.714,154.600 36.000 C 155.810 35.560,157.745 34.842,158.900 34.404 C 160.845 33.666,167.132 31.927,170.400 31.223 C 171.170 31.057,172.880 30.632,174.200 30.278 C 185.601 27.222,212.573 25.861,224.200 27.754 C 226.620 28.148,230.760 28.805,233.400 29.214 C 236.040 29.623,240.270 30.495,242.800 31.151 C 245.330 31.808,248.570 32.640,250.000 33.000 C 251.430 33.360,252.960 33.805,253.400 33.988 C 253.840 34.172,255.190 34.682,256.400 35.122 C 257.610 35.562,259.410 36.227,260.400 36.599 C 261.390 36.971,263.010 37.549,264.000 37.882 C 266.923 38.868,280.718 45.705,284.400 47.994 C 286.270 49.156,288.429 50.464,289.198 50.902 C 296.233 54.901,311.696 67.770,318.200 75.037 C 319.740 76.758,321.916 79.176,323.036 80.410 C 324.156 81.644,326.479 84.532,328.199 86.827 C 329.919 89.122,331.826 91.630,332.438 92.400 C 335.839 96.685,346.979 117.047,348.414 121.600 C 348.704 122.522,350.030 126.151,352.068 131.600 C 352.751 133.425,354.178 138.523,356.434 147.200 C 360.934 164.505,360.814 196.348,356.183 213.800 C 355.833 215.120,355.012 218.270,354.358 220.800 C 353.319 224.823,351.460 230.554,350.400 233.000 C 350.209 233.440,349.824 234.520,349.545 235.400 C 349.265 236.280,348.893 237.171,348.718 237.380 C 348.543 237.589,348.400 237.983,348.400 238.256 C 348.400 242.859,331.148 270.702,322.051 280.780 C 320.373 282.639,318.280 284.963,317.400 285.945 C 308.808 295.535,289.962 309.683,277.600 315.824 C 270.780 319.213,264.831 322.000,264.421 322.000 C 264.189 322.000,264.000 322.151,264.000 322.336 C 264.000 322.835,279.088 332.800,279.843 332.800 C 280.774 332.800,281.360 332.343,313.600 306.467 C 314.810 305.496,316.430 304.198,317.200 303.583 C 321.920 299.810,326.467 296.178,328.200 294.797 C 337.881 287.083,341.200 284.285,341.200 283.839 C 341.200 283.363,345.187 280.517,347.600 279.271 C 349.774 278.149,349.910 277.965,356.083 267.800 C 376.749 233.768,384.434 189.873,377.012 148.255 C 375.587 140.264,371.280 124.533,369.221 119.800 C 369.030 119.360,368.392 117.740,367.803 116.200 C 366.493 112.772,366.146 111.992,362.921 105.200 C 339.338 55.547,292.822 19.907,238.200 9.639 C 227.176 7.567,206.460 6.282,196.200 7.034 M307.200 160.000 L 307.200 166.000 320.000 166.000 L 332.800 166.000 332.800 160.000 L 332.800 154.000 320.000 154.000 L 307.200 154.000 307.200 160.000 M333.361 160.000 C 333.361 163.410,333.422 164.805,333.497 163.100 C 333.572 161.395,333.572 158.605,333.497 156.900 C 333.422 155.195,333.361 156.590,333.361 160.000 M33.740 173.812 C 33.415 174.660,33.915 194.285,34.362 198.200 C 34.863 202.590,35.544 207.405,36.001 209.800 C 36.211 210.900,36.502 212.655,36.647 213.700 C 36.951 215.884,37.223 215.988,38.909 214.569 L 40.134 213.539 51.969 225.369 C 58.479 231.876,63.926 237.200,64.075 237.200 C 64.416 237.200,64.086 236.108,62.025 230.400 C 61.111 227.870,59.536 222.650,58.525 218.800 C 56.771 212.125,56.494 210.815,55.570 204.800 C 55.351 203.370,54.996 201.120,54.781 199.800 C 54.086 195.516,53.200 180.285,53.459 177.058 C 53.656 174.604,53.589 173.839,53.155 173.564 C 52.083 172.885,34.007 173.115,33.740 173.812 M220.100 199.648 C 217.020 201.721,214.800 203.481,214.800 203.850 C 214.800 204.889,222.838 216.800,223.539 216.800 C 224.294 216.800,234.400 210.038,234.400 209.533 C 234.400 209.148,226.600 197.282,225.859 196.540 C 225.513 196.194,224.091 196.962,220.100 199.648 M241.600 223.884 C 240.610 224.476,239.482 225.256,239.093 225.616 C 238.705 225.977,237.895 226.526,237.293 226.835 C 236.692 227.145,236.110 227.507,236.000 227.640 C 235.890 227.772,235.035 228.360,234.100 228.945 C 231.836 230.363,231.730 230.046,237.200 238.167 C 239.840 242.086,242.000 245.451,242.000 245.646 C 242.000 245.841,242.150 246.000,242.332 246.000 C 242.515 246.000,242.920 246.495,243.232 247.100 C 243.544 247.705,243.900 248.290,244.023 248.400 C 244.146 248.510,246.468 251.975,249.181 256.100 C 251.895 260.225,254.316 263.600,254.561 263.600 C 255.087 263.600,260.139 260.375,260.333 259.915 C 260.407 259.742,260.623 259.600,260.813 259.600 C 261.282 259.600,264.564 257.367,265.173 256.633 C 265.575 256.148,264.986 255.050,261.830 250.404 C 259.724 247.301,258.000 244.650,258.000 244.513 C 258.000 244.375,257.701 243.933,257.336 243.529 C 256.970 243.125,256.475 242.451,256.236 242.030 C 255.739 241.159,243.531 222.798,243.452 222.804 C 243.423 222.806,242.590 223.292,241.600 223.884 M215.034 247.138 C 213.732 248.602,211.923 250.610,211.012 251.600 C 208.261 254.590,207.916 253.781,214.421 259.600 C 221.231 265.692,226.692 270.602,230.135 273.729 C 232.080 275.495,234.126 277.298,234.682 277.736 L 235.694 278.532 237.147 276.908 C 245.804 267.235,245.236 268.802,241.340 265.328 C 239.657 263.828,237.902 262.239,237.440 261.799 C 236.978 261.358,233.290 258.028,229.245 254.399 C 225.200 250.769,221.060 247.037,220.045 246.104 C 217.733 243.979,217.866 243.951,215.034 247.138 "
              stroke="none" fill="#64c3c3" fill-rule="evenodd"></path>
        <path id="path4"
              d="M186.601 0.274 C 184.842 0.364,183.231 0.609,183.021 0.819 C 182.812 1.028,181.416 1.200,179.920 1.200 C 178.373 1.200,177.200 1.373,177.200 1.600 C 177.200 1.820,176.401 2.000,175.424 2.000 C 174.447 2.000,173.536 2.180,173.400 2.400 C 173.264 2.620,172.209 2.800,171.056 2.800 C 169.903 2.800,168.786 2.974,168.573 3.187 C 168.361 3.399,167.560 3.615,166.793 3.667 C 166.027 3.719,165.305 3.897,165.188 4.062 C 165.071 4.228,164.306 4.408,163.488 4.463 C 162.670 4.518,162.000 4.707,162.000 4.882 C 162.000 5.057,161.471 5.200,160.824 5.200 C 160.177 5.200,159.536 5.380,159.400 5.600 C 159.264 5.820,158.659 6.000,158.056 6.000 C 157.453 6.000,156.786 6.174,156.573 6.387 C 156.361 6.599,155.605 6.817,154.893 6.872 C 154.182 6.926,153.600 7.112,153.600 7.285 C 153.600 7.458,153.060 7.600,152.400 7.600 C 151.740 7.600,151.200 7.760,151.200 7.955 C 151.200 8.278,150.377 8.506,147.615 8.950 C 147.074 9.037,146.570 9.290,146.496 9.512 C 146.422 9.734,146.004 9.822,145.568 9.707 C 145.131 9.593,144.450 9.793,144.054 10.151 C 143.659 10.509,143.215 10.681,143.068 10.534 C 142.920 10.387,142.800 10.507,142.800 10.800 C 142.800 11.093,142.695 11.229,142.567 11.101 C 142.440 10.973,141.593 11.201,140.685 11.607 C 139.778 12.013,138.865 12.240,138.656 12.111 C 138.447 11.982,138.405 12.084,138.562 12.338 C 138.754 12.649,138.447 12.800,137.624 12.800 C 136.951 12.800,136.400 12.941,136.400 13.112 C 136.400 13.463,133.993 14.542,133.450 14.435 C 133.257 14.398,132.774 14.662,132.375 15.022 C 131.977 15.383,131.459 15.560,131.225 15.416 C 130.991 15.271,130.800 15.343,130.800 15.576 C 130.800 15.809,130.440 16.000,130.000 16.000 C 129.560 16.000,129.200 16.180,129.200 16.400 C 129.200 16.620,128.840 16.800,128.400 16.800 C 127.960 16.800,127.600 16.946,127.600 17.125 C 127.600 17.304,126.970 17.698,126.200 18.000 C 125.430 18.302,124.800 18.696,124.800 18.875 C 124.800 19.054,124.440 19.200,124.000 19.200 C 123.560 19.200,123.200 19.380,123.200 19.600 C 123.200 19.820,122.840 20.000,122.400 20.000 C 121.960 20.000,121.599 20.135,121.597 20.300 C 121.593 20.680,119.642 21.598,118.820 21.606 C 118.274 21.612,118.271 21.658,118.800 22.000 C 119.289 22.316,119.240 22.389,118.533 22.394 C 118.057 22.397,117.607 22.535,117.533 22.700 C 117.460 22.865,116.545 23.433,115.500 23.963 C 114.455 24.492,113.600 25.097,113.600 25.306 C 113.600 25.515,113.345 25.588,113.033 25.468 C 112.721 25.348,112.363 25.521,112.236 25.851 C 112.109 26.181,111.846 26.352,111.650 26.231 C 111.455 26.110,110.619 26.549,109.793 27.206 C 108.966 27.863,108.148 28.400,107.974 28.400 C 107.800 28.400,107.410 28.647,107.109 28.948 C 106.808 29.250,105.958 29.808,105.222 30.189 C 104.485 30.570,103.447 31.317,102.915 31.848 C 102.383 32.380,101.813 32.731,101.647 32.629 C 101.481 32.527,101.093 32.793,100.785 33.221 C 100.476 33.650,100.030 34.000,99.794 34.000 C 99.557 34.000,98.390 34.900,97.200 36.000 C 96.010 37.100,94.843 38.000,94.606 38.000 C 94.370 38.000,93.917 38.360,93.600 38.800 C 93.283 39.240,92.877 39.600,92.698 39.600 C 92.520 39.600,91.743 40.230,90.973 41.000 C 90.203 41.770,89.399 42.400,89.187 42.400 C 88.974 42.400,88.800 42.641,88.800 42.936 C 88.800 43.230,88.340 43.681,87.777 43.937 C 87.215 44.194,86.864 44.581,86.998 44.797 C 87.132 45.014,87.007 45.108,86.721 45.007 C 86.087 44.783,85.045 45.548,84.688 46.500 C 84.543 46.885,84.149 47.200,83.813 47.200 C 83.476 47.200,83.200 47.458,83.200 47.773 C 83.200 48.088,82.840 48.460,82.400 48.600 C 81.960 48.740,81.600 49.122,81.600 49.451 C 81.600 49.779,81.420 49.936,81.200 49.800 C 80.980 49.664,80.798 49.698,80.797 49.876 C 80.792 50.296,78.433 52.774,77.065 53.795 C 76.479 54.232,76.000 54.727,76.000 54.894 C 76.000 55.061,74.830 56.362,73.400 57.785 C 71.970 59.208,70.800 60.559,70.800 60.786 C 70.800 61.014,70.665 61.201,70.500 61.201 C 70.335 61.202,69.840 61.741,69.400 62.400 C 68.960 63.059,68.452 63.598,68.271 63.599 C 67.833 63.600,66.650 64.797,67.071 64.812 C 67.252 64.819,67.085 65.008,66.700 65.232 C 66.315 65.456,66.000 65.875,66.000 66.162 C 66.000 66.449,65.503 67.115,64.894 67.642 C 64.286 68.169,63.536 69.095,63.227 69.700 C 62.918 70.305,62.515 70.800,62.332 70.800 C 62.150 70.800,61.997 71.205,61.994 71.700 C 61.989 72.428,61.914 72.485,61.600 72.000 C 61.266 71.483,61.211 71.495,61.206 72.079 C 61.203 72.453,60.750 73.244,60.200 73.838 C 59.257 74.856,59.029 75.359,59.163 76.130 C 59.194 76.311,59.035 76.345,58.810 76.206 C 58.584 76.067,58.400 76.244,58.400 76.600 C 58.400 76.956,58.220 77.136,58.000 77.000 C 57.780 76.864,57.600 77.033,57.600 77.376 C 57.600 77.719,57.420 78.000,57.200 78.000 C 56.980 78.000,56.821 78.135,56.847 78.300 C 56.973 79.097,56.760 79.622,56.400 79.400 C 56.180 79.264,56.000 79.484,56.000 79.888 C 56.000 80.293,55.640 80.883,55.200 81.200 C 54.760 81.517,54.400 82.014,54.400 82.305 C 54.400 82.837,53.190 84.704,51.900 86.160 C 51.515 86.595,51.200 87.187,51.200 87.475 C 51.200 87.764,51.020 88.000,50.800 88.000 C 50.580 88.000,50.400 88.272,50.400 88.605 C 50.400 89.346,49.619 90.781,48.772 91.596 C 48.135 92.210,47.575 93.319,47.361 94.393 C 47.297 94.719,47.054 95.049,46.822 95.126 C 46.590 95.203,46.400 95.501,46.400 95.788 C 46.400 96.654,45.343 98.409,45.011 98.094 C 44.840 97.932,44.825 98.205,44.977 98.700 C 45.183 99.368,45.092 99.600,44.627 99.600 C 44.267 99.600,44.000 99.940,44.000 100.400 C 44.000 100.840,43.790 101.200,43.533 101.200 C 43.277 101.200,43.179 101.312,43.316 101.450 C 43.453 101.587,43.246 102.352,42.855 103.150 C 42.463 103.947,41.894 105.410,41.588 106.400 C 41.283 107.390,40.936 108.290,40.817 108.400 C 40.283 108.893,39.600 110.461,39.600 111.195 C 39.600 111.638,39.420 112.000,39.200 112.000 C 38.980 112.000,38.800 112.360,38.800 112.800 C 38.800 113.240,38.620 113.600,38.400 113.600 C 38.180 113.600,38.000 114.014,38.000 114.520 C 38.000 115.574,37.147 117.592,36.700 117.597 C 36.535 117.599,36.400 118.140,36.400 118.800 C 36.400 119.460,36.242 120.000,36.050 120.000 C 35.858 120.000,35.700 120.470,35.700 121.045 C 35.700 121.621,35.543 122.206,35.350 122.345 C 35.157 122.485,34.938 123.050,34.862 123.600 C 34.786 124.150,34.561 124.660,34.362 124.733 C 34.163 124.807,34.000 125.392,34.000 126.033 C 34.000 126.675,33.858 127.200,33.685 127.200 C 33.512 127.200,33.326 127.778,33.272 128.484 C 33.218 129.191,32.980 129.889,32.742 130.036 C 32.453 130.215,32.490 130.375,32.855 130.520 C 33.242 130.674,33.255 130.746,32.900 130.768 C 32.625 130.786,32.400 131.149,32.400 131.576 C 32.400 132.003,32.220 132.464,32.000 132.600 C 31.780 132.736,31.600 133.456,31.600 134.200 C 31.600 134.944,31.458 135.641,31.284 135.748 C 31.110 135.856,30.921 136.631,30.864 137.471 C 30.808 138.311,30.590 139.170,30.381 139.379 C 30.171 139.589,30.000 140.433,30.000 141.256 C 30.000 142.079,29.859 142.840,29.687 142.946 C 29.178 143.261,29.143 145.649,29.639 146.247 C 29.959 146.632,31.055 146.800,33.249 146.800 L 36.400 146.800 36.400 145.024 C 36.400 144.047,36.561 143.148,36.758 143.026 C 37.095 142.818,37.218 142.255,37.833 138.097 C 37.971 137.161,38.245 136.295,38.442 136.174 C 38.639 136.052,38.800 135.434,38.800 134.800 C 38.800 134.166,38.980 133.536,39.200 133.400 C 39.420 133.264,39.600 132.634,39.600 132.000 C 39.600 131.366,39.780 130.736,40.000 130.600 C 40.220 130.464,40.400 129.823,40.400 129.176 C 40.400 128.529,40.580 128.000,40.800 128.000 C 41.020 128.000,41.200 127.460,41.200 126.800 C 41.200 126.140,41.380 125.600,41.600 125.600 C 41.820 125.600,42.000 125.161,42.000 124.624 C 42.000 124.087,42.180 123.536,42.400 123.400 C 42.620 123.264,42.800 122.724,42.800 122.200 C 42.800 121.676,42.980 121.136,43.200 121.000 C 43.420 120.864,43.600 120.401,43.600 119.971 C 43.600 119.541,43.759 118.877,43.953 118.495 C 44.287 117.840,44.737 116.772,45.555 114.700 C 47.359 110.131,53.399 97.312,53.989 96.800 C 54.116 96.690,54.665 95.745,55.209 94.700 C 55.753 93.655,56.334 92.800,56.499 92.800 C 56.665 92.800,56.800 92.440,56.800 92.000 C 56.800 91.560,56.980 91.200,57.200 91.200 C 57.420 91.200,57.600 90.964,57.600 90.675 C 57.600 90.387,57.960 89.764,58.400 89.292 C 58.840 88.820,59.200 88.328,59.200 88.200 C 59.200 87.616,68.501 74.180,69.584 73.200 C 69.705 73.090,70.278 72.370,70.857 71.600 C 71.436 70.830,72.295 69.750,72.766 69.200 C 73.237 68.650,74.382 67.312,75.311 66.227 C 78.955 61.969,87.156 53.584,90.400 50.798 C 90.950 50.326,91.941 49.458,92.601 48.870 C 93.262 48.281,94.792 46.990,96.001 46.000 C 97.211 45.010,98.260 44.065,98.333 43.900 C 98.407 43.735,98.707 43.600,99.000 43.600 C 99.293 43.600,99.593 43.458,99.667 43.285 C 99.740 43.112,100.604 42.347,101.586 41.585 C 102.568 40.823,103.727 39.885,104.162 39.500 C 104.596 39.115,105.187 38.800,105.475 38.800 C 105.764 38.800,106.000 38.662,106.000 38.494 C 106.000 38.326,106.720 37.744,107.600 37.200 C 108.480 36.656,109.200 36.074,109.200 35.906 C 109.200 35.738,109.374 35.600,109.586 35.600 C 109.799 35.600,111.734 34.455,113.886 33.057 C 118.034 30.361,120.616 28.885,125.800 26.242 C 127.560 25.345,129.090 24.519,129.200 24.405 C 129.310 24.292,129.850 23.996,130.400 23.748 C 130.950 23.501,132.660 22.714,134.200 21.999 C 138.746 19.891,140.002 19.352,144.000 17.794 C 148.635 15.988,156.251 13.496,159.214 12.816 C 160.416 12.540,161.713 12.154,162.095 11.957 C 162.477 11.761,163.321 11.600,163.971 11.600 C 164.621 11.600,165.252 11.439,165.374 11.242 C 165.582 10.906,166.301 10.754,170.500 10.159 C 171.435 10.026,172.371 9.756,172.580 9.559 C 172.789 9.362,173.813 9.200,174.856 9.200 C 175.899 9.200,176.864 9.020,177.000 8.800 C 177.136 8.580,178.191 8.400,179.344 8.400 C 180.497 8.400,181.611 8.234,181.820 8.031 C 182.029 7.828,183.460 7.564,185.000 7.444 C 186.540 7.324,190.320 7.009,193.400 6.745 C 202.533 5.962,223.284 6.264,225.400 7.211 C 225.840 7.408,227.370 7.661,228.800 7.775 C 234.119 8.195,236.210 8.480,236.580 8.835 C 236.789 9.036,237.813 9.200,238.856 9.200 C 239.899 9.200,240.864 9.380,241.000 9.600 C 241.136 9.820,241.946 10.000,242.800 10.000 C 243.654 10.000,244.452 10.161,244.574 10.358 C 244.695 10.555,245.471 10.810,246.297 10.925 C 250.042 11.448,263.812 15.456,267.900 17.213 C 269.397 17.856,270.955 18.490,271.800 18.800 C 273.539 19.437,274.673 19.922,276.338 20.743 C 277.294 21.214,278.329 21.600,278.638 21.600 C 278.947 21.600,279.200 21.780,279.200 22.000 C 279.200 22.220,279.441 22.400,279.736 22.400 C 280.343 22.400,291.032 27.814,291.600 28.410 C 291.710 28.525,292.970 29.231,294.400 29.980 C 295.830 30.728,297.450 31.642,298.000 32.010 C 298.550 32.379,300.479 33.626,302.287 34.782 C 304.096 35.939,305.986 37.241,306.487 37.677 C 306.989 38.114,307.895 38.763,308.500 39.121 C 309.105 39.480,309.600 39.914,309.600 40.086 C 309.600 40.259,309.825 40.401,310.100 40.402 C 310.375 40.403,311.140 40.904,311.800 41.515 C 312.460 42.126,313.630 43.067,314.400 43.606 C 315.170 44.145,316.331 45.039,316.981 45.593 C 324.886 52.336,331.304 58.565,337.003 65.023 C 341.501 70.121,342.088 70.820,343.199 72.400 C 343.740 73.170,344.592 74.213,345.091 74.718 C 345.591 75.223,346.000 75.795,346.000 75.990 C 346.000 76.184,346.231 76.581,346.513 76.871 C 346.795 77.162,347.462 78.030,347.994 78.800 C 348.526 79.570,349.071 80.290,349.205 80.400 C 349.543 80.678,353.765 87.180,354.400 88.400 C 354.686 88.950,355.043 89.490,355.193 89.600 C 355.344 89.710,356.077 90.970,356.824 92.400 C 357.570 93.830,358.290 95.090,358.423 95.200 C 358.555 95.310,358.919 95.985,359.230 96.700 C 359.541 97.415,359.931 98.000,360.098 98.000 C 360.264 98.000,360.400 98.287,360.400 98.638 C 360.400 98.989,360.724 99.754,361.120 100.338 C 361.516 100.922,362.416 102.615,363.120 104.100 C 365.176 108.436,366.871 112.131,367.249 113.100 C 367.442 113.595,367.763 114.405,367.963 114.900 C 370.164 120.353,372.800 128.145,372.800 129.199 C 372.800 129.614,372.980 130.064,373.200 130.200 C 373.420 130.336,373.600 130.966,373.600 131.600 C 373.600 132.234,373.780 132.864,374.000 133.000 C 374.220 133.136,374.400 133.766,374.400 134.400 C 374.400 135.034,374.580 135.664,374.800 135.800 C 375.020 135.936,375.200 136.656,375.200 137.400 C 375.200 138.144,375.380 138.864,375.600 139.000 C 375.820 139.136,376.000 139.946,376.000 140.800 C 376.000 141.654,376.180 142.464,376.400 142.600 C 376.620 142.736,376.800 143.546,376.800 144.400 C 376.800 145.254,376.980 146.064,377.200 146.200 C 377.420 146.336,377.600 147.301,377.600 148.344 C 377.600 149.387,377.764 150.411,377.965 150.620 C 378.165 150.829,378.431 151.990,378.554 153.200 C 378.678 154.410,378.962 156.840,379.186 158.600 C 380.928 172.281,380.934 187.932,379.202 201.200 C 378.986 202.850,378.709 205.190,378.586 206.400 C 378.462 207.610,378.199 208.960,378.002 209.400 C 377.804 209.840,377.548 211.010,377.434 212.000 C 377.006 215.694,376.706 217.211,376.358 217.426 C 376.161 217.548,376.000 218.346,376.000 219.200 C 376.000 220.054,375.820 220.864,375.600 221.000 C 375.380 221.136,375.200 221.856,375.200 222.600 C 375.200 223.344,375.020 224.064,374.800 224.200 C 374.580 224.336,374.400 224.829,374.400 225.295 C 374.400 226.196,373.735 228.539,373.151 229.695 C 372.958 230.077,372.800 230.672,372.800 231.018 C 372.800 231.932,370.703 238.061,368.017 245.000 C 367.279 246.905,366.822 247.963,365.598 250.600 C 362.919 256.371,361.795 258.604,361.502 258.733 C 361.336 258.807,361.200 259.212,361.200 259.633 C 361.200 260.055,361.020 260.400,360.800 260.400 C 360.580 260.400,360.400 260.760,360.400 261.200 C 360.400 261.640,360.262 262.000,360.094 262.000 C 359.926 262.000,359.478 262.675,359.099 263.500 C 358.720 264.325,357.929 265.810,357.342 266.800 C 356.754 267.790,356.073 268.960,355.827 269.400 C 355.278 270.382,353.479 273.220,351.956 275.505 C 350.834 277.190,350.831 277.207,351.740 276.979 C 352.489 276.791,352.859 277.050,353.735 278.374 C 354.917 280.159,355.117 280.227,357.100 279.509 C 358.085 279.153,358.517 278.715,358.678 277.909 C 358.800 277.299,359.058 276.800,359.250 276.800 C 359.443 276.800,359.600 276.532,359.600 276.203 C 359.600 275.875,359.960 275.382,360.400 275.107 C 360.840 274.832,361.200 274.190,361.200 273.680 C 361.200 273.170,361.360 272.852,361.555 272.972 C 361.750 273.093,362.380 272.249,362.954 271.096 C 364.623 267.743,365.469 266.403,365.744 266.677 C 365.885 266.818,366.000 266.378,366.000 265.700 C 366.000 265.022,366.166 264.407,366.370 264.333 C 366.573 264.260,366.798 263.930,366.870 263.600 C 366.941 263.270,367.315 262.709,367.700 262.353 C 368.085 261.997,368.400 261.412,368.400 261.053 C 368.400 260.694,368.542 260.400,368.715 260.400 C 368.888 260.400,369.060 259.998,369.097 259.506 C 369.134 259.014,369.352 258.549,369.582 258.473 C 369.812 258.396,370.000 257.978,370.000 257.543 C 370.000 257.108,370.150 256.845,370.333 256.959 C 370.517 257.072,370.667 256.922,370.667 256.626 C 370.667 255.776,371.660 253.600,372.049 253.600 C 372.242 253.600,372.400 253.354,372.400 253.053 C 372.400 252.304,374.079 248.258,374.515 247.955 C 374.709 247.821,374.844 247.641,374.813 247.555 C 374.639 247.062,375.360 244.000,375.651 244.000 C 375.843 244.000,376.000 243.561,376.000 243.024 C 376.000 242.487,376.180 241.936,376.400 241.800 C 376.620 241.664,376.800 241.203,376.800 240.776 C 376.800 240.349,376.980 240.000,377.200 240.000 C 377.420 240.000,377.600 239.561,377.600 239.024 C 377.600 238.487,377.780 237.936,378.000 237.800 C 378.220 237.664,378.400 237.113,378.400 236.576 C 378.400 236.039,378.580 235.600,378.800 235.600 C 379.020 235.600,379.200 235.071,379.200 234.424 C 379.200 233.777,379.380 233.136,379.600 233.000 C 379.820 232.864,380.000 232.133,380.000 231.376 C 380.000 230.619,380.180 230.000,380.400 230.000 C 380.620 230.000,380.800 229.460,380.800 228.800 C 380.800 228.140,380.980 227.600,381.200 227.600 C 381.420 227.600,381.600 226.790,381.600 225.800 C 381.600 224.810,381.761 224.000,381.958 224.000 C 382.155 224.000,382.425 223.280,382.558 222.400 C 382.691 221.520,382.909 220.080,383.042 219.200 C 383.175 218.320,383.445 217.600,383.642 217.600 C 383.839 217.600,384.000 216.700,384.000 215.600 C 384.000 214.500,384.149 213.600,384.332 213.600 C 384.514 213.600,384.704 212.565,384.754 211.300 C 384.804 210.035,385.015 208.940,385.222 208.867 C 385.430 208.793,385.600 207.608,385.600 206.233 C 385.600 204.858,385.724 203.610,385.875 203.459 C 386.026 203.308,386.212 201.883,386.290 200.292 C 386.367 198.701,386.604 196.536,386.815 195.480 C 387.300 193.063,387.328 165.200,386.846 165.200 C 386.651 165.200,386.454 163.535,386.406 161.500 C 386.292 156.592,386.313 156.800,385.933 156.800 C 385.750 156.800,385.600 155.551,385.600 154.024 C 385.600 152.497,385.420 151.136,385.200 151.000 C 384.980 150.864,384.800 149.874,384.800 148.800 C 384.800 147.726,384.620 146.736,384.400 146.600 C 384.180 146.464,384.000 145.564,384.000 144.600 C 384.000 143.636,383.820 142.736,383.600 142.600 C 383.380 142.464,383.200 141.568,383.200 140.610 C 383.200 139.651,383.028 138.807,382.818 138.733 C 382.607 138.660,382.390 137.925,382.336 137.100 C 382.281 136.275,382.093 135.600,381.918 135.600 C 381.743 135.600,381.600 134.880,381.600 134.000 C 381.600 133.120,381.420 132.400,381.200 132.400 C 380.980 132.400,380.800 131.961,380.800 131.424 C 380.800 130.887,380.620 130.336,380.400 130.200 C 380.180 130.064,380.000 129.344,380.000 128.600 C 380.000 127.856,379.820 127.136,379.600 127.000 C 379.380 126.864,379.200 126.313,379.200 125.776 C 379.200 125.239,379.020 124.800,378.800 124.800 C 378.580 124.800,378.400 124.260,378.400 123.600 C 378.400 122.940,378.220 122.400,378.000 122.400 C 377.780 122.400,377.600 121.849,377.600 121.176 C 377.600 120.463,377.433 120.056,377.200 120.200 C 376.974 120.340,376.800 120.012,376.800 119.447 C 376.800 118.897,376.620 118.336,376.400 118.200 C 376.180 118.064,376.000 117.524,376.000 117.000 C 376.000 116.476,375.820 115.936,375.600 115.800 C 375.380 115.664,375.200 115.225,375.200 114.825 C 375.200 114.425,374.928 113.447,374.595 112.651 C 374.263 111.855,374.002 111.108,374.015 110.991 C 374.028 110.874,373.688 110.108,373.259 109.289 C 372.321 107.498,371.489 105.337,371.593 104.962 C 371.634 104.812,371.487 104.578,371.266 104.441 C 371.045 104.304,370.805 103.928,370.732 103.606 C 370.659 103.283,370.373 102.775,370.096 102.477 C 369.819 102.179,369.695 101.770,369.820 101.568 C 369.945 101.365,369.857 101.200,369.624 101.200 C 369.391 101.200,369.200 100.840,369.200 100.400 C 369.200 99.960,369.064 99.600,368.898 99.600 C 368.549 99.600,367.377 97.149,367.511 96.700 C 367.560 96.535,367.420 96.400,367.200 96.400 C 366.980 96.400,366.800 96.010,366.800 95.533 C 366.800 95.057,366.687 94.779,366.550 94.917 C 366.412 95.054,365.840 94.274,365.278 93.183 C 364.716 92.093,364.108 91.200,363.928 91.200 C 363.748 91.200,363.600 90.840,363.600 90.400 C 363.600 89.960,363.420 89.600,363.200 89.600 C 362.980 89.600,362.800 89.364,362.800 89.075 C 362.800 88.787,362.433 88.157,361.984 87.675 C 361.530 87.187,361.380 86.800,361.646 86.800 C 361.908 86.800,361.735 86.464,361.261 86.053 C 360.788 85.642,360.400 85.102,360.400 84.853 C 360.400 84.604,360.220 84.400,360.000 84.400 C 359.780 84.400,359.600 84.130,359.600 83.800 C 359.600 83.470,359.454 83.200,359.275 83.200 C 359.096 83.200,358.691 82.532,358.375 81.716 C 358.059 80.899,357.035 79.189,356.100 77.915 C 355.165 76.640,354.400 75.408,354.400 75.175 C 354.400 74.943,354.240 74.852,354.044 74.973 C 353.848 75.094,353.389 74.564,353.025 73.795 C 352.660 73.027,351.920 71.956,351.381 71.417 C 350.841 70.878,350.400 70.255,350.400 70.032 C 350.400 69.810,350.040 69.435,349.600 69.200 C 349.160 68.965,348.800 68.580,348.800 68.346 C 348.800 68.112,348.260 67.417,347.600 66.800 C 346.940 66.183,346.400 65.481,346.400 65.240 C 346.400 64.998,346.220 64.800,346.000 64.800 C 345.780 64.800,345.598 64.575,345.596 64.300 C 345.594 64.025,345.054 63.375,344.396 62.855 C 343.738 62.335,343.200 61.742,343.200 61.537 C 343.200 61.332,342.750 60.714,342.200 60.164 C 341.650 59.614,341.200 58.992,341.200 58.782 C 341.200 58.572,340.900 58.400,340.533 58.400 C 340.167 58.400,339.972 58.294,340.101 58.166 C 340.369 57.897,330.088 47.600,329.552 47.600 C 329.358 47.600,329.200 47.351,329.200 47.047 C 329.200 46.742,328.840 46.399,328.400 46.284 C 327.960 46.169,327.600 45.788,327.600 45.437 C 327.600 45.087,327.349 44.800,327.043 44.800 C 326.736 44.800,326.382 44.530,326.255 44.200 C 326.129 43.870,325.789 43.600,325.501 43.600 C 325.213 43.600,324.717 43.240,324.400 42.800 C 324.083 42.360,323.563 42.000,323.245 42.000 C 322.927 42.000,322.783 41.883,322.926 41.741 C 323.200 41.466,321.706 40.000,321.152 40.000 C 320.973 40.000,320.191 39.364,319.413 38.587 C 318.636 37.809,317.995 37.314,317.988 37.487 C 317.981 37.659,317.792 37.485,317.568 37.100 C 317.344 36.715,316.964 36.400,316.723 36.400 C 316.483 36.400,315.772 35.862,315.143 35.204 C 314.514 34.546,314.000 34.213,314.000 34.465 C 314.000 34.717,313.664 34.535,313.253 34.061 C 312.842 33.588,312.292 33.200,312.029 33.200 C 311.767 33.200,311.664 33.020,311.800 32.800 C 311.936 32.580,311.716 32.400,311.312 32.400 C 310.907 32.400,310.324 32.050,310.015 31.621 C 309.707 31.193,309.326 30.922,309.169 31.019 C 309.012 31.116,308.781 30.926,308.654 30.598 C 308.528 30.269,308.220 30.000,307.970 30.000 C 307.720 30.000,306.833 29.460,306.000 28.800 C 305.167 28.140,304.286 27.600,304.042 27.600 C 303.799 27.600,303.600 27.420,303.600 27.200 C 303.600 26.980,303.330 26.800,303.000 26.800 C 302.670 26.800,302.400 26.601,302.400 26.357 C 302.400 26.114,302.162 26.006,301.871 26.117 C 301.581 26.229,301.129 25.978,300.868 25.560 C 300.607 25.142,300.035 24.800,299.597 24.800 C 299.158 24.800,298.800 24.620,298.800 24.400 C 298.800 24.180,298.440 24.000,298.000 24.000 C 297.560 24.000,297.200 23.820,297.200 23.600 C 297.200 23.380,296.964 23.200,296.675 23.200 C 296.387 23.200,295.764 22.840,295.292 22.400 C 294.820 21.960,294.276 21.600,294.085 21.600 C 293.386 21.600,290.023 19.710,290.275 19.459 C 290.417 19.316,290.143 19.200,289.667 19.200 C 289.190 19.200,288.800 19.020,288.800 18.800 C 288.800 18.580,288.339 18.400,287.776 18.400 C 287.196 18.400,286.860 18.227,287.000 18.000 C 287.136 17.780,286.877 17.600,286.424 17.600 C 285.971 17.600,285.600 17.420,285.600 17.200 C 285.600 16.980,285.240 16.800,284.800 16.800 C 284.360 16.800,284.000 16.609,284.000 16.376 C 284.000 16.143,283.835 16.055,283.632 16.180 C 283.430 16.305,283.021 16.181,282.723 15.904 C 282.425 15.627,281.917 15.341,281.594 15.268 C 281.272 15.195,280.874 14.925,280.710 14.668 C 280.494 14.328,280.411 14.345,280.406 14.729 C 280.402 15.093,280.072 15.000,279.346 14.429 C 278.766 13.973,278.001 13.599,277.646 13.599 C 277.291 13.598,276.404 13.234,275.676 12.790 C 274.948 12.346,274.203 12.074,274.021 12.187 C 273.839 12.299,273.468 12.123,273.196 11.796 C 272.924 11.468,272.274 11.200,271.751 11.200 C 271.228 11.200,270.800 10.990,270.800 10.733 C 270.800 10.477,270.679 10.387,270.532 10.535 C 270.384 10.682,269.830 10.518,269.300 10.171 C 268.769 9.824,268.101 9.629,267.814 9.739 C 267.527 9.850,266.903 9.667,266.427 9.334 C 265.952 9.001,265.301 8.829,264.981 8.952 C 264.662 9.074,264.400 9.001,264.400 8.787 C 264.400 8.574,263.860 8.400,263.200 8.400 C 262.540 8.400,262.000 8.220,262.000 8.000 C 262.000 7.780,261.460 7.600,260.800 7.600 C 260.140 7.600,259.600 7.420,259.600 7.200 C 259.600 6.980,259.060 6.800,258.400 6.800 C 257.740 6.800,257.200 6.658,257.200 6.485 C 257.200 6.312,256.615 6.126,255.900 6.072 C 255.185 6.019,254.540 5.800,254.467 5.587 C 254.393 5.374,253.639 5.200,252.790 5.200 C 251.942 5.200,251.136 5.020,251.000 4.800 C 250.864 4.580,250.033 4.400,249.153 4.400 C 248.188 4.400,247.651 4.241,247.800 4.000 C 247.949 3.759,247.412 3.600,246.447 3.600 C 245.567 3.600,244.736 3.420,244.600 3.200 C 244.464 2.980,243.542 2.800,242.550 2.800 C 241.559 2.800,240.419 2.624,240.017 2.409 C 239.615 2.194,238.373 1.985,237.258 1.946 C 236.143 1.906,235.324 1.723,235.439 1.537 C 235.553 1.352,234.593 1.200,233.304 1.200 C 232.013 1.200,230.744 0.984,230.479 0.719 C 230.002 0.242,194.346 -0.120,186.601 0.274 M194.600 40.434 C 190.328 40.820,182.414 41.943,180.300 42.462 C 178.569 42.888,178.542 43.021,179.412 47.000 C 179.748 48.540,180.183 50.700,180.379 51.800 C 180.968 55.114,181.454 56.044,182.494 55.842 C 182.992 55.745,184.660 55.470,186.200 55.230 C 187.740 54.990,190.068 54.615,191.373 54.397 C 192.679 54.179,195.028 54.000,196.593 54.000 C 200.487 54.000,200.405 54.160,200.127 47.038 C 199.900 41.231,199.627 39.937,198.651 40.054 C 198.403 40.084,196.580 40.255,194.600 40.434 M163.600 46.661 C 163.270 46.770,162.640 47.014,162.200 47.203 C 161.760 47.392,160.230 47.934,158.800 48.407 C 157.370 48.880,155.437 49.612,154.504 50.033 C 153.572 50.455,152.721 50.800,152.614 50.800 C 151.561 50.800,139.127 57.142,134.458 60.061 C 132.400 61.347,130.635 62.400,130.534 62.400 C 128.926 62.400,113.657 75.046,106.500 82.305 C 99.755 89.147,99.965 88.818,101.500 90.142 C 106.893 94.793,109.102 96.680,109.688 97.139 C 110.304 97.621,111.005 97.045,116.288 91.717 C 123.750 84.192,133.443 76.215,138.600 73.357 C 139.040 73.113,140.570 72.196,142.000 71.320 C 148.229 67.503,156.728 63.508,164.023 60.967 C 166.320 60.167,168.344 59.379,168.519 59.217 C 168.788 58.969,166.542 51.223,165.122 47.500 C 164.690 46.367,164.616 46.326,163.600 46.661 M293.700 133.100 C 300.905 133.161,312.695 133.161,319.900 133.100 C 327.105 133.039,321.210 132.989,306.800 132.989 C 292.390 132.989,286.495 133.039,293.700 133.100 M113.500 146.700 C 144.355 146.757,194.845 146.757,225.700 146.700 C 256.555 146.643,231.310 146.597,169.600 146.597 C 107.890 146.597,82.645 146.643,113.500 146.700 M96.000 173.498 C 207.820 173.770,285.906 173.771,285.738 173.500 C 285.636 173.335,233.498 173.244,169.876 173.298 C 106.254 173.352,73.010 173.442,96.000 173.498 M26.240 173.935 C 25.895 174.493,26.109 194.130,26.471 195.136 C 26.656 195.651,26.823 197.496,26.841 199.236 C 26.860 200.976,27.009 202.400,27.172 202.400 C 27.423 202.400,27.513 203.308,27.712 207.882 C 27.724 208.148,27.862 208.285,28.019 208.188 C 28.176 208.091,28.426 209.134,28.574 210.506 C 28.722 211.878,28.942 213.900,29.063 215.000 C 29.183 216.100,29.448 217.204,29.652 217.454 C 29.855 217.703,30.045 218.551,30.075 219.337 C 30.104 220.124,30.280 220.674,30.464 220.560 C 30.649 220.446,30.800 220.633,30.800 220.976 C 30.800 222.150,31.824 221.599,34.285 219.100 L 36.746 216.600 36.345 214.800 C 34.156 204.970,32.576 188.056,32.880 177.699 L 33.000 173.598 29.724 173.599 C 27.922 173.600,26.354 173.751,26.240 173.935 M92.000 265.400 C 107.069 280.470,119.488 292.800,119.598 292.800 C 119.708 292.800,107.469 280.470,92.400 265.400 C 77.331 250.330,64.912 238.000,64.802 238.000 C 64.692 238.000,76.931 250.330,92.000 265.400 M189.000 281.600 C 187.981 282.038,189.032 282.038,190.400 281.600 C 191.204 281.343,191.243 281.277,190.600 281.268 C 190.160 281.262,189.440 281.411,189.000 281.600 M184.200 282.400 L 183.400 282.744 184.200 282.732 C 184.640 282.726,185.450 282.576,186.000 282.400 L 187.000 282.080 186.000 282.068 C 185.450 282.062,184.640 282.211,184.200 282.400 M179.200 283.200 C 177.856 283.631,179.308 283.631,181.000 283.200 C 182.078 282.926,182.098 282.894,181.200 282.887 C 180.650 282.883,179.750 283.024,179.200 283.200 M206.000 283.462 C 206.000 283.912,207.041 284.905,208.000 285.369 C 208.330 285.529,208.240 285.372,207.800 285.021 C 207.360 284.670,206.775 284.082,206.500 283.715 C 206.225 283.348,206.000 283.234,206.000 283.462 M174.400 284.000 L 173.400 284.320 174.400 284.320 C 174.950 284.320,175.850 284.176,176.400 284.000 L 177.400 283.680 176.400 283.680 C 175.850 283.680,174.950 283.824,174.400 284.000 M169.800 284.800 C 168.722 285.074,168.702 285.106,169.600 285.113 C 170.150 285.117,171.050 284.976,171.600 284.800 C 172.944 284.369,171.492 284.369,169.800 284.800 M209.069 286.032 C 209.566 286.633,212.000 288.164,212.000 287.876 C 212.000 287.783,211.235 287.202,210.300 286.585 C 209.365 285.968,208.811 285.720,209.069 286.032 M160.000 286.400 C 158.643 286.686,158.637 286.695,159.800 286.707 C 160.460 286.715,161.450 286.576,162.000 286.400 C 163.312 285.980,161.996 285.980,160.000 286.400 M155.200 287.200 C 153.843 287.486,153.837 287.495,155.000 287.507 C 155.660 287.515,156.650 287.376,157.200 287.200 C 158.512 286.780,157.196 286.780,155.200 287.200 M149.300 288.276 C 149.685 288.376,150.315 288.376,150.700 288.276 C 151.085 288.175,150.770 288.093,150.000 288.093 C 149.230 288.093,148.915 288.175,149.300 288.276 M144.705 289.083 C 145.202 289.179,145.922 289.175,146.305 289.075 C 146.687 288.975,146.280 288.896,145.400 288.901 C 144.520 288.905,144.207 288.987,144.705 289.083 M138.200 290.003 C 137.685 290.226,138.113 290.267,139.400 290.118 C 140.500 289.991,141.475 289.823,141.567 289.744 C 141.914 289.445,138.964 289.672,138.200 290.003 M134.900 290.676 C 135.285 290.776,135.915 290.776,136.300 290.676 C 136.685 290.575,136.370 290.493,135.600 290.493 C 134.830 290.493,134.515 290.575,134.900 290.676 M130.305 291.483 C 130.802 291.579,131.522 291.575,131.905 291.475 C 132.287 291.375,131.880 291.296,131.000 291.301 C 130.120 291.305,129.807 291.387,130.305 291.483 M124.000 292.412 C 123.581 292.691,123.942 292.733,125.200 292.550 C 127.441 292.225,127.760 291.998,125.967 292.006 C 125.215 292.009,124.330 292.192,124.000 292.412 M232.800 301.724 C 232.800 301.817,233.565 302.398,234.500 303.015 C 235.435 303.632,235.989 303.880,235.731 303.568 C 235.234 302.967,232.800 301.436,232.800 301.724 M236.600 304.282 C 236.820 304.501,241.950 307.993,248.000 312.042 C 260.974 320.723,261.200 320.871,261.200 320.641 C 261.200 320.475,238.131 304.943,236.800 304.212 C 236.401 303.993,236.334 304.016,236.600 304.282 "
              stroke="none" fill="#efefef" fill-rule="evenodd"></path>
    </g>
</svg>