<svg id="svg" version="1.1" xmlns="http://www.w3.org/2000/svg" xmlns:xlink="http://www.w3.org/1999/xlink"
     width="100px" height="100px" viewBox="0, 0, 400,400">
    <g id="svgg">
        <path id="path0"
              d="M52.800 128.000 L 52.800 256.000 51.824 256.000 C 51.287 256.000,50.736 256.180,50.600 256.400 C 50.464 256.620,50.001 256.800,49.571 256.800 C 49.141 256.800,48.432 256.980,47.995 257.200 C 47.558 257.420,46.842 257.780,46.405 258.000 C 45.968 258.220,45.338 258.400,45.005 258.400 C 44.672 258.400,44.400 258.595,44.400 258.833 C 44.400 259.072,44.175 259.191,43.900 259.098 C 43.625 259.005,42.275 259.547,40.900 260.301 C 39.525 261.056,38.397 261.522,38.394 261.337 C 38.391 261.152,38.256 261.189,38.094 261.419 C 37.932 261.650,36.900 262.367,35.800 263.014 C 32.941 264.695,32.699 264.850,30.543 266.377 C 29.474 267.134,28.540 267.899,28.467 268.077 C 28.393 268.255,28.123 268.400,27.867 268.400 C 27.610 268.399,26.860 268.932,26.200 269.583 C 23.126 272.615,21.200 274.404,21.200 274.229 C 21.200 274.123,20.750 274.486,20.200 275.036 C 19.650 275.586,19.200 276.202,19.200 276.404 C 19.200 276.606,18.840 276.965,18.400 277.200 C 17.960 277.435,17.600 277.816,17.600 278.045 C 17.600 278.275,16.925 279.140,16.100 279.968 C 14.577 281.498,12.800 283.776,12.800 284.201 C 12.800 284.329,12.104 285.372,11.253 286.517 C 10.403 287.663,9.378 289.365,8.976 290.300 C 8.575 291.235,8.129 292.000,7.987 292.000 C 7.845 292.000,7.490 292.720,7.200 293.600 C 6.910 294.480,6.521 295.200,6.336 295.200 C 6.151 295.200,6.000 295.560,6.000 296.000 C 6.000 296.440,5.820 296.800,5.600 296.800 C 5.380 296.800,5.200 297.162,5.200 297.605 C 5.200 298.048,5.041 298.723,4.847 299.105 C 4.652 299.487,4.271 300.340,4.000 301.000 C 3.729 301.660,3.348 302.513,3.153 302.895 C 2.959 303.277,2.800 304.042,2.800 304.595 C 2.800 305.148,2.658 305.600,2.485 305.600 C 2.312 305.600,2.126 306.182,2.072 306.893 C 2.017 307.605,1.799 308.361,1.587 308.573 C 1.374 308.786,1.200 309.629,1.200 310.447 C 1.200 311.280,0.980 312.007,0.700 312.100 C -0.026 312.342,-0.026 340.934,0.700 341.660 C 0.975 341.935,1.200 342.653,1.200 343.256 C 1.200 343.859,1.380 344.464,1.600 344.600 C 1.820 344.736,2.000 345.229,2.000 345.695 C 2.000 346.596,2.665 348.939,3.249 350.095 C 3.442 350.477,3.600 351.152,3.600 351.595 C 3.600 352.038,3.780 352.400,4.000 352.400 C 4.220 352.400,4.406 352.805,4.413 353.300 C 4.420 353.795,4.684 354.542,5.000 354.959 C 5.316 355.376,5.480 355.871,5.364 356.059 C 5.248 356.247,5.343 356.400,5.576 356.400 C 5.809 356.400,6.000 356.760,6.000 357.200 C 6.000 357.640,6.180 358.000,6.400 358.000 C 6.620 358.000,6.800 358.360,6.800 358.800 C 6.800 359.240,6.980 359.600,7.200 359.600 C 7.420 359.600,7.600 359.960,7.600 360.400 C 7.600 360.840,7.780 361.200,8.000 361.200 C 8.220 361.200,8.400 361.560,8.400 362.000 C 8.400 362.440,8.580 362.800,8.800 362.800 C 9.020 362.800,9.200 363.158,9.200 363.597 C 9.200 364.035,9.560 364.618,10.000 364.893 C 10.440 365.168,10.803 365.574,10.806 365.796 C 10.809 366.018,11.449 367.100,12.227 368.200 C 13.005 369.300,14.010 370.785,14.460 371.500 C 14.911 372.215,15.441 372.800,15.640 372.800 C 15.838 372.800,16.000 372.988,16.000 373.217 C 16.000 373.998,24.907 383.200,25.663 383.200 C 25.907 383.200,26.397 383.515,26.753 383.900 C 27.109 384.285,28.211 385.223,29.200 385.985 C 30.190 386.747,31.060 387.512,31.133 387.685 C 31.207 387.858,31.477 388.000,31.735 388.000 C 31.992 388.000,33.089 388.630,34.172 389.400 C 35.255 390.170,36.379 390.800,36.670 390.800 C 36.962 390.800,37.200 390.980,37.200 391.200 C 37.200 391.420,37.434 391.600,37.720 391.600 C 38.456 391.600,40.393 392.541,40.397 392.900 C 40.399 393.065,40.672 393.200,41.005 393.200 C 41.563 393.200,43.128 393.925,43.600 394.402 C 43.710 394.513,44.520 394.840,45.400 395.129 C 47.102 395.686,48.561 396.270,49.695 396.847 C 50.077 397.041,50.741 397.200,51.171 397.200 C 51.601 397.200,52.064 397.380,52.200 397.600 C 52.336 397.820,53.067 398.000,53.824 398.000 C 54.581 398.000,55.200 398.161,55.200 398.358 C 55.200 398.739,56.090 398.909,61.800 399.621 C 66.531 400.211,87.433 399.927,88.096 399.264 C 88.351 399.009,88.916 398.800,89.352 398.800 C 89.787 398.800,90.696 398.632,91.372 398.427 C 92.047 398.222,93.410 397.844,94.400 397.588 C 95.390 397.332,96.513 396.960,96.895 396.761 C 97.277 396.562,97.941 396.400,98.371 396.400 C 98.801 396.400,99.264 396.220,99.400 396.000 C 99.536 395.780,99.997 395.600,100.424 395.600 C 100.851 395.600,101.200 395.420,101.200 395.200 C 101.200 394.980,101.452 394.800,101.759 394.800 C 102.067 394.800,103.345 394.260,104.600 393.600 C 105.855 392.940,107.118 392.400,107.407 392.400 C 107.697 392.400,107.993 392.265,108.067 392.100 C 108.140 391.935,109.010 391.366,110.000 390.836 C 111.629 389.964,113.354 388.882,115.800 387.200 C 116.280 386.870,117.430 386.097,118.355 385.483 C 119.281 384.869,120.139 384.104,120.262 383.783 C 120.385 383.462,120.638 383.200,120.825 383.200 C 121.011 383.200,121.595 382.795,122.123 382.300 C 122.650 381.805,123.698 380.860,124.451 380.200 C 125.205 379.540,126.292 378.425,126.866 377.722 C 127.441 377.019,128.021 376.554,128.156 376.689 C 128.290 376.823,128.400 376.723,128.400 376.467 C 128.400 376.210,128.402 375.912,128.404 375.803 C 128.405 375.695,129.236 374.750,130.249 373.703 C 131.261 372.657,132.501 371.170,133.002 370.400 C 133.504 369.630,134.293 368.603,134.757 368.117 C 135.221 367.631,135.600 367.015,135.600 366.748 C 135.600 366.481,135.847 365.979,136.150 365.631 C 136.452 365.284,137.235 363.969,137.891 362.708 C 138.546 361.447,139.169 360.502,139.275 360.608 C 139.380 360.714,139.467 360.532,139.467 360.205 C 139.467 359.417,140.917 356.410,141.300 356.405 C 141.465 356.402,141.600 355.759,141.600 354.976 C 141.600 354.129,141.762 353.653,142.000 353.800 C 142.220 353.936,142.400 353.674,142.400 353.218 C 142.400 352.762,142.559 352.077,142.753 351.695 C 143.756 349.723,144.167 348.354,144.673 345.296 C 144.791 344.579,145.049 343.894,145.244 343.773 C 145.440 343.652,145.600 342.854,145.600 342.000 C 145.600 341.146,145.780 340.336,146.000 340.200 C 146.220 340.064,146.400 338.829,146.400 337.456 C 146.400 336.083,146.588 334.772,146.817 334.543 C 147.595 333.765,146.811 314.296,145.966 313.420 C 145.765 313.211,145.600 312.277,145.600 311.344 C 145.600 310.411,145.420 309.536,145.200 309.400 C 144.980 309.264,144.800 308.533,144.800 307.776 C 144.800 307.019,144.620 306.400,144.400 306.400 C 144.180 306.400,144.000 305.871,144.000 305.224 C 144.000 304.577,143.820 303.936,143.600 303.800 C 143.380 303.664,143.200 303.023,143.200 302.376 C 143.200 301.729,143.020 301.200,142.800 301.200 C 142.580 301.200,142.400 300.840,142.400 300.400 C 142.400 299.960,142.220 299.600,142.000 299.600 C 141.780 299.600,141.600 299.238,141.600 298.795 C 141.600 298.352,141.431 297.677,141.224 297.295 C 141.017 296.913,139.963 294.794,138.880 292.586 C 137.199 289.158,133.754 283.691,131.610 281.048 C 129.663 278.648,128.066 276.861,127.942 276.945 C 127.864 276.997,127.401 276.626,126.914 276.120 C 126.408 275.594,126.237 275.188,126.514 275.172 C 126.781 275.156,126.704 275.021,126.342 274.872 C 125.980 274.722,124.337 273.340,122.691 271.800 C 119.158 268.495,118.095 267.601,117.695 267.598 C 117.533 267.597,116.854 267.102,116.186 266.498 C 115.518 265.894,114.438 265.080,113.786 264.689 C 110.958 262.995,106.574 260.607,106.285 260.604 C 106.112 260.602,105.818 260.352,105.630 260.049 C 105.443 259.746,105.089 259.621,104.845 259.772 C 104.600 259.924,104.400 259.857,104.400 259.624 C 104.400 259.391,103.950 259.200,103.400 259.200 C 102.850 259.200,102.400 259.020,102.400 258.800 C 102.400 258.580,101.950 258.400,101.400 258.400 C 100.850 258.400,100.400 258.220,100.400 258.000 C 100.400 257.780,99.950 257.600,99.400 257.600 C 98.850 257.600,98.400 257.420,98.400 257.200 C 98.400 256.980,97.860 256.800,97.200 256.800 C 96.540 256.800,96.000 256.620,96.000 256.400 C 96.000 256.180,95.551 256.000,95.002 256.000 L 94.004 256.000 93.804 168.300 C 93.694 120.065,93.511 62.465,93.398 40.300 L 93.192 0.000 72.996 0.000 L 52.800 0.000 52.800 128.000 M195.389 195.389 C 194.229 196.550,193.619 197.499,193.654 198.089 L 193.709 199.000 193.886 198.068 C 193.984 197.555,194.755 196.445,195.600 195.600 C 196.445 194.755,197.555 193.984,198.068 193.886 L 199.000 193.709 198.089 193.654 C 197.499 193.619,196.550 194.229,195.389 195.389 M201.800 193.881 C 202.240 193.985,203.320 194.607,204.200 195.264 L 205.800 196.458 204.233 195.029 C 203.372 194.243,202.292 193.621,201.833 193.646 C 201.029 193.691,201.028 193.699,201.800 193.881 M193.646 201.833 C 193.621 202.292,194.243 203.372,195.029 204.233 L 196.458 205.800 195.264 204.200 C 194.607 203.320,193.985 202.240,193.881 201.800 C 193.699 201.028,193.691 201.029,193.646 201.833 M77.000 341.199 C 76.864 341.420,77.126 341.600,77.582 341.600 C 78.555 341.600,79.926 342.315,80.843 343.300 C 81.201 343.685,81.698 344.000,81.947 344.000 C 82.196 344.000,82.400 344.152,82.400 344.339 C 82.400 344.525,82.760 345.093,83.200 345.600 C 83.640 346.107,84.000 346.765,84.000 347.061 C 84.000 347.358,84.135 347.601,84.300 347.603 C 84.465 347.605,84.825 348.091,85.100 348.683 C 85.706 349.987,85.791 357.600,85.200 357.600 C 84.980 357.600,84.800 357.960,84.800 358.400 C 84.800 358.840,84.620 359.200,84.400 359.200 C 84.180 359.200,84.000 359.438,84.000 359.729 C 84.000 360.724,80.006 364.271,78.274 364.814 C 77.353 365.103,76.429 365.488,76.220 365.670 C 75.062 366.676,68.523 365.507,66.588 363.947 C 63.260 361.264,61.200 358.308,61.200 356.216 C 61.200 355.657,61.020 355.200,60.800 355.200 C 60.580 355.200,60.400 354.300,60.400 353.200 C 60.400 352.100,60.580 351.200,60.800 351.200 C 61.020 351.200,61.200 350.786,61.200 350.280 C 61.200 349.226,62.053 347.208,62.500 347.203 C 62.665 347.201,62.800 346.944,62.800 346.631 C 62.800 345.800,65.942 342.855,67.586 342.145 C 68.364 341.808,69.252 341.405,69.561 341.248 C 70.471 340.784,77.284 340.740,77.000 341.199 "
              stroke="none" fill="#63c4c4" fill-rule="evenodd"></path>
        <path id="path1"
              d="M145.699 206.549 L 145.800 260.200 200.000 260.200 L 254.200 260.200 254.200 206.600 L 254.200 153.000 199.899 152.949 L 145.597 152.898 145.699 206.549 M205.600 180.897 C 222.630 186.083,224.873 209.722,209.097 217.762 L 206.818 218.924 206.709 225.962 L 206.600 233.000 200.230 233.111 C 192.547 233.244,193.214 233.959,193.206 225.579 L 193.200 218.957 191.122 217.835 C 170.083 206.472,182.826 173.960,205.600 180.897 M198.068 193.867 C 196.599 194.178,194.147 196.889,193.837 198.545 C 192.707 204.565,199.451 208.766,204.043 204.903 C 209.324 200.459,204.965 192.406,198.068 193.867 "
              stroke="none" fill="#fbbb6c" fill-rule="evenodd"></path>
        <path id="path2"
              d="M272.400 12.995 L 272.400 25.989 259.100 26.095 L 245.800 26.200 245.800 40.200 L 245.800 54.200 259.100 54.305 L 272.400 54.411 272.400 67.605 L 272.400 80.800 289.200 80.800 L 306.000 80.800 306.000 168.400 L 306.000 256.000 304.800 256.000 C 304.140 256.000,303.600 256.180,303.600 256.400 C 303.600 256.620,303.060 256.800,302.400 256.800 C 301.740 256.800,301.200 256.980,301.200 257.200 C 301.200 257.420,300.660 257.600,300.000 257.600 C 299.340 257.600,298.800 257.780,298.800 258.000 C 298.800 258.220,298.464 258.400,298.054 258.400 C 297.207 258.400,291.471 261.163,291.267 261.669 C 291.193 261.851,290.788 262.000,290.367 262.000 C 289.945 262.000,289.600 262.180,289.600 262.400 C 289.600 262.620,289.280 262.800,288.888 262.800 C 288.497 262.800,287.917 263.160,287.600 263.600 C 287.283 264.040,286.703 264.400,286.312 264.400 C 285.920 264.400,285.600 264.580,285.600 264.800 C 285.600 265.020,285.357 265.200,285.059 265.200 C 284.762 265.200,283.954 265.740,283.263 266.400 C 282.572 267.060,281.844 267.600,281.644 267.600 C 281.444 267.600,280.362 268.500,279.239 269.600 C 278.115 270.700,277.098 271.600,276.979 271.600 C 276.774 271.600,273.780 274.639,269.500 279.191 C 268.455 280.303,267.600 281.398,267.600 281.624 C 267.600 281.851,267.150 282.486,266.600 283.036 C 266.050 283.586,265.600 284.180,265.600 284.356 C 265.600 284.532,265.150 285.199,264.600 285.838 C 264.051 286.477,263.601 287.225,263.600 287.500 C 263.600 287.775,263.420 288.000,263.200 288.000 C 262.980 288.000,262.800 288.360,262.800 288.800 C 262.800 289.240,262.653 289.600,262.473 289.600 C 262.021 289.600,258.859 296.003,258.551 297.543 C 258.413 298.234,258.143 298.800,257.950 298.800 C 257.757 298.800,257.600 299.340,257.600 300.000 C 257.600 300.660,257.420 301.200,257.200 301.200 C 256.980 301.200,256.800 301.639,256.800 302.176 C 256.800 302.713,256.620 303.264,256.400 303.400 C 256.180 303.536,256.000 304.177,256.000 304.824 C 256.000 305.471,255.820 306.000,255.600 306.000 C 255.380 306.000,255.200 306.529,255.200 307.176 C 255.200 307.823,255.020 308.464,254.800 308.600 C 254.580 308.736,254.400 309.546,254.400 310.400 C 254.400 311.254,254.220 312.064,254.000 312.200 C 253.780 312.336,253.600 313.607,253.600 315.024 C 253.600 316.475,253.425 317.600,253.200 317.600 C 252.945 317.600,252.800 320.859,252.800 326.576 C 252.800 332.129,252.953 335.647,253.200 335.800 C 253.420 335.936,253.600 337.117,253.600 338.424 C 253.600 339.741,253.778 340.800,254.000 340.800 C 254.220 340.800,254.400 341.509,254.400 342.376 C 254.400 343.243,254.580 344.064,254.800 344.200 C 255.020 344.336,255.200 345.067,255.200 345.824 C 255.200 346.581,255.380 347.200,255.600 347.200 C 255.820 347.200,256.000 347.920,256.000 348.800 C 256.000 349.680,256.180 350.400,256.400 350.400 C 256.620 350.400,256.800 350.760,256.800 351.200 C 256.800 351.640,256.980 352.000,257.200 352.000 C 257.420 352.000,257.600 352.540,257.600 353.200 C 257.600 353.860,257.780 354.400,258.000 354.400 C 258.220 354.400,258.400 354.761,258.400 355.202 C 258.400 355.643,258.850 356.937,259.400 358.077 C 259.950 359.217,260.400 360.386,260.400 360.675 C 260.400 360.964,260.580 361.200,260.800 361.200 C 261.020 361.200,261.200 361.478,261.200 361.817 C 261.200 362.156,261.560 362.820,262.000 363.292 C 262.440 363.764,262.800 364.387,262.800 364.675 C 262.800 364.964,262.980 365.200,263.200 365.200 C 263.420 365.200,263.600 365.520,263.600 365.912 C 263.600 366.303,263.960 366.883,264.400 367.200 C 264.840 367.517,265.200 368.057,265.200 368.400 C 265.200 368.743,265.560 369.283,266.000 369.600 C 266.440 369.917,266.800 370.407,266.800 370.688 C 266.800 370.970,266.980 371.200,267.200 371.200 C 267.420 371.200,267.600 371.430,267.600 371.712 C 267.600 371.993,267.960 372.483,268.400 372.800 C 268.840 373.117,269.200 373.513,269.200 373.680 C 269.200 374.431,281.728 386.400,282.514 386.400 C 282.691 386.400,283.272 386.836,283.805 387.369 C 284.338 387.902,285.140 388.454,285.587 388.596 C 286.034 388.738,286.400 389.022,286.400 389.227 C 286.400 389.432,286.760 389.600,287.200 389.600 C 287.640 389.600,288.000 389.747,288.000 389.926 C 288.000 390.324,290.601 391.600,291.414 391.600 C 291.736 391.600,292.000 391.780,292.000 392.000 C 292.000 392.220,292.270 392.400,292.600 392.400 C 292.930 392.400,293.200 392.580,293.200 392.800 C 293.200 393.020,293.560 393.200,294.000 393.200 C 294.440 393.200,294.800 393.380,294.800 393.600 C 294.800 393.820,295.160 394.000,295.600 394.000 C 296.040 394.000,296.400 394.180,296.400 394.400 C 296.400 394.620,296.749 394.800,297.176 394.800 C 297.603 394.800,298.064 394.980,298.200 395.200 C 298.336 395.420,298.887 395.600,299.424 395.600 C 299.961 395.600,300.400 395.780,300.400 396.000 C 300.400 396.220,300.940 396.400,301.600 396.400 C 302.260 396.400,302.800 396.580,302.800 396.800 C 302.800 397.020,303.340 397.200,304.000 397.200 C 304.660 397.200,305.200 397.380,305.200 397.600 C 305.200 397.820,305.920 398.000,306.800 398.000 C 307.680 398.000,308.400 398.180,308.400 398.400 C 308.400 398.620,309.015 398.800,309.767 398.800 C 310.518 398.800,311.208 399.025,311.300 399.300 C 311.543 400.029,342.057 400.029,342.300 399.300 C 342.392 399.025,343.071 398.800,343.810 398.800 C 344.548 398.800,345.264 398.620,345.400 398.400 C 345.536 398.180,346.166 398.000,346.800 398.000 C 347.434 398.000,348.064 397.820,348.200 397.600 C 348.336 397.380,348.876 397.200,349.400 397.200 C 349.924 397.200,350.464 397.020,350.600 396.800 C 350.736 396.580,351.287 396.400,351.824 396.400 C 352.361 396.400,352.800 396.220,352.800 396.000 C 352.800 395.780,353.340 395.600,354.000 395.600 C 354.660 395.600,355.200 395.420,355.200 395.200 C 355.200 394.980,355.560 394.800,356.000 394.800 C 356.440 394.800,356.800 394.620,356.800 394.400 C 356.800 394.180,357.160 394.000,357.600 394.000 C 358.040 394.000,358.400 393.820,358.400 393.600 C 358.400 393.380,358.670 393.200,359.000 393.200 C 359.330 393.200,359.600 393.020,359.600 392.800 C 359.600 392.580,359.842 392.400,360.139 392.400 C 361.069 392.400,366.800 389.561,366.800 389.101 C 366.800 388.935,367.036 388.800,367.325 388.800 C 367.613 388.800,368.236 388.440,368.708 388.000 C 369.180 387.560,369.727 387.200,369.924 387.200 C 370.121 387.200,370.846 386.660,371.537 386.000 C 372.228 385.340,372.892 384.800,373.013 384.800 C 373.302 384.800,384.800 373.302,384.800 373.013 C 384.800 372.892,385.340 372.228,386.000 371.537 C 386.660 370.846,387.200 370.121,387.200 369.924 C 387.200 369.727,387.560 369.180,388.000 368.708 C 388.440 368.236,388.800 367.613,388.800 367.325 C 388.800 367.036,388.935 366.800,389.101 366.800 C 389.561 366.800,392.400 361.069,392.400 360.139 C 392.400 359.842,392.580 359.600,392.800 359.600 C 393.020 359.600,393.200 359.330,393.200 359.000 C 393.200 358.670,393.380 358.400,393.600 358.400 C 393.820 358.400,394.000 358.040,394.000 357.600 C 394.000 357.160,394.180 356.800,394.400 356.800 C 394.620 356.800,394.800 356.440,394.800 356.000 C 394.800 355.560,394.980 355.200,395.200 355.200 C 395.420 355.200,395.600 354.660,395.600 354.000 C 395.600 353.340,395.780 352.800,396.000 352.800 C 396.220 352.800,396.400 352.361,396.400 351.824 C 396.400 351.287,396.580 350.736,396.800 350.600 C 397.020 350.464,397.200 349.924,397.200 349.400 C 397.200 348.876,397.380 348.336,397.600 348.200 C 397.820 348.064,398.000 347.434,398.000 346.800 C 398.000 346.166,398.180 345.536,398.400 345.400 C 398.620 345.264,398.800 344.548,398.800 343.810 C 398.800 343.071,399.025 342.392,399.300 342.300 C 399.688 342.171,399.800 338.769,399.800 327.087 C 399.800 315.583,399.682 311.923,399.300 311.540 C 399.025 311.265,398.800 310.266,398.800 309.320 C 398.800 308.374,398.620 307.600,398.400 307.600 C 398.180 307.600,398.000 307.060,398.000 306.400 C 398.000 305.740,397.820 305.200,397.600 305.200 C 397.380 305.200,397.200 304.660,397.200 304.000 C 397.200 303.340,397.020 302.800,396.800 302.800 C 396.580 302.800,396.400 302.260,396.400 301.600 C 396.400 300.940,396.220 300.400,396.000 300.400 C 395.780 300.400,395.600 299.961,395.600 299.424 C 395.600 298.887,395.420 298.336,395.200 298.200 C 394.980 298.064,394.800 297.603,394.800 297.176 C 394.800 296.749,394.620 296.400,394.400 296.400 C 394.180 296.400,394.000 296.040,394.000 295.600 C 394.000 295.160,393.820 294.800,393.600 294.800 C 393.380 294.800,393.200 294.440,393.200 294.000 C 393.200 293.560,393.020 293.200,392.800 293.200 C 392.580 293.200,392.400 292.930,392.400 292.600 C 392.400 292.270,392.220 292.000,392.000 292.000 C 391.780 292.000,391.600 291.736,391.600 291.414 C 391.600 290.601,390.324 288.000,389.926 288.000 C 389.747 288.000,389.600 287.640,389.600 287.200 C 389.600 286.760,389.450 286.400,389.268 286.400 C 389.085 286.400,388.681 285.905,388.370 285.300 C 388.060 284.695,387.489 283.909,387.103 283.553 C 386.716 283.197,386.400 282.724,386.400 282.501 C 386.400 282.279,385.680 281.355,384.800 280.448 C 383.920 279.541,383.200 278.685,383.200 278.546 C 383.200 278.231,374.872 270.000,374.553 270.000 C 374.425 270.000,373.817 269.460,373.200 268.800 C 372.583 268.140,371.908 267.600,371.699 267.600 C 371.490 267.600,370.754 267.060,370.063 266.400 C 369.372 265.740,368.536 265.200,368.204 265.200 C 367.872 265.200,367.600 265.050,367.600 264.868 C 367.600 264.685,367.105 264.280,366.500 263.968 C 365.895 263.656,365.310 263.311,365.200 263.201 C 364.330 262.328,357.165 258.853,355.583 258.537 C 354.932 258.406,354.400 258.143,354.400 257.950 C 354.400 257.758,353.860 257.600,353.200 257.600 C 352.540 257.600,352.000 257.420,352.000 257.200 C 352.000 256.980,351.460 256.800,350.800 256.800 C 350.140 256.800,349.600 256.620,349.600 256.400 C 349.600 256.180,349.060 256.000,348.400 256.000 L 347.200 256.000 347.200 128.000 L 347.200 0.000 309.800 0.000 L 272.400 0.000 272.400 12.995 M331.506 341.917 C 331.594 342.183,331.972 342.400,332.345 342.400 C 332.718 342.400,333.283 342.760,333.600 343.200 C 333.917 343.640,334.497 344.000,334.888 344.000 C 335.280 344.000,335.600 344.243,335.600 344.541 C 335.600 344.838,336.140 345.646,336.800 346.337 C 337.460 347.028,338.000 347.864,338.000 348.196 C 338.000 348.528,338.180 348.800,338.400 348.800 C 338.620 348.800,338.800 349.509,338.800 350.376 C 338.800 351.243,338.980 352.064,339.200 352.200 C 339.420 352.336,339.600 352.887,339.600 353.424 C 339.600 353.961,339.420 354.400,339.200 354.400 C 338.980 354.400,338.800 355.120,338.800 356.000 C 338.800 356.880,338.620 357.600,338.400 357.600 C 338.180 357.600,338.000 357.960,338.000 358.400 C 338.000 358.840,337.820 359.200,337.600 359.200 C 337.380 359.200,337.200 359.385,337.200 359.611 C 337.200 360.081,333.781 363.595,333.311 363.609 C 333.140 363.614,332.550 363.970,332.000 364.400 C 331.450 364.830,330.516 365.186,329.924 365.191 C 329.332 365.196,328.736 365.380,328.600 365.600 C 328.464 365.820,327.463 366.000,326.376 366.000 C 325.289 366.000,324.400 365.820,324.400 365.600 C 324.400 365.380,324.076 365.200,323.680 365.200 C 322.786 365.200,320.807 364.306,320.803 363.900 C 320.801 363.735,320.524 363.600,320.187 363.600 C 318.944 363.600,315.200 359.124,315.200 357.638 C 315.200 357.177,315.020 356.800,314.800 356.800 C 314.563 356.800,314.400 355.333,314.400 353.200 C 314.400 351.067,314.563 349.600,314.800 349.600 C 315.020 349.600,315.200 349.240,315.200 348.800 C 315.200 348.360,315.380 348.000,315.600 348.000 C 315.820 348.000,316.000 347.726,316.000 347.391 C 316.000 347.057,316.986 345.797,318.191 344.591 C 319.397 343.386,320.657 342.400,320.991 342.400 C 321.326 342.400,321.600 342.233,321.600 342.028 C 321.600 341.121,331.205 341.014,331.506 341.917 "
              stroke="none" fill="#fc9c1c" fill-rule="evenodd"></path>
        <path id="path3"
              d="M194.400 92.788 C 194.070 93.008,193.046 93.191,192.124 93.194 C 191.202 93.197,190.336 93.380,190.200 93.600 C 190.064 93.820,189.333 94.000,188.576 94.000 C 187.819 94.000,187.200 94.180,187.200 94.400 C 187.200 94.620,186.845 94.800,186.412 94.800 C 185.979 94.800,184.983 95.160,184.200 95.600 C 183.417 96.040,182.526 96.400,182.221 96.400 C 181.916 96.400,181.607 96.535,181.533 96.700 C 181.460 96.865,180.507 97.450,179.417 98.000 C 178.326 98.550,176.722 99.675,175.852 100.500 C 174.982 101.325,174.143 102.000,173.989 102.000 C 173.540 102.000,169.200 106.289,169.200 106.732 C 169.200 106.952,168.480 107.815,167.600 108.649 C 166.720 109.483,166.000 110.398,166.000 110.682 C 166.000 110.967,165.820 111.200,165.600 111.200 C 165.380 111.200,165.200 111.545,165.200 111.967 C 165.200 112.388,165.065 112.793,164.900 112.867 C 164.524 113.034,163.225 115.164,162.929 116.100 C 162.807 116.485,162.548 116.800,162.353 116.800 C 162.159 116.800,162.000 117.329,162.000 117.976 C 162.000 118.623,161.820 119.264,161.600 119.400 C 161.380 119.536,161.200 120.087,161.200 120.624 C 161.200 121.161,161.020 121.600,160.800 121.600 C 160.580 121.600,160.400 122.194,160.400 122.920 C 160.400 123.646,160.235 124.411,160.032 124.620 C 159.469 125.202,159.195 129.560,158.959 141.677 L 158.744 152.753 160.072 152.995 C 160.802 153.128,164.190 153.183,167.600 153.118 L 173.800 153.000 174.053 142.800 C 174.309 132.444,174.953 125.109,175.628 124.867 C 175.833 124.793,176.000 124.388,176.000 123.967 C 176.000 123.545,176.180 123.200,176.400 123.200 C 176.620 123.200,176.800 122.840,176.800 122.400 C 176.800 121.960,176.980 121.600,177.200 121.600 C 177.420 121.600,177.600 121.240,177.600 120.800 C 177.600 120.360,177.750 120.000,177.932 120.000 C 178.115 120.000,178.520 119.508,178.832 118.907 C 179.503 117.617,184.203 112.800,184.793 112.800 C 185.017 112.800,185.200 112.620,185.200 112.400 C 185.200 112.180,185.470 112.000,185.800 112.000 C 186.130 112.000,186.400 111.820,186.400 111.600 C 186.400 111.380,186.760 111.200,187.200 111.200 C 187.640 111.200,188.000 111.020,188.000 110.800 C 188.000 110.580,188.270 110.400,188.600 110.400 C 188.930 110.400,189.200 110.220,189.200 110.000 C 189.200 109.780,189.560 109.600,190.000 109.600 C 190.440 109.600,190.800 109.434,190.800 109.232 C 190.800 109.029,191.973 108.738,193.406 108.585 C 194.839 108.431,196.109 108.147,196.229 107.953 C 196.349 107.759,198.046 107.600,200.000 107.600 C 201.954 107.600,203.651 107.759,203.771 107.953 C 203.891 108.147,205.161 108.431,206.594 108.585 C 208.027 108.738,209.200 109.029,209.200 109.232 C 209.200 109.434,209.560 109.600,210.000 109.600 C 210.440 109.600,210.800 109.780,210.800 110.000 C 210.800 110.220,211.070 110.400,211.400 110.400 C 211.730 110.400,212.000 110.580,212.000 110.800 C 212.000 111.020,212.360 111.200,212.800 111.200 C 213.240 111.200,213.600 111.380,213.600 111.600 C 213.600 111.820,213.870 112.000,214.200 112.000 C 214.530 112.000,214.800 112.180,214.800 112.400 C 214.800 112.620,214.983 112.800,215.207 112.800 C 215.797 112.800,220.497 117.617,221.168 118.907 C 221.480 119.508,221.885 120.000,222.068 120.000 C 222.250 120.000,222.400 120.360,222.400 120.800 C 222.400 121.240,222.580 121.600,222.800 121.600 C 223.020 121.600,223.200 121.960,223.200 122.400 C 223.200 122.840,223.380 123.200,223.600 123.200 C 223.820 123.200,224.000 123.560,224.000 124.000 C 224.000 124.440,224.161 124.800,224.358 124.800 C 224.696 124.800,224.892 125.768,225.410 130.000 C 225.531 130.990,225.759 136.570,225.915 142.400 L 226.200 153.000 232.400 153.118 C 235.810 153.183,239.193 153.129,239.918 152.997 L 241.235 152.757 241.042 141.679 C 240.834 129.751,240.548 125.220,239.968 124.620 C 239.765 124.411,239.600 123.646,239.600 122.920 C 239.600 122.194,239.420 121.600,239.200 121.600 C 238.980 121.600,238.800 121.060,238.800 120.400 C 238.800 119.740,238.620 119.200,238.400 119.200 C 238.180 119.200,238.000 118.675,238.000 118.033 C 238.000 117.392,237.865 116.807,237.700 116.733 C 237.324 116.566,236.025 114.436,235.729 113.500 C 235.607 113.115,235.348 112.800,235.153 112.800 C 234.959 112.800,234.800 112.440,234.800 112.000 C 234.800 111.560,234.620 111.200,234.400 111.200 C 234.180 111.200,234.000 110.967,234.000 110.682 C 234.000 110.398,233.280 109.483,232.400 108.649 C 231.520 107.815,230.800 106.952,230.800 106.732 C 230.800 106.289,226.460 102.000,226.011 102.000 C 225.857 102.000,225.018 101.325,224.148 100.500 C 223.278 99.675,221.674 98.550,220.583 98.000 C 219.493 97.450,218.540 96.865,218.467 96.700 C 218.393 96.535,218.084 96.400,217.779 96.400 C 217.474 96.400,216.583 96.040,215.800 95.600 C 215.017 95.160,214.021 94.800,213.588 94.800 C 213.155 94.800,212.800 94.620,212.800 94.400 C 212.800 94.180,212.206 94.000,211.480 94.000 C 210.754 94.000,209.989 93.837,209.780 93.639 C 208.891 92.794,195.503 92.054,194.400 92.788 M197.000 180.379 C 178.039 183.098,174.036 208.607,191.122 217.835 L 193.200 218.957 193.206 225.579 C 193.214 233.959,192.547 233.244,200.230 233.111 L 206.600 233.000 206.709 225.962 L 206.818 218.924 209.097 217.762 C 228.872 207.683,219.015 177.222,197.000 180.379 M203.684 194.465 C 209.701 198.722,205.856 207.700,198.525 206.510 C 196.514 206.184,193.816 203.486,193.490 201.475 C 192.520 195.498,198.923 191.095,203.684 194.465 "
              stroke="none" fill="#646464" fill-rule="evenodd"></path>
        <path id="path4"
              d="M93.206 39.900 C 93.209 61.845,93.356 80.026,93.531 80.303 C 93.784 80.700,100.150 80.784,124.025 80.703 L 154.200 80.600 154.305 66.700 L 154.410 52.800 141.005 52.800 L 127.600 52.800 127.600 40.200 L 127.600 27.600 140.757 27.600 C 152.386 27.600,153.943 27.526,154.157 26.967 C 154.291 26.619,154.400 20.409,154.400 13.167 L 154.400 0.000 123.800 0.000 L 93.200 0.000 93.206 39.900 M40.300 260.226 C 39.255 260.770,38.400 261.305,38.400 261.414 C 38.400 261.524,39.300 261.157,40.400 260.600 C 41.500 260.043,42.400 259.500,42.400 259.393 C 42.400 259.129,42.436 259.114,40.300 260.226 M30.442 265.893 C 29.648 266.743,30.092 266.836,31.148 266.039 C 31.712 265.614,31.861 265.333,31.524 265.333 C 31.217 265.333,30.730 265.585,30.442 265.893 M116.278 266.566 C 116.895 267.097,117.474 267.458,117.564 267.369 C 117.780 267.153,115.982 265.600,115.516 265.600 C 115.318 265.600,115.660 266.035,116.278 266.566 M118.400 267.900 C 118.400 268.069,118.760 268.432,119.200 268.707 C 119.640 268.982,120.000 269.069,120.000 268.900 C 120.000 268.731,119.640 268.368,119.200 268.093 C 118.760 267.818,118.400 267.731,118.400 267.900 M124.200 273.200 C 125.790 274.828,126.544 275.347,125.549 274.127 C 124.590 272.952,123.173 271.600,122.901 271.600 C 122.756 271.600,123.341 272.320,124.200 273.200 M126.914 276.126 C 127.401 276.635,127.944 276.979,128.120 276.890 C 128.467 276.714,126.884 275.200,126.353 275.200 C 126.175 275.200,126.427 275.617,126.914 276.126 M18.162 276.858 C 17.404 277.712,17.405 277.714,18.300 277.244 C 18.795 276.984,19.200 276.598,19.200 276.386 C 19.200 275.818,19.009 275.905,18.162 276.858 M131.287 280.791 C 131.565 281.236,131.929 281.600,132.096 281.600 C 132.674 281.600,132.397 280.991,131.591 280.487 C 130.841 280.019,130.819 280.041,131.287 280.791 M12.000 284.525 C 12.000 284.813,11.622 285.455,11.160 285.951 C 10.698 286.447,10.403 286.936,10.504 287.037 C 10.691 287.225,12.800 284.643,12.800 284.227 C 12.800 284.102,12.620 284.000,12.400 284.000 C 12.180 284.000,12.000 284.236,12.000 284.525 M135.200 285.847 C 135.200 286.067,135.464 286.596,135.787 287.024 C 136.110 287.451,136.375 287.620,136.375 287.400 C 136.375 287.180,136.110 286.651,135.787 286.224 C 135.464 285.796,135.200 285.627,135.200 285.847 M139.612 293.649 C 139.593 294.052,141.220 297.600,141.424 297.600 C 141.527 297.600,141.348 296.972,141.027 296.204 C 140.355 294.595,139.630 293.286,139.612 293.649 M145.600 312.553 C 145.600 312.883,145.780 313.264,146.000 313.400 C 146.220 313.536,146.400 313.377,146.400 313.047 C 146.400 312.717,146.220 312.336,146.000 312.200 C 145.780 312.064,145.600 312.223,145.600 312.553 M146.406 317.900 C 146.424 318.777,147.188 319.359,147.194 318.500 C 147.197 318.005,147.020 317.600,146.800 317.600 C 146.580 317.600,146.403 317.735,146.406 317.900 M146.692 334.642 C 146.531 334.802,146.400 335.209,146.400 335.547 C 146.400 335.997,146.518 336.042,146.845 335.715 C 147.090 335.470,147.221 335.063,147.137 334.810 C 147.052 334.557,146.852 334.481,146.692 334.642 M74.700 341.082 C 75.195 341.178,76.005 341.178,76.500 341.082 C 76.995 340.987,76.590 340.909,75.600 340.909 C 74.610 340.909,74.205 340.987,74.700 341.082 M65.802 343.198 C 65.403 343.639,65.207 344.000,65.367 344.000 C 65.788 344.000,66.928 342.795,66.712 342.579 C 66.611 342.478,66.202 342.756,65.802 343.198 M81.600 344.229 C 81.600 344.354,81.870 344.727,82.200 345.057 C 82.851 345.708,82.933 345.611,82.557 344.633 C 82.329 344.038,81.600 343.730,81.600 344.229 M64.488 362.213 C 65.086 362.843,65.647 363.277,65.735 363.179 C 65.823 363.080,65.333 362.565,64.647 362.034 L 63.400 361.069 64.488 362.213 M137.800 362.800 C 137.459 363.460,137.269 364.000,137.379 364.000 C 137.489 364.000,137.859 363.460,138.200 362.800 C 138.541 362.140,138.731 361.600,138.621 361.600 C 138.511 361.600,138.141 362.140,137.800 362.800 M66.800 363.927 C 66.800 364.116,67.250 364.477,67.800 364.727 C 68.350 364.978,68.800 365.117,68.800 365.037 C 68.800 364.957,68.350 364.597,67.800 364.237 C 67.250 363.876,66.800 363.737,66.800 363.927 M10.000 365.551 C 10.000 365.744,10.256 366.114,10.569 366.374 C 11.035 366.761,11.098 366.698,10.922 366.023 C 10.712 365.219,10.000 364.855,10.000 365.551 M11.562 367.929 C 11.805 368.384,12.201 368.877,12.442 369.026 C 12.756 369.220,12.754 369.062,12.438 368.471 C 12.195 368.016,11.799 367.523,11.558 367.374 C 11.244 367.180,11.246 367.338,11.562 367.929 M133.802 369.198 C 133.403 369.639,133.207 370.000,133.367 370.000 C 133.788 370.000,134.928 368.795,134.712 368.579 C 134.611 368.478,134.202 368.756,133.802 369.198 M13.634 370.800 C 14.815 372.623,14.800 372.606,14.800 372.089 C 14.800 371.845,14.333 371.140,13.763 370.522 L 12.727 369.400 13.634 370.800 M129.326 374.584 C 128.845 375.098,128.549 375.616,128.668 375.735 C 128.885 375.952,130.800 374.230,130.800 373.818 C 130.800 373.357,130.164 373.687,129.326 374.584 M122.600 381.766 C 121.940 382.295,121.490 382.812,121.600 382.914 C 121.710 383.016,122.340 382.582,123.000 381.950 C 124.460 380.552,124.240 380.451,122.600 381.766 M25.600 383.429 C 25.600 383.853,26.836 384.897,27.067 384.667 C 27.192 384.541,27.017 384.160,26.676 383.819 C 26.041 383.184,25.600 383.024,25.600 383.429 M27.740 385.103 C 27.896 385.356,28.591 385.967,29.284 386.460 C 29.977 386.954,30.417 387.150,30.260 386.897 C 30.104 386.644,29.409 386.033,28.716 385.540 C 28.023 385.046,27.583 384.850,27.740 385.103 M114.613 387.985 C 113.918 388.753,113.926 388.760,114.948 388.285 C 115.523 388.018,115.995 387.665,115.997 387.500 C 116.003 386.954,115.335 387.188,114.613 387.985 M32.200 388.486 C 32.640 388.740,33.238 389.185,33.529 389.474 C 33.819 389.763,34.259 390.000,34.506 390.000 C 34.753 390.000,34.345 389.550,33.600 389.000 C 32.855 388.450,32.055 388.005,31.822 388.012 C 31.590 388.019,31.760 388.232,32.200 388.486 "
              stroke="none" fill="#4cb4b4" fill-rule="evenodd"></path>
    </g>
</svg>