<svg id="svg" version="1.1" xmlns="http://www.w3.org/2000/svg" xmlns:xlink="http://www.w3.org/1999/xlink"
     width="100" height="100" viewBox="0, 0, 400,400">
    <g id="svgg">
        <path id="path0"
              d="M264.634 126.345 C 264.479 126.595,263.384 126.800,262.200 126.800 C 261.016 126.800,259.936 126.980,259.800 127.200 C 259.664 127.420,258.933 127.600,258.176 127.600 C 257.419 127.600,256.800 127.780,256.800 128.000 C 256.800 128.220,256.260 128.400,255.600 128.400 C 254.940 128.400,254.400 128.580,254.400 128.800 C 254.400 129.020,253.860 129.200,253.200 129.200 C 252.540 129.200,252.000 129.380,252.000 129.600 C 252.000 129.820,251.460 130.000,250.800 130.000 C 250.140 130.000,249.600 130.180,249.600 130.400 C 249.600 130.620,249.240 130.800,248.800 130.800 C 248.360 130.800,248.000 130.980,248.000 131.200 C 248.000 131.420,247.640 131.600,247.200 131.600 C 246.760 131.600,246.400 131.780,246.400 132.000 C 246.400 132.220,246.040 132.400,245.600 132.400 C 245.160 132.400,244.800 132.580,244.800 132.800 C 244.800 133.020,244.440 133.200,244.000 133.200 C 243.560 133.200,243.200 133.380,243.200 133.600 C 243.200 133.820,242.970 134.000,242.688 134.000 C 242.407 134.000,241.917 134.360,241.600 134.800 C 241.283 135.240,240.743 135.600,240.400 135.600 C 240.057 135.600,239.517 135.960,239.200 136.400 C 238.883 136.840,238.391 137.200,238.108 137.200 C 237.825 137.200,237.028 137.740,236.337 138.400 C 235.646 139.060,234.935 139.600,234.756 139.600 C 233.906 139.600,227.211 146.334,225.728 148.679 C 225.130 149.626,224.496 150.400,224.320 150.400 C 224.144 150.400,224.000 150.720,224.000 151.112 C 224.000 151.503,223.640 152.083,223.200 152.400 C 222.760 152.717,222.400 153.257,222.400 153.600 C 222.400 153.943,222.040 154.483,221.600 154.800 C 221.160 155.117,220.800 155.697,220.800 156.088 C 220.800 156.480,220.620 156.800,220.400 156.800 C 220.180 156.800,220.000 157.160,220.000 157.600 C 220.000 158.040,219.820 158.400,219.600 158.400 C 219.380 158.400,219.200 158.670,219.200 159.000 C 219.200 159.330,219.020 159.600,218.800 159.600 C 218.580 159.600,218.400 159.960,218.400 160.400 C 218.400 160.840,218.220 161.200,218.000 161.200 C 217.780 161.200,217.600 161.560,217.600 162.000 C 217.600 162.440,217.420 162.800,217.200 162.800 C 216.980 162.800,216.800 163.340,216.800 164.000 C 216.800 164.660,216.620 165.200,216.400 165.200 C 216.180 165.200,216.000 165.639,216.000 166.176 C 216.000 166.713,215.820 167.264,215.600 167.400 C 215.380 167.536,215.200 168.177,215.200 168.824 C 215.200 169.471,215.020 170.000,214.800 170.000 C 214.580 170.000,214.400 170.720,214.400 171.600 C 214.400 172.480,214.220 173.200,214.000 173.200 C 213.780 173.200,213.600 174.089,213.600 175.176 C 213.600 176.263,213.420 177.264,213.200 177.400 C 212.630 177.752,212.666 192.506,213.239 193.079 C 213.480 193.320,213.929 195.021,214.237 196.859 C 214.892 200.774,215.971 204.552,217.703 209.000 C 218.931 212.153,219.266 212.837,221.710 217.200 C 222.821 219.184,225.964 223.558,227.961 225.900 L 228.728 226.800 247.541 226.800 C 268.881 226.800,268.950 226.788,263.716 224.019 C 258.514 221.268,254.347 215.171,253.761 209.454 L 253.487 206.780 260.044 206.890 L 266.600 207.000 267.017 208.289 C 268.877 214.044,276.008 215.037,279.000 209.958 C 279.694 208.780,279.800 207.881,279.800 203.168 C 279.800 195.565,278.645 194.064,272.158 193.237 C 259.987 191.685,253.262 183.507,253.217 170.200 C 253.183 160.114,256.922 152.907,264.200 149.031 L 266.600 147.753 266.715 143.867 L 266.829 139.980 273.315 140.090 L 279.800 140.200 280.000 143.967 L 280.200 147.735 281.600 148.529 C 282.370 148.966,283.437 149.557,283.972 149.842 C 288.424 152.215,292.820 159.417,292.949 164.550 L 293.000 166.600 287.094 166.711 C 280.810 166.829,279.600 166.570,279.600 165.111 C 279.600 158.593,267.958 158.871,266.977 165.412 C 265.570 174.794,267.546 178.994,273.839 179.999 C 281.027 181.147,283.672 182.347,287.400 186.151 C 292.012 190.857,293.200 194.388,293.200 203.385 C 293.200 214.352,290.012 220.509,282.300 224.439 C 277.746 226.760,278.060 226.803,299.733 226.785 L 318.200 226.770 319.486 225.085 C 323.426 219.921,324.733 217.909,326.819 213.795 C 329.647 208.220,331.339 203.125,332.597 196.400 C 332.947 194.530,333.406 192.940,333.617 192.867 C 334.141 192.684,334.124 178.924,333.600 178.600 C 333.380 178.464,333.200 177.373,333.200 176.176 C 333.200 174.979,333.020 174.000,332.800 174.000 C 332.580 174.000,332.400 173.280,332.400 172.400 C 332.400 171.520,332.220 170.800,332.000 170.800 C 331.780 170.800,331.600 170.080,331.600 169.200 C 331.600 168.320,331.420 167.600,331.200 167.600 C 330.980 167.600,330.800 167.251,330.800 166.824 C 330.800 166.397,330.620 165.936,330.400 165.800 C 330.180 165.664,330.000 165.113,330.000 164.576 C 330.000 164.039,329.820 163.600,329.600 163.600 C 329.380 163.600,329.200 163.150,329.200 162.600 C 329.200 162.050,329.020 161.600,328.800 161.600 C 328.580 161.600,328.400 161.240,328.400 160.800 C 328.400 160.360,328.220 160.000,328.000 160.000 C 327.780 160.000,327.600 159.640,327.600 159.200 C 327.600 158.760,327.420 158.400,327.200 158.400 C 326.980 158.400,326.800 158.080,326.800 157.688 C 326.800 157.297,326.440 156.717,326.000 156.400 C 325.560 156.083,325.200 155.584,325.200 155.292 C 325.200 154.497,323.984 152.289,323.141 151.553 C 322.733 151.197,322.400 150.745,322.400 150.549 C 322.400 149.732,313.686 140.400,312.924 140.400 C 312.722 140.400,311.908 139.815,311.115 139.100 C 308.746 136.964,308.012 136.400,307.595 136.400 C 307.378 136.400,307.200 136.220,307.200 136.000 C 307.200 135.780,306.930 135.600,306.600 135.600 C 306.270 135.600,306.000 135.420,306.000 135.200 C 306.000 134.980,305.680 134.800,305.288 134.800 C 304.897 134.800,304.317 134.440,304.000 134.000 C 303.683 133.560,303.103 133.200,302.712 133.200 C 302.320 133.200,302.000 133.020,302.000 132.800 C 302.000 132.580,301.640 132.400,301.200 132.400 C 300.760 132.400,300.400 132.220,300.400 132.000 C 300.400 131.780,300.040 131.600,299.600 131.600 C 299.160 131.600,298.800 131.420,298.800 131.200 C 298.800 130.980,298.451 130.800,298.024 130.800 C 297.597 130.800,297.136 130.620,297.000 130.400 C 296.864 130.180,296.313 130.000,295.776 130.000 C 295.239 130.000,294.800 129.820,294.800 129.600 C 294.800 129.380,294.260 129.200,293.600 129.200 C 292.940 129.200,292.400 129.020,292.400 128.800 C 292.400 128.580,291.871 128.400,291.224 128.400 C 290.577 128.400,289.948 128.240,289.827 128.044 C 289.706 127.849,288.931 127.573,288.104 127.431 C 287.277 127.289,285.520 126.982,284.200 126.748 C 281.653 126.296,278.017 126.163,274.400 126.389 C 273.190 126.465,270.561 126.383,268.558 126.208 C 265.957 125.980,264.835 126.019,264.634 126.345 M0.000 187.202 L 0.000 207.605 33.700 207.502 L 67.400 207.400 67.400 200.000 L 67.400 192.600 52.700 192.495 C 40.001 192.404,38.000 192.309,38.000 191.795 C 38.000 191.468,37.820 191.200,37.600 191.200 C 37.380 191.200,37.200 190.840,37.200 190.400 C 37.200 189.960,37.020 189.600,36.800 189.600 C 36.580 189.600,36.400 189.060,36.400 188.400 C 36.400 187.740,36.220 187.200,36.000 187.200 C 35.780 187.200,35.600 186.840,35.600 186.400 C 35.600 185.960,35.420 185.600,35.200 185.600 C 34.980 185.600,34.800 185.060,34.800 184.400 C 34.800 183.740,34.620 183.200,34.400 183.200 C 34.180 183.200,34.000 182.840,34.000 182.400 C 34.000 181.960,33.820 181.600,33.600 181.600 C 33.380 181.600,33.200 181.161,33.200 180.624 C 33.200 180.087,33.020 179.536,32.800 179.400 C 32.580 179.264,32.400 178.803,32.400 178.376 C 32.400 177.949,32.220 177.600,32.000 177.600 C 31.780 177.600,31.600 177.150,31.600 176.600 C 31.600 176.050,31.420 175.600,31.200 175.600 C 30.980 175.600,30.800 175.240,30.800 174.800 C 30.800 174.360,30.620 174.000,30.400 174.000 C 30.180 174.000,30.000 173.460,30.000 172.800 C 30.000 172.140,29.820 171.600,29.600 171.600 C 29.380 171.600,29.200 171.240,29.200 170.800 C 29.200 170.360,29.020 170.000,28.800 170.000 C 28.580 170.000,28.400 169.489,28.400 168.864 C 28.400 166.905,27.625 166.800,13.181 166.800 L 0.000 166.800 0.000 187.202 M252.000 361.200 C 252.000 361.640,251.820 362.000,251.600 362.000 C 251.380 362.000,251.200 362.360,251.200 362.800 C 251.200 363.240,251.020 363.600,250.800 363.600 C 250.580 363.600,250.400 364.140,250.400 364.800 C 250.400 365.460,250.220 366.000,250.000 366.000 C 249.780 366.000,249.600 366.360,249.600 366.800 C 249.600 367.240,249.420 367.600,249.200 367.600 C 248.980 367.600,248.800 368.140,248.800 368.800 C 248.800 369.460,248.620 370.000,248.400 370.000 C 248.180 370.000,248.000 370.360,248.000 370.800 C 248.000 371.240,247.820 371.600,247.600 371.600 C 247.380 371.600,247.200 372.140,247.200 372.800 C 247.200 373.460,247.020 374.000,246.800 374.000 C 246.580 374.000,246.400 374.360,246.400 374.800 C 246.400 375.240,246.220 375.600,246.000 375.600 C 245.780 375.600,245.600 375.955,245.600 376.388 C 245.600 376.821,245.240 377.817,244.800 378.600 C 244.360 379.383,244.000 380.379,244.000 380.812 C 244.000 381.245,243.853 381.600,243.672 381.600 C 243.492 381.600,243.100 382.500,242.800 383.600 L 242.255 385.600 227.528 385.600 L 212.800 385.600 212.800 392.800 L 212.800 400.000 273.400 400.000 L 334.000 400.000 334.000 392.800 L 334.000 385.600 319.200 385.600 C 304.667 385.600,304.400 385.586,304.400 384.800 C 304.400 384.360,304.220 384.000,304.000 384.000 C 303.780 384.000,303.600 383.561,303.600 383.024 C 303.600 382.487,303.420 381.936,303.200 381.800 C 302.980 381.664,302.800 381.203,302.800 380.776 C 302.800 380.349,302.620 380.000,302.400 380.000 C 302.180 380.000,302.000 379.550,302.000 379.000 C 302.000 378.450,301.820 378.000,301.600 378.000 C 301.380 378.000,301.200 377.651,301.200 377.224 C 301.200 376.797,301.020 376.336,300.800 376.200 C 300.580 376.064,300.400 375.513,300.400 374.976 C 300.400 374.439,300.220 374.000,300.000 374.000 C 299.780 374.000,299.600 373.640,299.600 373.200 C 299.600 372.760,299.420 372.400,299.200 372.400 C 298.980 372.400,298.800 371.860,298.800 371.200 C 298.800 370.540,298.620 370.000,298.400 370.000 C 298.180 370.000,298.000 369.640,298.000 369.200 C 298.000 368.760,297.820 368.400,297.600 368.400 C 297.380 368.400,297.200 367.961,297.200 367.424 C 297.200 366.887,297.020 366.336,296.800 366.200 C 296.580 366.064,296.400 365.603,296.400 365.176 C 296.400 364.749,296.220 364.400,296.000 364.400 C 295.780 364.400,295.600 363.961,295.600 363.424 C 295.600 362.887,295.420 362.336,295.200 362.200 C 294.980 362.064,294.800 361.603,294.800 361.176 C 294.800 360.418,294.316 360.400,273.400 360.400 C 252.267 360.400,252.000 360.410,252.000 361.200 "
              stroke="none" fill="#fbad46" fill-rule="evenodd"></path>
        <path id="path1"
              d="M79.762 53.400 C 79.762 56.920,79.824 58.306,79.898 56.481 C 79.972 54.656,79.972 51.776,79.897 50.081 C 79.822 48.386,79.761 49.880,79.762 53.400 M106.399 106.519 L 106.598 113.000 106.710 106.831 C 106.771 103.438,106.682 100.521,106.511 100.350 C 106.340 100.178,106.289 102.954,106.399 106.519 M79.763 106.800 C 79.763 110.430,79.823 111.915,79.898 110.100 C 79.972 108.285,79.972 105.315,79.898 103.500 C 79.823 101.685,79.763 103.170,79.763 106.800 M0.000 150.000 L 0.000 166.400 13.371 166.400 C 24.724 166.400,26.833 166.491,27.343 167.000 C 28.075 167.732,102.149 167.929,102.600 167.200 C 102.736 166.980,103.816 166.800,105.000 166.800 C 106.184 166.800,107.264 166.620,107.400 166.400 C 107.536 166.180,108.076 166.000,108.600 166.000 C 109.124 166.000,109.664 165.820,109.800 165.600 C 109.936 165.380,110.352 165.196,110.724 165.191 C 111.096 165.186,111.850 164.830,112.400 164.400 C 112.950 163.970,113.672 163.614,114.004 163.609 C 114.897 163.596,119.779 159.292,122.000 156.560 C 123.386 154.855,125.200 151.363,125.200 150.400 C 125.200 149.960,125.380 149.600,125.600 149.600 C 125.820 149.600,126.000 149.060,126.000 148.400 C 126.000 147.740,126.180 147.200,126.400 147.200 C 126.628 147.200,126.800 146.008,126.800 144.424 C 126.800 142.897,126.980 141.536,127.200 141.400 C 127.421 141.263,127.600 139.463,127.600 137.376 L 127.600 133.600 63.800 133.600 L 0.000 133.600 0.000 150.000 M346.563 233.200 C 346.563 236.830,346.623 238.315,346.698 236.500 C 346.772 234.685,346.772 231.715,346.698 229.900 C 346.623 228.085,346.563 229.570,346.563 233.200 M236.700 239.900 C 256.775 239.957,289.625 239.957,309.700 239.900 C 329.775 239.843,313.350 239.796,273.200 239.796 C 233.050 239.796,216.625 239.843,236.700 239.900 M145.754 330.900 C 146.037 336.578,146.405 339.732,146.835 340.180 C 147.036 340.389,147.200 341.154,147.200 341.880 C 147.200 342.606,147.380 343.200,147.600 343.200 C 147.820 343.200,148.000 343.560,148.000 344.000 C 148.000 344.440,148.180 344.800,148.400 344.800 C 148.620 344.800,148.800 345.160,148.800 345.600 C 148.800 346.040,148.980 346.400,149.200 346.400 C 149.420 346.400,149.600 346.593,149.600 346.828 C 149.600 348.437,156.077 355.332,158.983 356.816 C 159.872 357.270,161.050 357.900,161.600 358.215 C 162.150 358.530,162.994 358.791,163.476 358.794 C 163.958 358.797,164.464 358.980,164.600 359.200 C 164.736 359.420,165.467 359.600,166.224 359.600 C 166.981 359.600,167.600 359.762,167.600 359.961 C 167.600 360.175,210.774 360.322,273.400 360.322 C 331.590 360.322,379.200 360.179,379.200 360.005 C 379.200 359.830,379.785 359.593,380.500 359.477 C 383.157 359.047,385.600 358.324,385.600 357.968 C 385.600 357.765,385.803 357.600,386.051 357.600 C 387.350 357.600,394.800 351.477,394.800 350.411 C 394.800 350.185,394.980 350.000,395.200 350.000 C 395.420 350.000,395.600 349.730,395.600 349.400 C 395.600 349.070,395.752 348.800,395.937 348.800 C 396.123 348.800,396.708 347.945,397.237 346.900 C 397.767 345.855,398.335 344.940,398.500 344.867 C 398.665 344.793,398.800 344.223,398.800 343.600 C 398.800 342.977,399.024 342.392,399.298 342.301 C 399.666 342.178,399.834 340.125,399.941 334.467 L 400.086 326.800 272.817 326.800 L 145.549 326.800 145.754 330.900 "
              stroke="none" fill="#64c4c4" fill-rule="evenodd"></path>
        <path id="path2"
              d="M40.276 33.857 C 40.124 34.009,40.000 42.923,40.000 53.667 L 40.000 73.200 46.600 73.200 L 53.200 73.200 53.200 66.600 L 53.200 60.000 66.400 60.000 L 79.600 60.000 79.600 53.400 L 79.600 46.800 66.410 46.800 L 53.220 46.800 53.110 40.300 L 53.000 33.800 46.776 33.690 C 43.353 33.630,40.428 33.705,40.276 33.857 M127.206 46.193 C 126.783 46.703,124.282 46.807,110.255 46.896 L 93.800 47.000 93.800 53.400 L 93.800 59.800 112.400 60.043 C 122.630 60.177,157.224 60.312,189.276 60.343 C 227.635 60.381,247.637 60.537,247.800 60.800 C 247.936 61.020,248.937 61.200,250.024 61.200 C 251.111 61.200,252.000 61.380,252.000 61.600 C 252.000 61.820,252.540 62.000,253.200 62.000 C 253.860 62.000,254.400 62.180,254.400 62.400 C 254.400 62.620,254.636 62.800,254.925 62.800 C 255.213 62.800,255.836 63.160,256.308 63.600 C 256.780 64.040,257.444 64.400,257.783 64.400 C 258.122 64.400,258.400 64.536,258.400 64.702 C 258.400 64.867,259.390 66.042,260.600 67.311 C 261.810 68.580,262.800 69.885,262.800 70.209 C 262.800 70.534,262.980 70.800,263.200 70.800 C 263.420 70.800,263.600 71.160,263.600 71.600 C 263.600 72.040,263.780 72.400,264.000 72.400 C 264.220 72.400,264.400 72.850,264.400 73.400 C 264.400 73.950,264.580 74.400,264.800 74.400 C 265.020 74.400,265.200 75.120,265.200 76.000 C 265.200 76.880,265.380 77.600,265.600 77.600 C 265.858 77.600,266.000 81.800,266.000 89.400 C 266.000 95.890,265.902 101.200,265.783 101.200 C 265.663 101.200,264.152 99.771,262.425 98.025 C 260.697 96.279,259.175 94.959,259.042 95.092 C 258.909 95.225,258.800 95.045,258.800 94.694 C 258.800 94.342,258.480 93.952,258.089 93.828 C 257.698 93.704,257.113 93.219,256.789 92.750 C 255.434 90.789,252.399 88.000,251.621 88.000 C 250.728 88.000,241.200 97.104,241.200 97.957 C 241.200 98.684,241.327 98.817,254.899 112.268 C 256.935 114.285,260.611 117.975,263.068 120.468 C 268.696 126.177,268.281 125.871,271.071 126.377 C 274.432 126.986,277.641 126.338,279.510 124.672 C 280.891 123.442,288.018 116.317,293.057 111.130 C 294.409 109.738,297.684 106.530,300.336 104.000 C 306.094 98.507,306.407 97.648,303.545 95.200 C 302.645 94.430,300.579 92.495,298.954 90.900 C 295.619 87.627,294.737 87.372,293.200 89.239 C 292.650 89.907,291.790 90.847,291.289 91.327 C 290.787 91.807,288.314 94.225,285.793 96.700 C 283.271 99.175,281.117 101.200,281.004 101.200 C 280.892 101.200,280.800 95.620,280.800 88.800 C 280.800 80.800,280.658 76.400,280.400 76.400 C 280.178 76.400,280.000 75.333,280.000 74.000 C 280.000 72.667,279.822 71.600,279.600 71.600 C 279.380 71.600,279.200 71.060,279.200 70.400 C 279.200 69.740,279.020 69.200,278.800 69.200 C 278.580 69.200,278.400 68.604,278.400 67.875 C 278.400 67.104,278.066 66.192,277.600 65.692 C 277.160 65.220,276.800 64.556,276.800 64.217 C 276.800 63.878,276.620 63.600,276.400 63.600 C 276.180 63.600,276.000 63.240,276.000 62.800 C 276.000 62.360,275.820 62.000,275.600 62.000 C 275.380 62.000,275.200 61.649,275.200 61.220 C 275.200 60.791,274.962 60.296,274.670 60.120 C 274.379 59.944,273.704 59.179,273.170 58.420 C 271.882 56.587,269.729 54.400,269.213 54.400 C 268.986 54.400,268.800 54.220,268.800 54.000 C 268.800 53.780,268.602 53.600,268.360 53.600 C 268.119 53.600,267.417 53.060,266.800 52.400 C 266.183 51.740,265.391 51.200,265.040 51.200 C 264.688 51.200,264.400 51.020,264.400 50.800 C 264.400 50.580,264.040 50.400,263.600 50.400 C 263.160 50.400,262.800 50.220,262.800 50.000 C 262.800 49.780,262.440 49.600,262.000 49.600 C 261.560 49.600,261.200 49.420,261.200 49.200 C 261.200 48.980,260.840 48.800,260.400 48.800 C 259.960 48.800,259.600 48.620,259.600 48.400 C 259.600 48.180,259.161 48.000,258.624 48.000 C 258.087 48.000,257.536 47.820,257.400 47.600 C 257.264 47.380,256.749 47.200,256.256 47.200 C 255.763 47.200,255.189 47.035,254.980 46.832 C 253.798 45.689,128.146 45.060,127.206 46.193 M40.276 100.257 C 40.124 100.409,40.000 103.383,40.000 106.867 L 40.000 113.200 46.610 113.200 L 53.220 113.200 53.110 106.700 L 53.000 100.200 46.776 100.090 C 43.353 100.030,40.428 100.105,40.276 100.257 M66.976 100.518 C 66.867 100.802,66.828 103.727,66.889 107.018 L 67.000 113.000 73.300 113.110 L 79.600 113.220 79.600 106.610 L 79.600 100.000 73.387 100.000 C 68.674 100.000,67.127 100.125,66.976 100.518 M93.877 100.257 C 93.725 100.409,93.600 103.383,93.600 106.867 L 93.600 113.200 100.010 113.200 L 106.420 113.200 106.310 106.700 L 106.200 100.200 100.177 100.090 C 96.864 100.029,94.029 100.104,93.877 100.257 M266.715 143.867 L 266.600 147.753 264.200 149.031 C 256.922 152.907,253.183 160.114,253.217 170.200 C 253.262 183.507,259.987 191.685,272.158 193.237 C 278.645 194.064,279.800 195.565,279.800 203.168 C 279.800 207.881,279.694 208.780,279.000 209.958 C 276.008 215.037,268.877 214.044,267.017 208.289 L 266.600 207.000 260.044 206.890 L 253.487 206.780 253.761 209.454 C 254.347 215.171,258.514 221.268,263.716 224.019 C 269.134 226.885,270.222 226.783,233.182 226.898 L 200.200 227.000 200.090 233.300 L 199.980 239.600 273.190 239.600 L 346.400 239.600 346.400 233.200 L 346.400 226.800 313.833 226.800 C 276.738 226.800,277.549 226.861,282.300 224.439 C 290.012 220.509,293.200 214.352,293.200 203.385 C 293.200 194.388,292.012 190.857,287.400 186.151 C 283.672 182.347,281.027 181.147,273.839 179.999 C 267.546 178.994,265.570 174.794,266.977 165.412 C 267.958 158.871,279.600 158.593,279.600 165.111 C 279.600 166.570,280.810 166.829,287.094 166.711 L 293.000 166.600 292.949 164.550 C 292.820 159.417,288.424 152.215,283.972 149.842 C 283.437 149.557,282.370 148.966,281.600 148.529 L 280.200 147.735 280.000 143.967 L 279.800 140.200 273.315 140.090 L 266.829 139.980 266.715 143.867 "
              stroke="none" fill="#646464" fill-rule="evenodd"></path>
        <path id="path3"
              d="M-0.000 66.389 L 0.000 132.795 63.800 132.898 L 127.600 133.000 127.600 96.704 L 127.600 60.408 110.300 60.304 L 93.000 60.200 92.890 53.653 C 92.814 49.165,92.924 46.932,93.239 46.553 C 93.616 46.099,96.613 46.000,110.016 46.000 C 118.991 46.000,126.619 45.891,126.967 45.757 C 127.722 45.467,127.952 25.600,127.200 25.600 C 126.971 25.600,126.800 24.400,126.800 22.800 C 126.800 21.200,126.629 20.000,126.400 20.000 C 126.180 20.000,126.000 19.629,126.000 19.175 C 126.000 15.385,118.524 4.400,115.945 4.400 C 115.729 4.400,115.664 4.220,115.800 4.000 C 115.941 3.772,115.596 3.600,115.000 3.600 C 114.404 3.600,114.059 3.428,114.200 3.200 C 114.336 2.980,114.077 2.800,113.624 2.800 C 113.171 2.800,112.800 2.620,112.800 2.400 C 112.800 2.180,112.440 2.000,112.000 2.000 C 111.560 2.000,111.200 1.820,111.200 1.600 C 111.200 1.380,110.675 1.200,110.033 1.200 C 109.392 1.200,108.792 0.975,108.700 0.700 C 108.568 0.304,97.247 0.177,54.267 0.092 L -0.000 -0.017 -0.000 66.389 M53.520 33.280 C 53.852 33.612,54.000 35.653,54.000 39.880 L 54.000 46.000 66.669 46.000 C 77.895 46.000,79.420 46.075,80.069 46.662 C 80.816 47.339,81.182 57.134,80.548 59.500 L 80.307 60.400 67.163 60.400 L 54.020 60.400 53.910 66.900 L 53.800 73.400 46.700 73.509 L 39.600 73.618 39.600 53.476 C 39.600 42.397,39.720 33.213,39.867 33.067 C 40.368 32.565,53.003 32.763,53.520 33.280 M53.510 99.936 C 53.898 100.182,53.994 101.842,53.910 106.830 L 53.800 113.400 46.700 113.509 L 39.600 113.618 39.600 106.876 C 39.600 103.167,39.720 100.013,39.867 99.867 C 40.249 99.484,52.899 99.548,53.510 99.936 M80.026 100.014 C 80.738 100.395,80.800 100.905,80.800 106.381 C 80.800 114.380,81.605 113.600,73.357 113.600 L 66.400 113.600 66.400 106.867 C 66.400 103.163,66.520 100.013,66.667 99.867 C 67.105 99.429,79.181 99.562,80.026 100.014 M106.710 99.936 C 107.098 100.182,107.194 101.842,107.110 106.830 L 107.000 113.400 100.000 113.400 L 93.000 113.400 92.890 106.830 C 92.757 98.935,92.090 99.612,100.000 99.612 C 103.410 99.612,106.430 99.758,106.710 99.936 M169.299 192.824 C 168.803 193.017,167.780 193.217,167.025 193.268 C 166.270 193.318,165.741 193.504,165.849 193.680 C 165.958 193.856,165.584 194.000,165.018 194.000 C 164.452 194.000,163.677 194.160,163.295 194.356 C 162.913 194.552,161.777 195.104,160.771 195.583 C 159.765 196.061,158.436 196.887,157.819 197.418 C 157.201 197.949,156.511 198.269,156.286 198.130 C 156.051 197.984,155.998 198.073,156.162 198.338 C 156.319 198.592,156.252 198.800,156.013 198.800 C 155.497 198.800,152.000 202.224,152.000 202.730 C 152.000 202.923,151.458 203.648,150.797 204.341 C 150.135 205.033,149.695 205.600,149.819 205.600 C 150.033 205.600,148.828 207.974,148.398 208.400 C 148.060 208.734,147.200 211.412,147.200 212.128 C 147.200 212.498,147.020 212.800,146.800 212.800 C 146.580 212.800,146.421 212.935,146.447 213.100 C 146.666 214.483,146.327 218.402,146.006 218.203 C 145.747 218.044,145.608 236.652,145.603 272.180 L 145.595 326.400 272.806 326.400 L 400.018 326.400 399.909 268.733 C 399.823 223.033,399.696 211.032,399.300 210.900 C 399.025 210.808,398.800 210.514,398.800 210.246 C 398.800 209.537,397.851 207.607,397.500 207.603 C 397.335 207.601,397.200 207.240,397.200 206.800 C 397.200 206.360,397.020 206.000,396.800 206.000 C 396.580 206.000,396.400 205.712,396.400 205.360 C 396.400 205.009,395.904 204.244,395.298 203.660 C 394.691 203.077,393.752 201.938,393.210 201.129 C 392.668 200.320,392.129 199.689,392.012 199.727 C 391.896 199.764,391.080 199.106,390.200 198.265 C 389.320 197.423,387.925 196.460,387.100 196.124 C 386.275 195.788,385.600 195.353,385.600 195.157 C 385.600 194.960,385.251 194.800,384.824 194.800 C 384.397 194.800,383.928 194.608,383.783 194.373 C 383.638 194.138,383.244 194.051,382.909 194.180 C 382.573 194.308,382.068 194.222,381.786 193.989 C 380.505 192.925,376.239 192.685,355.669 192.523 C 331.920 192.335,333.415 192.150,332.993 195.320 C 332.627 198.066,330.555 206.127,329.745 207.954 C 329.393 208.749,328.837 210.030,328.509 210.800 C 327.261 213.730,324.627 218.541,323.333 220.253 C 322.856 220.884,321.657 222.480,320.667 223.800 L 318.869 226.200 332.934 226.400 L 347.000 226.600 347.000 233.400 L 347.000 240.200 273.508 240.301 L 200.016 240.402 199.793 239.501 C 199.671 239.005,199.622 235.900,199.685 232.600 L 199.800 226.600 213.915 226.495 L 228.029 226.390 226.715 224.695 C 225.992 223.763,225.296 222.910,225.170 222.800 C 224.726 222.414,221.737 217.777,220.519 215.585 C 219.124 213.073,216.796 207.487,216.025 204.800 C 215.741 203.810,215.362 202.640,215.183 202.200 C 215.004 201.760,214.654 200.140,214.406 198.600 C 214.158 197.060,213.740 195.080,213.477 194.200 L 213.000 192.600 191.600 192.536 C 179.830 192.501,169.794 192.631,169.299 192.824 "
              stroke="none" fill="#cbf3f3" fill-rule="evenodd"></path>
        <path id="path4"
              d="M39.867 33.067 C 39.720 33.213,39.600 42.397,39.600 53.476 L 39.600 73.618 46.700 73.509 L 53.800 73.400 53.910 66.900 L 54.020 60.400 67.163 60.400 L 80.307 60.400 80.548 59.500 C 81.182 57.134,80.816 47.339,80.069 46.662 C 79.420 46.075,77.895 46.000,66.669 46.000 L 54.000 46.000 54.000 39.880 C 54.000 35.653,53.852 33.612,53.520 33.280 C 53.003 32.763,40.368 32.565,39.867 33.067 M53.290 40.100 L 53.400 46.600 66.600 46.800 L 79.800 47.000 79.800 53.400 L 79.800 59.800 66.600 60.000 L 53.400 60.200 53.290 66.700 L 53.180 73.200 46.590 73.200 L 40.000 73.200 40.000 53.400 L 40.000 33.600 46.590 33.600 L 53.180 33.600 53.290 40.100 M110.436 45.900 C 98.851 45.976,93.707 46.145,93.326 46.461 C 92.898 46.817,92.805 48.334,92.891 53.557 L 93.000 60.200 109.800 60.207 L 126.600 60.214 110.100 60.102 L 93.600 59.991 93.600 53.396 L 93.600 46.800 110.029 46.800 C 124.098 46.800,126.543 46.714,127.057 46.200 C 127.387 45.870,127.509 45.643,127.329 45.695 C 127.148 45.748,119.546 45.840,110.436 45.900 M39.867 99.867 C 39.720 100.013,39.600 103.167,39.600 106.876 L 39.600 113.618 46.700 113.509 L 53.800 113.400 53.910 106.830 C 53.994 101.842,53.898 100.182,53.510 99.936 C 52.899 99.548,40.249 99.484,39.867 99.867 M66.667 99.867 C 66.520 100.013,66.400 103.163,66.400 106.867 L 66.400 113.600 73.357 113.600 C 81.605 113.600,80.800 114.380,80.800 106.381 C 80.800 100.905,80.738 100.395,80.026 100.014 C 79.181 99.562,67.105 99.429,66.667 99.867 M93.290 99.936 C 92.902 100.182,92.806 101.842,92.890 106.830 L 93.000 113.400 100.000 113.400 L 107.000 113.400 107.110 106.830 C 107.243 98.935,107.910 99.612,100.000 99.612 C 96.590 99.612,93.570 99.758,93.290 99.936 M53.200 106.600 L 53.200 113.200 46.600 113.200 L 40.000 113.200 40.000 106.600 L 40.000 100.000 46.600 100.000 L 53.200 100.000 53.200 106.600 M79.910 106.700 L 80.020 113.200 73.410 113.200 L 66.800 113.200 66.800 106.590 L 66.800 99.980 73.300 100.090 L 79.800 100.200 79.910 106.700 M106.600 106.600 L 106.600 113.000 100.100 113.110 L 93.600 113.220 93.600 106.600 L 93.600 99.980 100.100 100.090 L 106.600 100.200 106.600 106.600 M0.000 133.200 C 0.000 133.465,21.541 133.600,63.824 133.600 C 106.271 133.600,127.564 133.466,127.400 133.200 C 127.058 132.646,0.000 132.646,0.000 133.200 M3.400 166.680 C 12.145 166.957,27.485 166.974,27.063 166.706 C 26.808 166.544,20.570 166.447,13.200 166.489 C 5.830 166.531,1.420 166.617,3.400 166.680 M227.165 225.295 L 228.130 226.390 213.965 226.495 L 199.800 226.600 199.685 232.600 C 199.622 235.900,199.671 239.005,199.793 239.501 L 200.016 240.402 273.508 240.301 L 347.000 240.200 347.000 233.400 L 347.000 226.600 332.855 226.495 C 319.490 226.395,318.741 226.351,319.255 225.695 C 319.748 225.066,319.733 225.052,319.100 225.549 C 317.636 226.697,318.748 226.800,332.600 226.800 L 346.800 226.800 346.800 233.192 C 346.800 239.491,346.787 239.588,345.900 239.802 C 345.405 239.921,312.420 239.970,272.600 239.909 L 200.200 239.800 200.090 233.300 L 199.980 226.800 214.190 226.800 C 222.006 226.800,228.400 226.651,228.400 226.470 C 228.400 226.288,227.905 225.703,227.300 225.170 L 226.200 224.200 227.165 225.295 M209.100 326.700 C 244.135 326.756,301.465 326.756,336.500 326.700 C 371.535 326.644,342.870 326.598,272.800 326.598 C 202.730 326.598,174.065 326.644,209.100 326.700 M263.128 360.300 C 268.918 360.362,278.278 360.362,283.928 360.300 C 289.578 360.237,284.840 360.186,273.400 360.186 C 261.960 360.186,257.338 360.237,263.128 360.300 "
              stroke="none" fill="#9ed2d2" fill-rule="evenodd"></path>
    </g>
</svg>