<svg id="svg" version="1.1" xmlns="http://www.w3.org/2000/svg" xmlns:xlink="http://www.w3.org/1999/xlink"
     width="100" height="100" viewBox="0, 0, 400,400">
    <g id="svgg">
        <path id="path0"
              d="M225.293 194.800 C 225.018 195.240,224.931 195.600,225.100 195.600 C 225.269 195.600,225.632 195.240,225.907 194.800 C 226.182 194.360,226.269 194.000,226.100 194.000 C 225.931 194.000,225.568 194.360,225.293 194.800 M93.286 233.100 L 93.200 256.000 71.800 256.000 C 57.800 256.000,50.400 255.862,50.400 255.600 C 50.400 255.380,49.948 255.200,49.395 255.200 C 47.716 255.200,46.110 254.088,45.350 252.400 C 44.197 249.840,44.000 248.990,44.000 246.581 L 44.000 244.000 56.600 244.000 L 69.200 244.000 69.198 237.100 C 69.197 233.305,69.080 228.445,68.938 226.300 L 68.679 222.400 62.740 222.400 L 56.800 222.400 56.800 223.824 C 56.800 224.671,56.638 225.147,56.400 225.000 C 56.147 224.844,56.000 225.863,56.000 227.776 L 56.000 230.800 37.657 230.800 L 19.314 230.800 19.057 228.341 C 18.916 226.989,18.800 225.099,18.800 224.141 L 18.800 222.400 12.800 222.400 L 6.800 222.400 6.800 223.824 C 6.800 224.671,6.638 225.147,6.400 225.000 C 6.138 224.838,6.000 228.063,6.000 234.376 L 6.000 244.000 18.400 244.000 L 30.800 244.000 30.800 249.776 C 30.800 253.196,30.963 255.654,31.200 255.800 C 31.420 255.936,31.600 256.487,31.600 257.024 C 31.600 257.561,31.735 258.001,31.900 258.003 C 32.212 258.006,33.200 259.904,33.200 260.499 C 33.200 261.214,38.949 266.467,40.437 267.112 C 41.297 267.484,42.000 267.926,42.000 268.094 C 42.000 268.262,42.439 268.400,42.976 268.400 C 43.513 268.400,44.064 268.580,44.200 268.800 C 44.360 269.060,53.004 269.200,68.824 269.200 L 93.200 269.200 93.200 275.000 L 93.200 280.800 68.800 280.800 C 52.800 280.800,44.400 280.938,44.400 281.200 C 44.400 281.420,43.860 281.600,43.200 281.600 C 42.540 281.600,42.000 281.780,42.000 282.000 C 42.000 282.220,41.640 282.400,41.200 282.400 C 40.760 282.400,40.400 282.580,40.400 282.800 C 40.400 283.020,40.127 283.200,39.794 283.200 C 39.003 283.200,33.200 289.003,33.200 289.794 C 33.200 290.127,33.020 290.400,32.800 290.400 C 32.580 290.400,32.400 290.760,32.400 291.200 C 32.400 291.640,32.220 292.000,32.000 292.000 C 31.780 292.000,31.600 292.540,31.600 293.200 C 31.600 293.860,31.420 294.400,31.200 294.400 C 30.952 294.400,30.800 296.600,30.800 300.200 L 30.800 306.000 18.400 306.000 L 6.000 306.000 6.030 316.300 C 6.053 324.496,6.482 332.462,6.750 329.680 C 6.789 329.273,8.093 329.186,12.757 329.280 L 18.713 329.400 18.953 327.400 C 19.085 326.300,19.195 324.005,19.197 322.300 L 19.200 319.200 37.600 319.200 L 56.000 319.200 56.030 322.900 C 56.055 326.068,56.602 331.217,56.750 329.680 C 56.789 329.273,58.093 329.186,62.757 329.280 L 68.713 329.400 68.953 327.400 C 69.085 326.300,69.195 321.035,69.197 315.700 L 69.200 306.000 56.600 306.000 L 44.000 306.000 44.000 303.200 C 44.000 301.600,44.171 300.400,44.400 300.400 C 44.620 300.400,44.800 299.948,44.800 299.395 C 44.800 297.103,47.115 294.800,49.418 294.800 C 50.002 294.800,50.340 294.627,50.200 294.400 C 50.036 294.135,57.263 294.000,71.576 294.000 L 93.200 294.000 93.247 311.700 C 93.273 321.435,93.432 328.860,93.600 328.200 L 93.905 327.000 93.953 328.080 L 94.000 329.161 100.201 329.280 L 106.401 329.400 106.401 325.671 C 106.400 322.357,106.467 322.010,107.000 322.543 C 107.330 322.873,107.600 323.319,107.600 323.534 C 107.600 323.749,107.960 323.831,108.400 323.716 C 108.847 323.599,109.200 323.704,109.200 323.953 C 109.200 324.199,109.571 324.400,110.024 324.400 C 110.477 324.400,110.736 324.580,110.600 324.800 C 110.464 325.020,110.614 325.200,110.934 325.200 C 111.253 325.200,111.628 325.496,111.767 325.857 C 111.905 326.219,112.128 326.405,112.262 326.271 C 112.679 325.854,114.039 326.811,113.753 327.320 C 113.561 327.661,113.639 327.655,114.021 327.300 C 114.664 326.703,115.350 326.633,115.000 327.200 C 114.864 327.420,115.134 327.600,115.600 327.600 C 116.066 327.600,116.336 327.780,116.200 328.000 C 115.850 328.567,116.536 328.497,117.179 327.900 C 117.475 327.625,117.613 327.589,117.485 327.819 C 117.357 328.050,117.403 328.481,117.586 328.777 C 118.036 329.506,119.253 329.004,118.950 328.215 C 118.795 327.809,118.947 327.600,119.400 327.600 C 119.810 327.600,120.003 327.816,119.879 328.138 C 119.732 328.523,119.946 328.623,120.637 328.491 C 121.180 328.387,121.600 328.498,121.600 328.745 C 121.600 329.054,126.701 329.215,138.940 329.292 L 156.279 329.400 156.540 321.036 C 156.992 306.503,156.852 227.644,156.372 226.748 C 156.033 226.115,155.697 226.003,154.756 226.210 C 154.066 226.361,153.337 226.280,153.019 226.016 C 152.643 225.703,152.390 225.692,152.212 225.981 C 151.821 226.614,151.193 226.484,151.447 225.822 C 151.589 225.452,151.405 225.234,150.934 225.217 C 150.530 225.201,149.210 225.116,148.000 225.028 C 146.790 224.940,145.440 224.850,145.000 224.828 C 144.334 224.794,144.301 224.723,144.800 224.400 C 145.313 224.069,145.298 224.011,144.700 224.006 C 144.315 224.003,144.000 224.135,144.000 224.300 C 144.000 224.465,143.540 224.627,142.979 224.659 C 142.121 224.709,142.058 224.645,142.585 224.259 C 143.103 223.878,142.972 223.783,141.818 223.701 C 140.652 223.619,140.463 223.716,140.651 224.301 C 140.829 224.855,140.792 224.883,140.475 224.436 C 140.254 224.126,140.167 223.629,140.282 223.332 C 140.428 222.950,140.280 222.871,139.779 223.063 C 139.240 223.270,139.148 223.199,139.399 222.768 C 139.580 222.456,139.579 222.336,139.396 222.501 C 139.213 222.667,138.654 222.534,138.153 222.206 C 137.589 221.837,137.148 221.760,136.997 222.004 C 136.863 222.222,136.358 222.397,135.876 222.394 C 135.148 222.389,135.101 222.316,135.600 221.963 C 136.133 221.586,136.133 221.557,135.600 221.703 C 135.270 221.793,135.000 222.062,135.000 222.300 C 135.000 223.035,134.374 223.405,134.041 222.866 C 133.625 222.192,110.144 222.183,109.333 222.856 C 108.943 223.179,108.747 223.126,108.563 222.647 C 108.253 221.840,107.600 222.202,107.600 223.181 C 107.600 224.006,108.666 224.601,108.898 223.906 C 108.991 223.627,109.343 223.576,109.824 223.771 C 110.586 224.080,110.586 224.092,109.800 224.400 C 109.037 224.699,109.035 224.728,109.740 225.015 C 110.214 225.208,110.608 225.116,110.834 224.758 C 111.096 224.345,111.197 224.460,111.222 225.200 C 111.253 226.118,111.284 226.134,111.600 225.400 L 111.944 224.600 112.019 225.400 C 112.061 225.840,112.069 226.348,112.037 226.530 C 112.006 226.711,112.150 226.754,112.358 226.626 C 112.566 226.498,112.975 226.632,113.268 226.923 C 113.560 227.215,114.655 227.706,115.700 228.014 C 116.745 228.323,117.600 228.715,117.600 228.887 C 117.600 229.059,117.870 229.200,118.200 229.200 C 118.530 229.200,118.800 229.391,118.800 229.624 C 118.800 229.857,118.981 229.935,119.203 229.798 C 119.424 229.661,119.713 229.830,119.845 230.172 C 119.976 230.515,120.230 230.705,120.410 230.594 C 120.589 230.483,120.985 230.642,121.289 230.946 C 121.594 231.251,122.366 231.500,123.005 231.500 C 123.644 231.500,124.234 231.703,124.317 231.950 C 124.399 232.197,124.722 232.400,125.033 232.400 C 125.345 232.400,125.600 232.580,125.600 232.800 C 125.600 233.020,126.020 233.200,126.533 233.200 C 127.047 233.200,127.591 233.325,127.744 233.477 C 127.896 233.629,128.413 233.814,128.893 233.887 C 129.373 233.960,129.863 234.151,129.983 234.310 C 130.102 234.470,130.650 234.662,131.200 234.738 C 131.750 234.814,132.260 235.039,132.333 235.238 C 132.407 235.437,132.981 235.600,133.610 235.600 C 134.238 235.600,134.864 235.780,135.000 236.000 C 135.136 236.220,135.867 236.400,136.624 236.400 C 137.381 236.400,138.000 236.560,138.000 236.756 C 138.000 236.952,138.585 237.206,139.300 237.320 C 140.015 237.435,140.960 237.621,141.400 237.734 C 141.840 237.846,142.425 237.953,142.700 237.969 C 143.092 237.993,143.200 241.803,143.200 255.600 L 143.200 273.200 141.576 273.200 C 140.596 273.200,140.051 273.042,140.200 272.800 C 140.347 272.561,139.863 272.400,139.000 272.400 C 138.137 272.400,137.653 272.239,137.800 272.000 C 137.944 271.767,137.537 271.600,136.824 271.600 C 136.151 271.600,135.600 271.420,135.600 271.200 C 135.600 270.980,135.060 270.800,134.400 270.800 C 133.740 270.800,133.200 270.620,133.200 270.400 C 133.200 270.180,132.761 270.000,132.224 270.000 C 131.687 270.000,131.136 269.820,131.000 269.600 C 130.864 269.380,130.403 269.200,129.976 269.200 C 129.549 269.200,129.200 269.020,129.200 268.800 C 129.200 268.580,128.851 268.400,128.424 268.400 C 127.997 268.400,127.536 268.220,127.400 268.000 C 127.264 267.780,126.713 267.600,126.176 267.600 C 125.639 267.600,125.200 267.454,125.200 267.275 C 125.200 267.096,124.570 266.702,123.800 266.400 C 123.030 266.098,122.400 265.704,122.400 265.525 C 122.400 265.346,122.068 265.200,121.662 265.200 C 121.256 265.200,120.598 264.840,120.200 264.400 C 119.802 263.960,119.133 263.600,118.714 263.600 C 118.296 263.600,118.064 263.420,118.200 263.200 C 118.336 262.980,118.143 262.800,117.771 262.800 C 117.398 262.800,116.791 262.451,116.422 262.025 C 116.052 261.599,115.503 261.194,115.203 261.125 C 113.963 260.842,108.800 255.924,108.800 255.026 C 108.800 254.682,108.590 254.400,108.333 254.400 C 108.077 254.400,107.971 254.295,108.099 254.167 C 108.227 254.039,108.084 253.342,107.782 252.618 C 107.479 251.894,107.340 251.193,107.473 251.060 C 107.605 250.928,107.504 250.566,107.247 250.257 C 106.911 249.851,106.786 245.960,106.800 236.347 C 106.811 229.006,106.813 222.820,106.804 222.600 C 106.795 222.380,106.613 222.470,106.400 222.800 C 106.142 223.200,106.010 223.233,106.006 222.900 C 106.002 222.522,104.530 222.400,100.000 222.400 L 94.000 222.400 93.914 223.700 C 93.866 224.415,93.725 221.670,93.600 217.600 C 93.461 213.071,93.339 219.086,93.286 233.100 M306.465 216.800 C 306.395 220.430,306.246 223.175,306.135 222.900 C 305.986 222.531,304.371 222.400,299.992 222.400 L 294.051 222.400 293.889 223.700 L 293.728 225.000 293.664 223.676 C 293.627 222.909,293.432 222.457,293.200 222.600 C 292.980 222.736,292.800 222.636,292.800 222.378 C 292.800 222.068,292.460 222.131,291.800 222.563 C 291.250 222.924,290.800 223.039,290.800 222.820 C 290.800 222.567,286.238 222.382,278.251 222.311 C 268.339 222.223,265.742 222.305,265.893 222.700 C 266.108 223.260,265.779 223.293,264.600 222.829 C 263.869 222.542,263.921 222.441,265.200 221.659 C 265.983 221.180,266.315 220.802,265.954 220.801 C 265.599 220.801,264.834 221.173,264.254 221.629 C 263.674 222.085,263.192 222.310,263.182 222.129 C 263.172 221.948,262.917 222.340,262.614 223.000 C 262.312 223.660,262.050 223.964,262.032 223.676 C 262.015 223.388,261.808 223.271,261.573 223.416 C 261.339 223.561,260.892 223.347,260.581 222.940 C 260.041 222.234,258.938 222.852,259.401 223.601 C 259.482 223.732,259.200 224.057,258.774 224.323 C 258.307 224.615,258.000 224.647,258.000 224.403 C 258.000 224.182,258.191 224.000,258.424 224.000 C 258.657 224.000,258.734 223.816,258.595 223.591 C 258.447 223.352,258.029 223.559,257.584 224.091 C 257.168 224.591,256.821 224.775,256.813 224.500 C 256.806 224.225,256.429 224.000,255.976 224.000 C 255.523 224.000,255.241 224.143,255.349 224.317 C 255.456 224.491,255.154 224.663,254.677 224.699 C 253.990 224.751,253.934 224.686,254.405 224.388 C 254.847 224.109,254.864 224.011,254.471 224.006 C 254.181 224.003,253.681 224.262,253.360 224.583 C 253.039 224.904,252.530 225.071,252.229 224.956 C 251.928 224.840,251.568 224.929,251.429 225.153 C 251.291 225.377,250.552 225.480,249.789 225.383 C 249.025 225.285,248.400 225.364,248.400 225.558 C 248.400 225.752,248.175 225.903,247.900 225.893 C 245.928 225.819,244.388 226.056,244.600 226.400 C 244.736 226.620,244.479 226.800,244.030 226.800 L 243.212 226.800 243.252 278.100 C 243.274 306.315,243.430 328.860,243.599 328.200 L 243.905 327.000 243.953 328.092 L 244.000 329.183 261.051 329.292 C 274.404 329.376,278.144 329.292,278.294 328.900 C 278.399 328.625,278.846 328.400,279.286 328.400 C 279.832 328.400,280.013 328.590,279.855 329.000 C 279.729 329.330,279.819 329.600,280.056 329.600 C 280.316 329.600,280.387 329.203,280.236 328.600 C 280.045 327.840,280.141 327.600,280.636 327.600 C 281.126 327.600,281.226 327.841,281.042 328.575 C 280.901 329.139,280.993 329.672,281.260 329.837 C 281.554 330.019,281.615 329.948,281.427 329.644 C 280.871 328.743,282.014 327.879,282.682 328.696 C 283.000 329.083,283.145 329.175,283.006 328.900 C 282.867 328.625,282.943 328.400,283.176 328.400 C 283.409 328.400,283.555 328.175,283.500 327.900 C 283.439 327.596,283.791 327.422,284.400 327.457 C 284.950 327.489,285.532 327.309,285.694 327.057 C 285.895 326.744,285.990 326.782,285.994 327.176 C 285.998 327.601,286.142 327.558,286.539 327.015 C 286.836 326.610,287.277 326.400,287.518 326.550 C 287.798 326.722,287.901 326.525,287.802 326.009 C 287.668 325.314,287.758 325.257,288.423 325.612 C 288.867 325.850,289.200 325.869,289.200 325.657 C 289.200 325.454,289.649 325.174,290.198 325.036 C 290.746 324.899,291.151 324.564,291.098 324.293 C 291.044 324.022,291.308 323.824,291.684 323.853 C 292.061 323.882,292.331 323.792,292.284 323.653 C 292.238 323.514,292.380 323.353,292.600 323.295 C 292.829 323.235,293.089 324.519,293.208 326.295 C 293.352 328.433,293.489 329.026,293.648 328.200 C 293.879 327.008,293.881 327.007,293.940 328.080 L 294.000 329.161 300.140 329.280 L 306.280 329.400 306.540 321.036 C 306.683 316.435,306.800 308.470,306.800 303.336 L 306.800 294.000 328.200 294.000 C 339.970 294.000,349.600 294.142,349.600 294.315 C 349.600 294.488,350.002 294.660,350.493 294.697 C 352.953 294.882,355.200 297.136,355.200 299.418 C 355.200 300.002,355.373 300.340,355.600 300.200 C 355.853 300.044,356.000 301.063,356.000 302.976 L 356.000 306.000 343.400 306.000 L 330.800 306.000 330.804 316.300 C 330.807 321.965,330.913 327.230,331.040 328.000 L 331.271 329.400 337.389 329.281 L 343.508 329.162 343.754 327.931 C 343.889 327.254,344.000 325.013,344.000 322.950 L 344.000 319.200 362.400 319.200 L 380.800 319.200 380.804 322.900 C 380.807 324.935,380.913 327.230,381.040 328.000 L 381.271 329.400 387.389 329.281 L 393.508 329.162 393.754 327.931 C 393.889 327.254,394.000 322.043,394.000 316.350 L 394.000 306.000 381.600 306.000 L 369.200 306.000 369.200 300.595 C 369.200 297.622,369.020 294.832,368.800 294.395 C 368.580 293.958,368.220 293.242,368.000 292.805 C 367.780 292.368,367.600 291.648,367.600 291.205 C 367.600 290.762,367.420 290.400,367.200 290.400 C 366.980 290.400,366.800 290.166,366.800 289.879 C 366.800 289.291,361.072 283.200,360.518 283.200 C 359.908 283.200,358.006 282.217,358.003 281.900 C 358.001 281.735,357.561 281.600,357.024 281.600 C 356.487 281.600,355.936 281.420,355.800 281.200 C 355.640 280.940,346.996 280.800,331.176 280.800 L 306.800 280.800 306.800 275.000 L 306.800 269.200 330.751 269.200 C 350.847 269.200,354.927 269.106,356.100 268.616 C 356.869 268.295,357.611 268.145,357.749 268.283 C 357.887 268.420,358.000 268.323,358.000 268.067 C 358.000 267.810,358.371 267.600,358.824 267.600 C 359.277 267.600,359.536 267.420,359.400 267.200 C 359.264 266.980,359.515 266.800,359.957 266.800 C 360.425 266.800,362.024 265.538,363.781 263.781 C 365.538 262.024,366.800 260.425,366.800 259.957 C 366.800 259.515,366.980 259.264,367.200 259.400 C 367.420 259.536,367.600 259.277,367.600 258.824 C 367.600 258.371,367.780 258.000,368.000 258.000 C 368.220 258.000,368.400 257.561,368.400 257.024 C 368.400 256.487,368.580 255.936,368.800 255.800 C 369.037 255.654,369.200 253.196,369.200 249.776 L 369.200 244.000 381.600 244.000 L 394.000 244.000 394.001 233.100 L 394.001 222.200 387.601 222.319 L 381.200 222.438 381.200 224.160 C 381.200 225.108,381.084 226.989,380.943 228.341 L 380.686 230.800 362.343 230.800 L 344.000 230.800 344.001 226.500 L 344.001 222.200 337.660 222.319 L 331.318 222.437 331.061 226.319 C 330.920 228.453,330.803 233.305,330.802 237.100 L 330.800 244.000 343.400 244.000 L 356.000 244.000 356.000 246.776 C 356.000 248.303,355.820 249.664,355.600 249.800 C 355.380 249.936,355.200 250.399,355.200 250.829 C 355.200 252.141,353.685 254.400,352.805 254.400 C 352.556 254.400,352.467 254.584,352.606 254.810 C 352.745 255.035,352.711 255.194,352.530 255.163 C 351.407 254.968,349.589 255.259,349.800 255.600 C 349.964 255.865,342.739 256.000,328.427 256.000 L 306.807 256.000 306.700 233.100 C 306.641 220.505,306.536 213.170,306.465 216.800 M181.200 220.800 L 181.000 222.200 175.100 222.311 L 169.200 222.421 169.200 223.834 C 169.200 224.674,169.038 225.147,168.800 225.000 C 168.535 224.836,168.400 235.129,168.400 255.576 C 168.400 286.133,168.407 286.400,169.200 286.400 C 169.640 286.400,170.000 286.580,170.000 286.800 C 170.000 287.020,170.360 287.200,170.800 287.200 C 171.240 287.200,171.600 287.344,171.600 287.520 C 171.600 287.695,172.230 288.067,173.000 288.346 C 173.770 288.624,174.400 289.020,174.400 289.226 C 174.400 289.432,174.670 289.600,175.000 289.600 C 175.330 289.600,175.600 289.743,175.600 289.918 C 175.600 290.093,176.410 290.570,177.400 290.978 C 178.390 291.387,179.200 291.884,179.200 292.084 C 179.200 292.284,179.365 292.345,179.568 292.220 C 179.770 292.095,180.207 292.264,180.539 292.596 C 180.871 292.928,181.426 293.200,181.771 293.200 C 182.117 293.200,182.401 293.335,182.403 293.500 C 182.407 293.837,184.325 294.800,184.991 294.800 C 185.229 294.800,185.683 295.160,186.000 295.600 C 186.317 296.040,186.897 296.400,187.288 296.400 C 187.680 296.400,188.000 296.580,188.000 296.800 C 188.000 297.020,188.236 297.200,188.525 297.200 C 188.813 297.200,189.443 297.567,189.925 298.016 C 190.406 298.464,190.800 298.724,190.800 298.593 C 190.800 298.462,191.340 298.674,192.000 299.064 C 192.660 299.454,193.200 299.914,193.200 300.086 C 193.200 300.259,193.560 300.400,194.000 300.400 C 194.440 300.400,194.800 300.537,194.800 300.704 C 194.800 300.871,195.179 301.244,195.642 301.533 C 196.173 301.865,196.379 301.890,196.200 301.600 C 196.013 301.298,196.196 301.315,196.732 301.651 C 197.181 301.931,197.442 302.332,197.312 302.542 C 197.183 302.752,197.270 302.804,197.506 302.658 C 197.742 302.512,198.207 302.664,198.539 302.996 C 198.871 303.328,199.369 303.600,199.646 303.600 C 199.922 303.600,200.594 304.005,201.139 304.500 C 201.683 304.995,201.996 305.130,201.834 304.800 C 201.672 304.470,201.874 304.560,202.283 305.000 C 202.693 305.440,203.290 305.859,203.610 305.932 C 203.930 306.005,204.326 306.275,204.490 306.532 C 204.654 306.789,204.791 306.844,204.794 306.654 C 204.797 306.464,205.295 306.634,205.900 307.033 C 208.050 308.451,211.112 309.955,211.354 309.713 C 211.489 309.577,211.600 309.655,211.600 309.885 C 211.600 310.115,212.185 310.540,212.900 310.829 C 213.615 311.119,214.491 311.681,214.847 312.078 C 215.430 312.729,216.289 312.800,223.547 312.800 L 231.600 312.800 231.547 266.100 C 231.518 240.415,231.383 220.030,231.247 220.800 L 231.000 222.200 225.100 222.311 L 219.200 222.421 219.200 223.834 C 219.200 224.674,219.038 225.147,218.800 225.000 C 218.492 224.810,218.052 295.723,218.349 297.689 C 218.373 297.848,217.549 297.443,216.518 296.789 C 215.487 296.135,214.398 295.600,214.098 295.600 C 213.798 295.600,213.664 295.420,213.800 295.200 C 213.936 294.980,213.767 294.800,213.424 294.800 C 213.081 294.800,212.800 294.620,212.800 294.400 C 212.800 294.180,212.485 293.990,212.100 293.977 C 211.715 293.964,210.500 293.438,209.400 292.807 C 208.300 292.176,206.815 291.355,206.100 290.984 C 205.385 290.613,204.800 290.149,204.800 289.954 C 204.800 289.759,204.545 289.600,204.233 289.600 C 203.922 289.600,203.576 289.375,203.465 289.100 C 203.308 288.710,203.256 288.714,203.232 289.116 C 203.211 289.455,202.901 289.353,202.325 288.816 C 201.843 288.367,201.213 288.000,200.925 288.000 C 200.636 288.000,200.400 287.820,200.400 287.600 C 200.400 287.380,200.164 287.200,199.875 287.200 C 199.587 287.200,198.964 286.840,198.492 286.400 C 198.020 285.960,197.443 285.600,197.211 285.600 C 196.802 285.600,195.205 284.805,194.800 284.400 C 194.167 283.767,192.063 282.865,191.792 283.111 C 191.616 283.270,191.593 283.188,191.742 282.929 C 191.899 282.654,191.676 282.351,191.208 282.203 C 190.766 282.062,190.173 281.734,189.890 281.474 C 189.167 280.808,187.134 279.593,186.300 279.329 C 185.915 279.207,185.600 278.948,185.600 278.753 C 185.600 278.559,185.336 278.400,185.014 278.400 C 184.691 278.400,183.792 278.097,183.016 277.727 L 181.605 277.054 181.503 248.227 C 181.446 232.372,181.310 220.030,181.200 220.800 M293.080 236.500 C 292.943 249.333,292.513 254.400,291.560 254.400 C 291.362 254.400,291.200 254.648,291.200 254.952 C 291.200 255.800,287.125 259.770,285.192 260.804 C 284.711 261.062,283.769 261.796,283.099 262.436 C 282.429 263.076,281.582 263.600,281.216 263.600 C 280.850 263.600,280.164 263.960,279.692 264.400 C 279.220 264.840,278.545 265.200,278.193 265.200 C 277.841 265.200,277.664 265.380,277.800 265.600 C 277.936 265.820,277.677 266.000,277.224 266.000 C 276.771 266.000,276.400 266.180,276.400 266.400 C 276.400 266.620,276.040 266.800,275.600 266.800 C 275.160 266.800,274.800 266.980,274.800 267.200 C 274.800 267.420,274.361 267.600,273.824 267.600 C 273.287 267.600,272.736 267.780,272.600 268.000 C 272.464 268.220,272.003 268.400,271.576 268.400 C 271.149 268.400,270.800 268.580,270.800 268.800 C 270.800 269.020,270.440 269.200,270.000 269.200 C 269.560 269.200,269.200 269.380,269.200 269.600 C 269.200 269.820,268.660 270.000,268.000 270.000 C 267.340 270.000,266.800 270.180,266.800 270.400 C 266.800 270.620,266.260 270.800,265.600 270.800 C 264.940 270.800,264.400 270.980,264.400 271.200 C 264.400 271.420,263.860 271.600,263.200 271.600 C 262.540 271.600,262.000 271.780,262.000 272.000 C 262.000 272.220,261.460 272.400,260.800 272.400 C 260.140 272.400,259.600 272.560,259.600 272.756 C 259.600 272.952,258.970 273.186,258.200 273.276 L 256.800 273.439 256.800 255.720 C 256.800 240.258,256.876 237.994,257.400 237.950 C 258.113 237.891,258.294 237.851,259.600 237.466 C 260.150 237.304,261.320 236.967,262.200 236.716 C 263.080 236.466,263.971 236.112,264.180 235.930 C 264.389 235.749,265.225 235.600,266.037 235.600 C 266.920 235.600,267.599 235.379,267.725 235.051 C 267.846 234.736,268.374 234.551,268.968 234.616 C 269.535 234.679,270.000 234.565,270.000 234.365 C 270.000 234.164,270.439 234.000,270.976 234.000 C 271.513 234.000,272.064 233.820,272.200 233.600 C 272.336 233.380,272.887 233.200,273.424 233.200 C 273.961 233.200,274.400 233.020,274.400 232.800 C 274.400 232.580,274.760 232.400,275.200 232.400 C 275.640 232.400,276.000 232.220,276.000 232.000 C 276.000 231.780,276.360 231.600,276.800 231.600 C 277.240 231.600,277.603 231.375,277.606 231.100 C 277.610 230.767,277.742 230.800,278.000 231.200 C 278.258 231.600,278.390 231.633,278.394 231.300 C 278.397 231.025,278.681 230.800,279.024 230.800 C 279.367 230.800,279.536 230.620,279.400 230.400 C 279.259 230.172,279.604 230.000,280.200 230.000 C 280.796 230.000,281.141 229.828,281.000 229.600 C 280.864 229.380,281.096 229.200,281.515 229.200 C 282.673 229.200,284.800 228.015,284.800 227.371 C 284.800 227.057,284.991 226.800,285.224 226.800 C 285.457 226.800,285.536 226.980,285.400 227.200 C 285.264 227.420,285.349 227.600,285.589 227.600 C 285.829 227.600,286.124 227.343,286.244 227.029 C 286.365 226.715,286.795 226.522,287.200 226.600 C 288.079 226.769,288.648 225.604,287.914 225.138 C 287.548 224.906,287.537 224.810,287.876 224.806 C 288.138 224.803,288.466 224.983,288.604 225.207 C 288.970 225.799,289.640 225.254,289.511 224.470 C 289.397 223.785,289.670 223.734,290.900 224.213 C 291.389 224.404,291.600 224.292,291.600 223.843 C 291.600 223.464,291.933 223.200,292.410 223.200 C 293.211 223.200,293.219 223.363,293.080 236.500 M108.204 274.000 C 108.298 273.890,108.697 274.070,109.093 274.400 C 109.488 274.730,110.304 275.255,110.906 275.568 C 111.508 275.880,112.000 276.285,112.000 276.468 C 112.000 276.650,112.461 276.800,113.024 276.800 C 113.604 276.800,113.940 276.973,113.800 277.200 C 113.664 277.420,113.923 277.600,114.376 277.600 C 114.829 277.600,115.200 277.780,115.200 278.000 C 115.200 278.220,115.560 278.400,116.000 278.400 C 116.440 278.400,116.800 278.580,116.800 278.800 C 116.800 279.020,117.160 279.200,117.600 279.200 C 118.040 279.200,118.400 279.380,118.400 279.600 C 118.400 279.820,118.672 280.000,119.005 280.000 C 119.338 280.000,119.968 280.180,120.405 280.400 C 120.842 280.620,121.558 280.980,121.995 281.200 C 122.432 281.420,123.062 281.600,123.395 281.600 C 123.728 281.600,124.000 281.780,124.000 282.000 C 124.000 282.220,124.360 282.400,124.800 282.400 C 125.240 282.400,125.600 282.541,125.600 282.713 C 125.600 282.885,126.095 283.066,126.700 283.116 C 127.305 283.166,127.860 283.385,127.933 283.603 C 128.007 283.822,128.592 284.000,129.233 284.000 C 129.875 284.000,130.400 284.180,130.400 284.400 C 130.400 284.620,130.850 284.800,131.400 284.800 C 131.950 284.800,132.400 284.980,132.400 285.200 C 132.400 285.420,133.041 285.600,133.824 285.600 C 134.671 285.600,135.147 285.762,135.000 286.000 C 134.853 286.238,135.321 286.400,136.153 286.400 C 136.923 286.400,137.664 286.580,137.800 286.800 C 137.936 287.020,138.667 287.200,139.424 287.200 C 140.181 287.200,140.800 287.380,140.800 287.600 C 140.800 287.820,141.340 288.000,142.000 288.000 L 143.200 288.000 143.200 306.000 C 143.200 322.668,143.067 325.003,142.200 323.600 C 142.064 323.380,141.511 323.200,140.971 323.200 C 139.997 323.200,138.424 322.505,137.957 321.869 C 137.824 321.687,137.464 321.574,137.157 321.617 C 135.989 321.780,135.162 321.584,135.400 321.200 C 135.544 320.967,135.145 320.800,134.447 320.800 C 133.787 320.800,133.136 320.620,133.000 320.400 C 132.864 320.180,132.257 320.000,131.652 320.000 C 131.046 320.000,130.163 319.638,129.689 319.197 C 129.214 318.755,128.383 318.357,127.842 318.312 C 127.301 318.267,126.945 318.088,127.052 317.915 C 127.160 317.742,126.912 317.600,126.503 317.600 C 125.591 317.600,123.607 316.711,123.603 316.300 C 123.601 316.135,123.330 316.000,123.000 316.000 C 122.670 316.000,122.400 315.826,122.400 315.613 C 122.400 315.399,122.142 315.324,121.826 315.445 C 121.503 315.569,120.859 315.214,120.354 314.633 C 119.860 314.065,119.118 313.600,118.704 313.600 C 118.238 313.600,118.061 313.425,118.238 313.138 C 118.414 312.853,118.348 312.785,118.065 312.960 C 117.813 313.116,117.290 313.059,116.903 312.834 C 116.516 312.609,116.348 312.419,116.529 312.412 C 116.998 312.395,115.791 311.251,115.158 311.114 C 114.440 310.959,113.932 310.552,111.270 308.000 C 109.022 305.845,107.600 303.252,107.600 301.310 C 107.600 300.836,107.420 300.336,107.200 300.200 C 106.946 300.043,106.805 294.976,106.813 286.276 C 106.824 273.986,106.887 272.681,107.430 273.400 C 107.762 273.840,108.111 274.110,108.204 274.000 M293.043 286.700 C 292.824 303.284,292.827 303.200,292.371 303.200 C 292.167 303.200,292.000 303.470,292.000 303.800 C 292.000 304.130,291.820 304.400,291.600 304.400 C 291.380 304.400,291.200 304.654,291.200 304.965 C 291.200 305.813,286.518 310.401,285.173 310.869 C 284.528 311.094,284.101 311.440,284.224 311.639 C 284.347 311.838,284.186 312.000,283.866 312.000 C 283.547 312.000,283.175 312.289,283.039 312.642 C 282.882 313.052,282.547 313.188,282.109 313.020 C 281.732 312.876,281.545 312.879,281.693 313.026 C 281.841 313.174,281.713 313.544,281.410 313.848 C 280.721 314.536,280.251 314.569,280.653 313.900 C 280.976 313.362,279.922 314.125,278.717 315.300 C 278.323 315.685,277.655 316.000,277.233 316.000 C 276.812 316.000,276.407 316.167,276.333 316.370 C 276.260 316.574,275.930 316.799,275.600 316.870 C 275.270 316.942,274.902 317.130,274.783 317.290 C 274.663 317.449,274.153 317.643,273.650 317.720 C 273.146 317.796,272.589 318.094,272.412 318.381 C 272.226 318.681,271.874 318.770,271.583 318.589 C 271.253 318.386,271.176 318.438,271.362 318.738 C 271.538 319.024,271.364 319.200,270.904 319.200 C 270.495 319.200,269.989 319.350,269.780 319.533 C 269.270 319.979,266.323 320.800,265.230 320.800 C 264.748 320.800,264.452 320.960,264.572 321.155 C 264.779 321.489,263.983 321.729,260.903 322.262 C 260.190 322.386,259.706 322.647,259.827 322.843 C 259.948 323.040,259.497 323.200,258.824 323.200 C 257.853 323.200,257.600 323.371,257.600 324.029 C 257.600 324.711,257.509 324.764,257.086 324.329 C 256.129 323.345,256.673 288.014,257.646 287.950 C 258.905 287.867,259.121 287.812,259.433 287.500 C 259.598 287.335,260.246 287.200,260.872 287.200 C 261.498 287.200,262.323 287.041,262.705 286.847 C 264.504 285.932,265.486 285.585,266.500 285.509 C 267.105 285.463,267.600 285.285,267.600 285.113 C 267.600 284.941,268.140 284.800,268.800 284.800 C 269.460 284.800,270.000 284.620,270.000 284.400 C 270.000 284.180,270.450 284.000,271.000 284.000 C 271.550 284.000,272.000 283.820,272.000 283.600 C 272.000 283.380,272.349 283.200,272.776 283.200 C 273.203 283.200,273.664 283.020,273.800 282.800 C 273.936 282.580,274.472 282.400,274.990 282.400 C 275.509 282.400,275.993 282.222,276.067 282.003 C 276.140 281.785,276.695 281.566,277.300 281.516 C 277.905 281.466,278.400 281.285,278.400 281.113 C 278.400 280.941,278.760 280.800,279.200 280.800 C 279.640 280.800,280.000 280.620,280.000 280.400 C 280.000 280.180,280.360 280.000,280.800 280.000 C 281.240 280.000,281.600 279.820,281.600 279.600 C 281.600 279.380,281.960 279.200,282.400 279.200 C 282.840 279.200,283.201 279.065,283.203 278.900 C 283.207 278.541,285.144 277.600,285.880 277.600 C 286.166 277.600,286.400 277.420,286.400 277.200 C 286.400 276.980,286.771 276.800,287.224 276.800 C 287.677 276.800,287.936 276.620,287.800 276.400 C 287.664 276.180,287.923 276.000,288.376 276.000 C 288.829 276.000,289.200 275.820,289.200 275.600 C 289.200 275.380,289.442 275.200,289.738 275.200 C 290.034 275.200,290.598 274.844,290.991 274.409 C 291.385 273.975,291.863 273.715,292.053 273.833 C 292.244 273.951,292.400 273.857,292.400 273.624 C 292.400 273.391,292.585 273.200,292.810 273.200 C 293.086 273.200,293.162 277.622,293.043 286.700 M168.490 312.500 L 168.600 319.000 175.100 319.110 L 181.600 319.220 181.600 312.610 L 181.600 306.000 174.990 306.000 L 168.380 306.000 168.490 312.500 M119.662 329.153 C 119.264 329.405,119.395 329.562,120.162 329.755 C 120.733 329.898,121.203 330.237,121.206 330.508 C 121.210 330.845,121.325 330.822,121.570 330.435 C 122.213 329.419,120.771 328.450,119.662 329.153 M123.784 330.827 C 123.639 331.061,123.583 331.292,123.660 331.340 C 123.737 331.387,124.160 331.687,124.600 332.006 C 125.377 332.570,125.380 332.563,124.699 331.761 C 124.314 331.307,124.119 330.815,124.266 330.668 C 124.413 330.520,124.424 330.400,124.290 330.400 C 124.157 330.400,123.929 330.592,123.784 330.827 "
              stroke="none" fill="#7654f3" fill-rule="evenodd"></path>
        <path id="path1"
              d="M119.186 133.385 C 118.558 134.011,103.326 134.372,102.373 133.784 C 101.781 133.417,102.744 135.283,103.360 135.694 C 103.982 136.109,104.490 136.070,104.217 135.628 C 104.091 135.423,104.170 135.142,104.393 135.004 C 104.617 134.866,104.800 135.114,104.800 135.558 C 104.800 136.749,105.650 138.400,106.264 138.400 C 106.559 138.400,106.800 138.681,106.800 139.024 C 106.800 139.398,106.987 139.532,107.268 139.358 C 107.577 139.167,107.654 139.282,107.495 139.697 C 107.353 140.068,107.598 140.626,108.096 141.062 C 108.559 141.468,108.789 141.547,108.607 141.238 C 108.384 140.859,108.427 140.769,108.738 140.962 C 108.992 141.119,109.206 141.462,109.213 141.724 C 109.233 142.412,110.640 144.000,111.231 144.000 C 111.507 144.000,111.620 144.114,111.481 144.253 C 111.072 144.662,111.999 146.048,112.482 145.749 C 112.729 145.597,112.812 145.658,112.670 145.887 C 112.391 146.338,114.553 148.800,115.227 148.800 C 115.458 148.800,115.556 148.947,115.445 149.127 C 115.334 149.307,115.593 149.707,116.021 150.015 C 116.450 150.324,116.800 150.764,116.800 150.993 C 116.800 151.222,117.340 151.855,118.000 152.400 C 118.660 152.945,119.200 153.534,119.200 153.708 C 119.200 153.882,120.055 154.894,121.100 155.956 C 123.686 158.585,126.940 162.289,128.365 164.227 L 129.544 165.830 128.272 166.348 C 125.603 167.437,124.979 167.704,124.305 168.047 C 123.923 168.241,123.338 168.400,123.005 168.400 C 122.672 168.400,122.400 168.580,122.400 168.800 C 122.400 169.020,122.051 169.200,121.624 169.200 C 121.197 169.200,120.736 169.380,120.600 169.600 C 120.464 169.820,119.913 170.000,119.376 170.000 C 118.839 170.000,118.400 170.180,118.400 170.400 C 118.400 170.620,118.055 170.800,117.633 170.800 C 117.212 170.800,116.807 170.935,116.733 171.100 C 116.613 171.370,114.511 172.578,112.103 173.760 C 111.610 174.002,111.205 174.335,111.203 174.500 C 111.201 174.665,110.930 174.800,110.600 174.800 C 110.270 174.800,110.000 174.980,110.000 175.200 C 110.000 175.420,109.719 175.600,109.376 175.600 C 109.007 175.600,108.869 175.788,109.038 176.062 C 109.201 176.325,109.149 176.416,108.919 176.273 C 108.115 175.777,99.534 183.070,98.396 185.217 C 98.109 185.758,97.543 186.491,97.137 186.847 C 96.732 187.203,96.400 187.788,96.400 188.147 C 96.400 188.506,96.264 188.800,96.098 188.800 C 95.931 188.800,95.560 189.385,95.271 190.100 C 94.983 190.815,94.579 191.713,94.374 192.095 C 94.168 192.477,94.000 193.141,94.000 193.571 C 94.000 194.001,93.806 194.472,93.570 194.619 C 93.158 194.873,93.416 224.349,93.834 224.767 C 93.925 224.858,94.000 224.363,94.000 223.667 L 94.000 222.400 100.000 222.400 C 104.530 222.400,106.002 222.522,106.006 222.900 C 106.011 223.268,106.103 223.257,106.356 222.857 C 106.610 222.457,106.776 222.437,106.988 222.781 C 107.193 223.113,107.420 223.051,107.774 222.568 C 108.241 221.930,108.288 221.931,108.540 222.589 C 108.742 223.115,108.941 223.181,109.333 222.856 C 110.090 222.227,133.622 222.188,134.009 222.814 C 134.209 223.138,134.515 223.153,135.046 222.866 C 135.461 222.642,136.160 222.334,136.600 222.183 C 137.064 222.023,137.199 221.832,136.922 221.727 C 136.659 221.629,136.029 221.762,135.522 222.023 C 134.760 222.415,134.687 222.406,135.100 221.969 C 135.828 221.199,135.713 220.824,134.805 220.999 C 134.367 221.083,133.750 220.893,133.433 220.576 C 133.116 220.259,132.514 220.000,132.095 220.000 C 131.676 220.000,131.198 219.865,131.033 219.700 C 130.732 219.398,130.524 219.342,129.376 219.250 C 129.033 219.222,128.864 219.020,129.000 218.800 C 129.147 218.561,128.663 218.400,127.800 218.400 C 126.937 218.400,126.453 218.239,126.600 218.000 C 126.736 217.780,126.487 217.600,126.047 217.600 C 125.607 217.600,125.134 217.417,124.996 217.193 C 124.858 216.970,124.576 216.891,124.370 217.019 C 124.163 217.146,123.898 217.000,123.781 216.693 C 123.663 216.387,122.944 215.892,122.183 215.593 C 121.423 215.295,120.800 214.904,120.800 214.725 C 120.800 214.546,120.603 214.400,120.362 214.400 C 120.121 214.400,119.356 213.996,118.662 213.502 C 117.968 213.007,117.339 212.666,117.264 212.743 C 117.190 212.819,116.708 212.517,116.195 212.070 C 115.681 211.624,114.753 210.930,114.132 210.529 C 112.738 209.629,108.800 205.745,108.800 205.270 C 108.800 205.079,108.494 204.310,108.119 203.561 C 107.203 201.731,107.218 197.085,108.142 196.064 C 108.504 195.664,108.800 195.121,108.800 194.858 C 108.800 194.173,111.938 191.129,114.455 189.372 C 115.635 188.548,116.690 187.753,116.800 187.605 C 116.910 187.457,117.585 187.081,118.300 186.770 C 119.015 186.459,119.600 186.069,119.600 185.902 C 119.600 185.736,119.870 185.600,120.200 185.600 C 120.530 185.600,120.800 185.454,120.800 185.275 C 120.800 185.096,121.430 184.702,122.200 184.400 C 122.970 184.098,123.600 183.704,123.600 183.525 C 123.600 183.346,124.039 183.200,124.576 183.200 C 125.113 183.200,125.664 183.020,125.800 182.800 C 125.936 182.580,126.397 182.400,126.824 182.400 C 127.251 182.400,127.600 182.220,127.600 182.000 C 127.600 181.780,127.960 181.600,128.400 181.600 C 128.840 181.600,129.200 181.420,129.200 181.200 C 129.200 180.980,129.639 180.800,130.176 180.800 C 130.713 180.800,131.264 180.620,131.400 180.400 C 131.536 180.180,131.997 180.000,132.424 180.000 C 132.851 180.000,133.200 179.820,133.200 179.600 C 133.200 179.380,133.639 179.200,134.176 179.200 C 134.713 179.200,135.264 179.020,135.400 178.800 C 135.536 178.580,136.166 178.400,136.800 178.400 C 137.434 178.400,138.064 178.220,138.200 178.000 C 138.987 176.727,141.057 178.271,145.200 183.220 C 147.281 185.706,149.219 187.896,150.884 189.643 C 151.700 190.499,152.277 191.200,152.165 191.200 C 152.053 191.200,153.230 192.451,154.780 193.981 C 156.331 195.510,157.600 196.912,157.600 197.097 C 157.600 197.281,158.336 198.235,159.235 199.216 C 160.134 200.197,161.707 201.990,162.729 203.200 C 163.752 204.410,165.446 206.265,166.494 207.322 L 168.400 209.244 168.400 216.999 C 168.400 221.737,168.556 224.849,168.800 225.000 C 169.038 225.147,169.200 224.671,169.200 223.824 L 169.200 222.400 174.976 222.400 C 181.754 222.400,181.239 222.814,181.507 217.157 L 181.713 212.800 200.057 212.800 L 218.400 212.800 218.400 218.776 C 218.400 222.329,218.562 224.853,218.800 225.000 C 219.038 225.147,219.200 224.671,219.200 223.824 L 219.200 222.400 224.976 222.400 C 231.913 222.400,231.326 223.034,231.533 215.323 L 231.696 209.243 233.748 207.081 C 236.055 204.650,239.692 200.510,240.951 198.880 C 241.410 198.286,241.924 197.740,242.093 197.667 C 242.262 197.593,242.400 197.365,242.400 197.160 C 242.400 196.955,243.705 195.446,245.300 193.806 C 249.331 189.662,253.079 185.551,253.892 184.384 C 254.268 183.843,254.942 183.021,255.388 182.558 C 255.835 182.095,256.998 180.790,257.973 179.658 C 259.657 177.705,262.000 176.740,262.000 178.000 C 262.000 178.220,262.540 178.400,263.200 178.400 C 263.860 178.400,264.400 178.580,264.400 178.800 C 264.400 179.020,264.940 179.200,265.600 179.200 C 266.260 179.200,266.800 179.380,266.800 179.600 C 266.800 179.820,267.250 180.000,267.800 180.000 C 268.350 180.000,268.800 180.180,268.800 180.400 C 268.800 180.620,269.250 180.800,269.800 180.800 C 270.350 180.800,270.800 180.980,270.800 181.200 C 270.800 181.420,271.160 181.600,271.600 181.600 C 272.040 181.600,272.400 181.780,272.400 182.000 C 272.400 182.220,272.850 182.400,273.400 182.400 C 273.950 182.400,274.400 182.580,274.400 182.800 C 274.400 183.020,274.653 183.200,274.962 183.200 C 275.479 183.200,278.738 184.738,279.200 185.200 C 279.310 185.310,279.805 185.625,280.300 185.900 C 282.549 187.149,283.010 187.445,283.780 188.134 C 284.231 188.538,285.113 189.136,285.739 189.465 C 287.285 190.274,291.200 194.236,291.200 194.991 C 291.200 195.326,291.380 195.600,291.600 195.600 C 291.820 195.600,292.000 195.924,292.000 196.320 C 292.000 196.716,292.186 197.226,292.413 197.453 C 293.338 198.378,292.563 204.400,291.520 204.400 C 291.344 204.400,291.200 204.680,291.200 205.022 C 291.200 206.178,282.641 213.600,281.308 213.600 C 281.097 213.600,280.598 213.960,280.200 214.400 C 279.802 214.840,279.163 215.200,278.781 215.200 C 278.398 215.200,277.983 215.467,277.858 215.793 C 277.717 216.161,277.371 216.287,276.950 216.125 C 276.489 215.948,276.362 216.015,276.558 216.332 C 276.750 216.643,276.503 216.800,275.824 216.800 C 275.261 216.800,274.800 216.980,274.800 217.200 C 274.800 217.420,274.440 217.600,274.000 217.600 C 273.560 217.600,273.200 217.780,273.200 218.000 C 273.200 218.220,272.679 218.400,272.043 218.400 C 271.389 218.400,270.787 218.658,270.658 218.993 C 270.517 219.361,270.171 219.487,269.750 219.325 C 269.289 219.148,269.162 219.215,269.358 219.532 C 269.615 219.948,268.891 220.204,267.900 220.047 C 267.735 220.021,267.597 220.225,267.594 220.500 C 267.590 220.833,267.458 220.800,267.200 220.400 C 266.986 220.068,266.810 220.006,266.806 220.260 C 266.803 220.514,266.125 221.123,265.300 221.614 C 263.941 222.422,263.875 222.537,264.600 222.825 C 265.775 223.293,266.109 223.261,265.893 222.700 C 265.742 222.305,268.339 222.223,278.251 222.311 C 286.238 222.382,290.800 222.567,290.800 222.820 C 290.800 223.039,291.250 222.924,291.800 222.563 C 292.460 222.131,292.800 222.068,292.800 222.378 C 292.800 222.636,292.968 222.743,293.174 222.616 C 293.380 222.489,293.621 222.973,293.710 223.692 L 293.872 225.000 293.936 223.700 L 294.000 222.400 299.967 222.400 C 304.366 222.400,305.986 222.531,306.135 222.900 C 306.246 223.175,306.358 221.960,306.384 220.200 C 306.409 218.440,306.528 212.025,306.649 205.944 C 306.801 198.215,306.737 194.808,306.434 194.621 C 306.195 194.473,306.000 194.001,306.000 193.571 C 306.000 193.141,305.832 192.477,305.626 192.095 C 305.421 191.713,305.017 190.815,304.729 190.100 C 304.440 189.385,304.069 188.800,303.902 188.800 C 303.736 188.800,303.600 188.528,303.600 188.196 C 303.600 187.864,303.060 187.028,302.400 186.337 C 301.740 185.646,301.200 184.919,301.200 184.721 C 301.200 184.398,296.415 179.588,295.109 178.600 C 293.076 177.061,290.800 175.600,290.435 175.600 C 290.196 175.600,290.000 175.420,290.000 175.200 C 290.000 174.980,289.730 174.800,289.400 174.800 C 289.070 174.800,288.800 174.620,288.800 174.400 C 288.800 174.180,288.530 174.000,288.200 174.000 C 287.870 174.000,287.600 173.856,287.600 173.680 C 287.600 173.505,286.970 173.133,286.200 172.854 C 285.430 172.576,284.800 172.180,284.800 171.974 C 284.800 171.768,284.566 171.600,284.280 171.600 C 283.544 171.600,281.607 170.659,281.603 170.300 C 281.601 170.135,281.251 170.000,280.824 170.000 C 280.397 170.000,279.936 169.820,279.800 169.600 C 279.664 169.380,279.113 169.200,278.576 169.200 C 278.039 169.200,277.600 169.020,277.600 168.800 C 277.600 168.580,277.240 168.400,276.800 168.400 C 276.360 168.400,276.000 168.220,276.000 168.000 C 276.000 167.780,275.638 167.600,275.195 167.600 C 274.417 167.600,274.031 167.458,272.105 166.462 C 271.613 166.208,270.938 166.000,270.605 166.000 C 270.100 166.000,270.116 165.882,270.700 165.286 C 271.085 164.894,271.850 163.982,272.400 163.260 C 272.950 162.538,274.345 160.973,275.500 159.782 C 276.655 158.591,277.600 157.522,277.600 157.405 C 277.600 157.288,278.037 156.700,278.572 156.097 C 279.106 155.493,279.916 154.567,280.372 154.039 C 280.827 153.510,281.203 153.240,281.206 153.439 C 281.209 153.637,281.381 153.533,281.587 153.208 C 282.343 152.013,283.850 150.223,285.857 148.137 C 286.988 146.962,287.798 145.994,287.657 145.987 C 287.516 145.980,287.689 145.755,288.042 145.486 C 288.395 145.217,288.812 144.593,288.969 144.098 C 289.126 143.604,289.435 143.200,289.656 143.200 C 290.256 143.200,291.146 142.195,291.598 141.006 C 291.818 140.426,292.164 140.054,292.367 140.180 C 292.843 140.474,294.780 138.013,294.548 137.409 C 294.451 137.157,294.832 136.704,295.394 136.403 C 296.115 136.017,296.291 135.731,295.991 135.431 C 295.692 135.132,295.456 135.182,295.189 135.603 C 294.963 135.962,294.810 136.010,294.806 135.724 C 294.803 135.462,294.980 135.136,295.200 135.000 C 296.460 134.221,295.000 134.000,288.600 134.000 C 284.750 134.000,281.600 133.839,281.600 133.643 C 281.600 133.446,281.369 133.197,281.086 133.088 C 280.783 132.972,280.571 133.190,280.571 133.616 C 280.571 134.015,280.700 134.262,280.858 134.164 C 281.016 134.067,281.275 134.198,281.434 134.455 C 281.615 134.748,281.550 134.816,281.262 134.638 C 281.008 134.481,280.800 134.571,280.800 134.838 C 280.800 135.134,280.461 135.026,279.931 134.562 C 279.453 134.143,279.194 134.025,279.355 134.300 C 279.525 134.592,279.429 134.812,279.124 134.828 C 278.803 134.845,278.855 134.962,279.258 135.128 C 279.819 135.360,279.834 135.477,279.358 135.916 C 279.051 136.200,278.800 136.249,278.800 136.024 C 278.800 135.762,278.443 135.780,277.794 136.075 C 277.048 136.416,276.853 136.736,277.037 137.317 C 277.194 137.811,277.131 138.005,276.867 137.841 C 276.415 137.562,274.800 139.075,274.800 139.778 C 274.800 140.013,274.242 140.452,273.560 140.754 C 272.825 141.079,272.500 141.414,272.762 141.577 C 273.049 141.754,272.850 142.160,272.203 142.723 C 271.651 143.202,271.200 143.498,271.200 143.379 C 271.200 143.261,270.750 143.614,270.200 144.164 C 269.650 144.714,269.200 145.269,269.200 145.398 C 269.200 145.645,268.619 146.300,264.903 150.246 C 263.637 151.592,262.251 153.178,261.825 153.772 C 260.520 155.588,256.287 160.363,252.562 164.218 C 251.442 165.378,249.912 167.109,249.162 168.064 C 248.413 169.019,247.260 170.357,246.600 171.038 C 245.940 171.719,244.680 173.142,243.800 174.200 C 242.920 175.257,241.435 176.931,240.500 177.919 C 239.565 178.908,238.800 179.881,238.800 180.082 C 238.800 180.283,238.620 180.336,238.400 180.200 C 238.180 180.064,238.000 180.220,238.000 180.546 C 238.000 180.872,236.740 182.414,235.200 183.972 C 233.660 185.531,232.400 186.924,232.400 187.069 C 232.400 187.350,232.193 187.588,229.507 190.400 C 228.561 191.390,227.250 192.916,226.593 193.792 C 225.937 194.667,224.459 196.332,223.309 197.492 L 221.217 199.600 199.974 199.600 L 178.731 199.600 176.579 197.360 C 175.395 196.128,174.016 194.586,173.513 193.933 C 173.011 193.279,171.745 191.819,170.700 190.688 C 169.655 189.556,168.800 188.492,168.800 188.323 C 168.800 188.153,167.630 186.845,166.200 185.415 C 164.770 183.985,163.600 182.671,163.600 182.496 C 163.600 182.320,163.240 181.917,162.800 181.600 C 162.360 181.283,162.000 180.783,162.000 180.488 C 162.000 180.194,161.820 180.064,161.600 180.200 C 161.380 180.336,161.200 180.275,161.200 180.064 C 161.200 179.853,160.615 179.069,159.900 178.322 C 157.751 176.076,155.612 173.600,155.821 173.600 C 155.929 173.600,155.050 172.632,153.867 171.449 C 152.684 170.266,151.195 168.607,150.558 167.762 C 149.921 166.917,148.545 165.383,147.500 164.353 C 146.455 163.322,145.600 162.399,145.600 162.302 C 145.600 162.204,144.607 161.061,143.392 159.762 C 140.221 156.369,139.549 155.600,139.752 155.600 C 140.037 155.600,137.581 152.835,135.500 150.813 C 134.455 149.798,133.600 148.760,133.600 148.506 C 133.600 148.253,133.200 147.765,132.711 147.423 C 132.222 147.080,131.959 146.800,132.127 146.800 C 132.294 146.800,132.199 146.549,131.916 146.242 C 131.632 145.935,131.265 145.766,131.100 145.866 C 130.935 145.965,130.800 145.756,130.800 145.400 C 130.800 145.044,130.620 144.864,130.400 145.000 C 130.180 145.136,130.000 144.956,130.000 144.600 C 130.000 144.244,129.820 144.064,129.600 144.200 C 129.380 144.336,129.200 144.156,129.200 143.800 C 129.200 143.444,129.055 143.243,128.877 143.352 C 128.699 143.462,128.204 143.072,127.777 142.486 C 127.350 141.899,126.595 141.034,126.100 140.564 C 125.605 140.093,125.200 139.510,125.200 139.268 C 125.200 138.757,123.809 137.924,123.489 138.244 C 123.370 138.363,123.142 138.042,122.981 137.530 C 122.400 135.675,121.324 134.663,120.806 135.483 C 120.482 135.996,120.293 136.057,120.143 135.698 C 120.027 135.421,119.722 135.321,119.466 135.474 C 119.210 135.628,119.247 135.449,119.549 135.077 C 119.907 134.636,119.942 134.400,119.649 134.400 C 119.402 134.400,119.200 134.209,119.200 133.976 C 119.200 133.743,119.350 133.645,119.533 133.759 C 119.717 133.872,119.867 133.703,119.867 133.382 C 119.867 132.672,119.900 132.672,119.186 133.385 M162.700 133.899 L 156.800 134.021 156.800 135.034 C 156.800 135.608,156.626 135.940,156.400 135.800 C 156.143 135.641,156.000 137.063,156.000 139.776 L 156.000 144.000 162.600 144.000 L 169.200 144.000 169.200 138.800 C 169.200 135.940,169.065 133.640,168.900 133.688 C 168.735 133.737,165.945 133.832,162.700 133.899 M180.847 138.700 L 180.800 144.000 187.400 144.000 L 194.000 144.000 194.001 138.900 L 194.001 133.800 187.801 133.920 C 181.731 134.037,181.599 134.058,181.553 134.920 C 181.516 135.609,181.439 135.539,181.200 134.600 C 181.009 133.851,180.877 135.390,180.847 138.700 M212.700 133.899 L 206.800 134.021 206.800 135.034 C 206.800 135.608,206.626 135.940,206.400 135.800 C 206.143 135.641,206.000 137.063,206.000 139.776 L 206.000 144.000 212.600 144.000 L 219.200 144.000 219.200 138.800 C 219.200 135.940,219.065 133.640,218.900 133.688 C 218.735 133.737,215.945 133.832,212.700 133.899 M230.847 138.700 L 230.800 144.000 237.400 144.000 L 244.000 144.000 244.001 138.900 L 244.001 133.800 237.801 133.920 C 231.731 134.037,231.599 134.058,231.553 134.920 C 231.516 135.609,231.439 135.539,231.200 134.600 C 231.009 133.851,230.877 135.390,230.847 138.700 M6.000 190.376 C 6.000 212.863,6.138 224.838,6.400 225.000 C 6.638 225.147,6.800 224.671,6.800 223.824 L 6.800 222.400 12.782 222.400 L 18.763 222.400 18.903 225.100 C 18.980 226.585,19.079 214.615,19.122 198.500 L 19.200 169.200 37.600 169.200 L 56.000 169.200 56.000 196.976 C 56.000 215.063,56.140 224.839,56.400 225.000 C 56.638 225.147,56.800 224.671,56.800 223.824 L 56.800 222.400 62.782 222.400 L 68.763 222.400 68.903 225.100 C 68.980 226.585,69.079 211.645,69.122 191.900 L 69.200 156.000 37.600 156.000 L 6.000 156.000 6.000 190.376 M330.878 191.900 C 330.921 211.645,331.020 226.590,331.096 225.110 L 331.236 222.420 337.518 222.310 L 343.800 222.200 343.903 195.700 L 344.006 169.200 362.403 169.200 L 380.800 169.200 380.878 198.500 C 380.921 214.615,381.020 226.590,381.096 225.110 L 381.236 222.420 387.518 222.310 L 393.800 222.200 393.902 189.100 L 394.005 156.000 362.402 156.000 L 330.800 156.000 330.878 191.900 M30.800 187.400 L 30.800 194.000 37.400 194.000 L 44.000 194.000 44.000 187.400 L 44.000 180.800 37.400 180.800 L 30.800 180.800 30.800 187.400 M356.000 187.400 L 356.000 194.000 362.600 194.000 L 369.200 194.000 369.200 187.400 L 369.200 180.800 362.600 180.800 L 356.000 180.800 356.000 187.400 M30.800 211.967 C 30.800 219.987,30.091 219.240,37.649 219.179 L 44.000 219.128 44.000 212.564 L 44.000 206.000 37.400 206.000 L 30.800 206.000 30.800 211.967 M356.000 212.573 L 356.000 219.146 362.500 219.073 L 369.000 219.000 369.110 212.500 L 369.220 206.000 362.610 206.000 L 356.000 206.000 356.000 212.573 M262.120 222.100 C 261.944 222.375,261.455 222.600,261.033 222.600 C 260.612 222.600,260.193 222.870,260.103 223.200 C 259.957 223.733,259.986 223.733,260.363 223.200 C 260.693 222.733,260.789 222.721,260.794 223.143 C 260.797 223.449,261.050 223.590,261.374 223.465 C 261.690 223.344,262.028 223.460,262.125 223.722 C 262.222 223.985,262.433 223.706,262.593 223.103 C 262.754 222.499,263.034 222.097,263.215 222.209 C 263.396 222.321,263.658 222.230,263.796 222.007 C 263.934 221.783,263.686 221.600,263.243 221.600 C 262.801 221.600,262.296 221.825,262.120 222.100 M140.250 223.519 C 140.142 223.695,140.238 224.100,140.464 224.419 C 140.791 224.881,140.825 224.846,140.631 224.249 C 140.418 223.596,140.543 223.529,141.577 223.735 C 142.233 223.867,142.877 223.800,143.008 223.587 C 143.145 223.366,142.647 223.200,141.847 223.200 C 141.077 223.200,140.358 223.344,140.250 223.519 M256.800 224.049 C 256.800 224.758,256.899 224.816,257.400 224.400 C 257.730 224.126,258.000 223.744,258.000 223.551 C 258.000 223.358,257.730 223.200,257.400 223.200 C 257.055 223.200,256.800 223.561,256.800 224.049 M258.600 223.600 C 258.736 223.820,258.657 224.000,258.424 224.000 C 258.191 224.000,258.000 224.182,258.000 224.403 C 258.000 224.647,258.307 224.615,258.774 224.323 C 259.539 223.845,259.527 223.200,258.753 223.200 C 258.533 223.200,258.464 223.380,258.600 223.600 M108.800 224.000 C 108.800 224.220,109.171 224.400,109.624 224.400 C 110.077 224.400,110.336 224.220,110.200 224.000 C 110.064 223.780,109.693 223.600,109.376 223.600 C 109.059 223.600,108.800 223.780,108.800 224.000 M289.439 223.937 C 289.054 224.560,289.785 225.128,290.282 224.592 C 290.661 224.184,290.642 224.025,290.195 223.853 C 289.882 223.733,289.542 223.771,289.439 223.937 M142.439 224.368 C 142.037 224.622,142.179 224.706,142.938 224.662 C 143.522 224.628,144.000 224.465,144.000 224.300 C 144.000 223.894,143.128 223.932,142.439 224.368 M144.863 224.352 C 144.469 224.602,144.592 224.743,145.327 224.884 C 146.050 225.022,146.270 224.926,146.121 224.538 C 145.883 223.917,145.613 223.877,144.863 224.352 "
              stroke="none" fill="#467ce4" fill-rule="evenodd"></path>
        <path id="path2"
              d="M156.497 323.800 L 156.400 329.400 139.000 329.292 C 126.718 329.215,121.600 329.055,121.600 328.745 C 121.600 328.498,121.180 328.387,120.637 328.491 C 119.946 328.623,119.732 328.523,119.879 328.138 C 120.003 327.816,119.810 327.600,119.400 327.600 C 118.962 327.600,118.796 327.812,118.940 328.187 C 119.064 328.510,118.993 328.881,118.783 329.011 C 118.121 329.420,118.366 330.000,119.200 330.000 C 119.640 330.000,120.000 330.180,120.000 330.400 C 120.000 330.620,120.270 330.800,120.600 330.800 C 121.595 330.800,121.275 330.092,120.100 329.696 C 119.019 329.332,119.016 329.320,119.901 329.035 C 120.951 328.698,121.800 329.397,121.800 330.600 C 121.800 331.575,123.151 331.708,123.930 330.811 C 124.221 330.475,124.362 330.397,124.244 330.639 C 124.125 330.880,124.562 331.589,125.214 332.214 C 125.990 332.957,126.402 333.151,126.406 332.775 C 126.410 332.433,126.531 332.362,126.706 332.600 C 127.171 333.233,128.585 334.252,128.270 333.728 C 128.114 333.468,128.170 333.142,128.393 333.004 C 128.617 332.866,128.800 332.989,128.800 333.279 C 128.800 334.020,131.013 334.913,132.041 334.587 C 132.575 334.418,132.806 334.466,132.652 334.715 C 132.381 335.155,133.479 335.722,133.991 335.406 C 134.166 335.297,134.532 335.477,134.804 335.804 C 135.076 336.132,135.906 336.400,136.649 336.400 C 137.392 336.400,138.000 336.541,138.000 336.713 C 138.000 336.885,138.460 337.064,139.021 337.110 C 139.583 337.157,140.381 337.376,140.795 337.597 C 141.209 337.819,141.919 338.000,142.374 338.000 C 143.196 338.000,143.200 338.080,143.200 355.600 L 143.200 373.200 142.000 373.200 C 141.340 373.200,140.800 373.020,140.800 372.800 C 140.800 372.580,140.170 372.400,139.400 372.400 C 138.630 372.400,138.000 372.220,138.000 372.000 C 138.000 371.780,137.561 371.600,137.024 371.600 C 136.487 371.600,135.936 371.420,135.800 371.200 C 135.664 370.980,135.113 370.800,134.576 370.800 C 134.039 370.800,133.600 370.620,133.600 370.400 C 133.600 370.180,133.150 370.000,132.600 370.000 C 132.050 370.000,131.600 369.820,131.600 369.600 C 131.600 369.380,131.060 369.200,130.400 369.200 C 129.740 369.200,129.200 369.020,129.200 368.800 C 129.200 368.580,128.840 368.400,128.400 368.400 C 127.960 368.400,127.600 368.220,127.600 368.000 C 127.600 367.780,127.257 367.600,126.838 367.600 C 126.022 367.600,122.688 365.999,122.467 365.500 C 122.393 365.335,121.988 365.200,121.567 365.200 C 121.145 365.200,120.800 365.020,120.800 364.800 C 120.800 364.580,120.530 364.400,120.200 364.400 C 119.870 364.400,119.600 364.264,119.600 364.098 C 119.600 363.931,119.015 363.540,118.300 363.228 C 117.585 362.916,116.699 362.320,116.330 361.904 C 115.962 361.488,115.539 361.204,115.391 361.274 C 114.874 361.516,108.800 355.924,108.800 355.206 C 108.800 354.961,108.511 354.202,108.158 353.519 C 107.805 352.836,107.414 351.810,107.290 351.239 C 106.892 349.408,106.757 323.474,107.145 323.230 C 107.347 323.104,107.261 322.768,106.956 322.484 C 106.484 322.047,106.400 322.532,106.401 325.684 L 106.401 329.400 100.201 329.280 L 94.000 329.161 93.959 328.080 C 93.922 327.109,93.883 327.142,93.567 328.400 C 93.100 330.261,93.162 355.529,93.635 355.821 C 93.836 355.946,94.000 356.487,94.000 357.024 C 94.000 357.561,94.141 358.000,94.313 358.000 C 94.485 358.000,94.859 358.792,95.145 359.759 C 95.430 360.726,96.006 361.885,96.423 362.333 C 96.841 362.781,97.232 363.383,97.291 363.671 C 97.437 364.370,104.233 371.180,106.000 372.397 C 106.770 372.927,107.490 373.482,107.600 373.630 C 107.710 373.777,108.745 374.406,109.900 375.028 C 111.055 375.649,112.000 376.302,112.000 376.479 C 112.000 376.655,112.360 376.800,112.800 376.800 C 113.240 376.800,113.600 376.980,113.600 377.200 C 113.600 377.420,113.960 377.600,114.400 377.600 C 114.840 377.600,115.200 377.780,115.200 378.000 C 115.200 378.220,115.560 378.400,116.000 378.400 C 116.440 378.400,116.800 378.580,116.800 378.800 C 116.800 379.020,117.160 379.200,117.600 379.200 C 118.040 379.200,118.400 379.380,118.400 379.600 C 118.400 379.820,118.760 380.000,119.200 380.000 C 119.640 380.000,120.000 380.180,120.000 380.400 C 120.000 380.620,120.349 380.800,120.776 380.800 C 121.203 380.800,121.664 380.980,121.800 381.200 C 121.936 381.420,122.487 381.600,123.024 381.600 C 123.561 381.600,124.000 381.780,124.000 382.000 C 124.000 382.220,124.272 382.400,124.605 382.400 C 124.938 382.400,125.568 382.580,126.005 382.800 C 126.442 383.020,127.158 383.380,127.595 383.600 C 128.032 383.820,128.752 384.000,129.195 384.000 C 129.638 384.000,130.000 384.180,130.000 384.400 C 130.000 384.620,130.540 384.800,131.200 384.800 C 131.860 384.800,132.400 384.960,132.400 385.156 C 132.400 385.352,133.030 385.622,133.800 385.756 C 134.570 385.890,135.832 386.110,136.604 386.244 C 137.376 386.379,138.106 386.649,138.227 386.844 C 138.348 387.040,139.067 387.200,139.824 387.200 C 140.581 387.200,141.200 387.380,141.200 387.600 C 141.200 387.820,141.819 388.000,142.576 388.000 C 143.333 388.000,144.064 388.180,144.200 388.400 C 144.336 388.620,145.146 388.800,146.000 388.800 C 146.854 388.800,147.664 388.980,147.800 389.200 C 147.936 389.420,148.746 389.600,149.600 389.600 C 150.454 389.600,151.264 389.780,151.400 390.000 C 151.536 390.220,152.368 390.400,153.250 390.400 C 154.131 390.400,155.167 390.568,155.551 390.774 C 155.935 390.979,158.263 391.275,160.725 391.431 C 163.186 391.586,165.200 391.868,165.200 392.057 C 165.200 392.246,166.640 392.400,168.400 392.400 C 170.267 392.400,171.600 392.567,171.600 392.800 C 171.600 393.040,173.192 393.200,175.576 393.200 C 177.796 393.200,179.662 393.377,179.800 393.600 C 179.959 393.858,187.130 394.000,200.000 394.000 C 212.870 394.000,220.041 393.858,220.200 393.600 C 220.338 393.377,222.196 393.200,224.400 393.200 C 226.604 393.200,228.462 393.023,228.600 392.800 C 228.736 392.580,230.187 392.400,231.824 392.400 C 233.461 392.400,234.800 392.246,234.800 392.057 C 234.800 391.868,236.814 391.586,239.275 391.431 C 241.737 391.275,244.065 390.979,244.449 390.774 C 244.833 390.568,245.869 390.400,246.750 390.400 C 247.632 390.400,248.464 390.220,248.600 390.000 C 248.736 389.780,249.636 389.600,250.600 389.600 C 251.564 389.600,252.464 389.420,252.600 389.200 C 252.736 388.980,253.546 388.800,254.400 388.800 C 255.254 388.800,256.064 388.620,256.200 388.400 C 256.336 388.180,256.966 388.000,257.600 388.000 C 258.234 388.000,258.864 387.820,259.000 387.600 C 259.136 387.380,259.867 387.200,260.624 387.200 C 261.381 387.200,262.000 387.020,262.000 386.800 C 262.000 386.580,262.619 386.400,263.376 386.400 C 264.133 386.400,264.864 386.220,265.000 386.000 C 265.136 385.780,265.777 385.600,266.424 385.600 C 267.071 385.600,267.600 385.420,267.600 385.200 C 267.600 384.980,268.039 384.800,268.576 384.800 C 269.113 384.800,269.664 384.620,269.800 384.400 C 269.936 384.180,270.399 384.000,270.829 384.000 C 271.259 384.000,271.968 383.820,272.405 383.600 C 272.842 383.380,273.558 383.020,273.995 382.800 C 274.432 382.580,275.062 382.400,275.395 382.400 C 275.728 382.400,276.000 382.220,276.000 382.000 C 276.000 381.780,276.439 381.600,276.976 381.600 C 277.513 381.600,278.064 381.420,278.200 381.200 C 278.336 380.980,278.797 380.800,279.224 380.800 C 279.651 380.800,280.000 380.620,280.000 380.400 C 280.000 380.180,280.360 380.000,280.800 380.000 C 281.240 380.000,281.600 379.820,281.600 379.600 C 281.600 379.380,281.960 379.200,282.400 379.200 C 282.840 379.200,283.200 379.020,283.200 378.800 C 283.200 378.580,283.560 378.400,284.000 378.400 C 284.440 378.400,284.800 378.220,284.800 378.000 C 284.800 377.780,285.160 377.600,285.600 377.600 C 286.040 377.600,286.400 377.454,286.400 377.275 C 286.400 377.096,287.030 376.702,287.800 376.400 C 288.570 376.098,289.200 375.748,289.200 375.623 C 289.200 375.498,289.718 375.166,290.352 374.885 C 290.986 374.605,292.021 373.931,292.652 373.388 C 293.283 372.845,293.953 372.401,294.139 372.400 C 294.731 372.400,302.800 364.003,302.800 363.388 C 302.800 363.065,302.947 362.800,303.126 362.800 C 303.592 362.800,305.200 359.669,305.200 358.762 C 305.200 358.343,305.380 358.000,305.600 358.000 C 305.820 358.000,306.000 357.561,306.000 357.024 C 306.000 356.487,306.180 355.936,306.400 355.800 C 306.659 355.640,306.769 348.992,306.712 336.876 C 306.663 326.604,306.569 320.720,306.502 323.800 L 306.380 329.400 300.190 329.280 L 294.000 329.161 294.000 328.114 C 294.000 327.538,293.865 327.201,293.700 327.366 C 293.535 327.531,293.291 332.736,293.158 338.933 C 292.928 349.638,292.432 354.400,291.547 354.400 C 291.356 354.400,291.200 354.688,291.200 355.040 C 291.200 355.914,285.226 361.563,284.609 361.274 C 284.461 361.204,284.017 361.519,283.623 361.974 C 283.229 362.428,282.612 362.800,282.253 362.800 C 281.894 362.800,281.600 362.980,281.600 363.200 C 281.600 363.420,281.364 363.600,281.075 363.600 C 280.787 363.600,280.164 363.960,279.692 364.400 C 279.220 364.840,278.556 365.200,278.217 365.200 C 277.878 365.200,277.600 365.380,277.600 365.600 C 277.600 365.820,277.240 366.000,276.800 366.000 C 276.360 366.000,276.000 366.180,276.000 366.400 C 276.000 366.620,275.640 366.800,275.200 366.800 C 274.760 366.800,274.400 366.980,274.400 367.200 C 274.400 367.420,274.051 367.600,273.624 367.600 C 273.197 367.600,272.736 367.780,272.600 368.000 C 272.464 368.220,272.003 368.400,271.576 368.400 C 271.149 368.400,270.800 368.580,270.800 368.800 C 270.800 369.020,270.361 369.200,269.824 369.200 C 269.287 369.200,268.736 369.380,268.600 369.600 C 268.464 369.820,267.913 370.000,267.376 370.000 C 266.839 370.000,266.400 370.180,266.400 370.400 C 266.400 370.620,265.950 370.800,265.400 370.800 C 264.850 370.800,264.400 370.980,264.400 371.200 C 264.400 371.420,263.871 371.600,263.224 371.600 C 262.577 371.600,261.936 371.780,261.800 372.000 C 261.664 372.220,261.124 372.400,260.600 372.400 C 260.076 372.400,259.536 372.580,259.400 372.800 C 259.264 373.020,258.623 373.200,257.976 373.200 L 256.800 373.200 256.800 355.600 L 256.800 338.000 257.724 338.000 C 258.231 338.000,258.990 337.749,259.410 337.442 C 259.830 337.135,260.572 336.957,261.061 337.045 C 261.549 337.134,262.061 337.025,262.198 336.803 C 262.335 336.581,262.966 336.400,263.600 336.400 C 264.234 336.400,264.864 336.220,265.000 336.000 C 265.136 335.780,265.787 335.600,266.447 335.600 C 267.145 335.600,267.544 335.433,267.400 335.200 C 267.256 334.967,267.655 334.800,268.353 334.800 C 269.013 334.800,269.664 334.620,269.800 334.400 C 269.936 334.180,270.487 334.000,271.024 334.000 C 271.561 334.000,272.000 333.832,272.000 333.627 C 272.000 333.421,272.495 333.196,273.100 333.127 C 273.757 333.051,274.156 332.787,274.090 332.470 C 274.030 332.179,274.152 332.047,274.362 332.177 C 274.573 332.307,274.833 332.269,274.942 332.094 C 275.050 331.918,275.726 331.730,276.443 331.675 C 277.970 331.559,279.084 330.823,278.385 330.391 C 278.080 330.202,278.146 330.030,278.587 329.860 C 278.947 329.722,279.139 329.775,279.014 329.977 C 278.711 330.468,279.618 331.007,279.945 330.530 C 280.085 330.326,280.875 329.844,281.700 329.460 C 282.525 329.077,283.200 328.670,283.200 328.558 C 283.200 328.445,283.020 328.464,282.800 328.600 C 282.580 328.736,282.394 328.612,282.387 328.324 C 282.379 328.033,282.011 328.235,281.560 328.778 L 280.746 329.756 281.016 328.678 C 281.227 327.838,281.143 327.600,280.636 327.600 C 280.141 327.600,280.045 327.840,280.236 328.600 C 280.387 329.203,280.316 329.600,280.056 329.600 C 279.819 329.600,279.729 329.330,279.855 329.000 C 280.013 328.590,279.832 328.400,279.286 328.400 C 278.846 328.400,278.399 328.625,278.294 328.900 C 278.144 329.292,274.404 329.376,261.051 329.292 L 244.000 329.183 243.953 328.092 L 243.905 327.000 243.600 328.200 C 243.432 328.860,243.273 340.065,243.247 353.100 L 243.200 376.800 241.224 376.800 C 240.137 376.800,239.136 376.980,239.000 377.200 C 238.864 377.420,237.694 377.600,236.400 377.600 C 235.106 377.600,233.936 377.780,233.800 378.000 C 233.664 378.220,232.314 378.400,230.800 378.400 C 229.286 378.400,227.936 378.580,227.800 378.800 C 227.662 379.023,225.796 379.200,223.576 379.200 C 221.341 379.200,219.600 379.366,219.600 379.579 C 219.600 380.508,182.541 380.532,180.600 379.604 C 180.160 379.393,178.090 379.132,176.000 379.024 C 169.801 378.701,166.624 378.358,166.220 377.968 C 166.011 377.765,164.807 377.600,163.544 377.600 C 162.281 377.600,161.136 377.420,161.000 377.200 C 160.864 376.980,159.865 376.800,158.779 376.800 L 156.805 376.800 156.700 347.500 C 156.642 331.385,156.551 320.720,156.497 323.800 M256.477 320.929 C 256.421 322.902,256.566 323.823,257.000 324.257 C 257.533 324.790,257.600 324.765,257.600 324.029 C 257.600 323.573,257.429 323.200,257.219 323.200 C 257.010 323.200,256.774 322.075,256.696 320.700 L 256.554 318.200 256.477 320.929 M291.600 323.600 C 291.050 324.030,290.797 324.386,291.038 324.391 C 291.279 324.396,291.802 324.040,292.200 323.600 C 293.112 322.592,292.888 322.592,291.600 323.600 M108.800 324.400 C 109.942 325.293,110.252 325.362,110.600 324.800 C 110.736 324.580,110.477 324.400,110.024 324.400 C 109.571 324.400,109.200 324.220,109.200 324.000 C 109.200 323.780,108.885 323.604,108.500 323.609 C 107.933 323.616,107.990 323.766,108.800 324.400 M287.788 325.580 C 287.914 325.784,287.698 326.136,287.308 326.363 C 286.919 326.590,286.780 326.775,287.000 326.775 C 287.913 326.774,288.868 325.712,288.191 325.452 C 287.843 325.318,287.662 325.376,287.788 325.580 M112.201 326.399 C 112.064 326.620,112.287 326.800,112.696 326.800 C 113.105 326.800,113.656 327.016,113.920 327.280 C 114.293 327.653,114.511 327.646,114.900 327.247 C 115.301 326.834,115.282 326.756,114.800 326.850 C 114.470 326.915,113.806 326.750,113.324 326.483 C 112.755 326.167,112.362 326.138,112.201 326.399 M18.898 328.000 L 18.801 329.400 12.801 329.280 C 8.104 329.186,6.788 329.273,6.743 329.680 C 6.712 329.966,6.558 329.480,6.400 328.600 C 6.242 327.720,6.088 342.075,6.057 360.500 L 6.000 394.000 37.600 394.000 L 69.200 394.000 69.133 360.300 C 69.096 341.765,68.998 327.230,68.915 328.000 L 68.765 329.400 62.782 329.280 C 58.101 329.186,56.788 329.273,56.743 329.680 C 56.712 329.966,56.558 329.480,56.400 328.600 C 56.242 327.720,56.088 339.105,56.057 353.900 L 56.000 380.800 37.603 380.800 L 19.206 380.800 19.100 353.700 C 19.042 338.795,18.951 327.230,18.898 328.000 M283.411 327.522 C 283.093 327.840,283.612 328.400,284.224 328.400 C 284.541 328.400,284.800 328.160,284.800 327.867 C 284.800 327.361,283.816 327.117,283.411 327.522 M117.067 327.867 C 116.669 328.265,116.745 329.200,117.175 329.200 C 117.381 329.200,117.523 328.840,117.490 328.400 C 117.422 327.496,117.429 327.505,117.067 327.867 M330.860 360.700 L 330.800 394.000 362.400 394.000 L 394.000 394.000 393.946 360.700 C 393.916 342.385,393.814 327.796,393.720 328.281 C 393.554 329.136,393.375 329.165,387.391 329.281 L 381.233 329.400 381.076 328.400 C 380.990 327.850,380.893 339.415,380.860 354.100 L 380.800 380.800 362.400 380.800 L 344.000 380.800 343.946 354.100 C 343.916 339.415,343.814 327.796,343.720 328.281 C 343.554 329.136,343.375 329.165,337.391 329.281 L 331.233 329.400 331.076 328.400 C 330.990 327.850,330.893 342.385,330.860 360.700 M30.800 337.400 L 30.800 344.000 37.415 344.000 L 44.031 344.000 43.980 337.400 L 43.930 330.800 37.365 330.800 L 30.800 330.800 30.800 337.400 M168.400 337.400 L 168.400 344.000 175.000 344.000 L 181.600 344.000 181.600 337.400 L 181.600 330.800 175.000 330.800 L 168.400 330.800 168.400 337.400 M356.000 337.400 L 356.000 344.000 362.600 344.000 L 369.200 344.000 369.200 337.400 L 369.200 330.800 362.600 330.800 L 356.000 330.800 356.000 337.400 M30.800 362.600 L 30.800 369.200 37.400 369.200 L 44.000 369.200 44.000 362.600 L 44.000 356.000 37.400 356.000 L 30.800 356.000 30.800 362.600 M168.400 362.600 L 168.400 369.200 175.000 369.200 L 181.600 369.200 181.600 362.600 L 181.600 356.000 175.000 356.000 L 168.400 356.000 168.400 362.600 M356.000 362.600 L 356.000 369.200 362.600 369.200 L 369.200 369.200 369.200 362.600 L 369.200 356.000 362.600 356.000 L 356.000 356.000 356.000 362.600 "
              stroke="none" fill="#9836fc" fill-rule="evenodd"></path>
        <path id="path3"
              d="M75.154 100.300 C 75.129 100.685,75.050 101.499,74.978 102.109 C 74.904 102.731,75.012 103.116,75.223 102.986 C 75.430 102.858,75.606 102.988,75.613 103.276 C 75.631 103.976,77.011 105.600,77.588 105.600 C 77.840 105.600,77.943 105.769,77.815 105.975 C 77.688 106.182,77.902 106.536,78.292 106.763 C 78.681 106.990,78.838 107.181,78.639 107.188 C 78.441 107.195,79.251 108.235,80.439 109.500 C 81.628 110.765,83.590 112.948,84.800 114.350 C 86.010 115.753,87.225 117.135,87.500 117.422 C 87.775 117.708,88.000 118.146,88.000 118.395 C 88.000 118.644,88.180 118.736,88.400 118.600 C 88.620 118.464,88.800 118.527,88.800 118.740 C 88.800 118.953,89.790 120.174,91.000 121.454 C 92.210 122.733,93.201 123.875,93.202 123.990 C 93.202 124.106,94.102 125.190,95.200 126.400 C 96.298 127.610,97.198 128.735,97.198 128.900 C 97.199 129.065,97.470 129.200,97.800 129.200 C 98.130 129.200,98.400 129.372,98.400 129.582 C 98.400 129.792,98.850 130.414,99.400 130.964 C 99.950 131.514,100.400 132.070,100.400 132.199 C 100.400 132.329,100.873 132.922,101.451 133.517 C 102.028 134.113,102.361 134.347,102.189 134.038 C 101.977 133.658,102.030 133.571,102.351 133.770 C 103.052 134.203,118.477 134.034,119.014 133.588 C 119.267 133.378,119.592 133.325,119.737 133.470 C 120.537 134.271,119.828 133.132,118.900 132.127 C 118.295 131.472,116.900 129.884,115.800 128.599 C 114.700 127.313,112.855 125.306,111.700 124.139 C 110.545 122.972,109.600 121.835,109.600 121.612 C 109.600 121.389,109.240 120.982,108.800 120.707 C 108.360 120.432,108.000 120.064,108.000 119.888 C 108.000 119.713,107.325 118.880,106.500 118.039 C 104.656 116.158,102.000 113.183,102.000 112.998 C 102.000 112.923,100.740 111.574,99.200 110.000 C 97.660 108.426,96.400 106.972,96.400 106.769 C 96.400 106.545,136.981 106.400,200.003 106.400 L 303.607 106.400 303.103 107.275 C 302.827 107.756,301.453 109.368,300.051 110.857 C 298.649 112.346,297.029 114.148,296.451 114.861 C 295.873 115.574,294.701 116.887,293.847 117.779 C 292.992 118.671,291.822 120.026,291.247 120.792 C 290.671 121.557,289.300 123.107,288.200 124.236 C 286.137 126.354,284.710 128.000,284.938 128.000 C 285.009 128.000,284.032 129.052,282.766 130.338 C 279.412 133.744,279.834 134.000,288.805 134.000 C 295.014 134.000,296.454 134.225,295.200 135.000 C 294.980 135.136,294.814 135.462,294.832 135.724 C 294.854 136.068,294.919 136.061,295.065 135.701 C 295.190 135.390,295.670 135.286,296.333 135.426 C 297.230 135.615,297.288 135.579,296.700 135.205 C 296.315 134.961,296.000 134.567,296.000 134.331 C 296.000 134.056,296.216 134.081,296.600 134.400 C 297.291 134.973,298.400 134.326,298.400 133.351 C 298.400 133.048,298.566 132.845,298.769 132.900 C 298.971 132.955,299.826 132.087,300.669 130.970 C 301.511 129.854,302.875 128.350,303.700 127.629 C 304.525 126.907,305.200 126.181,305.200 126.015 C 305.200 125.848,306.370 124.472,307.799 122.956 C 309.229 121.440,310.399 120.082,310.399 119.937 C 310.400 119.792,311.165 118.874,312.100 117.897 C 313.035 116.920,314.610 115.185,315.600 114.042 C 316.590 112.899,317.943 111.387,318.608 110.682 C 319.272 109.977,320.351 108.680,321.005 107.800 C 321.660 106.920,322.421 106.056,322.698 105.880 C 322.974 105.704,323.200 105.199,323.200 104.757 C 323.200 104.314,323.353 104.048,323.541 104.164 C 324.513 104.765,325.309 103.323,325.031 101.465 L 324.751 99.600 199.975 99.600 C 81.426 99.600,75.198 99.635,75.154 100.300 M156.000 133.166 C 156.000 134.479,156.180 135.664,156.400 135.800 C 156.627 135.940,156.800 135.604,156.800 135.024 L 156.800 134.000 162.500 133.994 C 168.800 133.987,169.324 133.842,169.132 132.157 L 169.000 131.000 162.500 130.890 L 156.000 130.780 156.000 133.166 M180.995 131.208 C 180.849 131.444,180.872 132.574,181.046 133.718 C 181.228 134.924,181.423 135.425,181.507 134.910 C 181.649 134.042,181.799 134.018,187.726 133.910 L 193.800 133.800 193.800 132.400 L 193.800 131.000 187.530 130.890 C 183.389 130.817,181.170 130.926,180.995 131.208 M206.000 133.166 C 206.000 134.479,206.180 135.664,206.400 135.800 C 206.627 135.940,206.800 135.604,206.800 135.024 L 206.800 134.000 212.500 133.994 C 218.800 133.987,219.324 133.842,219.132 132.157 L 219.000 131.000 212.500 130.890 L 206.000 130.780 206.000 133.166 M230.995 131.208 C 230.849 131.444,230.872 132.574,231.046 133.718 C 231.228 134.924,231.423 135.425,231.507 134.910 C 231.649 134.042,231.799 134.018,237.726 133.910 L 243.800 133.800 243.800 132.400 L 243.800 131.000 237.530 130.890 C 233.389 130.817,231.170 130.926,230.995 131.208 M279.474 134.040 C 279.353 134.501,279.360 134.773,279.490 134.643 C 279.620 134.513,279.968 134.607,280.263 134.852 C 280.661 135.182,280.800 135.175,280.800 134.825 C 280.800 134.565,281.008 134.481,281.262 134.638 C 281.550 134.816,281.615 134.748,281.434 134.455 C 281.275 134.198,280.979 134.089,280.777 134.214 C 280.575 134.339,280.516 134.162,280.647 133.821 C 280.797 133.431,280.664 133.200,280.289 133.200 C 279.962 133.200,279.595 133.578,279.474 134.040 M119.200 134.085 C 119.200 134.258,119.402 134.400,119.649 134.400 C 119.942 134.400,119.907 134.636,119.549 135.077 C 119.247 135.449,119.210 135.628,119.466 135.474 C 119.722 135.321,120.023 135.421,120.135 135.698 C 120.448 136.469,121.147 135.285,120.912 134.384 C 120.729 133.686,119.200 133.420,119.200 134.085 M104.200 135.200 C 104.064 135.420,104.098 135.603,104.276 135.606 C 104.454 135.609,104.382 135.751,104.116 135.920 C 103.762 136.145,103.822 136.346,104.340 136.670 C 104.967 137.061,105.029 136.978,104.879 135.956 C 104.696 134.708,104.582 134.581,104.200 135.200 M278.162 135.662 C 277.993 135.935,278.051 136.016,278.304 135.859 C 278.539 135.714,278.792 135.758,278.866 135.958 C 278.940 136.158,279.232 136.069,279.516 135.761 C 279.944 135.295,279.897 135.200,279.239 135.200 C 278.804 135.200,278.319 135.408,278.162 135.662 M295.029 136.609 C 294.605 136.929,294.351 137.285,294.465 137.398 C 294.579 137.512,295.088 137.244,295.597 136.803 C 296.655 135.885,296.194 135.727,295.029 136.609 "
              stroke="none" fill="#3490dd" fill-rule="evenodd"></path>
        <path id="path4"
              d="M193.200 24.600 L 193.200 43.200 181.200 43.200 L 169.200 43.200 169.200 30.800 L 169.200 18.400 143.800 18.400 L 118.400 18.400 118.400 43.400 L 118.400 68.400 96.600 68.400 L 74.800 68.400 74.854 84.900 C 74.884 93.975,74.987 100.995,75.082 100.500 L 75.256 99.600 200.000 99.600 L 324.744 99.600 324.918 100.500 C 325.013 100.995,325.116 93.975,325.146 84.900 L 325.200 68.400 303.400 68.400 L 281.600 68.400 281.600 49.600 L 281.600 30.800 262.800 30.800 L 244.000 30.800 244.000 18.400 L 244.000 6.000 218.600 6.000 L 193.200 6.000 193.200 24.600 M230.800 43.800 L 230.800 68.400 218.800 68.400 L 206.800 68.400 206.800 43.800 L 206.800 19.200 218.800 19.200 L 230.800 19.200 230.800 43.800 M156.000 50.000 L 156.000 68.400 143.800 68.400 L 131.600 68.400 131.600 50.000 L 131.600 31.600 143.800 31.600 L 156.000 31.600 156.000 50.000 M268.400 56.200 L 268.400 68.400 256.200 68.400 L 244.000 68.400 244.000 56.200 L 244.000 44.000 256.200 44.000 L 268.400 44.000 268.400 56.200 M193.200 62.600 L 193.200 68.400 181.200 68.400 L 169.200 68.400 169.200 62.600 L 169.200 56.800 181.200 56.800 L 193.200 56.800 193.200 62.600 M312.000 87.400 L 312.000 93.200 200.000 93.200 L 88.000 93.200 88.000 87.400 L 88.000 81.600 200.000 81.600 L 312.000 81.600 312.000 87.400 M323.200 104.865 C 323.200 105.247,322.966 105.704,322.680 105.880 C 322.139 106.213,320.219 108.800,320.513 108.800 C 320.605 108.800,321.610 107.731,322.746 106.424 C 324.401 104.522,324.652 104.061,324.006 104.110 C 323.531 104.145,323.200 104.455,323.200 104.865 M77.075 105.900 C 76.812 106.357,78.282 107.714,78.557 107.269 C 78.688 107.057,78.515 106.776,78.172 106.645 C 77.830 106.513,77.661 106.224,77.798 106.003 C 77.935 105.781,77.867 105.600,77.647 105.600 C 77.427 105.600,77.170 105.735,77.075 105.900 M96.413 106.700 C 96.433 107.172,97.452 108.400,97.824 108.400 C 98.009 108.400,97.944 108.184,97.680 107.920 C 97.416 107.656,97.200 107.295,97.200 107.118 C 97.200 106.942,143.579 106.799,200.264 106.802 C 256.949 106.804,303.419 106.715,303.530 106.603 C 303.642 106.491,257.083 106.400,200.067 106.400 C 143.050 106.400,96.406 106.535,96.413 106.700 M80.478 109.900 C 80.761 110.395,81.129 110.800,81.296 110.800 C 81.463 110.800,81.600 110.965,81.600 111.166 C 81.600 111.367,82.230 112.180,83.000 112.973 C 85.256 115.296,84.587 114.024,82.172 111.400 C 80.958 110.080,80.195 109.405,80.478 109.900 M298.491 111.945 C 297.331 113.139,296.476 114.210,296.591 114.325 C 296.706 114.439,296.845 114.455,296.900 114.358 C 296.955 114.262,297.889 113.246,298.976 112.101 C 300.063 110.955,300.873 109.964,300.776 109.897 C 300.679 109.830,299.651 110.752,298.491 111.945 M318.182 110.942 C 317.205 112.013,317.109 112.562,318.031 111.804 C 318.564 111.367,319.057 110.980,319.127 110.944 C 319.196 110.909,319.106 110.791,318.927 110.682 C 318.747 110.573,318.412 110.690,318.182 110.942 M102.000 112.983 C 102.000 113.083,102.718 113.938,103.595 114.883 C 104.472 115.827,105.187 116.420,105.184 116.200 C 105.181 115.980,104.643 115.275,103.989 114.633 C 103.335 113.992,102.800 113.317,102.800 113.133 C 102.800 112.950,102.620 112.800,102.400 112.800 C 102.180 112.800,102.000 112.882,102.000 112.983 M295.600 115.125 C 295.600 115.303,295.233 115.843,294.784 116.325 C 294.336 116.806,294.122 117.200,294.309 117.200 C 294.496 117.200,295.049 116.660,295.537 116.000 C 296.025 115.340,296.239 114.800,296.012 114.800 C 295.785 114.800,295.600 114.946,295.600 115.125 M306.497 124.286 C 305.780 125.079,305.281 125.814,305.387 125.920 C 305.593 126.126,306.945 124.661,307.621 123.500 C 308.209 122.490,307.968 122.658,306.497 124.286 M99.206 131.071 C 99.218 131.684,99.955 132.578,100.226 132.307 C 100.374 132.159,100.204 131.747,99.848 131.390 C 99.491 131.034,99.203 130.891,99.206 131.071 M278.478 134.705 L 277.555 136.200 278.578 135.078 C 279.140 134.460,279.600 133.785,279.600 133.578 C 279.600 132.975,279.455 133.120,278.478 134.705 "
              stroke="none" fill="#2c94dc" fill-rule="evenodd"></path>
    </g>
</svg>