<svg id="Layer_1" enable-background="new 0 0 511.867 511.867" height="100" viewBox="0 0 511.867 511.867" width="100"
     xmlns="http://www.w3.org/2000/svg">
    <g>
        <g>
            <g>
                <path d="m467.86 303.528h-13.695v-121.158h13.695c11.435 0 20.705 9.27 20.705 20.705v79.749c0 11.434-9.27 20.704-20.705 20.704z"
                      fill="#a087d4"/>
                <path d="m415.102 323.131h40.726v-173.656l-40.726-19.608z" fill="#e4e4f5"/>
                <path d="m433.976 369.123h2.978c7.607 0 13.773-6.167 13.773-13.773v-32.218h-30.524v32.218c0 7.606 6.166 13.773 13.773 13.773z"
                      fill="#a087d4"/>
            </g>
            <g>
                <g>
                    <path d="m139.964 321.602h43.033v179.298h-43.033z" fill="#6947b5"
                          transform="matrix(-1 0 0 -1 322.961 822.502)"/>
                    <path d="m44.007 303.528h13.695v-121.158h-13.695c-11.435 0-20.705 9.27-20.705 20.705v79.749c0 11.434 9.27 20.704 20.705 20.704z"
                          fill="#a087d4"/>
                    <path d="m329.164 321.602h43.033v179.298h-43.033z" fill="#6947b5"/>
                    <path d="m350.232 321.602h21.964v179.298h-21.964z" fill="#603ab5"/>
                    <path d="m160.879 321.602h21.964v179.298h-21.964z" fill="#603ab5"/>
                    <path d="m291.39 504.367c0-7.277 3.826-14.019 10.077-17.756l27.696-16.558h17.013 26.02l27.696 16.558c6.251 3.737 10.077 10.479 10.077 17.756z"
                          fill="#e4e4f5"/>
                    <path d="m399.892 486.611-27.696-16.557h-26.02-3.98l27.696 16.557c6.251 3.737 10.077 10.479 10.077 17.756h30c.001-7.277-3.826-14.019-10.077-17.756z"
                          fill="#dadaf5"/>
                    <path d="m220.77 504.367c0-7.277-3.826-14.019-10.077-17.756l-27.696-16.558h-17.013-26.02l-27.696 16.558c-6.251 3.737-10.077 10.479-10.077 17.756z"
                          fill="#e4e4f5"/>
                    <path d="m210.692 486.611-27.696-16.557h-17.013-12.987l27.696 16.557c6.251 3.737 10.077 10.479 10.077 17.756h30c.001-7.277-3.826-14.019-10.077-17.756z"
                          fill="#dadaf5"/>
                    <path d="m123.799 291.204v18.944c0 12.04 9.771 21.801 21.825 21.801h220.912c12.054 0 21.825-9.76 21.825-21.801v-18.944c0-12.04-9.771-21.801-21.825-21.801h-220.912c-12.053.001-21.825 9.761-21.825 21.801z"
                          fill="#e4e4f5"/>
                    <path d="m366.536 269.404h-30c12.054 0 21.825 9.76 21.825 21.801v18.944c0 12.04-9.771 21.801-21.825 21.801h30c12.054 0 21.825-9.761 21.825-21.801v-18.944c0-12.041-9.771-21.801-21.825-21.801z"
                          fill="#dadaf5"/>
                    <path d="m329.164 346.96h-38.297l-35.287-15.011-34.359 15.011h-38.224l-.073-110.657h146.24z"
                          fill="#a087d4"/>
                    <path d="m329.164 251.553 57.209-102.078h69.454v-26.765c0-16.463-10.064-31.257-25.388-37.319l-139.621-54.005h-69.77l-139.621 54.005c-15.324 6.062-25.388 20.856-25.388 37.319v26.765h69.454l57.43 102.078z"
                          fill="#6947b5"/>
                    <g>
                        <path d="m395.831 72.004 9.232 3.571c-1.481-.817-3.022-1.551-4.624-2.185z" fill="#603ab5"/>
                    </g>
                    <path d="m255.58 160.484c-20.787 0-37.639-16.852-37.639-37.639v-77.839c0-20.787 16.852-37.639 37.639-37.639 20.787 0 37.639 16.852 37.639 37.639v77.839c0 20.787-16.851 37.639-37.639 37.639z"
                          fill="#e4e4f5"/>
                    <path d="m255.58 7.367c-5.333 0-10.403 1.116-15 3.116 13.321 5.796 22.639 19.069 22.639 34.523v77.839c0 15.454-9.318 28.727-22.639 34.523 4.597 2 9.667 3.116 15 3.116 20.787 0 37.639-16.852 37.639-37.639v-77.839c0-20.787-16.851-37.639-37.639-37.639z"
                          fill="#dadaf5"/>
                    <path d="m56.039 149.475h40.726v173.656h-40.726z" fill="#e4e4f5"/>
                </g>
                <path d="m290.867 346.96h-69.645v-20.246c0-19.232 15.591-34.823 34.823-34.823 19.232 0 34.823 15.591 34.823 34.823v20.246z"
                      fill="#e4e4f5"/>
                <path d="m74.913 369.123h2.978c7.607 0 13.773-6.167 13.773-13.773v-32.218h-30.524v32.218c0 7.606 6.167 13.773 13.773 13.773z"
                      fill="#a087d4"/>
            </g>
            <g>
                <g>
                    <path d="m165.408 66.145-49.596 19.332c-12.801 4.99-27.357-1.401-32.347-14.202-5.003-12.834 1.346-27.294 14.18-32.297l49.596-19.332c12.801-4.99 27.357 1.401 32.347 14.202 5.003 12.835-1.346 27.295-14.18 32.297z"
                          fill="#e4e4f5"/>
                    <path d="m179.588 33.849c-4.99-12.801-19.546-19.192-32.347-14.202l-49.596 19.332c-.56.218-1.104.461-1.639.715l21.236-8.278c12.801-4.99 27.357 1.401 32.347 14.202 4.784 12.273-.818 26.027-12.54 31.581l28.36-11.054c12.833-5.002 19.182-19.462 14.179-32.296z"
                          fill="#dadaf5"/>
                </g>
                <g>
                    <path d="m346.459 66.145 49.596 19.332c12.801 4.99 27.357-1.401 32.347-14.202 5.003-12.834-1.346-27.294-14.18-32.297l-49.596-19.332c-12.801-4.99-27.357 1.401-32.347 14.202-5.003 12.835 1.346 27.295 14.18 32.297z"
                          fill="#e4e4f5"/>
                    <path d="m414.222 38.979-49.596-19.333c-.627-.244-1.259-.453-1.894-.644l21.49 8.377c12.834 5.003 19.183 19.462 14.18 32.297-4.745 12.174-18.141 18.542-30.453 14.846l28.106 10.956c12.801 4.99 27.357-1.401 32.347-14.202 5.003-12.835-1.346-27.294-14.18-32.297z"
                          fill="#dadaf5"/>
                </g>
            </g>
        </g>
        <g>
            <g>
                <path d="m300.689 43.245-.003-.001c.002.062.003.058.003.001z"/>
                <path d="m463.328 174.87v-52.16c0-19.625-11.777-36.979-30.066-44.268 9.939-16.924 2.057-39.473-16.315-46.451 0 0-49.596-19.332-49.596-19.332-18.188-7.235-39.68 4.339-43.553 23.441l-27.538-10.652c-16.365-34.098-65.446-33.874-81.516.335l-26.673 10.317c-3.874-19.104-25.365-30.673-43.553-23.441l-49.597 19.332c-18.37 6.977-26.255 29.529-16.315 46.451-18.267 7.255-30.066 24.624-30.066 44.268v52.16c-16.804-1.03-32.737 10.359-32.737 28.205v79.749c0 17.827 15.98 29.236 32.737 28.205v12.104c0 3.303 2.135 6.107 5.101 7.108v25.11c0 28.12 45.524 28.112 45.524 0v-25.11c2.965-1.001 5.101-3.805 5.101-7.108v-166.158h16.843l54.318 96.545.006 8.383h-29.808c-16.17 0-29.325 13.144-29.325 29.301v18.944c0 11.431 6.586 21.354 16.165 26.181v59.777c0 9.697 15 9.697 15 0v-56.657h28.027c.013 40.973-.035 81.946-.054 122.919-9.323.004-18.757.021-27.973.103v-20.906c0-9.697-15-9.697-15 0v24.234l-24.044 14.375c-8.469 5.062-13.729 14.333-13.729 24.193 0 4.142 3.358 7.5 7.5 7.5h118.578c4.142 0 7.5-3.358 7.5-7.5 0-9.861-5.261-19.131-13.729-24.193l-24.106-14.411.051-111.303h131.177v111.339l-24.044 14.375c-8.468 5.062-13.729 14.333-13.729 24.193 0 4.142 3.358 7.5 7.5 7.5h118.58c4.142 0 7.5-3.358 7.5-7.5 0-9.86-5.261-19.131-13.729-24.193l-24.044-14.375v-129.47c9.579-4.827 16.165-14.749 16.165-26.181v-18.944c0-16.157-13.155-29.301-29.325-29.301h-29.873v-8.392l54.104-96.536h16.835v166.156c0 3.303 2.135 6.107 5.101 7.108v25.11c0 28.12 45.524 28.112 45.524 0v-25.11c2.965-1.001 5.101-3.805 5.101-7.108v-12.104c16.804 1.03 32.737-10.359 32.737-28.205v-79.749c-.001-30.206-32.738-28.203-32.738-28.203zm-414.788 121.158c-8.444.972-17.737-3.504-17.737-13.205v-79.749c0-9.49 9.313-14.215 17.737-13.205zm290.727-259.456c3.45-8.848 13.787-13.387 22.635-9.938l49.596 19.332c8.96 3.493 13.409 13.625 9.917 22.585-3.403 8.728-13.745 13.404-22.635 9.938l-49.597-19.332c-8.96-3.492-13.408-13.624-9.916-22.585zm-83.687-21.705c15.661 0 28.57 12.007 30.006 27.299h-60.012c1.436-15.292 14.345-27.299 30.006-27.299zm-30.139 42.3h60.278v19.259h-60.278zm0 34.258h60.278v19.259h-60.278zm60.145 34.259c-4.419 36.2-55.607 36.173-60.012 0zm-75.12-82.163c-.001.044-.003.042-.004.002zm-110.097 2.445 49.597-19.332c8.839-3.446 19.187 1.094 22.635 9.938 3.492 8.961-.956 19.092-9.916 22.585l-49.597 19.333c-8.64 3.368-19.291-1.361-22.635-9.938-3.492-8.961.956-19.092 9.916-22.586zm-16.204 309.383c0 8.266-15.524 8.649-15.524 0v-24.718h15.524zm5.1-39.717h-25.725v-158.657h25.726v158.657zm56.359 8.817c-7.899 0-14.325-6.416-14.325-14.301v-18.944c0-7.885 6.426-14.301 14.325-14.301h29.819l.036 47.545h-29.855zm61.22 168.6c1.635.978 3.015 2.29 4.071 3.818h-98.871c1.057-1.528 2.437-2.841 4.072-3.818l25.918-15.495h38.891zm76.523-153.589h-54.646v-12.746c1.505-36.256 53.154-36.228 54.646 0zm15 0v-12.746c-2.331-56.161-82.335-56.117-84.646 0v12.746h-23.228l-.063-79.882h131.233v79.882zm97.677 153.589c1.635.978 3.015 2.29 4.071 3.818h-98.871c1.057-1.529 2.436-2.841 4.072-3.818l25.918-15.495h38.891zm-59.38-30.495v-123.105h28.033v123.105zm29.872-185.651c7.899 0 14.325 6.416 14.325 14.301v18.944c0 7.633-6.76 14.301-14.325 14.301h-29.873v-47.545h29.873zm19.837-134.928c-2.714 0-5.216 1.466-6.542 3.833l-55.061 98.245h-137.46l-55.28-98.255c-1.329-2.361-3.827-3.822-6.537-3.822h-61.953v-19.266c0-16.566 11.936-27.536 26.568-32.635 8.459 5.014 19.249 5.968 28.427 2.391l49.597-19.332c9.573-3.732 16.377-11.539 19.204-20.666l23.105-8.937v79.315c2.478 59.882 87.809 59.865 90.278 0 0 0-.032-80.074-.031-79.6l23.843 9.223c2.826 9.128 9.63 16.934 19.204 20.666l49.597 19.332c9.162 3.572 19.977 2.618 28.427-2.391 14.713 5.094 26.568 16.004 26.568 32.635v19.265h-61.954zm56.854 213.374c0 8.266-15.524 8.649-15.524 0v-24.718h15.524zm37.838-72.526c0 9.49-9.313 14.215-17.737 13.205v-43.272c0-9.697-15-9.697-15 0v62.875h-25.726v-158.656h25.726v56.019c0 9.697 15 9.697 15 0v-23.124c8.444-.972 17.737 3.505 17.737 13.205z"/>
            </g>
            <path d="m296.563 214.103h-81.259c-9.697 0-9.697 15 0 15h81.259c9.697 0 9.697-15 0-15z"/>
            <path d="m313.31 184.101h-114.753c-9.697 0-9.697 15 0 15h114.753c9.697 0 9.697-15 0-15z"/>
            <path d="m108.443 68.901c9.992 0 10.008-15 0-15-9.991 0-10.008 15 0 15z"/>
            <path d="m131.782 60.062c9.992 0 10.008-15 0-15-9.992 0-10.008 15 0 15z"/>
            <path d="m155.12 51.224c9.992 0 10.008-15 0-15-9.991 0-10.008 15 0 15z"/>
            <path d="m403.934 68.901c9.992 0 10.008-15 0-15-9.991 0-10.008 15 0 15z"/>
            <path d="m380.596 60.062c9.992 0 10.008-15 0-15-9.992 0-10.008 15 0 15z"/>
            <path d="m357.257 51.224c9.992 0 10.008-15 0-15-9.991 0-10.008 15 0 15z"/>
        </g>
    </g>
</svg>