<svg id="Layer_1" enable-background="new 0 0 512 512" height="100" viewBox="0 0 512 512" width="100"
     xmlns="http://www.w3.org/2000/svg">
    <g>
        <g>
            <g>
                <g>
                    <path d="m13.358 396.381 14.143 14.143v32.367c0 5.304 2.107 10.391 5.858 14.142l14.87 14.87c3.751 3.751 8.838 5.858 14.142 5.858h18.856l20.881 20.882c3.751 3.751 8.838 5.858 14.142 5.858h17.037c5.304 0 10.391-2.107 14.142-5.858l22.714-22.714v-284.459l-22.714-22.714c-3.751-3.751-8.838-5.858-14.142-5.858h-17.037c-5.304 0-10.391 2.107-14.142 5.858l-20.881 20.881h-18.857c-5.304 0-10.391 2.107-14.142 5.858l-14.87 14.87c-3.751 3.751-5.858 8.838-5.858 14.142v32.367l-14.143 14.143c-3.751 3.751-5.858 8.838-5.858 14.142v97.079c.001 5.305 2.108 10.392 5.859 14.143z"
                          fill="#ff6ef9"/>
                    <path d="m147.429 168.756c-3.751-3.751-8.838-5.858-14.142-5.858h-17.037c-2.229 0-4.412.393-6.481 1.103 2.855.979 5.486 2.581 7.661 4.755l22.714 22.714v284.458l-22.714 22.714c-2.175 2.175-4.806 3.776-7.661 4.755 2.069.71 4.252 1.103 6.481 1.103h17.037c5.304 0 10.391-2.107 14.142-5.858l22.714-22.714v-284.458z"
                          fill="#f55bee"/>
                    <path d="m326.929 396.381-14.143 14.143v32.367c0 5.304-2.107 10.391-5.858 14.142l-14.87 14.87c-3.751 3.751-8.838 5.858-14.142 5.858h-18.856l-20.881 20.882c-3.751 3.751-8.838 5.858-14.142 5.858h-17.037c-5.304 0-10.391-2.107-14.142-5.858l-22.714-22.714v-284.459l22.714-22.714c3.751-3.751 8.838-5.858 14.142-5.858h17.037c5.304 0 10.391 2.107 14.142 5.858l20.881 20.881h18.856c5.304 0 10.391 2.107 14.142 5.858l14.87 14.87c3.751 3.751 5.858 8.838 5.858 14.142v32.367l14.143 14.143c3.751 3.751 5.858 8.838 5.858 14.142v97.079c0 5.305-2.107 10.392-5.858 14.143z"
                          fill="#ff6ef9"/>
                </g>
            </g>
            <g>
                <path d="m431 7.5h73.5v73.5h-73.5z" fill="#ff6ef9"/>
                <g fill="#fff245">
                    <path d="m444.776 353.261c-10.203 0-18.475-8.271-18.475-18.474 0-10.203 8.271-18.474 18.474-18.474 10.203 0 18.474 8.271 18.474 18.474.001 10.203-8.27 18.474-18.473 18.474z"/>
                    <path d="m486.026 414.989c-10.203 0-18.475-8.271-18.475-18.474 0-10.203 8.271-18.474 18.474-18.474 10.203 0 18.474 8.271 18.474 18.474.001 10.203-8.27 18.474-18.473 18.474z"/>
                    <path d="m428 479.211c-10.203 0-18.475-8.271-18.475-18.474 0-10.203 8.271-18.474 18.474-18.474 10.203 0 18.474 8.271 18.474 18.474.001 10.203-8.27 18.474-18.473 18.474z"/>
                </g>
            </g>
            <g>
                <path d="m207.34 293.782h72.136v79.834h-72.136z" fill="#fff245"/>
            </g>
        </g>
        <g>
            <path d="m504.5 31.845c4.143 0 7.5-3.358 7.5-7.5v-16.845c0-4.142-3.357-7.5-7.5-7.5h-73.5c-4.143 0-7.5 3.358-7.5 7.5v73.5c0 4.142 3.357 7.5 7.5 7.5h73.5c4.143 0 7.5-3.358 7.5-7.5v-17.328c0-9.697-15-9.697-15 0v9.828h-58.5v-58.5h58.5v9.345c0 4.142 3.357 7.5 7.5 7.5z"/>
            <path d="m504.5 153.269h-73.5c-9.697 0-9.697 15 0 15h73.5c9.697 0 9.697-15 0-15z"/>
            <path d="m474.5 231.769c9.697 0 9.697-15 0-15h-43.5c-9.697 0-9.697 15 0 15z"/>
            <path d="m504.5 185.019h-73.5c-9.697 0-9.697 15 0 15h73.5c9.697 0 9.697-15 0-15z"/>
            <path d="m486.025 370.541c-12.114 0-22.316 8.337-25.175 19.574h-59.069v-48.578h17.914c2.98 11.059 13.092 19.225 25.08 19.225 14.322 0 25.975-11.652 25.975-25.975s-11.652-25.975-25.975-25.975c-11.438 0-21.167 7.436-24.624 17.725h-46.893v-126.518h22.548c9.697 0 9.697-15 0-15h-22.548v-132.519h22.548c9.697 0 9.697-15 0-15h-30.048c-4.143 0-7.5 3.358-7.5 7.5v281.537h-17.972v-41.377c0-7.346-2.86-14.252-8.055-19.445l-11.946-11.946v-29.261c0-7.345-2.86-14.251-8.055-19.445l-14.869-14.87c-5.194-5.194-12.101-8.055-19.445-8.055h-15.75l-18.685-18.686c-5.194-5.194-12.101-8.054-19.445-8.054h-17.036c-7.345 0-14.251 2.86-19.446 8.055l-17.41 17.411-17.41-17.41c-5.194-5.194-12.101-8.055-19.446-8.055h-17.038c-7.346 0-14.252 2.861-19.446 8.055l-18.684 18.683h-15.75c-7.346 0-14.252 2.861-19.444 8.055l-14.871 14.869c-5.193 5.194-8.054 12.1-8.054 19.446v29.261l-11.947 11.946c-5.194 5.194-8.054 12.1-8.054 19.445v97.079c0 7.345 2.86 14.25 8.055 19.446l11.946 11.946v29.261c0 7.346 2.86 14.251 8.055 19.445l14.869 14.869c5.193 5.194 12.1 8.055 19.445 8.055h15.75l18.685 18.685c5.194 5.194 12.101 8.054 19.445 8.054h17.037c7.345 0 14.251-2.86 19.446-8.055l17.41-17.411 17.41 17.411c5.195 5.196 12.101 8.056 19.447 8.056h17.037c7.346 0 14.252-2.86 19.446-8.055l18.684-18.685h15.75c7.345 0 14.25-2.86 19.444-8.055l14.871-14.87c5.193-5.195 8.054-12.101 8.054-19.445v-29.26l11.946-11.946c5.194-5.194 8.055-12.1 8.055-19.445v-40.702h25.472 21.023v56.078c0 4.142 3.357 7.5 7.5 7.5h26.218v30.757c-10.677 3.226-18.475 13.151-18.475 24.866 0 14.322 11.652 25.975 25.975 25.975s25.975-11.652 25.975-25.975c0-11.715-7.798-21.639-18.475-24.866v-30.757h26.02c3.558 10.108 13.196 17.375 24.505 17.375 14.322 0 25.975-11.652 25.975-25.975s-11.652-25.974-25.975-25.974zm-160.738 11.698c0 3.338-1.301 6.478-3.662 8.839l-14.143 14.143c-1.406 1.406-2.196 3.314-2.196 5.303v32.368c0 3.338-1.3 6.478-3.661 8.839l-14.869 14.869c-2.361 2.361-5.501 3.662-8.839 3.662h-15.691l-33.149-33.148v-21.334c0-9.697-15-9.697-15 0v24.44c0 1.989.79 3.897 2.196 5.303l32.209 32.209-15.607 15.607c-2.36 2.361-5.5 3.661-8.839 3.661h-17.036c-3.339 0-6.479-1.3-8.839-3.661l-20.518-20.518v-142.455c0-9.697-15-9.697-15 0v142.455l-20.517 20.517c-2.361 2.361-5.501 3.662-8.84 3.662h-17.036c-3.339 0-6.479-1.3-8.839-3.661l-15.578-15.579 32.238-32.238c1.406-1.406 2.196-3.314 2.196-5.303v-24.44c0-4.142-3.357-7.5-7.5-7.5s-7.5 3.358-7.5 7.5v21.334l-33.149 33.148h-15.748c-3.29 0-6.512-1.334-8.839-3.661l-14.869-14.87c-2.361-2.361-3.661-5.5-3.661-8.839v-29.368l20.604-20.605h21.058c1.989 0 3.896-.79 5.304-2.197l17.555-17.555c6.857-6.857-3.749-17.462-10.607-10.606l-15.357 15.358h-21.059c-1.989 0-3.896.79-5.304 2.197l-19.748 19.749-8.786-8.786c-2.36-2.362-3.661-5.501-3.661-8.84v-97.079c0-3.339 1.3-6.478 3.66-8.839l8.841-8.84 19.142 19.142c1.407 1.407 3.314 2.197 5.304 2.197h21.058l15.91 15.911c6.858 6.856 17.465-3.749 10.607-10.606l-18.107-18.107c-1.407-1.407-3.314-2.197-5.304-2.197h-21.058l-20.052-20.053v-29.26c0-3.339 1.3-6.479 3.66-8.839l14.871-14.87c2.36-2.361 5.499-3.661 8.838-3.661h15.748l33.149 33.148v21.333c0 9.697 15 9.697 15 0v-24.44c0-1.989-.79-3.897-2.196-5.303l-32.239-32.238 15.578-15.578c2.361-2.361 5.5-3.662 8.839-3.662h17.037c3.339 0 6.478 1.3 8.839 3.662l20.518 20.517v95.808c0 9.697 15 9.697 15 0v-95.807l20.517-20.518c2.361-2.361 5.501-3.662 8.84-3.662h17.037c3.339 0 6.479 1.3 8.839 3.661l15.607 15.608-32.209 32.209c-1.406 1.406-2.196 3.314-2.196 5.303v24.44c0 9.697 15 9.697 15 0v-21.333l33.149-33.148h15.691c3.339 0 6.478 1.3 8.839 3.661l14.869 14.87c2.361 2.361 3.661 5.5 3.661 8.839v32.367c0 1.989.79 3.896 2.196 5.303l14.144 14.144c2.361 2.361 3.661 5.5 3.661 8.838v41.377h-14.288c-9.697 0-9.697 15 0 15h14.287zm119.488-58.427c6.052 0 10.975 4.923 10.975 10.975s-4.923 10.975-10.975 10.975-10.975-4.923-10.975-10.975 4.924-10.975 10.975-10.975zm-5.8 136.925c0 6.051-4.923 10.975-10.975 10.975s-10.975-4.923-10.975-10.975 4.923-10.974 10.975-10.974 10.975 4.923 10.975 10.974zm47.05-53.248c-6.052 0-10.975-4.923-10.975-10.975s4.923-10.974 10.975-10.974 10.975 4.924 10.975 10.975-4.923 10.974-10.975 10.974z"/>
            <path d="m279.477 286.282h-72.136c-4.143 0-7.5 3.358-7.5 7.5v79.833c0 9.697 15 9.697 15 0v-72.333h57.136v72.333c0 9.697 15 9.697 15 0v-79.833c0-4.142-3.358-7.5-7.5-7.5z"/>
            <path d="m256.124 350.519c-4.143 0-7.5 3.358-7.5 7.5v15.597c0 9.697 15 9.697 15 0v-15.597c0-4.142-3.357-7.5-7.5-7.5z"/>
            <path d="m230.693 350.519c-4.143 0-7.5 3.358-7.5 7.5v15.597c0 9.697 15 9.697 15 0v-15.597c0-4.142-3.357-7.5-7.5-7.5z"/>
        </g>
    </g>
</svg>