<svg id="svg" version="1.1" xmlns="http://www.w3.org/2000/svg" xmlns:xlink="http://www.w3.org/1999/xlink"
     width="100" height="100" viewBox="0, 0, 400,400">
    <g id="svgg">
        <path id="path0"
              d="M193.286 64.700 L 193.200 74.800 184.900 74.806 C 175.584 74.813,175.817 74.757,175.436 77.088 C 175.392 77.357,175.231 77.702,175.078 77.855 C 174.925 78.008,174.800 78.543,174.800 79.043 C 174.800 79.543,174.620 80.064,174.400 80.200 C 174.180 80.336,174.000 80.799,174.000 81.229 C 174.000 81.659,173.820 82.368,173.600 82.805 C 173.380 83.242,173.020 83.958,172.800 84.395 C 172.580 84.832,172.400 85.642,172.400 86.195 C 172.400 86.748,172.220 87.200,172.000 87.200 C 171.780 87.200,171.600 87.740,171.600 88.400 C 171.600 89.060,171.420 89.600,171.200 89.600 C 170.980 89.600,170.800 89.960,170.800 90.400 C 170.800 91.067,170.533 91.200,169.200 91.200 C 168.320 91.200,167.600 91.380,167.600 91.600 C 167.600 91.820,167.298 92.000,166.928 92.000 C 166.345 92.000,164.962 92.375,162.800 93.120 C 162.470 93.233,161.975 93.290,161.700 93.246 C 161.425 93.201,161.200 93.353,161.200 93.582 C 161.200 93.812,160.927 94.000,160.594 94.000 C 159.723 94.000,156.800 94.950,156.800 95.233 C 156.800 95.365,156.035 95.714,155.100 96.011 C 154.165 96.307,152.922 96.876,152.338 97.275 C 151.754 97.674,150.899 98.000,150.438 98.000 C 149.977 98.000,149.600 98.150,149.600 98.332 C 149.600 98.674,148.776 99.134,146.500 100.064 C 145.785 100.356,145.200 100.731,145.200 100.898 C 145.200 101.064,144.930 101.200,144.600 101.200 C 144.270 101.200,144.000 101.380,144.000 101.600 C 144.000 101.820,143.640 102.000,143.200 102.000 C 142.760 102.000,142.400 101.837,142.400 101.638 C 142.400 101.273,132.762 96.400,132.040 96.400 C 131.796 96.400,131.600 90.518,131.515 80.700 C 131.441 72.065,131.229 64.680,131.044 64.290 C 130.740 63.649,130.131 63.590,124.853 63.690 L 119.000 63.800 118.740 66.000 C 118.596 67.210,118.461 76.160,118.440 85.888 L 118.400 103.576 112.700 109.244 L 107.000 114.911 106.896 97.854 L 106.791 80.796 68.896 80.898 L 31.000 81.000 30.896 100.098 L 30.792 119.196 66.682 119.298 L 102.573 119.400 98.491 123.471 C 94.700 127.251,94.426 127.629,94.654 128.771 C 94.789 129.447,95.058 130.000,95.250 130.000 C 95.442 130.000,95.600 130.180,95.600 130.400 C 95.600 130.664,82.613 130.800,57.439 130.800 L 19.277 130.800 19.112 97.900 C 19.021 79.805,18.802 64.680,18.626 64.290 C 18.338 63.648,17.736 63.590,12.453 63.690 L 6.600 63.800 6.335 65.800 C 6.189 66.900,6.054 84.945,6.035 105.900 L 6.000 144.000 53.600 144.000 C 85.491 144.000,101.200 144.134,101.200 144.405 C 101.200 144.802,100.397 146.404,99.999 146.800 C 99.889 146.910,99.529 147.540,99.200 148.200 C 98.871 148.860,98.511 149.490,98.401 149.600 C 98.186 149.814,97.391 151.773,96.654 153.900 C 96.407 154.615,96.068 155.200,95.902 155.200 C 95.736 155.200,95.600 155.442,95.600 155.739 C 95.600 156.035,95.321 156.835,94.981 157.518 C 94.641 158.200,94.297 159.083,94.217 159.479 C 94.137 159.876,93.887 160.676,93.661 161.259 C 93.436 161.841,93.360 162.426,93.492 162.559 C 93.625 162.691,93.523 162.800,93.267 162.800 C 93.010 162.800,92.800 163.102,92.800 163.472 C 92.800 164.224,92.087 166.633,91.551 167.695 C 91.358 168.077,91.200 168.910,91.200 169.546 C 91.200 170.486,90.956 170.793,89.900 171.185 C 89.185 171.450,88.266 171.845,87.858 172.063 C 87.282 172.371,87.187 172.341,87.435 171.930 C 87.688 171.510,87.614 171.513,87.081 171.945 C 86.711 172.245,86.531 172.695,86.681 172.945 C 86.831 173.195,86.645 173.150,86.268 172.843 C 85.659 172.349,85.612 172.372,85.850 173.043 C 86.046 173.598,85.996 173.688,85.659 173.380 C 85.128 172.894,82.400 173.114,82.400 173.644 C 82.400 173.840,82.051 174.000,81.624 174.000 C 81.197 174.000,80.736 174.180,80.600 174.400 C 80.464 174.620,79.755 174.800,79.025 174.800 C 78.295 174.800,77.476 175.068,77.204 175.396 C 76.932 175.723,76.562 175.900,76.382 175.789 C 76.202 175.678,75.924 175.815,75.764 176.093 C 75.603 176.372,75.619 176.467,75.799 176.303 C 75.979 176.140,76.368 176.207,76.663 176.452 C 77.198 176.896,77.255 176.850,77.350 175.900 C 77.411 175.290,80.000 174.972,80.000 175.575 C 80.000 175.809,80.180 176.000,80.400 176.000 C 80.620 176.000,80.800 175.775,80.800 175.500 C 80.799 174.815,102.271 174.995,103.105 175.687 C 103.851 176.306,104.392 175.436,104.200 173.923 C 104.103 173.151,104.236 172.800,104.629 172.800 C 104.988 172.800,105.200 172.383,105.200 171.680 C 105.200 171.064,105.379 170.381,105.598 170.162 C 105.816 169.944,106.036 169.278,106.085 168.682 C 106.134 168.087,106.276 167.600,106.400 167.600 C 106.524 167.600,106.877 166.749,107.184 165.709 C 107.491 164.668,107.979 163.363,108.269 162.809 C 108.558 162.254,108.796 161.406,108.798 160.924 C 108.799 160.442,108.980 159.936,109.200 159.800 C 109.420 159.664,109.600 159.193,109.600 158.753 C 109.600 158.313,109.780 158.064,110.000 158.200 C 110.220 158.336,110.400 158.087,110.400 157.647 C 110.400 157.207,110.580 156.736,110.800 156.600 C 111.020 156.464,111.200 155.993,111.200 155.553 C 111.200 155.113,111.380 154.864,111.600 155.000 C 111.820 155.136,112.000 154.892,112.000 154.457 C 112.000 154.022,112.135 153.607,112.300 153.533 C 112.676 153.366,113.975 151.236,114.271 150.300 C 114.393 149.915,114.652 149.600,114.847 149.600 C 115.041 149.600,115.200 149.280,115.200 148.888 C 115.200 148.497,115.560 147.917,116.000 147.600 C 116.440 147.283,116.800 146.703,116.800 146.312 C 116.800 145.920,116.980 145.600,117.200 145.600 C 117.420 145.600,117.600 144.790,117.600 143.800 C 117.600 142.810,117.420 142.000,117.200 142.000 C 116.980 142.000,116.800 141.655,116.800 141.233 C 116.800 140.812,116.665 140.407,116.500 140.333 C 116.068 140.141,114.400 136.828,114.400 136.162 C 114.400 135.853,114.220 135.600,114.000 135.600 C 113.780 135.600,113.600 135.240,113.600 134.800 C 113.600 134.360,113.464 134.000,113.298 134.000 C 113.131 134.000,112.741 133.415,112.430 132.700 C 112.119 131.985,111.670 131.268,111.432 131.106 C 111.144 130.910,111.175 130.810,111.524 130.806 C 111.812 130.803,111.936 130.620,111.800 130.400 C 111.664 130.180,111.833 130.000,112.176 130.000 C 112.519 130.000,112.800 129.719,112.800 129.376 C 112.800 129.033,112.980 128.864,113.200 129.000 C 113.420 129.136,113.600 128.956,113.600 128.600 C 113.600 128.244,113.735 128.019,113.900 128.100 C 114.280 128.287,128.361 114.094,128.077 113.810 C 127.961 113.695,128.177 113.600,128.557 113.600 C 128.937 113.600,129.136 113.420,129.000 113.200 C 128.864 112.980,129.033 112.800,129.376 112.800 C 129.719 112.800,130.000 112.519,130.000 112.176 C 130.000 111.833,130.180 111.664,130.400 111.800 C 130.620 111.936,130.803 111.812,130.806 111.524 C 130.811 111.095,130.872 111.094,131.142 111.520 C 131.324 111.806,131.848 112.068,132.308 112.103 C 132.768 112.138,133.075 112.278,132.990 112.415 C 132.906 112.553,133.458 112.909,134.218 113.207 C 134.978 113.505,135.600 113.896,135.600 114.075 C 135.600 114.254,135.960 114.400,136.400 114.400 C 136.840 114.400,137.200 114.550,137.200 114.733 C 137.200 114.917,137.467 115.067,137.793 115.067 C 138.598 115.067,142.000 116.843,142.000 117.263 C 142.000 117.448,142.810 117.600,143.800 117.600 C 144.790 117.600,145.600 117.420,145.600 117.200 C 145.600 116.980,145.920 116.800,146.312 116.800 C 146.703 116.800,147.283 116.440,147.600 116.000 C 147.917 115.560,148.482 115.200,148.855 115.200 C 149.228 115.200,149.593 115.065,149.667 114.900 C 149.834 114.524,151.964 113.225,152.900 112.929 C 153.285 112.807,153.600 112.548,153.600 112.353 C 153.600 112.159,153.960 112.000,154.400 112.000 C 154.840 112.000,155.200 111.820,155.200 111.600 C 155.200 111.380,155.470 111.200,155.800 111.200 C 156.130 111.200,156.400 111.020,156.400 110.800 C 156.400 110.580,156.850 110.400,157.400 110.400 C 157.950 110.400,158.400 110.220,158.400 110.000 C 158.400 109.780,158.749 109.600,159.176 109.600 C 159.603 109.600,160.050 109.443,160.168 109.252 C 160.286 109.060,160.955 108.789,161.654 108.649 C 162.352 108.510,163.184 108.179,163.502 107.915 C 163.820 107.651,164.370 107.393,164.724 107.341 C 165.077 107.289,166.004 106.990,166.783 106.676 C 169.085 105.749,170.997 105.200,171.928 105.200 C 172.408 105.200,172.800 105.040,172.800 104.844 C 172.800 104.509,173.720 104.284,177.300 103.743 C 178.125 103.618,178.800 103.355,178.800 103.158 C 178.800 102.961,179.319 102.800,179.954 102.800 C 181.207 102.800,182.400 101.453,182.400 100.038 C 182.400 99.603,182.580 99.136,182.800 99.000 C 183.020 98.864,183.200 98.324,183.200 97.800 C 183.200 97.276,183.380 96.736,183.600 96.600 C 183.820 96.464,184.000 95.924,184.000 95.400 C 184.000 94.876,184.180 94.336,184.400 94.200 C 184.620 94.064,184.800 93.524,184.800 93.000 C 184.800 92.476,184.980 91.936,185.200 91.800 C 185.420 91.664,185.600 91.023,185.600 90.376 C 185.600 89.729,185.780 89.200,186.000 89.200 C 186.220 89.200,186.400 88.930,186.400 88.600 C 186.400 88.114,187.044 88.000,189.800 88.000 L 193.200 88.000 193.200 100.000 L 193.200 112.000 191.700 112.046 C 189.964 112.100,189.618 112.154,188.800 112.499 C 188.470 112.639,187.345 112.853,186.300 112.976 C 181.472 113.545,180.575 113.701,180.220 114.039 C 180.011 114.237,179.257 114.400,178.544 114.400 C 177.831 114.400,177.136 114.580,177.000 114.800 C 176.864 115.020,176.234 115.200,175.600 115.200 C 174.966 115.200,174.336 115.380,174.200 115.600 C 174.064 115.820,173.423 116.000,172.776 116.000 C 172.129 116.000,171.600 116.180,171.600 116.400 C 171.600 116.620,171.161 116.800,170.624 116.800 C 170.087 116.800,169.536 116.980,169.400 117.200 C 169.264 117.420,168.803 117.600,168.376 117.600 C 167.949 117.600,167.600 117.780,167.600 118.000 C 167.600 118.220,167.060 118.400,166.400 118.400 C 165.740 118.400,165.199 118.535,165.199 118.700 C 165.198 118.865,164.208 119.450,163.000 120.000 C 161.792 120.550,160.802 121.135,160.801 121.300 C 160.801 121.465,160.440 121.600,160.000 121.600 C 159.560 121.600,159.200 121.780,159.200 122.000 C 159.200 122.220,158.840 122.400,158.400 122.400 C 157.960 122.400,157.600 122.580,157.600 122.800 C 157.600 123.020,157.240 123.200,156.800 123.200 C 156.360 123.200,156.000 123.380,156.000 123.600 C 156.000 123.820,155.640 124.000,155.200 124.000 C 154.760 124.000,154.400 124.150,154.400 124.332 C 154.400 124.515,153.909 124.920,153.308 125.232 C 150.161 126.869,145.149 130.641,141.791 133.900 C 140.374 135.275,139.076 136.402,138.907 136.404 C 138.738 136.406,137.970 137.145,137.200 138.046 C 136.430 138.948,134.900 140.620,133.800 141.763 C 131.629 144.020,130.055 145.995,128.194 148.800 C 127.537 149.790,126.685 150.949,126.300 151.375 C 125.915 151.802,125.600 152.437,125.600 152.787 C 125.600 153.137,125.240 153.683,124.800 154.000 C 124.360 154.317,124.000 154.897,124.000 155.288 C 124.000 155.680,123.820 156.000,123.600 156.000 C 123.380 156.000,123.200 156.360,123.200 156.800 C 123.200 157.240,123.020 157.600,122.800 157.600 C 122.580 157.600,122.400 157.836,122.400 158.125 C 122.400 158.413,122.080 158.998,121.690 159.425 C 121.299 159.851,120.722 161.010,120.407 162.000 C 120.091 162.990,119.736 163.890,119.617 164.000 C 119.076 164.499,118.400 166.065,118.400 166.818 C 118.400 167.274,118.220 167.536,118.000 167.400 C 117.773 167.260,117.600 167.596,117.600 168.176 C 117.600 168.739,117.458 169.200,117.285 169.200 C 117.112 169.200,116.926 169.785,116.872 170.500 C 116.819 171.215,116.600 171.860,116.387 171.933 C 116.174 172.007,116.000 172.242,116.000 172.457 C 116.000 172.672,116.198 172.725,116.440 172.575 C 116.758 172.379,116.758 172.532,116.438 173.129 C 116.195 173.584,115.817 174.066,115.598 174.201 C 114.986 174.580,115.126 175.200,115.824 175.200 C 116.216 175.200,116.336 175.385,116.147 175.700 C 115.923 176.073,116.010 176.068,116.489 175.679 C 116.968 175.291,118.620 175.189,122.967 175.279 C 126.176 175.346,128.801 175.254,128.801 175.076 C 128.800 174.898,128.981 174.865,129.203 175.002 C 129.788 175.363,130.919 174.087,130.646 173.375 C 130.516 173.036,130.674 172.670,131.007 172.542 C 131.346 172.412,131.600 171.808,131.600 171.134 C 131.600 170.334,131.751 170.046,132.068 170.242 C 132.378 170.433,132.454 170.317,132.293 169.899 C 132.149 169.524,132.302 169.170,132.667 169.030 C 133.006 168.899,133.182 168.531,133.058 168.208 C 132.935 167.886,133.096 167.361,133.417 167.040 C 133.738 166.719,134.000 166.264,134.000 166.029 C 134.000 165.793,134.180 165.600,134.400 165.600 C 134.620 165.600,134.800 165.330,134.800 165.000 C 134.800 164.670,134.999 164.400,135.243 164.400 C 135.486 164.400,135.587 164.143,135.467 163.829 C 135.346 163.515,135.507 163.043,135.824 162.780 C 136.141 162.517,136.400 162.082,136.400 161.813 C 136.400 161.544,136.760 160.998,137.200 160.600 C 137.640 160.202,138.000 159.662,138.000 159.400 C 138.000 159.138,138.361 158.597,138.802 158.198 C 139.244 157.798,139.526 157.393,139.429 157.296 C 139.333 157.199,139.782 156.604,140.427 155.974 C 141.072 155.343,141.600 154.632,141.600 154.394 C 141.600 154.156,142.815 152.755,144.300 151.280 C 145.785 149.805,147.495 148.000,148.100 147.269 C 148.705 146.537,149.200 146.053,149.200 146.192 C 149.200 146.331,150.248 145.377,151.529 144.072 C 152.811 142.767,154.227 141.582,154.677 141.439 C 155.126 141.296,155.816 140.824,156.209 140.390 C 156.602 139.955,157.126 139.600,157.374 139.600 C 157.621 139.600,158.083 139.240,158.400 138.800 C 158.717 138.360,159.214 138.000,159.505 138.000 C 159.796 138.000,160.420 137.640,160.892 137.200 C 161.364 136.760,161.987 136.400,162.275 136.400 C 162.564 136.400,162.800 136.220,162.800 136.000 C 162.800 135.780,163.145 135.600,163.567 135.600 C 163.988 135.600,164.393 135.463,164.467 135.295 C 164.678 134.811,172.924 130.794,173.700 130.797 C 174.085 130.799,174.400 130.620,174.400 130.400 C 174.400 130.180,174.940 130.000,175.600 130.000 C 176.260 130.000,176.800 129.820,176.800 129.600 C 176.800 129.380,177.340 129.200,178.000 129.200 C 178.660 129.200,179.200 129.020,179.200 128.800 C 179.200 128.580,179.819 128.400,180.576 128.400 C 181.333 128.400,182.064 128.220,182.200 128.000 C 182.336 127.780,183.157 127.600,184.024 127.600 C 184.891 127.600,185.600 127.420,185.600 127.200 C 185.600 126.980,186.590 126.800,187.800 126.800 C 189.010 126.800,190.000 126.620,190.000 126.400 C 190.000 126.180,190.720 126.000,191.600 126.000 L 193.200 126.000 193.200 127.706 C 193.200 129.645,194.414 133.274,195.601 134.884 C 196.040 135.480,196.404 136.110,196.409 136.284 C 196.424 136.797,200.504 140.569,201.700 141.177 C 202.305 141.484,202.800 141.885,202.800 142.068 C 202.800 142.250,203.160 142.400,203.600 142.400 C 204.040 142.400,204.400 142.580,204.400 142.800 C 204.400 143.020,204.940 143.200,205.600 143.200 C 206.260 143.200,206.800 143.380,206.800 143.600 C 206.800 143.862,214.200 144.000,228.200 144.000 C 249.911 144.000,251.314 144.094,249.200 145.400 C 248.980 145.536,248.800 147.077,248.800 148.824 C 248.800 150.675,248.633 152.000,248.400 152.000 C 248.180 152.000,248.000 152.720,248.000 153.600 C 248.000 154.480,247.820 155.200,247.600 155.200 C 247.380 155.200,247.200 155.740,247.200 156.400 C 247.200 157.060,247.020 157.600,246.800 157.600 C 246.580 157.600,246.400 157.838,246.400 158.129 C 246.400 158.420,245.846 159.680,245.170 160.929 C 244.493 162.178,244.083 163.200,244.259 163.200 C 244.434 163.200,244.175 163.482,243.682 163.827 C 243.190 164.172,242.878 164.602,242.989 164.782 C 243.100 164.962,242.514 165.849,241.687 166.754 L 240.182 168.400 232.491 168.400 L 224.800 168.400 224.800 171.800 L 224.800 175.200 293.573 175.200 L 362.347 175.200 362.513 176.300 C 362.605 176.905,362.707 175.375,362.740 172.900 L 362.800 168.400 355.160 168.400 L 347.521 168.400 346.413 167.214 C 345.804 166.562,345.192 166.142,345.053 166.281 C 344.914 166.420,344.800 166.065,344.800 165.494 C 344.800 164.805,344.530 164.368,344.000 164.200 C 343.560 164.060,343.200 163.705,343.200 163.411 C 343.200 163.116,342.851 162.184,342.424 161.338 C 341.198 158.909,340.346 156.915,340.247 156.243 C 340.197 155.902,340.031 155.498,339.878 155.345 C 339.725 155.192,339.600 154.635,339.600 154.107 C 339.600 153.579,339.427 152.824,339.216 152.430 C 339.005 152.035,338.799 150.422,338.759 148.845 C 338.720 147.268,338.532 145.882,338.344 145.765 C 338.155 145.648,338.000 145.203,338.000 144.776 C 338.000 144.018,338.484 144.000,359.400 144.000 C 373.400 144.000,380.800 143.862,380.800 143.600 C 380.800 143.380,381.340 143.200,382.000 143.200 C 382.660 143.200,383.200 143.020,383.200 142.800 C 383.200 142.580,383.560 142.400,384.000 142.400 C 384.440 142.400,384.800 142.253,384.800 142.074 C 384.800 141.894,385.475 141.366,386.300 140.901 C 388.165 139.849,390.076 137.863,391.104 135.911 C 391.535 135.091,392.003 134.536,392.144 134.677 C 392.285 134.818,392.400 134.543,392.400 134.067 C 392.400 133.590,392.580 133.200,392.800 133.200 C 393.020 133.200,393.200 132.660,393.200 132.000 C 393.200 131.340,393.380 130.800,393.600 130.800 C 394.047 130.800,394.176 70.923,393.739 66.300 L 393.484 63.600 387.542 63.600 C 383.085 63.600,381.586 63.725,381.543 64.100 C 381.512 64.375,381.358 63.880,381.200 63.000 C 381.042 62.120,380.888 68.555,380.857 77.300 L 380.800 93.200 293.800 93.200 L 206.800 93.200 206.733 76.700 C 206.696 67.625,206.546 61.280,206.400 62.600 C 206.254 63.920,206.104 64.676,206.067 64.280 C 206.005 63.616,205.527 63.570,199.811 63.680 L 193.623 63.800 193.497 59.200 C 193.428 56.670,193.333 59.145,193.286 64.700 M106.354 62.700 C 106.328 63.965,106.225 64.685,106.124 64.300 C 105.886 63.389,31.647 63.190,31.543 64.100 C 31.512 64.375,31.354 63.880,31.192 63.000 C 30.982 61.859,30.912 62.462,30.949 65.103 L 31.000 68.806 68.855 68.903 L 106.710 69.000 106.774 64.700 C 106.809 62.335,106.739 60.400,106.619 60.400 C 106.499 60.400,106.379 61.435,106.354 62.700 M93.200 100.000 L 93.200 106.000 68.600 106.000 L 44.000 106.000 44.000 100.000 L 44.000 94.000 68.600 94.000 L 93.200 94.000 93.200 100.000 M380.683 115.900 C 380.501 127.320,379.878 129.343,376.274 130.231 C 374.303 130.716,212.725 130.885,212.242 130.402 C 212.021 130.181,211.510 130.000,211.106 130.000 C 210.151 130.000,208.479 128.894,207.956 127.917 C 207.143 126.398,207.042 125.270,206.901 116.100 L 206.759 106.800 293.794 106.800 L 380.829 106.800 380.683 115.900 M324.800 148.776 C 324.800 151.403,324.951 153.646,325.135 153.760 C 325.319 153.873,325.493 154.613,325.523 155.403 C 325.553 156.193,325.664 156.981,325.771 157.153 C 325.878 157.326,326.069 158.059,326.197 158.783 C 326.324 159.506,326.778 160.820,327.204 161.703 C 327.631 162.586,327.884 163.464,327.766 163.654 C 327.649 163.844,327.743 164.000,327.976 164.000 C 328.209 164.000,328.400 164.349,328.400 164.776 C 328.400 165.203,328.580 165.664,328.800 165.800 C 329.020 165.936,329.200 166.397,329.200 166.824 C 329.200 167.251,329.380 167.600,329.600 167.600 C 329.820 167.600,330.000 167.780,330.000 168.000 C 330.000 168.264,317.579 168.400,293.538 168.400 C 258.336 168.400,257.099 168.375,257.733 167.674 C 258.095 167.274,258.505 166.374,258.645 165.674 C 258.785 164.973,259.058 164.400,259.250 164.400 C 259.443 164.400,259.600 164.038,259.600 163.595 C 259.600 163.152,259.780 162.432,260.000 161.995 C 260.220 161.558,260.580 160.842,260.800 160.405 C 261.020 159.968,261.200 159.068,261.200 158.405 C 261.200 157.742,261.380 157.200,261.600 157.200 C 261.820 157.200,262.000 156.491,262.000 155.624 C 262.000 154.757,262.180 153.936,262.400 153.800 C 262.631 153.658,262.800 151.529,262.800 148.776 L 262.800 144.000 293.800 144.000 L 324.800 144.000 324.800 148.776 M128.000 176.100 C 128.000 176.265,128.138 176.400,128.307 176.400 C 128.476 176.400,128.584 177.030,128.548 177.800 C 128.512 178.570,128.644 179.200,128.841 179.200 C 129.038 179.200,129.200 178.671,129.200 178.024 C 129.200 177.377,129.380 176.736,129.600 176.600 C 130.304 176.165,130.030 175.800,129.000 175.800 C 128.450 175.800,128.000 175.935,128.000 176.100 M102.808 176.609 C 103.235 177.125,103.197 177.182,102.557 176.979 C 101.835 176.751,101.834 176.761,102.530 177.206 C 102.932 177.463,103.359 177.575,103.479 177.454 C 103.823 177.110,103.277 176.000,102.764 176.000 C 102.434 176.000,102.447 176.174,102.808 176.609 M312.128 184.000 C 312.128 185.430,312.201 186.015,312.289 185.300 C 312.378 184.585,312.378 183.415,312.289 182.700 C 312.201 181.985,312.128 182.570,312.128 184.000 "
              stroke="none" fill="#338ddf" fill-rule="evenodd"></path>
        <path id="path1"
              d="M285.978 291.900 L 284.600 293.400 286.100 292.022 C 286.925 291.263,287.600 290.588,287.600 290.522 C 287.600 290.216,287.262 290.504,285.978 291.900 M240.800 305.400 C 239.494 306.147,239.951 306.155,241.654 305.416 C 242.394 305.094,242.730 304.831,242.400 304.830 C 242.070 304.829,241.350 305.086,240.800 305.400 M214.021 311.375 C 213.419 312.101,206.800 312.307,206.800 311.600 C 206.800 311.380,206.620 311.200,206.400 311.200 C 206.180 311.200,206.000 311.569,206.000 312.019 C 206.000 312.797,206.212 312.835,210.169 312.772 C 213.534 312.718,214.298 312.599,214.126 312.153 C 214.010 311.849,214.114 311.600,214.357 311.600 C 214.601 311.600,214.814 311.915,214.832 312.300 C 214.849 312.692,214.950 312.787,215.060 312.515 C 215.445 311.566,214.617 310.657,214.021 311.375 M268.400 352.600 L 268.400 394.000 331.200 394.000 L 394.000 394.000 393.930 352.500 C 393.892 329.675,393.791 311.765,393.707 312.700 L 393.554 314.400 387.577 314.400 L 381.600 314.400 381.594 313.300 C 381.591 312.695,381.413 311.930,381.200 311.600 C 380.948 311.210,380.810 323.220,380.806 345.900 L 380.800 380.800 331.200 380.800 L 281.600 380.800 281.577 347.500 C 281.564 329.185,281.405 313.480,281.223 312.600 L 280.892 311.000 280.846 312.700 L 280.800 314.400 275.000 314.400 L 269.200 314.400 269.200 312.800 C 269.200 311.920,269.020 311.200,268.800 311.200 C 268.536 311.200,268.400 325.267,268.400 352.600 M368.667 311.467 C 368.520 311.613,368.400 312.333,368.400 313.067 L 368.400 314.400 331.200 314.400 L 294.000 314.400 293.924 312.900 C 293.883 312.075,293.748 313.020,293.624 315.000 C 293.501 316.980,293.456 318.735,293.524 318.900 C 293.592 319.065,310.647 319.200,331.424 319.200 L 369.200 319.200 369.200 315.200 C 369.200 311.202,369.166 310.967,368.667 311.467 M6.000 327.400 C 6.000 337.667,6.140 343.200,6.400 343.200 C 6.620 343.200,6.800 343.740,6.800 344.400 C 6.800 345.060,6.980 345.600,7.200 345.600 C 7.420 345.600,7.600 345.960,7.600 346.400 C 7.600 346.840,7.780 347.200,8.000 347.200 C 8.220 347.200,8.400 347.425,8.400 347.700 C 8.401 348.488,12.950 353.600,13.650 353.600 C 13.861 353.600,14.382 353.924,14.807 354.321 C 17.300 356.643,18.976 356.800,41.353 356.800 C 60.197 356.800,63.006 356.931,61.686 357.747 C 61.513 357.854,61.321 359.349,61.259 361.071 C 61.196 362.792,60.978 364.371,60.773 364.580 C 60.568 364.789,60.400 365.543,60.400 366.256 C 60.400 366.969,60.220 367.664,60.000 367.800 C 59.780 367.936,59.600 368.476,59.600 369.000 C 59.600 369.524,59.417 370.066,59.193 370.204 C 58.970 370.342,58.883 370.610,59.000 370.800 C 59.117 370.990,59.030 371.258,58.807 371.396 C 58.583 371.534,58.400 371.997,58.400 372.424 C 58.400 372.851,58.220 373.200,58.000 373.200 C 57.780 373.200,57.600 373.560,57.600 374.000 C 57.600 374.440,57.420 374.800,57.200 374.800 C 56.980 374.800,56.800 375.070,56.800 375.400 C 56.800 375.730,56.650 376.000,56.468 376.000 C 56.285 376.000,55.880 376.488,55.568 377.084 C 55.255 377.680,54.461 378.760,53.803 379.484 L 52.606 380.800 44.903 380.800 L 37.200 380.800 37.200 387.400 L 37.200 394.000 106.200 394.000 L 175.200 394.000 175.200 387.400 L 175.200 380.800 167.571 380.800 C 161.990 380.800,159.814 380.666,159.464 380.300 C 158.540 379.334,156.000 375.594,156.000 375.199 C 156.000 374.980,155.820 374.800,155.600 374.800 C 155.380 374.800,155.200 374.440,155.200 374.000 C 155.200 373.560,155.020 373.200,154.800 373.200 C 154.580 373.200,154.400 372.840,154.400 372.400 C 154.400 371.960,154.220 371.600,154.000 371.600 C 153.780 371.600,153.600 371.240,153.600 370.800 C 153.600 370.360,153.420 370.000,153.200 370.000 C 152.980 370.000,152.800 369.460,152.800 368.800 C 152.800 368.140,152.620 367.600,152.400 367.600 C 152.180 367.600,152.000 366.880,152.000 366.000 C 152.000 365.120,151.820 364.400,151.600 364.400 C 151.367 364.400,151.200 363.075,151.200 361.224 C 151.200 359.477,151.020 357.936,150.800 357.800 C 149.383 356.924,151.903 356.800,171.072 356.800 C 185.427 356.800,192.180 356.661,193.172 356.345 C 195.391 355.637,196.496 355.116,197.851 354.138 C 198.538 353.641,199.168 353.289,199.251 353.356 C 199.333 353.422,200.349 352.515,201.508 351.338 C 202.667 350.162,203.513 349.200,203.388 349.200 C 203.262 349.200,203.583 348.615,204.100 347.900 C 206.445 344.658,206.800 342.764,206.800 333.472 L 206.800 325.200 215.351 325.200 C 224.454 325.200,224.965 325.094,224.614 323.270 C 224.521 322.792,224.616 322.400,224.823 322.400 C 225.030 322.400,225.203 322.085,225.206 321.700 C 225.213 320.882,226.127 318.139,226.526 317.741 C 226.677 317.590,226.800 317.057,226.800 316.557 C 226.800 316.057,226.999 315.524,227.243 315.374 C 227.551 315.183,227.521 314.996,227.143 314.756 C 226.686 314.467,226.686 314.411,227.143 314.406 C 227.446 314.403,227.589 314.150,227.468 313.833 C 227.348 313.521,227.509 313.167,227.825 313.046 C 228.578 312.757,228.569 311.600,227.814 311.600 C 227.155 311.600,226.334 312.897,226.495 313.684 C 226.580 314.104,206.206 314.219,116.700 314.301 L 6.800 314.401 6.800 313.001 C 6.800 312.230,6.620 311.600,6.400 311.600 C 6.140 311.600,6.000 317.133,6.000 327.400 M193.058 328.700 C 192.818 341.207,192.524 342.171,188.777 342.759 C 186.878 343.057,25.194 343.058,24.200 342.760 C 21.747 342.024,20.524 340.954,20.165 339.226 C 20.048 338.662,19.783 337.887,19.576 337.505 C 19.369 337.123,19.200 332.848,19.200 328.005 L 19.200 319.200 106.221 319.200 L 193.241 319.200 193.058 328.700 M293.467 331.067 C 293.320 331.213,293.200 334.183,293.200 337.667 L 293.200 344.000 331.200 344.000 L 369.200 344.000 369.200 337.400 L 369.200 330.800 331.467 330.800 C 310.713 330.800,293.613 330.920,293.467 331.067 M293.290 362.500 L 293.400 369.000 300.100 369.110 L 306.800 369.219 306.800 362.610 L 306.800 356.000 299.990 356.000 L 293.180 356.000 293.290 362.500 M318.400 362.600 L 318.400 369.200 343.800 369.200 L 369.200 369.200 369.200 362.600 L 369.200 356.000 343.800 356.000 L 318.400 356.000 318.400 362.600 M137.200 361.376 C 137.200 363.996,137.371 366.058,137.600 366.200 C 137.820 366.336,138.000 367.247,138.000 368.224 C 138.000 369.201,138.180 370.000,138.400 370.000 C 138.620 370.000,138.800 370.630,138.800 371.400 C 138.800 372.170,138.980 372.800,139.200 372.800 C 139.420 372.800,139.600 373.250,139.600 373.800 C 139.600 374.350,139.780 374.800,140.000 374.800 C 140.220 374.800,140.400 375.250,140.400 375.800 C 140.400 376.350,140.580 376.800,140.800 376.800 C 141.020 376.800,141.200 377.145,141.200 377.567 C 141.200 377.988,141.352 378.393,141.538 378.467 C 141.724 378.540,141.998 379.095,142.146 379.700 L 142.415 380.800 106.208 380.800 C 82.336 380.800,70.000 380.664,70.000 380.400 C 70.000 380.180,70.180 380.000,70.400 380.000 C 70.620 380.000,70.800 379.640,70.800 379.200 C 70.800 378.760,70.980 378.400,71.200 378.400 C 71.420 378.400,71.600 378.040,71.600 377.600 C 71.600 377.160,71.780 376.800,72.000 376.800 C 72.220 376.800,72.400 376.260,72.400 375.600 C 72.400 374.940,72.541 374.400,72.713 374.400 C 72.885 374.400,73.258 373.545,73.543 372.500 C 73.827 371.455,74.246 370.150,74.473 369.600 C 74.701 369.050,74.984 365.945,75.102 362.700 L 75.316 356.800 106.258 356.800 L 137.200 356.800 137.200 361.376 "
              stroke="none" fill="#8c40f9" fill-rule="evenodd"></path>
        <path id="path2"
              d="M85.232 173.038 C 85.571 173.447,85.826 173.522,85.920 173.241 C 86.001 172.996,86.278 172.915,86.534 173.062 C 86.790 173.208,86.860 173.175,86.690 172.987 C 86.040 172.273,84.637 172.322,85.232 173.038 M80.800 175.500 C 80.800 175.775,80.620 176.000,80.400 176.000 C 80.180 176.000,80.000 175.806,80.000 175.569 C 80.000 175.139,77.380 175.137,76.600 175.567 C 76.188 175.794,75.925 175.864,75.151 175.950 C 74.851 175.983,74.884 176.225,75.251 176.677 C 75.624 177.137,75.640 177.257,75.300 177.053 C 74.903 176.814,74.800 181.024,74.800 197.576 L 74.800 218.400 47.728 218.400 C 28.562 218.400,20.240 218.533,19.228 218.856 C 17.092 219.538,14.400 220.880,14.400 221.263 C 14.400 221.448,14.150 221.600,13.843 221.600 C 13.038 221.600,9.408 225.332,8.811 226.774 C 8.532 227.448,8.174 228.000,8.015 228.000 C 7.857 228.000,7.487 228.765,7.192 229.700 C 6.897 230.635,6.506 231.601,6.323 231.847 C 6.140 232.093,6.037 238.933,6.095 247.047 L 6.200 261.800 12.259 261.910 L 18.318 262.020 18.595 260.110 C 18.747 259.060,18.954 253.610,19.056 248.000 C 19.157 242.361,19.410 237.630,19.620 237.420 C 19.829 237.211,20.000 236.580,20.000 236.017 C 20.000 234.717,22.443 232.400,23.813 232.400 C 24.356 232.400,24.800 232.220,24.800 232.000 C 24.800 231.735,52.200 231.600,106.200 231.600 C 160.200 231.600,187.600 231.735,187.600 232.000 C 187.600 232.220,188.146 232.400,188.813 232.400 C 190.147 232.400,192.466 234.395,192.773 235.806 C 192.868 236.243,193.052 244.250,193.183 253.600 C 193.314 262.950,193.461 268.620,193.510 266.200 L 193.599 261.800 199.799 261.920 L 206.000 262.039 206.057 260.320 L 206.114 258.600 206.400 260.200 C 206.558 261.080,206.712 255.273,206.743 247.295 C 206.774 239.317,206.641 232.477,206.446 232.095 C 206.251 231.713,205.680 230.455,205.177 229.300 C 204.675 228.145,204.114 227.200,203.932 227.200 C 203.749 227.200,203.600 226.942,203.600 226.626 C 203.600 225.987,199.373 221.600,198.757 221.600 C 198.542 221.600,197.980 221.240,197.508 220.800 C 197.036 220.360,196.323 220.000,195.925 220.000 C 195.526 220.000,195.200 219.820,195.200 219.600 C 195.200 219.380,194.786 219.200,194.280 219.200 C 193.774 219.200,193.181 219.021,192.962 218.802 C 192.707 218.547,180.968 218.368,160.182 218.302 L 127.800 218.200 127.677 216.500 C 127.609 215.565,127.384 214.800,127.177 214.800 C 126.970 214.800,126.800 213.915,126.800 212.833 C 126.800 211.752,126.608 210.803,126.373 210.724 C 125.782 210.527,125.787 189.471,126.378 189.274 C 126.610 189.197,126.800 188.169,126.800 186.990 C 126.800 185.812,126.941 184.760,127.113 184.654 C 127.285 184.548,127.470 183.869,127.525 183.146 C 127.580 182.423,127.761 181.734,127.926 181.616 C 128.091 181.497,128.251 180.950,128.281 180.400 C 128.312 179.850,128.399 178.725,128.475 177.900 C 128.551 177.075,128.476 176.400,128.307 176.400 C 128.138 176.400,128.000 176.237,128.000 176.037 C 128.000 175.838,128.340 175.764,128.755 175.872 C 129.668 176.111,130.243 175.379,129.398 175.054 C 129.069 174.928,128.800 174.954,128.801 175.113 C 128.801 175.271,126.176 175.346,122.967 175.279 C 118.620 175.189,116.968 175.291,116.489 175.679 C 116.010 176.068,115.923 176.073,116.147 175.700 C 116.335 175.387,116.219 175.200,115.836 175.200 C 115.483 175.200,115.314 175.431,115.436 175.748 C 115.551 176.050,115.345 176.412,114.978 176.553 C 114.436 176.761,114.403 176.922,114.804 177.405 C 115.147 177.818,115.161 178.000,114.849 178.000 C 114.602 178.000,114.400 178.439,114.400 178.976 C 114.400 179.513,114.238 180.053,114.041 180.175 C 113.844 180.297,113.712 181.024,113.748 181.791 C 113.788 182.657,113.604 183.266,113.262 183.398 C 112.795 183.577,112.794 183.714,113.255 184.282 C 113.555 184.651,113.596 184.832,113.348 184.683 C 111.953 183.847,111.841 214.735,113.234 216.180 C 113.435 216.389,113.600 216.974,113.600 217.480 L 113.600 218.400 100.800 218.400 L 88.000 218.400 88.000 202.400 C 88.000 188.444,88.077 186.400,88.600 186.400 C 88.930 186.400,89.200 186.220,89.200 186.000 C 89.200 185.780,89.639 185.600,90.176 185.600 C 90.713 185.600,91.264 185.420,91.400 185.200 C 91.536 184.980,92.076 184.800,92.600 184.800 C 93.124 184.800,93.664 184.620,93.800 184.400 C 93.936 184.180,94.577 184.000,95.224 184.000 C 95.871 184.000,96.400 183.820,96.400 183.600 C 96.400 183.380,96.762 183.200,97.205 183.200 C 97.648 183.200,98.323 183.035,98.705 182.833 C 99.087 182.632,99.985 182.250,100.700 181.985 C 101.415 181.720,102.000 181.334,102.000 181.128 C 102.000 180.922,102.186 180.868,102.413 181.008 C 102.677 181.171,102.770 180.754,102.670 179.851 C 102.583 179.057,102.687 178.474,102.907 178.519 C 103.732 178.689,103.580 177.710,102.711 177.254 C 102.121 176.944,102.066 176.853,102.557 176.997 C 103.226 177.193,103.249 177.140,102.757 176.534 C 102.262 175.927,102.285 175.882,102.957 176.134 C 103.593 176.373,103.634 176.323,103.218 175.821 C 102.542 175.007,80.799 174.695,80.800 175.500 M224.800 178.400 L 224.800 181.600 248.600 181.600 L 272.400 181.600 272.400 183.376 C 272.400 184.353,272.580 185.264,272.800 185.400 C 273.020 185.536,273.200 186.436,273.200 187.400 C 273.200 188.364,273.380 189.264,273.600 189.400 C 273.832 189.543,274.000 191.745,274.000 194.647 C 274.000 197.664,274.149 199.555,274.376 199.415 C 274.582 199.287,274.725 199.534,274.693 199.964 C 274.660 200.393,274.507 200.666,274.351 200.570 C 274.196 200.474,274.050 202.691,274.027 205.498 C 274.003 208.437,273.819 210.657,273.592 210.733 C 273.377 210.807,273.200 211.741,273.200 212.810 C 273.200 213.878,273.020 214.864,272.800 215.000 C 272.580 215.136,272.400 215.957,272.400 216.824 C 272.400 217.691,272.220 218.400,272.000 218.400 C 271.780 218.400,271.600 219.041,271.600 219.824 C 271.600 220.694,271.441 221.149,271.190 220.994 C 270.965 220.855,270.830 220.889,270.890 221.070 C 271.074 221.623,269.878 225.600,269.528 225.600 C 269.347 225.600,269.200 226.050,269.200 226.600 C 269.200 227.150,269.020 227.600,268.800 227.600 C 268.580 227.600,268.400 228.050,268.400 228.600 C 268.400 229.150,268.220 229.600,268.000 229.600 C 267.780 229.600,267.600 229.852,267.600 230.159 C 267.600 230.852,264.572 236.698,263.954 237.200 C 263.818 237.310,263.302 238.199,262.807 239.175 C 262.312 240.151,261.658 241.199,261.354 241.503 C 261.049 241.808,260.800 242.197,260.800 242.367 C 260.800 242.640,260.346 243.258,258.807 245.083 C 258.583 245.349,258.400 245.716,258.400 245.900 C 258.400 246.083,257.680 246.895,256.800 247.704 C 255.920 248.513,255.200 249.317,255.200 249.491 C 255.200 249.665,254.840 250.032,254.400 250.307 C 253.960 250.582,253.600 250.977,253.600 251.185 C 253.600 251.692,251.670 253.600,251.158 253.600 C 250.935 253.600,250.864 253.780,251.000 254.000 C 251.136 254.220,250.967 254.400,250.624 254.400 C 250.281 254.400,250.000 254.580,250.000 254.800 C 250.000 255.020,249.759 255.200,249.464 255.200 C 249.170 255.200,248.719 255.660,248.463 256.223 C 248.206 256.785,247.817 257.134,247.598 256.999 C 247.379 256.864,247.200 257.044,247.200 257.400 C 247.200 257.756,247.065 257.965,246.900 257.866 C 246.509 257.629,245.574 258.640,245.891 258.957 C 246.024 259.091,245.923 259.223,245.667 259.250 C 245.410 259.278,245.020 259.345,244.800 259.400 C 244.580 259.455,244.208 259.522,243.973 259.550 C 243.738 259.578,243.656 259.945,243.789 260.367 C 243.984 260.980,243.876 261.093,243.249 260.929 C 242.818 260.816,242.136 260.932,241.733 261.186 C 241.092 261.590,241.140 261.627,242.110 261.478 C 242.720 261.384,243.315 261.463,243.433 261.654 C 243.551 261.844,247.306 262.000,251.777 262.000 C 260.265 262.000,261.532 262.308,259.874 263.966 C 259.635 264.205,259.611 264.394,259.820 264.387 C 260.029 264.380,261.079 263.255,262.154 261.887 C 263.228 260.519,264.173 259.445,264.254 259.500 C 264.560 259.709,265.322 259.589,265.100 259.367 C 264.868 259.135,266.392 257.400,266.829 257.400 C 267.210 257.400,268.400 256.084,268.400 255.662 C 268.400 255.445,268.535 255.207,268.700 255.133 C 269.180 254.920,271.200 252.094,271.200 251.636 C 271.200 251.406,271.648 250.925,272.197 250.565 C 272.745 250.206,273.093 249.751,272.971 249.553 C 272.849 249.356,273.001 249.098,273.310 248.979 C 273.618 248.861,274.382 247.692,275.009 246.382 C 275.635 245.072,276.294 244.000,276.474 244.000 C 276.653 244.000,276.800 243.640,276.800 243.200 C 276.800 242.760,276.958 242.400,277.151 242.400 C 277.345 242.400,277.740 241.815,278.029 241.100 C 278.318 240.385,278.655 239.710,278.777 239.600 C 279.249 239.176,280.000 237.583,280.000 237.005 C 280.000 236.672,280.180 236.400,280.400 236.400 C 280.620 236.400,280.800 236.128,280.800 235.795 C 280.800 235.462,280.980 234.832,281.200 234.395 C 281.420 233.958,281.780 233.242,282.000 232.805 C 282.220 232.368,282.400 231.738,282.400 231.405 C 282.400 231.072,282.580 230.800,282.800 230.800 C 283.020 230.800,283.200 230.271,283.200 229.624 C 283.200 228.977,283.380 228.336,283.600 228.200 C 283.820 228.064,284.000 227.513,284.000 226.976 C 284.000 226.439,284.180 226.000,284.400 226.000 C 284.620 226.000,284.800 225.471,284.800 224.824 C 284.800 224.177,284.980 223.536,285.200 223.400 C 285.420 223.264,285.600 222.544,285.600 221.800 C 285.600 221.056,285.780 220.336,286.000 220.200 C 286.220 220.064,286.400 219.153,286.400 218.176 C 286.400 217.199,286.565 216.400,286.766 216.400 C 287.516 216.400,288.444 191.597,287.753 190.024 C 287.357 189.123,287.239 188.435,287.113 186.300 C 287.051 185.255,286.895 184.400,286.767 184.400 C 286.638 184.400,286.526 184.175,286.518 183.900 C 286.509 183.625,286.458 183.220,286.404 183.000 C 286.063 181.615,286.200 181.600,299.310 181.600 L 312.220 181.600 312.062 197.491 C 311.893 214.525,311.915 214.351,309.895 214.387 C 309.507 214.394,308.877 214.558,308.495 214.751 C 307.433 215.287,305.024 216.000,304.272 216.000 C 303.902 216.000,303.600 216.180,303.600 216.400 C 303.600 216.620,303.060 216.800,302.400 216.800 C 301.740 216.800,301.200 216.980,301.200 217.200 C 301.200 217.420,300.660 217.600,300.000 217.600 C 299.340 217.600,298.800 217.780,298.800 218.000 C 298.800 218.220,298.459 218.400,298.042 218.400 C 297.473 218.400,297.227 218.774,297.057 219.900 C 296.516 223.480,296.291 224.400,295.956 224.400 C 295.760 224.400,295.600 224.882,295.600 225.472 C 295.600 226.507,295.118 228.324,294.291 230.400 C 293.422 232.583,293.250 233.050,292.838 234.346 C 292.602 235.086,292.508 235.851,292.628 236.046 C 292.749 236.241,292.657 236.400,292.424 236.400 C 292.191 236.400,292.000 236.760,292.000 237.200 C 292.000 237.640,291.820 238.000,291.600 238.000 C 291.380 238.000,291.200 238.540,291.200 239.200 C 291.200 239.860,291.020 240.400,290.800 240.400 C 290.580 240.400,290.400 240.760,290.400 241.200 C 290.400 241.640,290.220 242.000,290.000 242.000 C 289.780 242.000,289.600 242.371,289.600 242.824 C 289.600 243.277,289.420 243.536,289.200 243.400 C 288.973 243.260,288.800 243.596,288.800 244.176 C 288.800 244.739,288.620 245.200,288.400 245.200 C 288.180 245.200,288.000 245.470,288.000 245.800 C 288.000 246.130,287.865 246.401,287.700 246.403 C 287.335 246.407,286.400 248.349,286.400 249.103 C 286.400 249.402,286.220 249.536,286.000 249.400 C 285.780 249.264,285.600 249.534,285.600 250.000 C 285.600 250.539,285.432 250.743,285.138 250.562 C 284.884 250.405,284.774 250.439,284.893 250.638 C 285.169 251.101,283.798 253.664,283.456 253.323 C 283.315 253.182,283.200 253.367,283.200 253.733 C 283.200 254.100,283.020 254.400,282.800 254.400 C 282.181 254.400,282.328 257.042,282.976 257.580 C 283.293 257.843,283.443 258.345,283.308 258.695 C 283.157 259.088,283.227 259.231,283.490 259.068 C 283.857 258.841,284.456 259.621,284.565 260.467 C 284.584 260.613,284.723 260.856,284.872 261.006 C 285.022 261.156,285.048 261.531,284.930 261.839 C 284.811 262.148,284.914 262.400,285.157 262.400 C 285.401 262.400,285.600 262.659,285.600 262.976 C 285.600 263.293,285.751 263.646,285.935 263.760 C 286.119 263.873,286.240 263.479,286.205 262.883 L 286.140 261.800 339.744 261.904 C 382.526 261.988,393.412 261.907,393.668 261.504 C 393.844 261.227,393.991 259.876,393.994 258.502 L 394.000 256.003 346.129 255.902 C 298.848 255.801,298.267 255.790,299.029 255.029 C 299.453 254.604,299.755 254.199,299.700 254.129 C 299.405 253.749,299.660 252.790,300.000 253.000 C 300.220 253.136,300.404 252.922,300.409 252.524 C 300.414 252.126,300.770 251.350,301.200 250.800 C 301.630 250.250,301.986 249.395,301.991 248.900 C 301.996 248.405,302.159 248.000,302.353 248.000 C 302.548 248.000,302.811 247.685,302.939 247.300 C 303.634 245.207,304.386 243.452,304.680 243.240 C 304.863 243.108,305.425 241.740,305.927 240.200 C 306.430 238.660,306.989 237.040,307.171 236.600 C 307.352 236.160,307.702 235.298,307.948 234.685 C 308.195 234.072,308.512 232.587,308.653 231.385 C 308.862 229.612,309.051 229.200,309.655 229.200 C 310.065 229.200,310.400 229.020,310.400 228.800 C 310.400 228.580,310.929 228.400,311.576 228.400 C 312.223 228.400,312.864 228.220,313.000 228.000 C 313.136 227.780,313.676 227.600,314.200 227.600 C 314.724 227.600,315.264 227.420,315.400 227.200 C 315.536 226.980,316.076 226.800,316.600 226.800 C 317.124 226.800,317.664 226.620,317.800 226.400 C 317.936 226.180,318.399 226.000,318.829 226.000 C 319.259 226.000,319.923 225.839,320.305 225.642 C 320.687 225.445,321.900 225.031,323.000 224.722 L 325.000 224.160 325.104 202.880 L 325.207 181.600 344.004 181.600 L 362.800 181.600 362.796 179.900 C 362.793 178.965,362.680 177.525,362.543 176.700 L 362.295 175.200 293.548 175.200 L 224.800 175.200 224.800 178.400 M256.600 192.874 C 255.940 193.058,254.233 193.223,252.807 193.240 C 249.065 193.285,248.742 193.546,248.846 196.442 C 248.894 197.758,249.069 198.919,249.237 199.023 C 249.404 199.126,249.405 199.703,249.238 200.305 C 248.762 202.025,248.703 205.893,249.149 206.169 C 249.371 206.306,250.778 206.510,252.276 206.622 C 253.774 206.734,255.450 206.929,256.000 207.054 C 257.665 207.434,260.943 207.623,261.909 207.395 L 262.818 207.180 262.709 199.890 L 262.600 192.600 260.200 192.570 C 258.880 192.553,257.260 192.690,256.600 192.874 M246.182 216.700 C 246.016 217.085,245.831 217.636,245.771 217.925 C 245.712 218.213,244.822 220.133,243.794 222.191 C 241.926 225.929,241.689 227.600,243.027 227.600 C 243.342 227.600,243.600 227.780,243.600 228.000 C 243.600 228.220,243.836 228.400,244.125 228.400 C 244.413 228.400,245.036 228.760,245.508 229.200 C 245.980 229.640,246.655 230.000,247.007 230.000 C 247.359 230.000,247.536 230.180,247.400 230.400 C 247.264 230.620,247.523 230.800,247.976 230.800 C 248.429 230.800,248.800 230.968,248.800 231.173 C 248.800 231.378,249.159 231.660,249.598 231.799 C 250.036 231.938,250.661 232.319,250.987 232.644 C 251.957 233.614,253.698 233.538,254.219 232.503 C 254.468 232.009,254.932 231.289,255.251 230.903 C 255.792 230.249,257.123 227.569,257.242 226.897 C 257.271 226.734,257.543 226.245,257.847 225.811 C 258.151 225.377,258.401 224.747,258.402 224.411 C 258.404 224.075,258.674 223.284,259.002 222.654 C 260.020 220.703,259.422 219.200,257.629 219.200 C 257.173 219.200,256.800 219.020,256.800 218.800 C 256.800 218.580,256.527 218.400,256.194 218.400 C 255.224 218.400,252.400 217.434,252.400 217.103 C 252.400 216.936,251.860 216.800,251.200 216.800 C 250.540 216.800,250.000 216.620,250.000 216.400 C 250.000 215.655,246.517 215.928,246.182 216.700 M234.225 235.274 C 233.799 235.521,232.792 236.416,231.987 237.262 C 231.182 238.108,230.361 238.809,230.162 238.820 C 229.963 238.830,229.131 239.505,228.313 240.320 L 226.827 241.800 228.413 244.090 C 229.286 245.350,230.000 246.476,230.000 246.594 C 230.000 246.711,230.462 247.325,231.026 247.959 C 231.591 248.592,232.375 249.716,232.769 250.455 C 233.509 251.844,235.292 253.091,235.533 252.388 C 235.607 252.175,235.922 252.000,236.233 252.000 C 236.545 252.000,236.800 251.820,236.800 251.600 C 236.800 251.380,237.030 251.200,237.312 251.200 C 237.593 251.200,238.083 250.840,238.400 250.400 C 238.717 249.960,239.117 249.600,239.289 249.600 C 239.878 249.600,244.800 244.429,244.800 243.811 C 244.800 243.471,243.630 242.006,242.200 240.555 C 240.770 239.104,239.600 237.755,239.600 237.558 C 239.600 237.361,239.300 237.200,238.933 237.200 C 238.567 237.200,238.377 237.090,238.511 236.956 C 239.489 235.978,235.625 234.462,234.225 235.274 M236.692 264.437 C 236.302 264.664,236.088 265.018,236.215 265.225 C 236.582 265.818,237.200 265.662,237.200 264.976 C 237.200 264.633,237.380 264.464,237.600 264.600 C 237.820 264.736,238.000 264.657,238.000 264.424 C 238.000 263.898,237.610 263.902,236.692 264.437 M286.600 265.200 C 286.464 265.420,286.530 265.600,286.747 265.600 C 286.964 265.600,287.224 265.915,287.326 266.300 C 287.428 266.685,287.492 266.505,287.468 265.900 C 287.425 264.781,287.047 264.477,286.600 265.200 M270.175 287.700 L 269.000 289.000 270.300 287.825 C 271.015 287.179,271.600 286.594,271.600 286.525 C 271.600 286.216,271.270 286.488,270.175 287.700 "
              stroke="none" fill="#6463ee" fill-rule="evenodd"></path>
        <path id="path3"
              d="M120.975 121.300 L 119.800 122.600 121.100 121.425 C 122.312 120.330,122.584 120.000,122.275 120.000 C 122.206 120.000,121.621 120.585,120.975 121.300 M135.293 139.600 C 135.018 140.040,134.931 140.400,135.100 140.400 C 135.269 140.400,135.632 140.040,135.907 139.600 C 136.182 139.160,136.269 138.800,136.100 138.800 C 135.931 138.800,135.568 139.160,135.293 139.600 M248.893 200.000 C 248.893 200.770,248.975 201.085,249.076 200.700 C 249.176 200.315,249.176 199.685,249.076 199.300 C 248.975 198.915,248.893 199.230,248.893 200.000 M234.600 234.667 C 233.897 235.230,233.889 235.277,234.533 235.054 C 234.936 234.914,235.431 234.800,235.633 234.800 C 235.835 234.800,236.000 234.620,236.000 234.400 C 236.000 233.833,235.527 233.924,234.600 234.667 M271.673 250.887 C 271.413 251.147,271.200 251.535,271.200 251.749 C 271.200 251.962,270.902 252.466,270.538 252.869 C 270.174 253.271,270.053 253.600,270.270 253.600 C 270.487 253.600,270.920 253.105,271.232 252.500 C 271.544 251.895,271.974 251.275,272.188 251.122 C 272.402 250.969,272.480 250.747,272.362 250.628 C 272.243 250.510,271.934 250.626,271.673 250.887 M252.060 252.251 C 251.543 252.802,251.209 253.342,251.317 253.451 C 251.509 253.642,253.600 251.747,253.600 251.382 C 253.600 250.946,252.929 251.324,252.060 252.251 M266.005 257.991 C 265.659 258.636,265.694 258.739,266.191 258.548 C 266.526 258.420,266.800 258.064,266.800 257.757 C 266.800 256.976,266.501 257.064,266.005 257.991 M18.705 258.400 C 18.543 258.950,18.408 259.994,18.405 260.720 L 18.400 262.039 12.199 261.920 L 5.999 261.800 5.999 286.700 C 6.000 303.033,6.138 311.600,6.400 311.600 C 6.620 311.600,6.800 312.230,6.800 313.001 L 6.800 314.401 116.699 314.301 C 214.056 314.211,226.603 314.132,226.639 313.600 C 226.660 313.270,226.706 312.766,226.739 312.479 C 226.773 312.193,227.340 311.770,228.000 311.540 C 228.660 311.310,229.200 310.937,229.200 310.712 C 229.200 310.471,228.952 310.508,228.600 310.800 C 227.577 311.649,227.941 310.887,229.049 309.859 C 229.626 309.324,230.796 308.775,231.649 308.639 C 232.502 308.502,233.200 308.191,233.200 307.946 C 233.200 307.628,233.357 307.632,233.753 307.961 C 234.182 308.317,234.363 308.273,234.557 307.768 C 234.737 307.300,235.090 307.186,235.806 307.366 C 236.501 307.540,236.774 307.462,236.703 307.108 C 236.636 306.776,237.045 306.612,237.884 306.635 C 238.590 306.655,239.074 306.520,238.960 306.335 C 238.769 306.027,239.471 305.848,240.696 305.892 C 240.968 305.902,241.101 305.763,240.990 305.584 C 240.743 305.184,242.252 304.661,242.755 304.972 C 242.953 305.095,243.223 304.918,243.353 304.579 C 243.483 304.240,243.817 304.006,244.095 304.060 C 244.841 304.203,246.400 303.604,246.400 303.173 C 246.400 302.968,246.951 302.800,247.624 302.800 C 248.337 302.800,248.744 302.633,248.600 302.400 C 248.464 302.180,248.543 301.978,248.776 301.950 C 249.804 301.829,249.950 301.784,250.233 301.500 C 250.398 301.335,250.874 301.200,251.290 301.200 C 251.707 301.200,251.936 301.020,251.800 300.800 C 251.664 300.580,251.833 300.400,252.176 300.400 C 252.519 300.400,252.803 300.175,252.806 299.900 C 252.810 299.567,252.942 299.600,253.200 300.000 C 253.413 300.330,253.591 300.394,253.594 300.142 C 253.597 299.890,254.320 299.327,255.200 298.892 C 256.080 298.457,256.800 298.258,256.800 298.450 C 256.800 298.643,257.160 298.800,257.600 298.800 C 258.040 298.800,258.400 298.980,258.400 299.200 C 258.400 299.420,258.760 299.600,259.200 299.600 C 259.640 299.600,260.000 299.791,260.000 300.024 C 260.000 300.257,260.165 300.345,260.368 300.220 C 260.570 300.095,260.999 300.256,261.320 300.577 C 261.642 300.899,262.031 301.036,262.185 300.882 C 262.339 300.727,262.676 300.882,262.933 301.226 C 263.190 301.569,264.525 302.379,265.900 303.024 L 268.400 304.199 268.400 307.699 C 268.400 309.766,268.564 311.200,268.800 311.200 C 269.020 311.200,269.200 311.920,269.200 312.800 L 269.200 314.400 275.000 314.400 L 280.800 314.400 280.853 312.700 L 280.905 311.000 281.200 312.400 C 281.364 313.180,281.518 309.852,281.547 304.887 C 281.597 296.457,281.642 295.959,282.376 295.687 C 282.803 295.529,283.138 295.220,283.121 295.000 C 283.104 294.780,283.486 294.398,283.970 294.151 C 284.454 293.903,284.884 293.543,284.925 293.351 C 284.966 293.158,285.135 293.045,285.300 293.100 C 285.465 293.155,285.555 292.975,285.500 292.700 C 285.445 292.425,285.625 292.245,285.900 292.300 C 286.175 292.355,286.355 292.175,286.300 291.900 C 286.245 291.625,286.425 291.445,286.700 291.500 C 286.975 291.555,287.155 291.375,287.100 291.100 C 287.045 290.825,287.225 290.645,287.500 290.700 C 287.775 290.755,288.000 290.519,288.000 290.176 C 288.000 289.833,288.180 289.664,288.400 289.800 C 288.620 289.936,288.800 289.767,288.800 289.424 C 288.800 289.081,289.070 288.800,289.400 288.800 C 289.730 288.800,289.955 288.575,289.900 288.300 C 289.845 288.025,290.025 287.845,290.300 287.900 C 290.575 287.955,290.755 287.790,290.700 287.533 C 290.645 287.276,291.004 286.855,291.498 286.597 C 291.991 286.339,292.302 286.035,292.188 285.921 C 292.074 285.807,292.265 285.478,292.613 285.189 C 292.961 284.901,293.214 284.830,293.175 285.032 C 293.137 285.235,293.161 292.870,293.228 302.000 C 293.296 311.190,293.462 316.993,293.600 315.000 C 293.737 313.020,293.883 312.075,293.924 312.900 L 294.000 314.400 331.200 314.400 L 368.400 314.400 368.400 313.024 C 368.400 312.267,368.580 311.536,368.800 311.400 C 369.055 311.242,369.200 305.663,369.200 295.976 L 369.200 280.800 333.500 280.753 C 313.865 280.727,297.652 280.731,297.470 280.763 C 297.289 280.794,297.255 280.635,297.394 280.410 C 297.533 280.184,297.917 280.000,298.247 280.000 C 298.577 280.000,298.736 279.820,298.600 279.600 C 298.464 279.380,298.644 279.200,299.000 279.200 C 299.356 279.200,299.545 279.035,299.420 278.832 C 299.120 278.347,300.356 277.126,300.842 277.426 C 301.050 277.554,301.194 277.511,301.163 277.330 C 301.015 276.480,301.253 276.000,301.824 276.000 C 302.167 276.000,302.336 275.820,302.200 275.600 C 302.064 275.380,302.246 275.200,302.605 275.200 C 302.964 275.200,303.527 274.930,303.857 274.600 C 304.187 274.270,304.315 274.000,304.142 274.000 C 303.968 274.000,304.294 273.624,304.866 273.163 C 305.762 272.442,306.117 270.434,305.255 270.966 C 305.115 271.053,304.974 270.691,304.942 270.162 L 304.885 269.200 342.835 269.200 L 380.786 269.200 380.934 290.300 C 381.015 301.905,381.217 312.075,381.384 312.900 L 381.688 314.400 387.587 314.400 L 393.486 314.400 393.743 311.941 C 394.117 308.360,394.046 260.908,393.668 261.504 C 393.412 261.907,382.526 261.988,339.744 261.904 L 286.140 261.800 286.205 262.883 C 286.240 263.479,286.119 263.873,285.935 263.760 C 285.421 263.442,285.538 263.995,286.104 264.561 C 286.381 264.838,286.876 264.976,287.204 264.867 C 287.730 264.693,287.729 264.757,287.200 265.412 C 286.737 265.984,286.727 266.077,287.158 265.817 C 287.602 265.550,287.662 265.699,287.451 266.540 C 287.293 267.167,287.351 267.600,287.592 267.600 C 287.817 267.600,288.000 268.241,288.000 269.024 C 288.000 269.807,287.865 270.365,287.700 270.266 C 287.309 270.029,286.374 271.040,286.691 271.357 C 286.824 271.491,286.633 271.600,286.267 271.600 C 285.900 271.600,285.600 271.881,285.600 272.224 C 285.600 272.567,285.420 272.736,285.200 272.600 C 284.980 272.464,284.800 272.644,284.800 273.000 C 284.800 273.356,284.620 273.536,284.400 273.400 C 284.180 273.264,284.000 273.444,284.000 273.800 C 284.000 274.156,283.865 274.365,283.700 274.266 C 283.535 274.166,283.168 274.335,282.884 274.642 C 282.601 274.949,282.490 275.200,282.638 275.200 C 282.787 275.200,282.389 275.603,281.754 276.096 C 280.271 277.247,277.247 280.271,276.096 281.754 C 275.603 282.389,275.200 282.787,275.200 282.638 C 275.200 282.490,274.949 282.601,274.642 282.884 C 274.335 283.168,274.166 283.535,274.266 283.700 C 274.365 283.865,274.156 284.000,273.800 284.000 C 273.444 284.000,273.264 284.180,273.400 284.400 C 273.536 284.620,273.356 284.800,273.000 284.800 C 272.644 284.800,272.464 284.980,272.600 285.200 C 272.736 285.420,272.609 285.600,272.318 285.600 C 272.028 285.600,271.605 286.005,271.380 286.500 C 271.155 286.995,270.739 287.351,270.456 287.290 C 270.172 287.230,270.042 287.344,270.166 287.545 C 270.290 287.745,270.094 288.155,269.731 288.455 C 269.215 288.881,269.033 288.891,268.902 288.500 C 268.809 288.225,268.478 288.000,268.167 288.000 C 267.855 288.000,267.600 287.820,267.600 287.600 C 267.600 287.380,267.240 287.200,266.800 287.200 C 266.360 287.200,266.000 287.020,266.000 286.800 C 266.000 286.580,265.550 286.400,265.000 286.400 C 264.450 286.400,264.000 286.220,264.000 286.000 C 264.000 285.780,263.505 285.597,262.900 285.594 C 262.043 285.589,261.932 285.502,262.400 285.200 C 262.885 284.886,262.828 284.811,262.100 284.806 C 261.605 284.803,261.200 284.620,261.200 284.400 C 261.200 284.180,260.966 284.000,260.680 284.000 C 259.944 284.000,258.007 283.059,258.003 282.700 C 257.994 281.867,254.064 282.630,253.200 283.632 C 253.090 283.760,252.415 284.119,251.700 284.430 C 250.985 284.741,250.400 285.131,250.400 285.298 C 250.400 285.464,250.029 285.600,249.576 285.600 C 249.123 285.600,248.864 285.780,249.000 286.000 C 249.136 286.220,248.922 286.404,248.524 286.409 C 248.126 286.414,247.350 286.770,246.800 287.200 C 246.250 287.630,245.575 287.986,245.300 287.991 C 245.025 287.996,244.800 288.180,244.800 288.400 C 244.800 288.620,244.530 288.800,244.200 288.800 C 243.870 288.800,243.600 288.942,243.600 289.115 C 243.600 289.288,243.198 289.460,242.706 289.497 C 242.214 289.534,241.749 289.752,241.673 289.982 C 241.596 290.212,241.098 290.400,240.567 290.400 C 240.035 290.400,239.600 290.537,239.600 290.704 C 239.600 290.871,239.221 291.244,238.758 291.533 C 238.061 291.969,237.968 291.968,238.217 291.530 C 238.459 291.104,238.412 291.098,237.979 291.500 C 237.682 291.775,237.116 292.000,236.720 292.000 C 236.324 292.000,236.000 292.191,236.000 292.425 C 236.000 292.659,235.685 292.802,235.300 292.743 C 234.915 292.684,234.191 292.861,233.692 293.137 C 233.192 293.412,232.620 293.536,232.419 293.412 C 232.219 293.288,231.942 293.370,231.804 293.593 C 231.666 293.817,231.149 294.000,230.656 294.000 C 230.163 294.000,229.589 294.165,229.380 294.367 C 229.171 294.568,228.640 294.793,228.200 294.867 C 227.760 294.940,227.310 295.118,227.200 295.261 C 227.090 295.405,226.370 295.585,225.600 295.661 C 224.830 295.738,224.101 295.933,223.980 296.095 C 223.859 296.257,223.183 296.452,222.478 296.530 C 221.773 296.607,221.078 296.789,220.932 296.935 C 220.786 297.081,220.287 297.200,219.822 297.200 C 218.815 297.200,217.600 298.502,217.600 299.581 C 217.600 300.005,217.408 300.472,217.173 300.617 C 216.938 300.762,216.834 301.112,216.943 301.395 C 217.051 301.677,216.919 302.244,216.649 302.654 C 216.379 303.064,216.179 303.670,216.204 304.000 C 216.230 304.330,215.997 304.904,215.686 305.275 C 215.376 305.646,215.223 306.114,215.348 306.316 C 215.473 306.517,215.329 307.017,215.030 307.427 C 214.654 307.941,214.595 308.462,214.841 309.109 C 215.062 309.690,215.054 309.957,214.819 309.812 C 214.181 309.417,213.518 311.099,213.975 311.952 C 214.356 312.665,214.155 312.708,210.189 312.772 C 206.212 312.835,206.000 312.797,206.000 312.019 C 206.000 311.569,206.180 311.200,206.400 311.200 C 206.657 311.200,206.800 307.067,206.800 299.600 L 206.800 288.000 209.024 288.000 C 210.404 288.000,211.153 287.848,211.000 287.600 C 210.847 287.352,211.588 287.200,212.953 287.200 C 214.163 287.200,215.244 287.053,215.355 286.872 C 215.467 286.692,216.512 286.502,217.679 286.450 C 218.845 286.398,219.860 286.186,219.933 285.978 C 220.007 285.770,220.761 285.600,221.610 285.600 C 222.458 285.600,223.264 285.420,223.400 285.200 C 223.536 284.980,224.076 284.800,224.600 284.800 C 225.124 284.800,225.664 284.620,225.800 284.400 C 225.936 284.180,226.476 284.000,227.000 284.000 C 227.524 284.000,228.064 283.820,228.200 283.600 C 228.336 283.380,228.887 283.200,229.424 283.200 C 229.961 283.200,230.400 283.020,230.400 282.800 C 230.400 282.580,230.839 282.400,231.376 282.400 C 231.913 282.400,232.464 282.220,232.600 282.000 C 232.736 281.780,233.287 281.600,233.824 281.600 C 234.361 281.600,234.800 281.435,234.800 281.233 C 234.800 281.031,235.867 280.452,237.170 279.946 C 238.474 279.441,239.453 278.886,239.347 278.714 C 239.240 278.541,239.398 278.400,239.697 278.400 C 240.451 278.400,242.393 277.465,242.397 277.100 C 242.399 276.935,242.760 276.800,243.200 276.800 C 243.640 276.800,244.000 276.620,244.000 276.400 C 244.000 276.180,244.270 276.000,244.600 276.000 C 244.930 276.000,245.200 275.841,245.200 275.647 C 245.200 275.303,246.696 274.670,247.300 274.757 C 247.465 274.781,247.600 274.536,247.600 274.213 C 247.600 273.856,247.835 273.715,248.197 273.854 C 248.537 273.985,248.899 273.808,249.039 273.444 C 249.173 273.092,249.421 272.889,249.588 272.993 C 249.756 273.096,250.215 272.825,250.609 272.391 C 251.002 271.956,251.547 271.600,251.819 271.600 C 252.092 271.600,252.422 271.319,252.554 270.975 C 252.686 270.631,252.955 270.449,253.152 270.570 C 253.348 270.692,253.603 270.433,253.717 269.996 C 253.831 269.558,254.211 269.200,254.560 269.200 C 255.365 269.200,257.242 267.591,256.963 267.140 C 256.765 266.819,257.377 266.628,258.149 266.769 C 258.341 266.804,258.400 266.578,258.281 266.266 C 258.148 265.921,258.451 265.523,259.054 265.248 C 259.599 265.000,259.942 264.630,259.816 264.426 C 259.690 264.222,259.753 263.953,259.956 263.827 C 260.159 263.702,260.231 263.239,260.116 262.800 C 259.915 262.033,259.569 262.000,251.777 262.000 C 247.306 262.000,243.550 261.843,243.432 261.652 C 243.214 261.298,240.168 261.699,239.727 262.140 C 239.595 262.272,239.702 262.641,239.965 262.958 C 240.471 263.567,239.546 263.679,238.948 263.082 C 238.491 262.624,237.630 263.613,237.892 264.295 C 238.054 264.717,237.978 264.834,237.668 264.642 C 237.387 264.468,237.200 264.602,237.200 264.976 C 237.200 265.706,236.573 265.804,236.162 265.138 C 235.973 264.833,236.054 264.786,236.400 265.000 C 236.746 265.214,236.827 265.167,236.638 264.862 C 236.245 264.226,235.600 264.281,235.600 264.950 C 235.600 265.438,233.533 266.210,232.670 266.044 C 232.489 266.009,232.455 266.165,232.594 266.390 C 232.736 266.621,232.477 266.800,232.000 266.800 C 231.534 266.800,231.264 266.980,231.400 267.200 C 231.536 267.420,231.412 267.601,231.124 267.602 C 230.836 267.604,230.150 267.834,229.600 268.113 C 229.050 268.393,228.330 268.611,228.000 268.597 C 227.670 268.584,227.310 268.669,227.200 268.787 C 226.705 269.315,225.140 270.000,224.429 270.000 C 223.999 270.000,223.536 270.180,223.400 270.400 C 223.264 270.620,222.803 270.800,222.376 270.800 C 221.949 270.800,221.600 270.980,221.600 271.200 C 221.600 271.420,220.891 271.600,220.024 271.600 C 219.157 271.600,218.336 271.780,218.200 272.000 C 218.064 272.220,217.153 272.400,216.176 272.400 C 215.199 272.400,214.400 272.580,214.400 272.800 C 214.400 273.020,213.590 273.200,212.600 273.200 C 211.610 273.200,210.800 273.380,210.800 273.600 C 210.800 273.820,209.900 274.000,208.800 274.000 L 206.800 274.000 206.770 268.100 C 206.754 264.855,206.597 261.390,206.420 260.400 L 206.100 258.600 206.050 260.320 L 206.000 262.039 199.858 261.920 L 193.717 261.800 193.458 268.364 C 193.316 271.974,193.200 281.919,193.200 290.464 L 193.200 306.000 106.203 306.000 L 19.206 306.000 19.103 281.700 C 19.046 268.335,18.867 257.850,18.705 258.400 M245.291 258.406 C 244.341 259.176,244.612 259.817,245.619 259.180 C 245.939 258.978,246.020 258.807,245.800 258.800 C 245.580 258.793,245.665 258.620,245.988 258.416 C 246.312 258.211,246.492 257.959,246.388 257.856 C 246.285 257.753,245.791 258.000,245.291 258.406 M283.432 259.149 C 283.278 259.397,283.343 259.600,283.576 259.600 C 283.809 259.600,284.000 259.941,284.000 260.357 C 284.000 260.774,284.279 261.222,284.621 261.353 C 285.048 261.516,285.143 261.436,284.927 261.095 C 284.754 260.823,284.605 260.510,284.596 260.400 C 284.536 259.680,283.675 258.755,283.432 259.149 M263.786 260.307 C 263.898 260.601,263.821 260.736,263.613 260.608 C 263.405 260.480,262.934 260.833,262.567 261.394 C 262.037 262.203,261.783 262.318,261.340 261.950 C 261.032 261.695,260.665 261.602,260.524 261.743 C 260.382 261.884,260.487 262.000,260.757 262.000 C 261.049 262.000,261.121 262.202,260.935 262.500 C 259.529 264.753,260.587 264.593,262.990 262.190 C 265.160 260.021,265.381 259.636,264.420 259.708 C 263.898 259.748,263.658 259.974,263.786 260.307 M356.000 300.000 L 356.000 306.000 331.400 306.000 L 306.800 306.000 306.800 300.000 L 306.800 294.000 331.400 294.000 L 356.000 294.000 356.000 300.000 M215.060 312.515 C 214.950 312.787,214.849 312.692,214.832 312.300 C 214.814 311.915,214.609 311.600,214.376 311.600 C 214.143 311.600,214.078 311.397,214.232 311.149 C 214.588 310.573,215.343 311.818,215.060 312.515 "
              stroke="none" fill="#7454f4" fill-rule="evenodd"></path>
        <path id="path4"
              d="M6.060 36.700 C 6.093 53.585,6.228 66.590,6.360 65.600 L 6.600 63.800 12.490 63.689 C 19.350 63.561,18.723 63.043,18.918 69.000 C 18.983 70.980,19.073 60.585,19.118 45.900 L 19.200 19.200 68.800 19.200 L 118.400 19.200 118.463 43.500 C 118.497 56.865,118.632 66.900,118.763 65.800 L 119.000 63.800 124.890 63.689 C 131.441 63.566,130.722 63.286,131.338 66.200 C 131.431 66.640,131.528 53.275,131.554 36.500 L 131.600 6.000 68.800 6.000 L 6.000 6.000 6.060 36.700 M206.800 6.400 C 206.800 6.620,206.361 6.800,205.824 6.800 C 205.287 6.800,204.736 6.980,204.600 7.200 C 204.464 7.420,204.003 7.600,203.576 7.600 C 203.149 7.600,202.800 7.780,202.800 8.000 C 202.800 8.220,202.474 8.400,202.076 8.400 C 201.308 8.400,197.200 12.118,197.200 12.814 C 197.200 13.040,196.931 13.328,196.602 13.454 C 196.274 13.581,196.104 13.845,196.226 14.042 C 196.348 14.239,196.257 14.400,196.024 14.400 C 195.791 14.400,195.600 14.681,195.600 15.024 C 195.600 15.409,195.409 15.537,195.100 15.359 C 194.825 15.201,194.729 15.214,194.886 15.388 C 195.043 15.563,194.962 16.087,194.705 16.553 C 194.449 17.019,194.182 17.746,194.112 18.169 C 194.041 18.591,193.816 19.140,193.610 19.388 C 193.170 19.918,193.057 46.009,193.448 56.600 L 193.715 63.800 199.857 63.680 C 205.440 63.572,206.000 63.623,206.000 64.247 C 206.000 64.625,206.135 64.798,206.300 64.634 C 206.465 64.469,206.702 55.484,206.827 44.667 C 207.051 25.231,207.168 23.196,208.116 22.205 C 208.382 21.926,208.865 21.316,209.188 20.849 C 209.582 20.281,210.203 20.000,211.065 20.000 C 211.773 20.000,212.464 19.820,212.600 19.600 C 212.943 19.046,374.800 19.046,374.800 19.600 C 374.800 19.820,375.346 20.000,376.013 20.000 C 377.624 20.000,379.947 22.274,380.077 23.979 C 380.128 24.650,380.312 25.200,380.485 25.200 C 380.658 25.200,380.813 33.255,380.830 43.100 C 380.853 57.350,381.203 67.560,381.550 64.100 C 381.588 63.725,383.089 63.600,387.578 63.600 L 393.556 63.600 393.706 65.500 C 393.788 66.545,393.888 56.656,393.928 43.524 C 393.975 27.959,393.861 19.561,393.600 19.400 C 393.380 19.264,393.200 18.724,393.200 18.200 C 393.200 17.676,393.020 17.136,392.800 17.000 C 392.580 16.864,392.400 16.403,392.400 15.976 C 392.400 15.549,392.220 15.200,392.000 15.200 C 391.780 15.200,391.600 14.930,391.600 14.600 C 391.600 14.270,391.409 14.000,391.176 14.000 C 390.943 14.000,390.848 13.846,390.965 13.657 C 391.224 13.237,387.420 9.612,385.900 8.830 C 385.295 8.519,384.800 8.115,384.800 7.932 C 384.800 7.750,384.451 7.600,384.024 7.600 C 383.597 7.600,383.136 7.420,383.000 7.200 C 382.864 6.980,382.313 6.800,381.776 6.800 C 381.239 6.800,380.800 6.620,380.800 6.400 C 380.800 6.135,351.533 6.000,293.800 6.000 C 236.067 6.000,206.800 6.135,206.800 6.400 M30.800 37.400 L 30.800 44.000 56.200 44.000 L 81.600 44.000 81.600 37.400 L 81.600 30.800 56.200 30.800 L 30.800 30.800 30.800 37.400 M93.200 37.400 L 93.200 44.000 100.000 44.000 L 106.800 44.000 106.800 37.400 L 106.800 30.800 100.000 30.800 L 93.200 30.800 93.200 37.400 M30.830 58.500 C 30.857 60.788,31.433 65.268,31.550 64.100 C 31.641 63.189,105.982 63.389,106.061 64.300 C 106.147 65.283,106.697 60.198,106.753 57.900 L 106.800 56.000 68.800 56.000 L 30.800 56.000 30.830 58.500 M50.100 69.100 C 60.385 69.159,77.215 69.159,87.500 69.100 C 97.785 69.040,89.370 68.992,68.800 68.992 C 48.230 68.992,39.815 69.040,50.100 69.100 "
              stroke="none" fill="#0eadd4" fill-rule="evenodd"></path>
    </g>
</svg>