<svg id="svg" version="1.1" xmlns="http://www.w3.org/2000/svg" xmlns:xlink="http://www.w3.org/1999/xlink" width="100"
     height="100" viewBox="0, 0, 400,400">
    <g id="svgg">
        <path id="path0"
              d="M352.440 47.829 C 349.296 51.034,346.802 53.735,346.898 53.831 C 346.993 53.927,349.612 51.394,352.716 48.203 C 355.820 45.011,358.472 42.400,358.608 42.400 C 358.745 42.400,360.840 44.393,363.264 46.829 C 367.632 51.218,367.665 51.265,366.936 52.098 C 364.999 54.310,328.214 90.901,326.983 91.840 C 325.097 93.279,321.925 93.351,319.942 92.000 C 318.178 90.797,299.200 71.932,299.200 71.380 C 299.200 71.146,301.188 68.994,303.619 66.600 L 308.037 62.245 315.523 69.723 C 319.639 73.835,323.129 77.200,323.277 77.200 C 323.660 77.200,327.600 73.317,327.600 72.940 C 327.600 72.768,326.605 73.610,325.389 74.811 L 323.178 76.994 318.440 72.197 C 315.835 69.559,312.426 66.151,310.866 64.625 L 308.029 61.850 303.414 66.403 C 300.877 68.907,298.800 71.147,298.800 71.381 C 298.800 71.946,318.669 91.664,320.173 92.591 C 321.896 93.653,325.154 93.561,326.858 92.400 C 328.579 91.229,368.000 51.938,368.000 51.395 C 368.000 50.858,359.111 42.000,358.572 42.000 C 358.344 42.000,355.584 44.623,352.440 47.829 M341.834 58.402 C 339.467 60.821,337.655 62.800,337.807 62.800 C 338.229 62.800,346.535 54.402,346.323 54.190 C 346.221 54.088,344.201 55.983,341.834 58.402 M332.455 67.842 C 329.955 70.373,327.978 72.511,328.061 72.595 C 328.145 72.678,330.370 70.599,333.007 67.974 C 335.643 65.350,337.620 63.211,337.400 63.222 C 337.180 63.233,334.955 65.312,332.455 67.842 M203.680 153.680 C 203.340 154.020,203.225 155.976,203.285 160.380 L 203.369 166.600 203.585 160.200 L 203.800 153.800 250.000 153.800 L 296.200 153.800 296.415 160.200 L 296.631 166.600 296.715 160.143 C 296.788 154.573,296.713 153.652,296.167 153.443 C 294.853 152.939,204.189 153.171,203.680 153.680 M226.900 166.700 C 239.605 166.759,260.395 166.759,273.100 166.700 C 285.805 166.641,275.410 166.593,250.000 166.593 C 224.590 166.593,214.195 166.641,226.900 166.700 M203.468 180.265 C 203.098 180.635,203.128 192.708,203.500 192.939 C 203.665 193.041,203.800 190.306,203.800 186.862 L 203.800 180.600 250.000 180.600 L 296.200 180.600 296.200 186.881 C 296.200 190.335,296.340 193.021,296.511 192.850 C 296.682 192.679,296.772 189.762,296.711 186.369 L 296.600 180.200 250.168 180.098 C 224.631 180.042,203.616 180.117,203.468 180.265 M203.376 207.318 C 203.267 207.602,203.228 210.527,203.289 213.818 L 203.400 219.800 236.600 219.800 L 269.800 219.800 269.911 213.631 C 269.972 210.238,269.882 207.321,269.711 207.150 C 269.540 206.978,269.454 209.709,269.519 213.219 L 269.638 219.600 236.619 219.600 L 203.600 219.600 203.600 213.433 C 203.600 208.874,203.730 207.214,204.100 207.065 C 204.492 206.907,204.489 206.856,204.087 206.832 C 203.806 206.814,203.486 207.033,203.376 207.318 M283.376 207.318 C 283.267 207.604,283.228 210.439,283.290 213.618 L 283.403 219.400 283.602 213.099 C 283.797 206.903,283.773 206.285,283.376 207.318 M295.990 207.063 C 296.243 207.189,296.400 209.618,296.400 213.423 L 296.400 219.580 290.000 219.705 L 283.599 219.831 290.100 219.815 L 296.600 219.800 296.600 213.433 C 296.600 208.594,296.478 207.042,296.090 206.963 C 295.810 206.907,295.764 206.952,295.990 207.063 M2.800 276.300 C 2.800 286.767,2.940 292.400,3.200 292.400 C 3.420 292.400,3.600 292.929,3.600 293.576 C 3.600 294.223,3.780 294.864,4.000 295.000 C 4.220 295.136,4.400 295.877,4.400 296.647 C 4.400 297.479,4.562 297.947,4.800 297.800 C 5.020 297.664,5.200 297.923,5.200 298.376 C 5.200 298.829,5.380 299.200,5.600 299.200 C 5.820 299.200,6.000 299.470,6.000 299.800 C 6.000 300.130,6.180 300.400,6.400 300.400 C 6.620 300.400,6.800 300.760,6.800 301.200 C 6.800 301.640,6.950 302.000,7.132 302.000 C 7.315 302.000,7.717 302.471,8.025 303.047 C 8.801 304.498,12.029 308.000,12.589 308.000 C 12.842 308.000,13.400 308.327,13.829 308.727 C 14.993 309.811,19.136 312.000,20.025 312.000 C 20.451 312.000,20.800 312.180,20.800 312.400 C 20.800 312.620,21.340 312.800,22.000 312.800 C 22.660 312.800,23.200 312.980,23.200 313.200 C 23.200 313.431,24.459 313.600,26.176 313.600 C 27.813 313.600,29.264 313.780,29.400 314.000 C 29.798 314.644,169.085 314.545,169.300 313.900 C 169.576 313.072,235.786 312.968,237.046 313.793 C 238.174 314.533,370.400 314.738,370.400 314.000 C 370.400 313.767,371.733 313.600,373.600 313.600 C 375.467 313.600,376.800 313.433,376.800 313.200 C 376.800 312.980,377.340 312.800,378.000 312.800 C 378.660 312.800,379.200 312.620,379.200 312.400 C 379.200 312.180,379.740 312.000,380.400 312.000 C 381.060 312.000,381.600 311.820,381.600 311.600 C 381.600 311.380,381.960 311.200,382.400 311.200 C 382.840 311.200,383.200 311.042,383.200 310.849 C 383.200 310.655,383.740 310.273,384.400 310.000 C 385.060 309.727,385.600 309.345,385.600 309.151 C 385.600 308.958,385.860 308.800,386.177 308.800 C 386.909 308.800,391.213 304.563,391.968 303.100 C 392.280 302.495,392.685 302.000,392.868 302.000 C 393.050 302.000,393.200 301.640,393.200 301.200 C 393.200 300.760,393.380 300.400,393.600 300.400 C 393.820 300.400,394.000 300.130,394.000 299.800 C 394.000 299.470,394.180 299.200,394.400 299.200 C 394.620 299.200,394.800 298.829,394.800 298.376 C 394.800 297.923,394.980 297.664,395.200 297.800 C 395.438 297.947,395.600 297.479,395.600 296.647 C 395.600 295.877,395.780 295.136,396.000 295.000 C 396.220 294.864,396.400 294.223,396.400 293.576 C 396.400 292.929,396.580 292.400,396.800 292.400 C 397.060 292.400,397.200 286.767,397.200 276.300 L 397.200 260.200 200.000 260.200 L 2.800 260.200 2.800 276.300 M116.141 375.500 C 116.436 379.564,116.804 381.600,117.244 381.600 C 117.440 381.600,117.600 382.140,117.600 382.800 C 117.600 383.460,117.780 384.000,118.000 384.000 C 118.220 384.000,118.400 384.360,118.400 384.800 C 118.400 385.240,118.580 385.600,118.800 385.600 C 119.020 385.600,119.200 385.960,119.200 386.400 C 119.200 386.840,119.380 387.200,119.600 387.200 C 119.820 387.200,120.003 387.425,120.007 387.700 C 120.028 389.093,127.393 396.400,128.777 396.400 C 129.009 396.400,129.200 396.580,129.200 396.800 C 129.200 397.020,129.560 397.200,130.000 397.200 C 130.440 397.200,130.800 397.380,130.800 397.600 C 130.800 397.820,131.070 398.000,131.400 398.000 C 131.730 398.000,132.000 398.180,132.000 398.400 C 132.000 398.620,132.414 398.800,132.920 398.800 C 133.426 398.800,134.065 399.025,134.340 399.300 C 134.736 399.696,149.103 399.800,203.487 399.800 C 258.048 399.800,272.168 399.697,272.300 399.300 C 272.392 399.025,272.902 398.800,273.433 398.800 C 273.965 398.800,274.400 398.620,274.400 398.400 C 274.400 398.180,274.760 398.000,275.200 398.000 C 275.640 398.000,276.000 397.820,276.000 397.600 C 276.000 397.380,276.360 397.200,276.800 397.200 C 277.240 397.200,277.600 397.020,277.600 396.800 C 277.600 396.580,277.841 396.400,278.136 396.400 C 278.431 396.400,279.530 395.590,280.578 394.600 C 281.626 393.610,282.645 392.800,282.842 392.800 C 283.039 392.800,283.200 392.615,283.200 392.388 C 283.200 392.161,283.795 391.453,284.523 390.814 C 285.250 390.175,286.195 388.923,286.623 388.031 C 287.050 387.139,287.535 386.407,287.700 386.405 C 287.865 386.402,288.000 386.040,288.000 385.600 C 288.000 385.160,288.180 384.800,288.400 384.800 C 288.620 384.800,288.800 384.451,288.800 384.024 C 288.800 383.597,288.980 383.136,289.200 383.000 C 289.420 382.864,289.600 382.234,289.600 381.600 C 289.600 380.966,289.780 380.336,290.000 380.200 C 290.220 380.064,290.400 378.804,290.400 377.400 C 290.400 375.996,290.580 374.736,290.800 374.600 C 291.368 374.249,291.296 373.754,290.571 373.029 C 289.816 372.273,250.400 372.049,250.400 372.800 C 250.400 373.064,234.475 373.200,203.424 373.200 C 172.537 373.200,156.363 373.063,156.200 372.800 C 156.041 372.542,148.848 372.400,135.934 372.400 L 115.915 372.400 116.141 375.500 "
              stroke="none" fill="#64c3c3" fill-rule="evenodd"></path>
        <path id="path1"
              d="M262.836 20.043 C 262.897 54.873,263.435 80.955,264.163 84.400 C 266.918 97.438,273.638 107.327,285.229 115.400 C 288.554 117.715,296.409 123.183,304.000 128.465 C 310.525 133.005,317.606 137.952,318.833 138.829 C 323.601 142.231,329.797 146.400,330.086 146.400 C 330.392 146.400,339.108 140.457,344.400 136.639 C 346.151 135.376,353.580 130.176,358.171 127.000 C 360.079 125.680,362.936 123.686,364.520 122.569 C 366.104 121.452,369.290 119.215,371.600 117.599 C 380.642 111.272,382.994 109.236,386.573 104.641 C 391.319 98.548,395.047 90.001,396.095 82.808 C 396.352 81.044,396.706 79.600,396.881 79.600 C 397.057 79.600,397.200 61.667,397.200 39.749 L 397.200 -0.103 392.300 0.186 C 389.605 0.345,387.340 0.638,387.267 0.837 C 387.193 1.037,386.169 1.200,384.990 1.200 C 383.812 1.200,382.736 1.380,382.600 1.600 C 382.464 1.820,381.384 2.000,380.200 2.000 C 379.016 2.000,377.936 2.180,377.800 2.400 C 377.664 2.620,376.213 2.800,374.576 2.800 C 372.859 2.800,371.600 2.969,371.600 3.200 C 371.600 3.433,370.267 3.600,368.400 3.600 C 366.533 3.600,365.200 3.767,365.200 4.000 C 365.200 4.243,363.400 4.400,360.600 4.400 C 357.800 4.400,356.000 4.557,356.000 4.800 C 356.000 5.049,353.741 5.200,350.024 5.200 C 346.471 5.200,343.947 5.362,343.800 5.600 C 343.462 6.146,316.538 6.146,316.200 5.600 C 316.053 5.362,313.537 5.200,310.000 5.200 C 306.463 5.200,303.947 5.038,303.800 4.800 C 303.660 4.573,301.663 4.400,299.176 4.400 C 296.525 4.400,294.800 4.242,294.800 4.000 C 294.800 3.769,293.541 3.600,291.824 3.600 C 290.187 3.600,288.736 3.420,288.600 3.200 C 288.464 2.980,287.013 2.800,285.376 2.800 C 283.659 2.800,282.400 2.631,282.400 2.400 C 282.400 2.178,281.341 2.000,280.024 2.000 C 278.717 2.000,277.536 1.820,277.400 1.600 C 277.264 1.380,276.188 1.200,275.010 1.200 C 273.831 1.200,272.807 1.032,272.733 0.827 C 272.660 0.622,270.395 0.327,267.700 0.171 L 262.800 -0.113 262.836 20.043 M295.600 24.836 C 319.425 27.193,353.460 26.737,374.356 23.783 C 375.605 23.606,376.210 23.688,376.450 24.067 C 376.942 24.844,376.887 75.315,376.390 78.889 C 375.300 86.726,370.865 93.717,364.000 98.419 C 363.230 98.947,362.420 99.530,362.200 99.716 C 361.980 99.902,360.090 101.246,358.000 102.703 C 355.910 104.161,351.410 107.304,348.000 109.688 C 344.590 112.073,340.203 115.118,338.251 116.455 C 336.298 117.793,333.778 119.587,332.651 120.442 C 331.523 121.297,330.394 121.997,330.141 121.998 C 329.771 122.000,319.242 114.778,305.400 105.030 C 304.300 104.255,301.420 102.235,299.000 100.539 C 291.167 95.053,287.594 91.213,285.768 86.321 C 285.415 85.375,284.977 84.240,284.796 83.800 C 283.661 81.048,283.600 79.415,283.600 51.903 L 283.600 23.525 285.500 23.775 C 286.545 23.912,291.090 24.389,295.600 24.836 M77.297 73.532 C 76.900 73.784,76.816 79.390,76.897 100.225 L 77.000 126.600 129.400 126.710 C 158.220 126.770,182.205 126.721,182.700 126.602 L 183.600 126.385 183.600 100.206 C 183.600 74.734,183.579 74.017,182.826 73.614 C 181.896 73.116,78.079 73.035,77.297 73.532 M109.367 93.443 C 109.907 93.650,110.000 94.614,110.000 100.035 C 110.000 107.575,110.767 106.883,102.600 106.715 L 97.000 106.600 96.889 100.417 C 96.828 97.016,96.868 94.001,96.977 93.717 C 97.185 93.174,108.041 92.934,109.367 93.443 M136.362 93.754 C 136.675 94.132,136.786 96.262,136.711 100.454 L 136.600 106.600 130.100 106.710 L 123.600 106.820 123.600 100.277 C 123.600 96.678,123.720 93.613,123.867 93.467 C 124.427 92.906,135.876 93.169,136.362 93.754 M163.000 100.000 L 163.000 106.600 156.600 106.600 L 150.200 106.600 150.089 100.417 C 149.945 92.375,149.219 93.159,156.691 93.290 L 163.000 93.400 163.000 100.000 M110.267 160.267 C 110.120 160.413,110.000 172.383,110.000 186.867 L 110.000 213.200 136.600 213.200 L 163.200 213.200 163.200 186.600 L 163.200 160.000 136.867 160.000 C 122.383 160.000,110.413 160.120,110.267 160.267 "
              stroke="none" fill="#fb9c1d" fill-rule="evenodd"></path>
        <path id="path2"
              d="M283.600 51.903 C 283.600 79.415,283.661 81.048,284.796 83.800 C 284.977 84.240,285.415 85.375,285.768 86.321 C 287.594 91.213,291.167 95.053,299.000 100.539 C 301.420 102.235,304.300 104.255,305.400 105.030 C 319.242 114.778,329.771 122.000,330.141 121.998 C 330.394 121.997,331.523 121.297,332.651 120.442 C 333.778 119.587,336.298 117.793,338.251 116.455 C 340.203 115.118,344.590 112.073,348.000 109.688 C 351.410 107.304,355.910 104.161,358.000 102.703 C 360.090 101.246,361.980 99.902,362.200 99.716 C 362.420 99.530,363.230 98.947,364.000 98.419 C 370.865 93.717,375.300 86.726,376.390 78.889 C 376.887 75.315,376.942 24.844,376.450 24.067 C 376.210 23.688,375.605 23.606,374.356 23.783 C 350.344 27.178,311.374 27.175,285.500 23.775 L 283.600 23.525 283.600 51.903 M363.494 46.493 C 365.972 48.965,368.000 51.171,368.000 51.395 C 368.000 51.938,328.579 91.229,326.858 92.400 C 325.154 93.561,321.896 93.653,320.173 92.591 C 318.669 91.664,298.800 71.946,298.800 71.381 C 298.800 71.147,300.877 68.907,303.414 66.403 L 308.029 61.850 310.866 64.625 C 312.426 66.151,315.835 69.559,318.440 72.197 L 323.178 76.994 325.439 74.797 C 326.683 73.589,334.563 65.716,342.950 57.302 C 351.338 48.889,358.377 42.004,358.594 42.002 C 358.810 42.001,361.015 44.022,363.494 46.493 M28.000 46.000 C 27.670 46.213,26.466 46.391,25.324 46.394 C 24.182 46.397,23.136 46.580,23.000 46.800 C 22.864 47.020,22.234 47.200,21.600 47.200 C 20.966 47.200,20.336 47.380,20.200 47.600 C 20.064 47.820,19.618 48.000,19.210 48.000 C 18.801 48.000,18.407 48.135,18.333 48.300 C 18.260 48.465,17.353 49.029,16.318 49.554 C 15.282 50.078,14.075 50.843,13.634 51.254 C 13.194 51.664,12.743 52.000,12.632 52.000 C 12.004 52.000,7.613 57.153,7.605 57.900 C 7.602 58.175,7.420 58.400,7.200 58.400 C 6.980 58.400,6.800 58.655,6.800 58.967 C 6.800 59.278,6.665 59.593,6.500 59.667 C 6.009 59.885,4.400 63.216,4.400 64.014 C 4.400 64.420,4.220 64.864,4.000 65.000 C 3.780 65.136,3.600 65.766,3.600 66.400 C 3.600 67.034,3.420 67.664,3.200 67.800 C 2.935 67.964,2.800 100.449,2.800 163.957 L 2.800 259.868 58.300 260.134 C 129.612 260.475,281.343 260.475,346.500 260.134 L 397.200 259.868 397.200 169.734 C 397.200 120.160,397.057 79.600,396.881 79.600 C 396.706 79.600,396.352 81.044,396.095 82.808 C 395.047 90.001,391.319 98.548,386.573 104.641 C 382.994 109.236,380.642 111.272,371.600 117.599 C 369.290 119.215,366.104 121.452,364.520 122.569 C 362.936 123.686,360.077 125.680,358.166 127.000 C 352.086 131.201,346.253 135.289,344.520 136.564 C 343.596 137.244,339.959 139.780,336.437 142.200 L 330.034 146.600 329.917 203.000 L 329.800 259.400 203.300 259.501 L 76.800 259.601 76.800 166.608 L 76.800 73.615 77.864 73.348 C 78.450 73.201,120.392 73.213,171.070 73.376 L 263.210 73.670 263.105 59.735 L 263.000 45.800 145.800 45.706 C 70.568 45.645,28.385 45.750,28.000 46.000 M203.280 153.280 C 202.608 153.952,202.608 166.048,203.280 166.720 C 203.977 167.417,296.023 167.417,296.720 166.720 C 297.392 166.048,297.392 153.952,296.720 153.280 C 296.023 152.583,203.977 152.583,203.280 153.280 M296.167 153.443 C 297.117 153.807,297.117 166.193,296.167 166.557 C 295.340 166.875,204.660 166.875,203.833 166.557 C 203.017 166.244,202.878 154.482,203.680 153.680 C 204.189 153.171,294.853 152.939,296.167 153.443 M203.043 180.231 C 202.568 181.470,202.774 193.014,203.280 193.520 C 204.042 194.282,296.128 194.210,296.761 193.447 C 297.076 193.068,297.186 190.835,297.110 186.347 L 297.000 179.800 250.143 179.698 C 207.675 179.606,203.264 179.656,203.043 180.231 M296.600 186.600 L 296.600 193.000 250.000 193.000 L 203.400 193.000 203.289 187.018 C 203.228 183.727,203.267 180.801,203.377 180.516 C 203.539 180.094,212.256 180.016,250.088 180.098 L 296.600 180.200 296.600 186.600 M203.429 206.629 C 202.784 207.274,202.461 218.252,203.043 219.767 C 203.262 220.337,206.612 220.400,236.843 220.400 L 270.400 220.400 270.400 213.447 C 270.400 206.574,270.390 206.491,269.500 206.252 C 267.165 205.626,204.071 205.986,203.429 206.629 M283.500 206.432 C 282.742 206.873,282.420 218.783,283.136 219.910 C 283.382 220.298,285.081 220.394,290.230 220.310 L 297.000 220.200 297.110 213.602 C 297.208 207.750,297.143 206.948,296.534 206.502 C 295.683 205.880,284.550 205.820,283.500 206.432 M269.800 213.400 L 269.800 219.800 236.600 219.800 L 203.400 219.800 203.289 213.818 C 203.228 210.527,203.267 207.601,203.377 207.315 C 203.539 206.893,209.820 206.815,236.688 206.898 L 269.800 207.000 269.800 213.400 M296.600 213.400 L 296.600 219.800 290.230 219.911 C 285.402 219.994,283.782 219.897,283.536 219.511 C 283.142 218.890,283.087 207.446,283.476 207.057 C 283.628 206.905,286.643 206.830,290.176 206.890 L 296.600 207.000 296.600 213.400 M169.900 313.476 C 169.515 313.576,169.200 314.005,169.200 314.429 C 169.200 314.853,169.020 315.200,168.800 315.200 C 168.580 315.200,168.400 315.909,168.400 316.776 C 168.400 317.643,168.220 318.464,168.000 318.600 C 167.780 318.736,167.600 319.647,167.600 320.624 C 167.600 321.601,167.420 322.400,167.200 322.400 C 166.980 322.400,166.800 323.109,166.800 323.976 C 166.800 324.843,166.620 325.664,166.400 325.800 C 166.180 325.936,166.000 326.746,166.000 327.600 C 166.000 328.454,165.820 329.264,165.600 329.400 C 165.380 329.536,165.200 330.346,165.200 331.200 C 165.200 332.054,165.020 332.864,164.800 333.000 C 164.580 333.136,164.400 333.946,164.400 334.800 C 164.400 335.654,164.239 336.452,164.042 336.574 C 163.706 336.782,163.494 337.811,162.947 341.900 C 162.822 342.835,162.576 343.600,162.400 343.600 C 162.224 343.600,161.986 344.365,161.869 345.300 C 161.660 346.982,161.301 348.721,160.362 352.600 C 160.096 353.700,159.836 355.140,159.784 355.800 C 159.732 356.460,159.600 357.270,159.491 357.600 C 158.822 359.611,158.400 361.681,158.400 362.946 C 158.400 363.746,158.220 364.400,158.000 364.400 C 157.780 364.400,157.600 365.109,157.600 365.976 C 157.600 366.843,157.420 367.664,157.200 367.800 C 156.980 367.936,156.800 368.832,156.800 369.790 C 156.800 370.774,156.594 371.602,156.328 371.691 C 156.065 371.778,155.971 372.147,156.115 372.524 C 156.357 373.153,159.618 373.200,203.387 373.200 L 250.400 373.200 250.400 371.424 C 250.400 370.447,250.220 369.536,250.000 369.400 C 249.780 369.264,249.600 368.544,249.600 367.800 C 249.600 367.056,249.420 366.336,249.200 366.200 C 248.980 366.064,248.800 365.254,248.800 364.400 C 248.800 363.546,248.620 362.736,248.400 362.600 C 248.180 362.464,248.000 361.643,248.000 360.776 C 248.000 359.909,247.820 359.200,247.600 359.200 C 247.380 359.200,247.200 358.401,247.200 357.424 C 247.200 356.447,247.020 355.536,246.800 355.400 C 246.580 355.264,246.400 354.443,246.400 353.576 C 246.400 352.709,246.220 352.000,246.000 352.000 C 245.780 352.000,245.600 351.190,245.600 350.200 C 245.600 349.210,245.420 348.400,245.200 348.400 C 244.980 348.400,244.800 347.691,244.800 346.824 C 244.800 345.957,244.620 345.136,244.400 345.000 C 244.180 344.864,244.000 344.054,244.000 343.200 C 244.000 342.346,243.820 341.536,243.600 341.400 C 243.380 341.264,243.200 340.443,243.200 339.576 C 243.200 338.709,243.020 338.000,242.800 338.000 C 242.580 338.000,242.400 337.278,242.400 336.395 C 242.400 335.512,242.230 334.477,242.022 334.095 C 241.814 333.713,241.457 332.140,241.228 330.600 C 241.000 329.060,240.620 326.990,240.384 326.000 C 239.665 322.975,239.199 320.681,238.941 318.891 C 238.805 317.951,238.538 317.085,238.347 316.967 C 238.156 316.849,238.000 316.234,238.000 315.599 C 238.000 313.089,239.568 313.195,203.411 313.246 C 185.365 313.272,170.285 313.375,169.900 313.476 "
              stroke="none" fill="#ccf3f3" fill-rule="evenodd"></path>
        <path id="path3"
              d="M341.200 59.632 C 331.850 69.055,323.940 76.870,323.621 77.000 C 323.238 77.156,320.515 74.710,315.540 69.740 L 308.037 62.245 303.619 66.600 C 301.188 68.994,299.200 71.146,299.200 71.380 C 299.200 71.932,318.178 90.797,319.942 92.000 C 321.925 93.351,325.097 93.279,326.983 91.840 C 328.214 90.901,364.999 54.310,366.936 52.098 C 367.665 51.265,367.632 51.218,363.264 46.829 C 360.840 44.393,358.709 42.422,358.528 42.450 C 358.348 42.477,350.550 50.209,341.200 59.632 M96.977 93.717 C 96.868 94.001,96.828 97.016,96.889 100.417 L 97.000 106.600 102.600 106.715 C 110.767 106.883,110.000 107.575,110.000 100.035 C 110.000 94.614,109.907 93.650,109.367 93.443 C 108.041 92.934,97.185 93.174,96.977 93.717 M123.867 93.467 C 123.720 93.613,123.600 96.678,123.600 100.277 L 123.600 106.820 130.100 106.710 L 136.600 106.600 136.711 100.454 C 136.786 96.262,136.675 94.132,136.362 93.754 C 135.876 93.169,124.427 92.906,123.867 93.467 M150.180 93.707 C 150.069 93.996,150.028 97.016,150.089 100.417 L 150.200 106.600 156.600 106.600 L 163.000 106.600 163.000 100.000 L 163.000 93.400 156.691 93.290 C 151.762 93.204,150.339 93.295,150.180 93.707 M203.868 153.865 C 203.721 154.013,203.600 156.893,203.600 160.267 L 203.600 166.400 250.010 166.400 L 296.420 166.400 296.310 160.100 L 296.200 153.800 250.168 153.698 C 224.851 153.642,204.016 153.717,203.868 153.865 M203.777 180.917 C 203.667 181.203,203.627 184.039,203.689 187.218 L 203.800 193.000 250.000 193.000 L 296.200 193.000 296.200 186.800 L 296.200 180.600 250.088 180.498 C 212.546 180.416,203.939 180.493,203.777 180.917 M204.100 207.064 C 203.730 207.214,203.600 208.875,203.600 213.433 L 203.600 219.600 236.610 219.600 L 269.620 219.600 269.510 213.300 L 269.400 207.000 237.000 206.930 C 219.180 206.892,204.375 206.952,204.100 207.064 M283.867 207.067 C 283.720 207.213,283.600 210.093,283.600 213.467 L 283.600 219.600 290.000 219.600 L 296.400 219.600 296.400 213.443 C 296.400 208.197,296.306 207.250,295.767 207.043 C 294.905 206.712,284.200 206.733,283.867 207.067 "
              stroke="none" fill="#646463" fill-rule="evenodd"></path>
        <path id="path4"
              d="M183.506 99.991 L 183.611 126.382 182.706 126.601 C 182.208 126.722,158.175 126.771,129.300 126.710 L 76.800 126.600 76.800 193.101 L 76.800 259.601 203.300 259.501 L 329.800 259.400 329.901 202.987 L 330.003 146.573 324.779 142.987 C 321.906 141.014,319.250 139.166,318.878 138.880 C 318.176 138.342,315.236 136.284,304.000 128.465 C 296.409 123.183,288.554 117.715,285.229 115.400 C 271.520 105.852,264.491 93.643,263.349 77.397 L 263.082 73.600 223.241 73.600 L 183.400 73.600 183.506 99.991 M296.720 153.280 C 297.392 153.952,297.392 166.048,296.720 166.720 C 296.023 167.417,203.977 167.417,203.280 166.720 C 202.608 166.048,202.608 153.952,203.280 153.280 C 203.977 152.583,296.023 152.583,296.720 153.280 M163.200 186.600 L 163.200 213.200 136.600 213.200 L 110.000 213.200 110.000 186.867 C 110.000 172.383,110.120 160.413,110.267 160.267 C 110.413 160.120,122.383 160.000,136.867 160.000 L 163.200 160.000 163.200 186.600 M297.110 186.347 C 297.186 190.835,297.076 193.068,296.761 193.447 C 296.128 194.210,204.042 194.282,203.280 193.520 C 202.774 193.014,202.568 181.470,203.043 180.231 C 203.264 179.656,207.675 179.606,250.143 179.698 L 297.000 179.800 297.110 186.347 M269.500 206.252 C 270.390 206.491,270.400 206.574,270.400 213.447 L 270.400 220.400 236.843 220.400 C 206.612 220.400,203.262 220.337,203.043 219.767 C 202.461 218.252,202.784 207.274,203.429 206.629 C 204.071 205.986,267.165 205.626,269.500 206.252 M296.534 206.502 C 297.143 206.948,297.208 207.750,297.110 213.602 L 297.000 220.200 290.230 220.310 C 285.081 220.394,283.382 220.298,283.136 219.910 C 282.420 218.783,282.742 206.873,283.500 206.432 C 284.550 205.820,295.683 205.880,296.534 206.502 "
              stroke="none" fill="#f9f9f9" fill-rule="evenodd"></path>
    </g>
</svg>