<svg id="Layer_1" enable-background="new 0 0 512.444 512.444" height="100" viewBox="0 0 512.444 512.444" width="100"
     xmlns="http://www.w3.org/2000/svg">
    <g>
        <g>
            <g>
                <g>
                    <path d="m44.894 435.64v-358.836c0-7.82 2.882-14.968 7.641-20.438 5.712-6.565 14.127-10.715 23.512-10.715h358.46c17.206 0 31.153 13.948 31.153 31.153v358.836c0 17.206-13.948 31.153-31.153 31.153h-358.459c-17.206 0-31.154-13.947-31.154-31.153z"
                          fill="#fff245"/>
                    <path d="m434.507 45.651h-30c17.205 0 31.153 13.948 31.153 31.153v358.836c0 17.206-13.948 31.153-31.153 31.153h30c17.205 0 31.153-13.948 31.153-31.153v-358.836c.001-17.205-13.947-31.153-31.153-31.153z"
                          fill="#ffe32b"/>
                </g>
            </g>
            <g>
                <path d="m84.057 82.557h70.061v70.061h-70.061z" fill="#6947b5"/>
                <path d="m124.118 82.557h30v70.061h-30z" fill="#603ab5"/>
                <path d="m358.326 359.826h70.061v70.061h-70.061z" fill="#6947b5"/>
                <path d="m398.387 359.826h30v70.061h-30z" fill="#603ab5"/>
            </g>
            <g fill="#fff">
                <path d="m359.826 84.057h70.061v70.061h-70.061z" transform="matrix(0 1 -1 0 513.944 -275.769)"/>
                <path d="m82.557 358.326h70.061v70.061h-70.061z" transform="matrix(0 1 -1 0 510.944 275.769)"/>
            </g>
        </g>
        <g>
            <path d="m504.722 263.722c9.928-.343 9.926-14.658 0-15h-31.561v-48.649h31.562c4.143 0 7.5-3.358 7.5-7.5s-3.357-7.5-7.5-7.5h-31.562v-108.269c0-21.313-17.34-38.653-38.653-38.653h-107.194v-30.651c0-4.142-3.357-7.5-7.5-7.5s-7.5 3.358-7.5 7.5v30.651h-48.592v-30.651c0-4.142-3.357-7.5-7.5-7.5-4.142 0-7.5 3.358-7.5 7.5v30.651h-48.592v-30.651c0-4.142-3.358-7.5-7.5-7.5s-7.5 3.358-7.5 7.5v30.651h-109.083c-20.939 0-38.653 17.714-38.653 38.653v22.427c0 4.142 3.358 7.5 7.5 7.5s7.5-3.358 7.5-7.5v-22.427c0-12.747 10.829-23.653 23.653-23.653h109.083v28.76c0 4.142 3.358 7.5 7.5 7.5s7.5-3.358 7.5-7.5v-28.76h48.592l-.14 115.821-142.875 143.399h-53.313v-48.649h29.672c4.142 0 7.5-3.358 7.5-7.5s-3.358-7.5-7.5-7.5h-29.672v-48.649h29.672c4.142 0 7.5-3.358 7.5-7.5s-3.358-7.5-7.5-7.5h-29.672v-45.868c0-4.142-3.358-7.5-7.5-7.5s-7.5 3.358-7.5 7.5v45.868h-29.672c-4.142 0-7.5 3.358-7.5 7.5s3.358 7.5 7.5 7.5h29.672v48.649h-29.672c-4.142 0-7.5 3.358-7.5 7.5s3.358 7.5 7.5 7.5h29.672v48.649h-29.672c-4.142 0-7.5 3.358-7.5 7.5s3.358 7.5 7.5 7.5h29.672v108.269c0 21.313 17.34 38.653 38.653 38.653h109.083v30.651c0 4.142 3.358 7.5 7.5 7.5s7.5-3.358 7.5-7.5v-30.651h48.592v30.651c0 4.142 3.358 7.5 7.5 7.5 4.143 0 7.5-3.358 7.5-7.5v-30.651h48.592v30.651c0 4.142 3.357 7.5 7.5 7.5s7.5-3.358 7.5-7.5v-30.651h107.193c21.313 0 38.653-17.34 38.653-38.653v-108.269h31.562c4.143 0 7.5-3.358 7.5-7.5s-3.357-7.5-7.5-7.5h-31.562v-48.649zm-428.675 195.571c-13.042 0-23.653-10.611-23.653-23.653v-108.269h56.428c1.994 0 3.906-.794 5.313-2.207l147.26-147.801c1.401-1.406 2.188-3.309 2.188-5.293l.14-118.919h48.592v131.167l-125.097 130.36c-1.34 1.396-2.088 3.257-2.088 5.193v139.422zm124.083 0v-136.405l125.095-130.361c1.341-1.396 2.089-3.257 2.089-5.193v-134.183h107.193c13.043 0 23.653 10.611 23.653 23.653v108.269h-55.322c-2.001 0-3.918.799-5.326 2.22l-146.616 147.907c-1.392 1.404-2.173 3.302-2.173 5.28v118.814h-48.593zm258.031-146.922h-27.782c-9.931.344-9.923 14.66 0 15h27.782v108.269c0 13.042-10.61 23.653-23.653 23.653h-107.194v-28.76c-.344-9.931-14.66-9.923-15 0v28.76h-48.592v-115.726l142.242-143.494h52.196v48.649h-27.782c-9.931.344-9.923 14.66 0 15h27.782v48.649z"/>
            <path d="m154.119 160.119c4.142 0 7.5-3.358 7.5-7.5v-70.062c0-4.142-3.358-7.5-7.5-7.5h-70.062c-4.142 0-7.5 3.358-7.5 7.5v70.062c0 4.142 3.358 7.5 7.5 7.5zm-62.562-70.062h55.062v55.062h-55.062z"/>
            <path d="m350.826 359.826v70.062c0 4.142 3.357 7.5 7.5 7.5h14.892c9.931-.344 9.923-14.66 0-15h-7.392v-55.062h55.062v55.062h-7.695c-9.931.344-9.923 14.66 0 15h15.195c4.143 0 7.5-3.358 7.5-7.5v-70.062c0-4.142-3.357-7.5-7.5-7.5h-70.062c-4.143 0-7.5 3.358-7.5 7.5z"/>
            <path d="m359.826 161.619h70.062c4.143 0 7.5-3.358 7.5-7.5v-70.062c0-4.142-3.357-7.5-7.5-7.5h-70.062c-4.143 0-7.5 3.358-7.5 7.5v70.062c0 4.142 3.357 7.5 7.5 7.5zm7.5-70.062h55.062v55.062h-55.062z"/>
            <path d="m152.619 350.826h-70.062c-4.142 0-7.5 3.358-7.5 7.5v70.062c0 4.142 3.358 7.5 7.5 7.5h70.062c4.142 0 7.5-3.358 7.5-7.5v-70.062c0-4.142-3.358-7.5-7.5-7.5zm-7.5 70.061h-55.062v-55.062h55.062z"/>
        </g>
    </g>
</svg>