<svg id="svg" version="1.1" xmlns="http://www.w3.org/2000/svg" xmlns:xlink="http://www.w3.org/1999/xlink" width="100"
     height="100" viewBox="0, 0, 400,400">
    <g id="svgg">
        <path id="path0"
              d="M6.000 10.400 L 6.000 20.800 9.376 20.800 C 11.233 20.800,12.864 20.620,13.000 20.400 C 13.136 20.180,14.551 20.000,16.144 20.000 C 20.204 20.000,20.000 20.554,20.000 9.520 L 20.000 0.000 13.000 0.000 L 6.000 0.000 6.000 10.400 M33.693 9.900 L 33.800 19.800 40.000 19.800 L 46.200 19.800 46.307 9.900 L 46.414 0.000 40.000 -0.000 L 33.586 -0.000 33.693 9.900 M60.400 16.600 L 60.400 33.200 66.800 33.200 L 73.200 33.200 73.200 16.600 L 73.200 0.000 66.800 0.000 L 60.400 0.000 60.400 16.600 M86.800 6.600 L 86.800 13.200 93.400 13.200 L 100.000 13.200 100.000 6.600 L 100.000 0.000 93.400 0.000 L 86.800 0.000 86.800 6.600 M113.600 23.200 L 113.600 46.400 120.000 46.400 L 126.400 46.400 126.400 23.200 L 126.400 0.000 120.000 0.000 L 113.600 0.000 113.600 23.200 M140.000 6.600 L 140.000 13.200 146.600 13.200 L 153.200 13.200 153.200 6.600 L 153.200 0.000 146.600 0.000 L 140.000 0.000 140.000 6.600 M166.800 33.200 L 166.800 66.400 170.013 66.400 C 172.499 66.400,173.277 66.536,173.455 67.000 C 173.636 67.471,174.450 67.600,177.243 67.600 L 180.800 67.600 180.800 33.800 L 180.800 0.000 173.800 0.000 L 166.800 0.000 166.800 33.200 M86.800 43.400 L 86.800 60.000 93.400 60.000 L 100.000 60.000 100.000 43.400 L 100.000 26.800 93.400 26.800 L 86.800 26.800 86.800 43.400 M140.000 33.200 L 140.000 39.600 146.600 39.600 L 153.200 39.600 153.200 33.200 L 153.200 26.800 146.600 26.800 L 140.000 26.800 140.000 33.200 M6.000 39.800 L 6.000 47.200 9.520 47.200 C 11.456 47.200,13.211 47.029,13.420 46.820 C 13.630 46.610,15.151 46.385,16.800 46.320 L 19.800 46.200 19.800 40.000 L 19.800 33.800 16.606 33.681 C 14.323 33.597,13.318 33.397,13.086 32.981 C 12.841 32.544,11.921 32.400,9.380 32.400 L 6.000 32.400 6.000 39.800 M33.600 40.000 L 33.600 46.400 40.000 46.400 L 46.400 46.400 46.400 40.000 L 46.400 33.600 40.000 33.600 L 33.600 33.600 33.600 40.000 M60.400 53.390 L 60.400 60.000 66.810 60.000 L 73.220 60.000 73.110 53.500 L 73.000 47.000 66.700 46.890 L 60.400 46.780 60.400 53.390 M140.276 53.857 C 140.124 54.009,140.000 61.393,140.000 70.267 L 140.000 86.400 146.604 86.400 L 153.209 86.400 153.104 70.100 L 153.000 53.800 146.776 53.690 C 143.353 53.630,140.428 53.705,140.276 53.857 M6.500 59.065 C 6.125 59.216,6.000 61.114,6.000 66.633 L 6.000 74.000 9.376 74.000 C 11.233 74.000,12.864 73.820,13.000 73.600 C 13.136 73.380,14.657 73.200,16.381 73.200 C 20.210 73.200,20.000 73.607,20.000 66.167 L 20.000 60.400 16.803 60.400 C 14.040 60.400,13.539 60.292,13.107 59.600 C 12.618 58.817,8.034 58.446,6.500 59.065 M261.000 59.178 C 260.340 59.358,258.261 59.527,256.380 59.553 C 254.499 59.579,252.789 59.763,252.580 59.961 C 252.371 60.160,251.390 60.422,250.400 60.543 C 247.165 60.939,245.596 61.282,245.373 61.644 C 245.252 61.840,244.623 62.000,243.976 62.000 C 243.329 62.000,242.800 62.147,242.800 62.328 C 242.800 62.508,241.900 62.900,240.800 63.200 C 239.700 63.500,238.800 63.892,238.800 64.072 C 238.800 64.253,238.528 64.400,238.195 64.400 C 237.862 64.400,237.277 64.560,236.895 64.756 C 236.513 64.952,235.300 65.537,234.200 66.056 C 233.100 66.575,232.140 67.135,232.067 67.300 C 231.993 67.465,231.678 67.600,231.367 67.600 C 231.055 67.600,230.800 67.780,230.800 68.000 C 230.800 68.220,230.440 68.400,230.000 68.400 C 229.560 68.400,229.200 68.550,229.200 68.732 C 229.200 68.915,228.705 69.320,228.100 69.632 C 227.495 69.945,226.765 70.515,226.477 70.900 C 226.190 71.285,225.767 71.600,225.538 71.600 C 225.309 71.600,224.617 72.140,224.000 72.800 C 223.383 73.460,222.687 74.000,222.453 74.000 C 221.704 74.000,215.839 79.542,214.410 81.600 C 213.875 82.370,213.114 83.291,212.719 83.647 C 212.324 84.003,212.000 84.498,212.000 84.747 C 212.000 84.996,211.820 85.200,211.600 85.200 C 211.380 85.200,211.200 85.388,211.200 85.617 C 211.200 85.846,210.840 86.420,210.400 86.892 C 209.960 87.364,209.600 87.987,209.600 88.275 C 209.600 88.564,209.409 88.800,209.176 88.800 C 208.943 88.800,208.864 88.980,209.000 89.200 C 209.136 89.420,209.057 89.600,208.824 89.600 C 208.591 89.600,208.400 89.960,208.400 90.400 C 208.400 90.840,208.220 91.200,208.000 91.200 C 207.780 91.200,207.600 91.470,207.600 91.800 C 207.600 92.130,207.420 92.400,207.200 92.400 C 206.980 92.400,206.800 92.760,206.800 93.200 C 206.800 93.640,206.620 94.000,206.400 94.000 C 206.180 94.000,206.000 94.360,206.000 94.800 C 206.000 95.240,205.820 95.600,205.600 95.600 C 205.380 95.600,205.200 95.960,205.200 96.400 C 205.200 96.840,205.020 97.200,204.800 97.200 C 204.580 97.200,204.400 97.560,204.400 98.000 C 204.400 98.440,204.220 98.800,204.000 98.800 C 203.780 98.800,203.600 99.340,203.600 100.000 C 203.600 100.660,203.420 101.200,203.200 101.200 C 202.980 101.200,202.800 101.639,202.800 102.176 C 202.800 102.713,202.620 103.264,202.400 103.400 C 202.180 103.536,202.000 104.177,202.000 104.824 C 202.000 105.471,201.820 106.000,201.600 106.000 C 201.380 106.000,201.200 106.720,201.200 107.600 C 201.200 108.480,201.020 109.200,200.800 109.200 C 200.580 109.200,200.400 110.190,200.400 111.400 C 200.400 112.610,200.220 113.600,200.000 113.600 C 199.734 113.600,199.600 151.000,199.600 225.000 C 199.600 299.000,199.466 336.400,199.200 336.400 C 198.959 336.400,198.800 338.067,198.800 340.600 C 198.800 343.133,198.641 344.800,198.400 344.800 C 198.180 344.800,198.000 345.509,198.000 346.376 C 198.000 347.243,197.820 348.064,197.600 348.200 C 197.380 348.336,197.200 349.067,197.200 349.824 C 197.200 350.581,197.020 351.200,196.800 351.200 C 196.580 351.200,196.400 351.740,196.400 352.400 C 196.400 353.060,196.220 353.600,196.000 353.600 C 195.780 353.600,195.600 353.922,195.600 354.316 C 195.600 355.021,193.063 360.240,192.361 360.980 C 192.162 361.189,192.000 361.684,192.000 362.080 C 192.000 362.476,191.850 362.800,191.668 362.800 C 191.485 362.800,191.080 363.292,190.768 363.893 C 190.455 364.494,189.705 365.511,189.100 366.152 C 188.495 366.794,188.000 367.475,188.000 367.665 C 188.000 368.154,181.298 374.800,180.806 374.800 C 180.583 374.800,180.400 374.980,180.400 375.200 C 180.400 375.420,180.208 375.600,179.973 375.600 C 179.594 375.600,176.917 377.421,176.400 378.031 C 176.027 378.471,167.876 382.400,167.337 382.400 C 167.041 382.400,166.800 382.580,166.800 382.800 C 166.800 383.020,166.260 383.200,165.600 383.200 C 164.940 383.200,164.400 383.380,164.400 383.600 C 164.400 383.820,163.781 384.000,163.024 384.000 C 162.267 384.000,161.536 384.180,161.400 384.400 C 161.264 384.620,160.353 384.800,159.376 384.800 C 158.399 384.800,157.600 384.980,157.600 385.200 C 157.600 385.453,154.800 385.600,150.000 385.600 C 145.200 385.600,142.400 385.453,142.400 385.200 C 142.400 384.980,141.601 384.800,140.624 384.800 C 139.647 384.800,138.736 384.620,138.600 384.400 C 138.464 384.180,137.733 384.000,136.976 384.000 C 136.219 384.000,135.600 383.820,135.600 383.600 C 135.600 383.380,135.060 383.200,134.400 383.200 C 133.740 383.200,133.200 383.020,133.200 382.800 C 133.200 382.580,132.974 382.400,132.698 382.400 C 131.785 382.400,125.442 379.141,122.881 377.356 C 121.495 376.390,120.190 375.600,119.981 375.600 C 119.771 375.600,119.600 375.420,119.600 375.200 C 119.600 374.980,119.417 374.800,119.194 374.800 C 118.702 374.800,112.000 368.154,112.000 367.665 C 112.000 367.475,111.460 366.754,110.800 366.063 C 110.140 365.372,109.600 364.724,109.600 364.621 C 109.600 364.519,109.037 363.482,108.349 362.318 C 106.140 358.576,104.400 355.051,104.400 354.316 C 104.400 353.922,104.220 353.600,104.000 353.600 C 103.780 353.600,103.600 353.060,103.600 352.400 C 103.600 351.740,103.420 351.200,103.200 351.200 C 102.980 351.200,102.800 350.581,102.800 349.824 C 102.800 349.067,102.620 348.336,102.400 348.200 C 102.180 348.064,102.000 347.243,102.000 346.376 C 102.000 345.509,101.820 344.800,101.600 344.800 C 101.359 344.800,101.200 343.133,101.200 340.600 C 101.200 338.067,101.041 336.400,100.800 336.400 C 100.554 336.400,100.400 334.400,100.400 331.200 L 100.400 326.000 93.633 326.000 C 89.911 326.000,86.581 326.109,86.233 326.243 C 85.487 326.529,85.269 337.348,86.000 337.800 C 86.227 337.940,86.400 339.930,86.400 342.400 C 86.400 344.870,86.573 346.860,86.800 347.000 C 87.020 347.136,87.200 348.137,87.200 349.224 C 87.200 350.311,87.380 351.200,87.600 351.200 C 87.820 351.200,88.000 351.920,88.000 352.800 C 88.000 353.680,88.180 354.400,88.400 354.400 C 88.620 354.400,88.800 354.940,88.800 355.600 C 88.800 356.260,88.980 356.800,89.200 356.800 C 89.420 356.800,89.600 357.250,89.600 357.800 C 89.600 358.350,89.780 358.800,90.000 358.800 C 90.220 358.800,90.400 359.340,90.400 360.000 C 90.400 360.660,90.580 361.200,90.800 361.200 C 91.020 361.200,91.200 361.436,91.200 361.725 C 91.200 362.014,91.650 363.183,92.200 364.323 C 92.750 365.463,93.200 366.652,93.200 366.965 C 93.200 367.277,93.335 367.593,93.500 367.667 C 93.876 367.834,95.175 369.964,95.471 370.900 C 95.593 371.285,95.852 371.600,96.047 371.600 C 96.241 371.600,96.400 371.791,96.400 372.023 C 96.400 372.535,98.578 375.379,100.100 376.855 C 100.705 377.441,101.200 378.106,101.200 378.333 C 101.200 379.047,110.644 388.000,111.397 388.000 C 111.567 388.000,111.997 388.328,112.353 388.730 C 112.709 389.131,113.990 389.986,115.200 390.630 C 116.410 391.273,117.460 391.935,117.533 392.100 C 117.607 392.265,118.012 392.400,118.433 392.400 C 118.855 392.400,119.200 392.580,119.200 392.800 C 119.200 393.020,119.560 393.200,120.000 393.200 C 120.440 393.200,120.800 393.380,120.800 393.600 C 120.800 393.820,121.160 394.000,121.600 394.000 C 122.040 394.000,122.400 394.180,122.400 394.400 C 122.400 394.620,122.760 394.800,123.200 394.800 C 123.640 394.800,124.000 394.980,124.000 395.200 C 124.000 395.420,124.360 395.600,124.800 395.600 C 125.240 395.600,125.600 395.780,125.600 396.000 C 125.600 396.220,126.050 396.400,126.600 396.400 C 127.150 396.400,127.600 396.580,127.600 396.800 C 127.600 397.020,128.140 397.200,128.800 397.200 C 129.460 397.200,130.000 397.380,130.000 397.600 C 130.000 397.820,130.540 398.000,131.200 398.000 C 131.860 398.000,132.400 398.180,132.400 398.400 C 132.400 398.620,133.105 398.800,133.967 398.800 C 134.864 398.800,135.604 399.013,135.700 399.300 C 135.943 400.028,164.057 400.028,164.300 399.300 C 164.396 399.013,165.136 398.800,166.033 398.800 C 166.895 398.800,167.600 398.620,167.600 398.400 C 167.600 398.180,168.140 398.000,168.800 398.000 C 169.460 398.000,170.000 397.820,170.000 397.600 C 170.000 397.380,170.540 397.200,171.200 397.200 C 171.860 397.200,172.400 397.020,172.400 396.800 C 172.400 396.580,172.850 396.400,173.400 396.400 C 173.950 396.400,174.400 396.220,174.400 396.000 C 174.400 395.780,174.760 395.600,175.200 395.600 C 175.640 395.600,176.000 395.420,176.000 395.200 C 176.000 394.980,176.360 394.800,176.800 394.800 C 177.240 394.800,177.600 394.620,177.600 394.400 C 177.600 394.180,177.960 394.000,178.400 394.000 C 178.840 394.000,179.200 393.820,179.200 393.600 C 179.200 393.380,179.560 393.200,180.000 393.200 C 180.440 393.200,180.800 393.020,180.800 392.800 C 180.800 392.580,181.145 392.400,181.567 392.400 C 181.988 392.400,182.393 392.265,182.467 392.100 C 182.540 391.935,183.590 391.273,184.800 390.630 C 186.010 389.986,187.270 389.159,187.600 388.792 C 187.930 388.425,188.409 388.052,188.665 387.963 C 189.894 387.532,198.800 379.071,198.800 378.333 C 198.800 378.106,199.295 377.441,199.900 376.855 C 201.378 375.421,203.600 372.541,203.600 372.057 C 203.600 371.842,203.735 371.607,203.900 371.533 C 204.276 371.366,205.575 369.236,205.871 368.300 C 205.993 367.915,206.252 367.600,206.447 367.600 C 206.641 367.600,206.800 367.240,206.800 366.800 C 206.800 366.360,206.980 366.000,207.200 366.000 C 207.420 366.000,207.600 365.640,207.600 365.200 C 207.600 364.760,207.764 364.400,207.965 364.400 C 208.166 364.400,208.451 363.680,208.600 362.800 C 208.749 361.920,209.034 361.200,209.235 361.200 C 209.436 361.200,209.600 360.660,209.600 360.000 C 209.600 359.340,209.780 358.800,210.000 358.800 C 210.220 358.800,210.400 358.350,210.400 357.800 C 210.400 357.250,210.580 356.800,210.800 356.800 C 211.020 356.800,211.200 356.260,211.200 355.600 C 211.200 354.940,211.380 354.400,211.600 354.400 C 211.820 354.400,212.000 353.680,212.000 352.800 C 212.000 351.920,212.180 351.200,212.400 351.200 C 212.620 351.200,212.800 350.311,212.800 349.224 C 212.800 348.137,212.980 347.136,213.200 347.000 C 213.427 346.860,213.600 344.870,213.600 342.400 C 213.600 339.930,213.773 337.940,214.000 337.800 C 214.265 337.636,214.400 300.204,214.400 226.800 C 214.400 153.396,214.535 115.964,214.800 115.800 C 215.020 115.664,215.200 114.753,215.200 113.776 C 215.200 112.799,215.380 112.000,215.600 112.000 C 215.820 112.000,216.000 111.280,216.000 110.400 C 216.000 109.520,216.180 108.800,216.400 108.800 C 216.620 108.800,216.800 108.438,216.800 107.995 C 216.800 107.552,216.980 106.832,217.200 106.395 C 217.420 105.958,217.780 105.242,218.000 104.805 C 218.220 104.368,218.400 103.738,218.400 103.405 C 218.400 103.072,218.580 102.800,218.800 102.800 C 219.020 102.800,219.200 102.440,219.200 102.000 C 219.200 101.560,219.380 101.200,219.600 101.200 C 219.820 101.200,220.000 100.922,220.000 100.583 C 220.000 100.244,220.360 99.580,220.800 99.108 C 221.240 98.636,221.600 98.013,221.600 97.725 C 221.600 97.436,221.780 97.200,222.000 97.200 C 222.220 97.200,222.400 96.922,222.400 96.582 C 222.400 96.242,222.869 95.495,223.442 94.922 C 224.015 94.349,224.662 93.367,224.881 92.740 C 225.099 92.113,225.438 91.600,225.633 91.600 C 225.829 91.600,227.519 90.070,229.389 88.200 C 231.259 86.330,232.989 84.800,233.234 84.800 C 233.479 84.800,234.183 84.260,234.800 83.600 C 235.417 82.940,236.209 82.400,236.560 82.400 C 236.912 82.400,237.200 82.220,237.200 82.000 C 237.200 81.780,237.470 81.600,237.800 81.600 C 238.130 81.600,238.400 81.420,238.400 81.200 C 238.400 80.980,238.670 80.800,239.000 80.800 C 239.330 80.800,239.600 80.654,239.600 80.475 C 239.600 80.296,240.230 79.902,241.000 79.600 C 241.770 79.298,242.400 78.904,242.400 78.725 C 242.400 78.546,242.760 78.400,243.200 78.400 C 243.640 78.400,244.000 78.220,244.000 78.000 C 244.000 77.780,244.540 77.600,245.200 77.600 C 245.860 77.600,246.400 77.420,246.400 77.200 C 246.400 76.980,246.940 76.800,247.600 76.800 C 248.260 76.800,248.800 76.620,248.800 76.400 C 248.800 76.180,249.325 76.000,249.967 76.000 C 250.608 76.000,251.193 75.826,251.267 75.612 C 251.766 74.161,275.028 74.165,275.533 75.617 C 275.607 75.828,276.192 76.000,276.833 76.000 C 277.475 76.000,278.000 76.180,278.000 76.400 C 278.000 76.620,278.450 76.800,279.000 76.800 C 279.550 76.800,280.000 76.980,280.000 77.200 C 280.000 77.420,280.540 77.600,281.200 77.600 C 281.860 77.600,282.400 77.780,282.400 78.000 C 282.400 78.220,282.760 78.400,283.200 78.400 C 283.640 78.400,284.000 78.580,284.000 78.800 C 284.000 79.020,284.360 79.200,284.800 79.200 C 285.240 79.200,285.600 79.380,285.600 79.600 C 285.600 79.820,285.960 80.000,286.400 80.000 C 286.840 80.000,287.200 80.180,287.200 80.400 C 287.200 80.620,287.436 80.800,287.725 80.800 C 288.013 80.800,288.636 81.160,289.108 81.600 C 289.580 82.040,290.172 82.400,290.423 82.400 C 290.674 82.400,291.383 82.940,292.000 83.600 C 292.617 84.260,293.235 84.800,293.374 84.800 C 293.513 84.800,294.220 85.385,294.945 86.100 C 295.671 86.815,297.555 88.614,299.132 90.099 C 300.709 91.583,302.000 92.996,302.000 93.238 C 302.000 93.481,302.540 94.183,303.200 94.800 C 303.860 95.417,304.400 96.209,304.400 96.560 C 304.400 96.912,304.580 97.200,304.800 97.200 C 305.020 97.200,305.200 97.436,305.200 97.725 C 305.200 98.013,305.560 98.636,306.000 99.108 C 306.440 99.580,306.800 100.244,306.800 100.583 C 306.800 100.922,306.980 101.200,307.200 101.200 C 307.420 101.200,307.600 101.545,307.600 101.967 C 307.600 102.388,307.740 102.793,307.910 102.867 C 308.327 103.046,310.400 109.275,310.400 110.348 C 310.400 110.817,310.562 111.200,310.760 111.200 C 311.187 111.200,311.571 113.730,311.852 118.400 C 311.964 120.270,312.224 121.971,312.428 122.180 C 312.633 122.389,312.800 123.694,312.800 125.080 L 312.800 127.600 320.200 127.600 L 327.600 127.600 327.600 124.424 C 327.600 122.677,327.420 121.136,327.200 121.000 C 326.977 120.862,326.800 118.996,326.800 116.776 C 326.800 114.392,326.640 112.800,326.400 112.800 C 326.180 112.800,326.000 111.911,326.000 110.824 C 326.000 109.737,325.841 108.749,325.647 108.629 C 325.452 108.509,325.174 107.456,325.028 106.289 C 324.760 104.141,323.976 101.443,323.474 100.941 C 323.323 100.790,323.200 100.247,323.200 99.733 C 323.200 99.220,323.020 98.800,322.800 98.800 C 322.580 98.800,322.400 98.535,322.400 98.212 C 322.400 97.889,322.040 96.983,321.600 96.200 C 321.160 95.417,320.800 94.511,320.800 94.188 C 320.800 93.865,320.620 93.600,320.400 93.600 C 320.180 93.600,320.000 93.280,320.000 92.888 C 320.000 92.497,319.640 91.917,319.200 91.600 C 318.760 91.283,318.400 90.703,318.400 90.312 C 318.400 89.920,318.220 89.600,318.000 89.600 C 317.780 89.600,317.600 89.375,317.599 89.100 C 317.599 88.825,317.059 87.970,316.400 87.200 C 315.741 86.430,315.201 85.663,315.201 85.496 C 315.200 85.329,314.660 84.628,314.000 83.937 C 313.340 83.246,312.800 82.524,312.800 82.332 C 312.800 81.848,304.991 74.000,304.509 74.000 C 304.294 74.000,303.554 73.460,302.863 72.800 C 302.172 72.140,301.471 71.600,301.304 71.599 C 301.137 71.599,300.370 71.059,299.600 70.400 C 298.830 69.741,297.975 69.201,297.700 69.201 C 297.425 69.200,297.200 69.020,297.200 68.800 C 297.200 68.580,296.880 68.400,296.488 68.400 C 296.097 68.400,295.517 68.040,295.200 67.600 C 294.883 67.160,294.303 66.800,293.912 66.800 C 293.520 66.800,293.200 66.620,293.200 66.400 C 293.200 66.180,292.840 66.000,292.400 66.000 C 291.960 66.000,291.600 65.820,291.600 65.600 C 291.600 65.380,291.240 65.200,290.800 65.200 C 290.360 65.200,290.000 65.020,290.000 64.800 C 290.000 64.580,289.550 64.400,289.000 64.400 C 288.450 64.400,288.000 64.220,288.000 64.000 C 288.000 63.780,287.651 63.600,287.224 63.600 C 286.797 63.600,286.336 63.420,286.200 63.200 C 286.064 62.980,285.513 62.800,284.976 62.800 C 284.439 62.800,284.000 62.640,284.000 62.444 C 284.000 62.248,283.415 61.991,282.700 61.872 C 280.514 61.510,279.038 61.156,278.200 60.793 C 277.257 60.384,275.194 60.090,270.000 59.627 C 267.910 59.441,265.300 59.190,264.200 59.070 C 263.100 58.950,261.660 58.998,261.000 59.178 M33.600 73.400 L 33.600 86.400 40.000 86.400 L 46.400 86.400 46.400 73.400 L 46.400 60.400 40.000 60.400 L 33.600 60.400 33.600 73.400 M113.600 66.800 L 113.600 73.200 120.000 73.200 L 126.400 73.200 126.400 66.800 L 126.400 60.400 120.000 60.400 L 113.600 60.400 113.600 66.800 M60.400 90.200 L 60.400 106.800 66.800 106.800 L 73.200 106.800 73.200 90.200 L 73.200 73.600 66.800 73.600 L 60.400 73.600 60.400 90.200 M86.800 80.000 L 86.800 86.400 93.400 86.400 L 100.000 86.400 100.000 80.000 L 100.000 73.600 93.400 73.600 L 86.800 73.600 86.800 80.000 M173.680 79.680 C 173.416 79.944,171.805 80.259,170.100 80.380 L 167.000 80.600 167.000 93.600 L 167.000 106.600 173.346 106.710 C 177.687 106.786,179.868 106.676,180.246 106.361 C 180.698 105.987,180.800 103.432,180.800 92.551 L 180.800 79.200 177.480 79.200 C 175.431 79.200,173.976 79.384,173.680 79.680 M6.000 95.720 C 6.000 107.959,5.239 106.800,13.272 106.800 C 20.863 106.800,20.065 108.099,19.913 96.000 L 19.800 87.000 16.481 86.884 C 14.021 86.797,13.104 86.616,12.938 86.184 C 12.767 85.736,11.930 85.600,9.357 85.600 L 6.000 85.600 6.000 95.720 M113.600 96.800 L 113.600 106.800 120.000 106.800 L 126.400 106.800 126.400 96.800 L 126.400 86.800 120.000 86.800 L 113.600 86.800 113.600 96.800 M80.182 126.030 C 80.036 126.266,79.400 129.101,78.769 132.330 C 78.138 135.558,77.523 138.605,77.403 139.100 C 77.191 139.976,77.046 140.000,71.992 140.000 L 66.800 140.000 66.800 146.600 L 66.800 153.200 70.413 153.200 C 75.044 153.200,75.057 153.284,72.235 164.600 L 71.736 166.600 65.968 166.800 L 60.200 167.000 60.200 173.400 L 60.200 179.800 64.548 179.914 L 68.897 180.028 68.662 182.114 C 68.534 183.261,68.237 185.100,68.004 186.200 C 67.078 190.563,67.044 191.898,67.853 192.134 C 70.655 192.951,79.379 194.381,79.686 194.074 C 80.018 193.742,80.293 192.534,81.618 185.600 C 81.849 184.390,82.255 182.680,82.519 181.800 L 83.000 180.200 89.300 180.090 C 96.708 179.960,96.101 179.204,94.566 186.650 C 93.335 192.626,92.659 191.774,99.794 193.239 C 107.112 194.741,106.463 195.131,107.761 188.457 C 108.362 185.367,109.029 182.206,109.242 181.431 L 109.631 180.024 114.716 179.912 L 119.800 179.800 119.800 173.400 L 119.800 167.000 116.281 166.884 C 111.916 166.740,112.034 167.019,113.406 160.101 C 114.900 152.563,114.171 153.242,120.908 153.111 L 126.600 153.000 126.715 147.400 C 126.879 139.434,127.223 140.000,122.216 140.000 C 117.044 140.000,117.342 140.580,118.820 133.400 C 119.092 132.080,119.333 130.286,119.357 129.413 L 119.400 127.826 113.314 126.632 C 106.107 125.218,106.984 124.648,105.570 131.672 C 104.936 134.822,104.265 137.940,104.080 138.600 L 103.743 139.800 97.602 139.911 C 94.225 139.972,91.328 139.882,91.165 139.711 C 91.001 139.540,91.378 136.970,92.002 134.000 C 93.376 127.459,93.744 127.975,86.763 126.640 C 80.558 125.453,80.539 125.451,80.182 126.030 M312.800 147.009 L 312.800 154.418 320.100 154.309 L 327.400 154.200 327.509 146.900 L 327.618 139.600 320.209 139.600 L 312.800 139.600 312.800 147.009 M100.800 154.654 C 100.800 155.453,100.628 156.758,100.418 157.554 C 100.208 158.349,99.751 160.519,99.404 162.375 C 98.534 167.025,98.913 166.800,91.975 166.800 C 84.995 166.800,85.379 167.137,86.445 161.936 C 86.911 159.661,87.428 157.080,87.593 156.200 C 88.187 153.031,87.789 153.200,94.643 153.200 L 100.800 153.200 100.800 154.654 M312.800 173.400 L 312.800 180.800 320.200 180.800 L 327.600 180.800 327.600 173.400 L 327.600 166.000 320.200 166.000 L 312.800 166.000 312.800 173.400 M312.980 192.908 C 312.873 193.187,312.834 197.822,312.893 203.208 L 313.000 213.000 319.400 213.114 C 322.920 213.177,326.205 213.129,326.700 213.007 L 327.600 212.785 327.600 202.835 C 327.600 194.131,327.521 192.855,326.967 192.643 C 325.650 192.137,313.185 192.373,312.980 192.908 M273.600 253.398 L 273.600 260.000 320.010 260.000 L 366.420 260.000 366.310 253.500 L 366.200 247.000 319.900 246.898 L 273.600 246.797 273.600 253.398 M273.600 280.000 L 273.600 286.400 320.000 286.400 L 366.400 286.400 366.400 280.000 L 366.400 273.600 320.000 273.600 L 273.600 273.600 273.600 280.000 M85.600 306.520 C 85.600 315.121,84.879 314.400,93.480 314.400 L 100.400 314.400 100.400 307.000 L 100.400 299.600 93.000 299.600 L 85.600 299.600 85.600 306.520 M273.600 306.598 L 273.600 313.200 320.010 313.200 L 366.420 313.200 366.310 306.700 L 366.200 300.200 319.900 300.098 L 273.600 299.997 273.600 306.598 M273.600 333.200 L 273.600 339.600 303.400 339.600 L 333.200 339.600 333.200 333.200 L 333.200 326.800 303.400 326.800 L 273.600 326.800 273.600 333.200 M273.600 359.997 L 273.600 366.400 303.410 366.400 L 333.220 366.400 333.110 360.100 L 333.000 353.800 303.300 353.697 L 273.600 353.595 273.600 359.997 "
              stroke="none" fill="#646464" fill-rule="evenodd"></path>
        <path id="path1"
              d="M0.000 120.000 L 0.000 134.000 6.400 134.000 L 12.800 134.000 12.800 154.085 L 12.800 174.169 15.073 176.285 C 16.323 177.448,17.496 178.400,17.679 178.400 C 17.863 178.400,19.352 179.705,20.988 181.300 C 25.876 186.064,29.708 189.529,31.382 190.698 C 32.249 191.304,34.196 193.015,35.710 194.500 C 37.223 195.985,38.628 197.200,38.831 197.200 C 39.034 197.200,40.523 198.505,42.140 200.100 C 46.746 204.644,52.361 209.599,52.906 209.600 C 53.075 209.600,54.545 210.905,56.173 212.500 C 60.457 216.697,65.245 221.093,66.400 221.890 C 66.950 222.270,67.973 223.125,68.672 223.790 C 69.372 224.456,70.492 225.450,71.160 226.000 L 72.376 227.000 72.388 257.100 L 72.400 287.200 74.200 287.200 C 75.190 287.200,76.000 287.020,76.000 286.800 C 76.000 286.580,76.540 286.400,77.200 286.400 C 77.860 286.400,78.400 286.220,78.400 286.000 C 78.400 285.780,78.940 285.600,79.600 285.600 C 80.260 285.600,80.800 285.420,80.800 285.200 C 80.800 284.980,81.340 284.800,82.000 284.800 C 82.660 284.800,83.200 284.620,83.200 284.400 C 83.200 284.180,83.740 284.000,84.400 284.000 C 85.060 284.000,85.600 283.820,85.600 283.600 C 85.600 283.380,86.140 283.200,86.800 283.200 C 87.460 283.200,88.000 283.020,88.000 282.800 C 88.000 282.580,88.439 282.400,88.976 282.400 C 89.513 282.400,90.064 282.220,90.200 282.000 C 90.336 281.780,90.887 281.600,91.424 281.600 C 91.961 281.600,92.400 281.420,92.400 281.200 C 92.400 280.980,92.940 280.800,93.600 280.800 C 94.260 280.800,94.800 280.620,94.800 280.400 C 94.800 280.180,95.340 280.000,96.000 280.000 C 96.660 280.000,97.200 279.820,97.200 279.600 C 97.200 279.380,97.740 279.200,98.400 279.200 C 99.060 279.200,99.600 279.020,99.600 278.800 C 99.600 278.580,100.140 278.400,100.800 278.400 C 101.460 278.400,102.000 278.220,102.000 278.000 C 102.000 277.780,102.540 277.600,103.200 277.600 C 103.860 277.600,104.400 277.420,104.400 277.200 C 104.400 276.980,104.839 276.800,105.376 276.800 C 105.913 276.800,106.464 276.620,106.600 276.400 C 106.736 276.180,107.287 276.000,107.824 276.000 C 108.361 276.000,108.800 275.841,108.800 275.646 C 108.800 275.451,109.758 275.173,110.928 275.026 C 114.660 274.560,114.400 276.423,114.400 250.156 L 114.400 227.121 115.563 226.060 C 116.202 225.477,117.773 224.100,119.053 223.000 C 120.334 221.900,122.694 219.695,124.297 218.100 C 125.900 216.505,127.397 215.200,127.623 215.200 C 127.849 215.200,129.431 213.805,131.137 212.100 C 132.844 210.395,134.709 208.730,135.283 208.400 C 136.383 207.767,140.804 203.826,144.935 199.796 C 146.291 198.474,148.030 196.946,148.800 196.401 C 149.570 195.855,151.124 194.507,152.254 193.405 C 153.384 192.302,154.895 190.954,155.611 190.410 C 156.327 189.865,157.927 188.422,159.166 187.202 C 160.405 185.981,162.045 184.541,162.810 184.001 C 163.574 183.461,165.190 182.021,166.400 180.800 C 167.610 179.579,169.218 178.145,169.972 177.612 C 170.727 177.079,171.942 176.094,172.672 175.424 L 174.000 174.206 174.000 154.103 L 174.000 134.000 180.600 134.000 L 187.200 134.000 187.200 120.000 L 187.200 106.000 183.824 106.000 C 181.967 106.000,180.336 106.180,180.200 106.400 C 180.036 106.665,150.670 106.800,93.400 106.800 C 36.130 106.800,6.764 106.665,6.600 106.400 C 6.464 106.180,4.923 106.000,3.176 106.000 L 0.000 106.000 0.000 120.000 M86.763 126.640 C 93.744 127.975,93.376 127.459,92.002 134.000 C 91.378 136.970,91.001 139.540,91.165 139.711 C 91.328 139.882,94.225 139.972,97.602 139.911 L 103.743 139.800 104.080 138.600 C 104.265 137.940,104.936 134.822,105.570 131.672 C 106.984 124.648,106.107 125.218,113.314 126.632 L 119.400 127.826 119.357 129.413 C 119.333 130.286,119.092 132.080,118.820 133.400 C 117.342 140.580,117.044 140.000,122.216 140.000 C 127.223 140.000,126.879 139.434,126.715 147.400 L 126.600 153.000 120.908 153.111 C 114.171 153.242,114.900 152.563,113.406 160.101 C 112.034 167.019,111.916 166.740,116.281 166.884 L 119.800 167.000 119.800 173.400 L 119.800 179.800 114.716 179.912 L 109.631 180.024 109.242 181.431 C 109.029 182.206,108.362 185.367,107.761 188.457 C 106.463 195.131,107.112 194.741,99.794 193.239 C 92.659 191.774,93.335 192.626,94.566 186.650 C 96.101 179.204,96.708 179.960,89.300 180.090 L 83.000 180.200 82.519 181.800 C 82.255 182.680,81.849 184.390,81.618 185.600 C 80.293 192.534,80.018 193.742,79.686 194.074 C 79.379 194.381,70.655 192.951,67.853 192.134 C 67.044 191.898,67.078 190.563,68.004 186.200 C 68.237 185.100,68.534 183.261,68.662 182.114 L 68.897 180.028 64.548 179.914 L 60.200 179.800 60.200 173.400 L 60.200 167.000 65.968 166.800 L 71.736 166.600 72.235 164.600 C 75.057 153.284,75.044 153.200,70.413 153.200 L 66.800 153.200 66.800 146.600 L 66.800 140.000 71.992 140.000 C 77.046 140.000,77.191 139.976,77.403 139.100 C 77.523 138.605,78.138 135.558,78.769 132.330 C 79.400 129.101,80.036 126.266,80.182 126.030 C 80.539 125.451,80.558 125.453,86.763 126.640 M88.189 153.900 C 88.026 154.285,87.758 155.320,87.593 156.200 C 87.428 157.080,86.911 159.661,86.445 161.936 C 85.379 167.137,84.995 166.800,91.975 166.800 C 98.913 166.800,98.534 167.025,99.404 162.375 C 99.751 160.519,100.208 158.349,100.418 157.554 C 100.628 156.758,100.800 155.453,100.800 154.654 L 100.800 153.200 94.643 153.200 C 89.158 153.200,88.453 153.276,88.189 153.900 "
              stroke="none" fill="#fb9b1c" fill-rule="evenodd"></path>
        <path id="path2"
              d="M32.973 9.600 C 32.973 14.990,33.030 17.195,33.099 14.500 C 33.168 11.805,33.168 7.395,33.099 4.700 C 33.030 2.005,32.973 4.210,32.973 9.600 M46.973 9.800 C 46.973 15.300,47.030 17.605,47.099 14.923 C 47.168 12.241,47.168 7.741,47.099 4.923 C 47.030 2.105,46.974 4.300,46.973 9.800 M86.476 6.476 C 86.434 10.148,86.535 13.237,86.700 13.339 C 86.865 13.442,86.953 11.428,86.896 8.863 C 86.709 0.543,86.553 -0.345,86.476 6.476 M100.163 6.400 C 100.163 10.030,100.223 11.515,100.298 9.700 C 100.372 7.885,100.372 4.915,100.298 3.100 C 100.223 1.285,100.163 2.770,100.163 6.400 M139.676 6.476 C 139.634 10.148,139.735 13.237,139.900 13.339 C 140.065 13.442,140.153 11.428,140.096 8.863 C 139.909 0.543,139.753 -0.345,139.676 6.476 M86.667 26.667 C 86.297 27.037,86.329 59.909,86.700 60.138 C 86.865 60.240,87.000 52.691,87.000 43.362 C 87.000 34.033,86.985 26.400,86.967 26.400 C 86.948 26.400,86.813 26.520,86.667 26.667 M139.777 26.916 C 139.668 27.200,139.629 30.305,139.691 33.816 L 139.803 40.200 140.001 33.299 C 140.196 26.522,140.174 25.881,139.777 26.916 M100.183 43.400 C 100.183 52.420,100.235 56.167,100.299 51.727 C 100.364 47.287,100.364 39.907,100.300 35.327 C 100.235 30.747,100.183 34.380,100.183 43.400 M14.711 33.093 C 15.651 33.178,17.091 33.177,17.911 33.091 C 18.730 33.005,17.960 32.936,16.200 32.937 C 14.440 32.939,13.770 33.009,14.711 33.093 M36.900 33.097 C 38.605 33.172,41.395 33.172,43.100 33.097 C 44.805 33.022,43.410 32.961,40.000 32.961 C 36.590 32.961,35.195 33.022,36.900 33.097 M46.799 39.719 L 46.998 46.200 47.110 40.031 C 47.171 36.638,47.082 33.721,46.911 33.550 C 46.740 33.378,46.689 36.154,46.799 39.719 M32.961 40.000 C 32.961 43.410,33.022 44.805,33.097 43.100 C 33.172 41.395,33.172 38.605,33.097 36.900 C 33.022 35.195,32.961 36.590,32.961 40.000 M143.700 40.297 C 145.405 40.372,148.195 40.372,149.900 40.297 C 151.605 40.222,150.210 40.161,146.800 40.161 C 143.390 40.161,141.995 40.222,143.700 40.297 M33.550 46.911 C 33.721 47.082,36.638 47.171,40.031 47.110 L 46.200 46.998 39.719 46.799 C 36.154 46.689,33.378 46.740,33.550 46.911 M113.462 46.900 C 113.564 47.065,116.506 47.200,120.000 47.200 C 123.494 47.200,126.436 47.065,126.538 46.900 C 126.640 46.735,123.698 46.600,120.000 46.600 C 116.302 46.600,113.360 46.735,113.462 46.900 M15.111 47.093 C 16.051 47.178,17.491 47.177,18.311 47.091 C 19.130 47.005,18.360 46.936,16.600 46.937 C 14.840 46.939,14.170 47.009,15.111 47.093 M144.118 53.098 C 145.833 53.173,148.533 53.172,150.118 53.097 C 151.703 53.021,150.300 52.959,147.000 52.960 C 143.700 52.961,142.403 53.022,144.118 53.098 M139.783 70.200 C 139.783 79.440,139.836 83.163,139.900 78.473 C 139.964 73.783,139.964 66.223,139.899 61.673 C 139.835 57.123,139.783 60.960,139.783 70.200 M33.067 60.267 C 32.697 60.637,32.729 86.309,33.100 86.538 C 33.265 86.640,33.400 80.711,33.400 73.362 C 33.400 66.013,33.385 60.000,33.367 60.000 C 33.348 60.000,33.213 60.120,33.067 60.267 M46.979 73.400 C 46.979 80.660,47.033 83.686,47.099 80.125 C 47.165 76.564,47.166 70.624,47.099 66.925 C 47.033 63.226,46.979 66.140,46.979 73.400 M168.711 67.093 C 169.651 67.178,171.091 67.177,171.911 67.091 C 172.730 67.005,171.960 66.936,170.200 66.937 C 168.440 66.939,167.770 67.009,168.711 67.093 M86.563 80.000 C 86.563 83.630,86.623 85.115,86.698 83.300 C 86.772 81.485,86.772 78.515,86.698 76.700 C 86.623 74.885,86.563 76.370,86.563 80.000 M100.163 80.000 C 100.163 83.630,100.223 85.115,100.298 83.300 C 100.372 81.485,100.372 78.515,100.298 76.700 C 100.223 74.885,100.163 76.370,100.163 80.000 M14.800 86.647 C 17.149 86.945,20.311 86.977,20.139 86.700 C 20.037 86.535,18.568 86.427,16.876 86.460 C 15.184 86.493,14.250 86.577,14.800 86.647 M116.700 86.698 C 118.515 86.772,121.485 86.772,123.300 86.698 C 125.115 86.623,123.630 86.563,120.000 86.563 C 116.370 86.563,114.885 86.623,116.700 86.698 M239.600 306.396 L 239.600 400.000 296.397 400.000 L 353.194 400.000 353.297 376.700 L 353.400 353.400 376.700 353.297 L 400.000 353.194 400.000 282.993 L 400.000 212.792 363.300 212.989 C 318.456 213.231,321.599 213.231,276.500 212.989 L 239.600 212.792 239.600 306.396 M366.600 253.400 L 366.600 260.200 320.000 260.200 L 273.400 260.200 273.289 253.816 C 273.229 250.305,273.268 247.199,273.378 246.914 C 273.539 246.494,282.326 246.416,320.088 246.498 L 366.600 246.600 366.600 253.400 M366.710 280.100 L 366.819 286.800 320.010 286.800 L 273.200 286.800 273.200 280.267 C 273.200 276.673,273.321 273.613,273.468 273.465 C 273.616 273.317,294.631 273.242,320.168 273.298 L 366.600 273.400 366.710 280.100 M366.710 306.700 L 366.600 313.400 320.000 313.400 L 273.400 313.400 273.290 306.700 L 273.181 300.000 320.000 300.000 L 366.819 300.000 366.710 306.700 M333.510 333.300 L 333.619 340.000 303.410 340.000 L 273.200 340.000 273.200 333.467 C 273.200 329.873,273.321 326.812,273.469 326.664 C 273.617 326.516,287.162 326.441,303.569 326.497 L 333.400 326.600 333.510 333.300 M333.400 360.000 L 333.400 366.600 303.400 366.600 L 273.400 366.600 273.289 360.417 C 273.228 357.016,273.268 354.000,273.378 353.714 C 273.539 353.294,279.261 353.214,303.488 353.297 L 333.400 353.400 333.400 360.000 "
              stroke="none" fill="#ccf3f3" fill-rule="evenodd"></path>
        <path id="path3"
              d="M20.307 10.100 L 20.200 20.200 16.600 20.400 L 13.000 20.600 13.000 26.600 L 13.000 32.600 16.200 32.800 C 20.661 33.079,20.400 32.620,20.400 40.181 C 20.400 47.735,20.738 47.200,15.967 47.200 L 12.800 47.200 12.800 53.120 C 12.800 60.210,12.669 60.000,17.090 60.000 L 20.419 60.000 20.310 66.700 L 20.200 73.400 16.600 73.600 L 13.000 73.800 13.000 80.000 L 13.000 86.200 16.600 86.400 L 20.200 86.600 20.200 96.700 L 20.200 106.800 40.100 106.800 L 60.000 106.800 60.000 90.000 L 60.000 73.200 66.800 73.200 L 73.600 73.200 73.600 90.000 L 73.600 106.800 93.393 106.800 L 113.186 106.800 113.293 96.700 L 113.400 86.600 120.000 86.600 L 126.600 86.600 126.707 96.700 L 126.814 106.800 146.602 106.800 L 166.389 106.800 166.495 93.300 L 166.600 79.800 170.200 79.600 L 173.800 79.400 173.800 73.400 L 173.800 67.400 171.000 67.298 C 169.460 67.242,167.795 67.104,167.300 66.991 L 166.400 66.785 166.400 33.392 L 166.400 0.000 160.010 -0.000 L 153.619 -0.000 153.510 6.700 L 153.400 13.400 146.600 13.400 L 139.800 13.400 139.690 6.700 L 139.581 0.000 133.194 0.000 L 126.806 0.000 126.703 23.500 L 126.600 47.000 120.000 47.000 L 113.400 47.000 113.297 23.500 L 113.194 0.000 106.797 0.000 L 100.400 0.000 100.394 6.300 C 100.386 14.324,101.069 13.643,93.170 13.510 L 86.600 13.400 86.490 6.700 L 86.381 0.000 79.990 0.000 L 73.600 0.000 73.600 16.800 L 73.600 33.600 66.800 33.600 L 60.000 33.600 60.000 16.800 L 60.000 0.000 53.600 0.000 L 47.200 0.000 47.200 9.567 C 47.200 21.713,48.052 20.400,40.171 20.400 C 32.068 20.400,32.800 21.490,32.800 9.426 L 32.800 0.000 26.607 0.000 L 20.414 0.000 20.307 10.100 M100.157 27.033 C 100.525 27.991,100.436 59.324,100.064 59.910 C 99.818 60.298,98.158 60.394,93.170 60.310 L 86.600 60.200 86.495 43.800 C 86.438 34.781,86.477 27.176,86.583 26.900 C 86.902 26.069,99.836 26.195,100.157 27.033 M153.510 33.170 C 153.642 41.032,154.224 40.388,147.000 40.388 C 138.825 40.389,139.600 41.119,139.600 33.420 C 139.600 29.852,139.724 26.809,139.876 26.657 C 140.028 26.506,143.133 26.431,146.776 26.491 L 153.400 26.600 153.510 33.170 M46.426 33.214 C 47.492 33.785,47.620 45.523,46.571 46.571 C 45.523 47.620,33.785 47.492,33.214 46.426 C 32.500 45.093,32.680 34.177,33.429 33.429 C 34.177 32.680,45.093 32.500,46.426 33.214 M73.400 53.400 L 73.400 60.200 66.700 60.310 L 60.000 60.419 60.000 53.676 C 60.000 49.968,60.124 46.809,60.276 46.657 C 60.428 46.505,63.443 46.430,66.976 46.490 L 73.400 46.600 73.400 53.400 M152.967 53.043 C 153.530 53.259,153.600 55.131,153.600 70.043 L 153.600 86.800 146.600 86.800 L 139.600 86.800 139.600 70.187 L 139.600 53.574 140.500 53.212 C 141.508 52.807,151.982 52.665,152.967 53.043 M47.000 73.400 L 47.000 86.600 40.000 86.600 L 33.000 86.600 32.894 73.803 C 32.836 66.765,32.877 60.776,32.985 60.494 C 33.137 60.098,34.759 60.006,40.091 60.091 L 47.000 60.200 47.000 73.400 M126.800 66.800 L 126.800 73.600 120.000 73.600 L 113.200 73.600 113.200 66.800 L 113.200 60.000 120.000 60.000 L 126.800 60.000 126.800 66.800 M100.200 80.000 L 100.200 86.600 93.400 86.600 L 86.600 86.600 86.489 80.417 C 86.345 72.360,85.558 73.161,93.491 73.290 L 100.200 73.400 100.200 80.000 "
              stroke="none" fill="#ecebeb" fill-rule="evenodd"></path>
        <path id="path4"
              d="M20.000 9.520 C 20.000 20.554,20.204 20.000,16.144 20.000 C 14.551 20.000,13.163 20.135,13.061 20.300 C 12.959 20.465,14.395 20.510,16.253 20.400 C 18.653 20.258,19.740 20.026,20.009 19.600 C 20.390 18.996,20.575 0.000,20.200 0.000 C 20.090 0.000,20.000 4.284,20.000 9.520 M33.289 9.620 C 33.224 16.828,33.328 19.568,33.680 19.920 C 34.186 20.426,44.936 20.630,46.167 20.157 C 46.724 19.943,46.789 18.712,46.711 9.857 L 46.621 -0.200 46.411 9.800 L 46.200 19.800 40.000 19.800 L 33.800 19.800 33.589 9.800 L 33.379 -0.200 33.289 9.620 M60.193 16.600 L 60.200 33.400 66.800 33.400 L 73.400 33.400 73.407 16.800 L 73.413 0.200 73.302 16.700 L 73.191 33.200 66.800 33.200 L 60.409 33.200 60.298 16.500 L 60.187 -0.200 60.193 16.600 M113.395 23.300 L 113.400 46.600 120.000 46.600 L 126.600 46.600 126.605 23.400 L 126.610 0.200 126.502 23.300 L 126.394 46.400 120.000 46.400 L 113.606 46.400 113.498 23.200 L 113.390 -0.000 113.395 23.300 M153.364 6.600 C 153.363 10.340,153.423 11.924,153.497 10.120 C 153.571 8.315,153.572 5.255,153.498 3.320 C 153.425 1.384,153.364 2.860,153.364 6.600 M166.597 33.200 L 166.600 66.600 170.063 66.800 C 171.968 66.910,173.442 66.865,173.339 66.700 C 173.237 66.535,171.724 66.400,169.979 66.400 L 166.805 66.400 166.699 33.100 L 166.593 -0.200 166.597 33.200 M90.319 13.498 C 92.144 13.572,95.024 13.572,96.719 13.497 C 98.414 13.422,96.920 13.361,93.400 13.362 C 89.880 13.362,88.494 13.424,90.319 13.498 M143.519 13.498 C 145.344 13.572,148.224 13.572,149.919 13.497 C 151.614 13.422,150.120 13.361,146.600 13.362 C 143.080 13.362,141.694 13.424,143.519 13.498 M90.319 26.698 C 92.144 26.772,95.024 26.772,96.719 26.697 C 98.414 26.622,96.920 26.561,93.400 26.562 C 89.880 26.562,88.494 26.624,90.319 26.698 M143.519 26.698 C 145.344 26.772,148.224 26.772,149.919 26.697 C 151.614 26.622,150.120 26.561,146.600 26.562 C 143.080 26.562,141.694 26.624,143.519 26.698 M153.288 33.290 L 153.200 39.581 146.500 39.701 L 139.800 39.821 146.513 39.910 C 154.436 40.016,153.660 40.786,153.500 32.982 L 153.377 27.000 153.288 33.290 M16.400 33.575 L 19.800 33.800 19.800 40.000 L 19.800 46.200 16.800 46.320 C 15.151 46.385,13.674 46.565,13.519 46.720 C 13.363 46.874,14.712 46.940,16.515 46.866 C 20.572 46.701,20.386 47.030,20.394 39.980 C 20.401 32.994,20.514 33.175,16.220 33.275 L 13.000 33.349 16.400 33.575 M33.380 33.707 C 33.269 33.997,33.228 37.016,33.289 40.417 L 33.400 46.600 40.110 46.710 L 46.819 46.819 46.710 40.110 L 46.600 33.400 40.091 33.290 C 34.998 33.204,33.539 33.295,33.380 33.707 M46.400 40.000 L 46.400 46.400 40.000 46.400 L 33.600 46.400 33.600 40.000 L 33.600 33.600 40.000 33.600 L 46.400 33.600 46.400 40.000 M60.177 46.916 C 60.068 47.200,60.029 50.305,60.089 53.816 L 60.200 60.200 66.400 60.215 L 72.600 60.230 66.500 60.105 L 60.400 59.980 60.400 53.400 L 60.400 46.821 66.500 46.699 L 72.600 46.578 66.487 46.489 C 61.800 46.421,60.329 46.520,60.177 46.916 M73.199 53.519 L 73.398 60.200 73.509 53.831 C 73.571 50.327,73.481 47.321,73.311 47.149 C 73.140 46.978,73.089 49.844,73.199 53.519 M140.000 53.500 C 140.000 53.665,142.925 53.800,146.500 53.800 L 153.000 53.800 153.104 70.090 L 153.209 86.381 146.604 86.505 L 139.999 86.630 146.700 86.615 L 153.400 86.600 153.511 70.800 C 153.652 50.811,154.591 53.200,146.592 53.200 C 142.967 53.200,140.000 53.335,140.000 53.500 M16.900 60.292 L 20.000 60.432 19.994 66.316 C 19.986 73.434,20.152 73.130,16.188 73.301 L 13.000 73.439 16.251 73.520 C 20.565 73.626,20.446 73.838,20.311 66.346 L 20.200 60.200 17.000 60.176 L 13.800 60.152 16.900 60.292 M33.382 60.503 C 33.275 60.780,33.236 66.765,33.294 73.803 L 33.400 86.600 40.100 86.710 L 46.800 86.819 46.800 73.410 L 46.800 60.000 40.187 60.000 C 35.242 60.000,33.526 60.127,33.382 60.503 M90.319 60.298 C 92.144 60.372,95.024 60.372,96.719 60.297 C 98.414 60.222,96.920 60.161,93.400 60.162 C 89.880 60.162,88.494 60.224,90.319 60.298 M113.380 60.507 C 113.269 60.797,113.228 63.816,113.289 67.217 L 113.400 73.400 120.000 73.400 L 126.600 73.400 126.600 66.800 L 126.600 60.200 120.091 60.090 C 114.998 60.004,113.539 60.095,113.380 60.507 M46.400 73.400 L 46.400 86.400 40.000 86.400 L 33.600 86.400 33.600 73.400 L 33.600 60.400 40.000 60.400 L 46.400 60.400 46.400 73.400 M126.400 66.800 L 126.400 73.200 120.000 73.200 L 113.600 73.200 113.600 66.800 L 113.600 60.400 120.000 60.400 L 126.400 60.400 126.400 66.800 M60.187 73.690 C 60.079 73.971,60.040 81.581,60.100 90.600 L 60.209 107.000 60.305 90.300 L 60.400 73.600 66.796 73.600 L 73.191 73.600 73.302 90.100 L 73.413 106.600 73.407 90.000 L 73.400 73.400 66.891 73.290 C 61.902 73.206,60.337 73.299,60.187 73.690 M90.120 73.498 C 92.055 73.572,95.115 73.571,96.920 73.497 C 98.724 73.423,97.140 73.363,93.400 73.364 C 89.660 73.364,88.184 73.425,90.120 73.498 M170.600 79.568 C 168.840 79.695,167.175 79.946,166.900 80.124 C 166.340 80.486,166.142 106.800,166.700 106.800 C 166.865 106.800,167.000 100.905,167.000 93.700 L 167.000 80.600 170.100 80.380 C 171.805 80.259,173.416 79.944,173.680 79.680 C 173.944 79.416,174.079 79.230,173.980 79.268 C 173.881 79.305,172.360 79.440,170.600 79.568 M90.120 86.698 C 92.055 86.772,95.115 86.771,96.920 86.697 C 98.724 86.623,97.140 86.563,93.400 86.564 C 89.660 86.564,88.184 86.625,90.120 86.698 M19.800 96.800 C 19.800 102.258,19.935 106.640,20.100 106.538 C 20.492 106.296,20.492 87.304,20.100 87.062 C 19.935 86.960,19.800 91.342,19.800 96.800 M113.374 96.800 C 113.374 102.410,113.430 104.705,113.499 101.900 C 113.568 99.095,113.568 94.505,113.499 91.700 C 113.430 88.895,113.374 91.190,113.374 96.800 M126.574 96.800 C 126.574 102.410,126.630 104.705,126.699 101.900 C 126.768 99.095,126.768 94.505,126.699 91.700 C 126.630 88.895,126.574 91.190,126.574 96.800 M316.700 213.498 C 318.515 213.572,321.485 213.572,323.300 213.498 C 325.115 213.423,323.630 213.363,320.000 213.363 C 316.370 213.363,314.885 213.423,316.700 213.498 M273.378 246.914 C 273.268 247.199,273.229 250.305,273.289 253.816 L 273.400 260.200 320.000 260.200 L 366.600 260.200 366.600 253.400 L 366.600 246.600 320.088 246.498 C 282.326 246.416,273.539 246.494,273.378 246.914 M366.310 253.500 L 366.420 260.000 320.010 260.000 L 273.600 260.000 273.600 253.398 L 273.600 246.797 319.900 246.898 L 366.200 247.000 366.310 253.500 M273.468 273.465 C 273.321 273.613,273.200 276.673,273.200 280.267 L 273.200 286.800 320.010 286.800 L 366.819 286.800 366.710 280.100 L 366.600 273.400 320.168 273.298 C 294.631 273.242,273.616 273.317,273.468 273.465 M366.400 280.000 L 366.400 286.400 320.000 286.400 L 273.600 286.400 273.600 280.000 L 273.600 273.600 320.000 273.600 L 366.400 273.600 366.400 280.000 M273.385 306.700 L 273.400 313.400 320.000 313.400 L 366.600 313.400 366.710 306.700 C 366.770 303.015,366.680 300.000,366.510 299.999 C 366.339 299.999,366.253 302.969,366.319 306.599 L 366.437 313.200 320.028 313.200 L 273.619 313.200 273.495 306.600 L 273.370 299.999 273.385 306.700 M273.469 326.664 C 273.321 326.812,273.200 329.873,273.200 333.467 L 273.200 340.000 303.410 340.000 L 333.619 340.000 333.510 333.300 L 333.400 326.600 303.569 326.497 C 287.162 326.441,273.617 326.516,273.469 326.664 M333.200 333.200 L 333.200 339.600 303.400 339.600 L 273.600 339.600 273.600 333.200 L 273.600 326.800 303.400 326.800 L 333.200 326.800 333.200 333.200 M273.378 353.714 C 273.268 354.000,273.228 357.016,273.289 360.417 L 273.400 366.600 303.400 366.600 L 333.400 366.600 333.400 360.000 L 333.400 353.400 303.488 353.297 C 279.261 353.214,273.539 353.294,273.378 353.714 M353.467 353.467 C 352.714 354.220,353.186 400.000,353.946 400.000 C 354.399 400.000,363.598 391.094,377.346 377.346 C 391.094 363.598,400.000 354.399,400.000 353.946 C 400.000 353.186,354.220 352.714,353.467 353.467 M333.110 360.100 L 333.220 366.400 303.410 366.400 L 273.600 366.400 273.600 359.997 L 273.600 353.595 303.300 353.697 L 333.000 353.800 333.110 360.100 "
              stroke="none" fill="#64c4c4" fill-rule="evenodd"></path>
    </g>
</svg>