<svg id="Layer_1" enable-background="new 0 0 511.996 511.996" height="100" viewBox="0 0 511.996 511.996" width="100"
     xmlns="http://www.w3.org/2000/svg">
    <g>
        <g>
            <path d="m460.273 460.051h-231.319s-16.533 36.881-102.617 44.388c-9.468.826-17.522-6.847-17.219-16.35l.555-102.755h350.599"
                  fill="#ffd8bf"/>
            <g>
                <g>
                    <g>
                        <path d="" fill="#fff"/>
                        <g fill="#ffd8bf">
                            <path d="m460.273 385.354h-231.319l-124.308-41.678c-9.068-3.495-19.198 1.427-22.059 10.718l-26.657 86.584c-3.066 9.958 3.589 20.274 13.925 21.586l49.092 6.232c8.422 1.069 16.315-4.324 18.379-12.559l7.313-29.176c5.197-20.734-26.556-29.25-32.247-8.41l-3.099 11.349"/>
                            <path d=""/>
                        </g>
                    </g>
                    <g>
                        <path d="m267.057 477.114h-23.299c-8.176 0-14.804-6.628-14.804-14.804v-90.298h52.906v90.298c.001 8.176-6.627 14.804-14.803 14.804z"
                              fill="#6947b5"/>
                        <path d="m251.861 372.012v90.298c0 7.022-4.894 12.889-11.453 14.409 1.078.25 2.196.395 3.351.395h23.299c8.176 0 14.804-6.628 14.804-14.804v-90.298z"
                              fill="#603ab5"/>
                        <path d="m287.287 385.334h-63.759c-6.855 0-12.412-5.557-12.412-12.412v-8.727c0-6.855 5.557-12.412 12.412-12.412h63.759c6.855 0 12.412 5.557 12.412 12.412v8.727c0 6.855-5.557 12.412-12.412 12.412z"
                              fill="#a087d4"/>
                        <path d="m287.287 351.784h-30c6.855 0 12.412 5.557 12.412 12.412v8.727c0 6.855-5.557 12.412-12.412 12.412h30c6.855 0 12.412-5.557 12.412-12.412v-8.727c0-6.855-5.557-12.412-12.412-12.412z"
                              fill="#9378cf"/>
                    </g>
                </g>
                <g>
                    <g>
                        <g>
                            <path d="m256.636 7.5-84.403 35.374 84.403 35.373 84.402-35.373z" fill="#e643de"/>
                            <path d="m256.636 175.851-84.403-35.373v-97.604l84.403 35.373z" fill="#cc21c4"/>
                            <path d="m256.636 175.851 84.402-35.373v-97.604l-84.402 35.373z" fill="#ff6ef9"/>
                        </g>
                    </g>
                </g>
            </g>
        </g>
        <g>
            <path d="m460.273 377.834h-153.687c.4-1.572.613-3.218.613-4.912v-8.726c0-10.979-8.933-19.912-19.912-19.912h-63.759c-10.979 0-19.912 8.933-19.912 19.912v4.753l-96.442-32.335c-12.79-4.818-27.721 2.475-31.754 15.574l-26.657 86.583c-4.33 14.064 5.501 29.374 20.149 31.234l32.701 4.151.006 13.827c-.36 13.739 11.74 25.114 25.371 23.928 57.959-5.054 86.177-23.344 99.066-36.048 4.08 5.317 10.498 8.751 17.703 8.751h23.298c10.499 0 19.327-7.292 21.685-17.077 19.279-.035 38.731-.031 57.924.014 8.768-1.352 10.008-14.977.035-15-18.999-.044-38.252-.05-57.34-.015v-59.681h170.912c9.34-.001 10.219-15.021 0-15.021zm-241.657-13.638c0-2.708 2.204-4.912 4.912-4.912h63.759c2.708 0 4.912 2.204 4.912 4.912v8.726c0 2.708-2.204 4.912-4.912 4.912h-63.759c-2.815 0-4.912-2.306-4.912-4.912zm-92.93 132.771c-4.889.425-9.068-4.257-9.068-8.881l-.005-12.026c12.333 2.313 24.936-5.821 27.989-18l7.313-29.175c2.842-11.338-2.243-24.902-17.461-28.886-15.156-3.968-26.212 5.384-29.296 16.676l-3.1 11.349c-2.555 9.355 11.915 13.307 14.47 3.952l3.1-11.35c2.186-7.999 9.57-6.498 11.026-6.117.903.236 8.762 2.546 6.711 10.729l-7.313 29.176c-1.14 4.548-5.5 7.541-10.159 6.942l-49.092-6.232c-5.637-.715-9.374-6.508-7.702-11.939l26.657-86.583c1.636-5.317 7.143-7.611 12.507-5.814l106.805 35.81c3.185 3.366 7.529 5.625 12.387 6.13v65.347c-3.844 5.976-24.847 32.708-95.769 38.892zm148.675-34.657c0 4.027-3.277 7.304-7.304 7.304h-23.298c-4.027 0-7.304-3.277-7.304-7.304v-69.476h37.907v69.476z"/>
            <path d="m460.289 452.551c-22.834-.05-45.159-.05-68.251 0-9.941.022-8.656 13.381.033 15 23.068-.051 45.372-.051 68.185 0 8.767-1.354 10.006-14.978.033-15z"/>
            <path d="m169.334 147.395 84.372 35.361c1.831.778 4.048.777 5.872-.006l84.358-35.355c2.787-1.168 4.601-3.895 4.601-6.917v-97.604c0-.077-.001-.154-.004-.231-.088-3.029-2.021-5.678-4.757-6.753l-84.241-35.307c-1.854-.777-3.943-.777-5.798 0l-84.243 35.307c-2.802 1.101-4.761 3.9-4.761 6.984v97.604c0 3.022 1.814 5.749 4.601 6.917zm164.204-11.906-69.402 29.087v-81.34l69.402-29.087zm-153.805-81.34 18.304 7.671c8.943 3.748 14.741-10.086 5.798-13.834l-12.199-5.113 65-27.242 64.999 27.242-64.999 27.242-15.787-6.616c-8.943-3.749-14.741 10.086-5.798 13.834l14.084 5.903v81.34l-69.403-29.087v-81.34z"/>
            <path d="m255.998 286.93c9.992 0 10.008-15 0-15-9.992 0-10.008 15 0 15z"/>
            <path d="m255.998 239.16c-9.992 0-10.008 15 0 15 9.992 0 10.008-15 0-15z"/>
            <path d="m290.279 254.16c9.992 0 10.008-15 0-15-9.992 0-10.009 15 0 15z"/>
            <path d="m290.279 206.391c-9.992 0-10.008 15 0 15 9.991 0 10.008-15 0-15z"/>
            <path d="m324.559 206.391c-9.992 0-10.008 15 0 15 9.992 0 10.009-15 0-15z"/>
            <path d="m358.84 188.621c9.992 0 10.008-15 0-15-9.992 0-10.008 15 0 15z"/>
            <path d="m393.121 155.852c9.992 0 10.008-15 0-15-9.992 0-10.009 15 0 15z"/>
            <path d="m427.401 123.082c9.992 0 10.008-15 0-15-9.991 0-10.008 15 0 15z"/>
            <path d="m393.121 123.082c9.992 0 10.008-15 0-15-9.992 0-10.009 15 0 15z"/>
            <path d="m461.682 90.312c9.992 0 10.008-15 0-15-9.992 0-10.008 15 0 15z"/>
            <path d="m427.401 90.312c9.992 0 10.008-15 0-15-9.991 0-10.008 15 0 15z"/>
            <path d="m393.121 90.312c9.992 0 10.008-15 0-15-9.992 0-10.009 15 0 15z"/>
            <path d="m153.156 188.621c9.992 0 10.008-15 0-15-9.992 0-10.008 15 0 15z"/>
            <path d="m118.875 155.852c9.992 0 10.008-15 0-15-9.992 0-10.008 15 0 15z"/>
            <path d="m84.594 123.082c9.992 0 10.008-15 0-15-9.991 0-10.008 15 0 15z"/>
            <path d="m118.875 123.082c9.992 0 10.008-15 0-15-9.992 0-10.008 15 0 15z"/>
            <path d="m50.314 75.312c-9.992 0-10.008 15 0 15 9.992 0 10.008-15 0-15z"/>
            <path d="m84.594 90.312c9.992 0 10.008-15 0-15-9.991 0-10.008 15 0 15z"/>
            <path d="m118.875 90.312c9.992 0 10.008-15 0-15-9.992 0-10.008 15 0 15z"/>
            <path d="m255.998 206.391c-9.992 0-10.008 15 0 15 9.992 0 10.008-15 0-15z"/>
            <path d="m221.717 254.16c9.992 0 10.008-15 0-15-9.992 0-10.008 15 0 15z"/>
            <path d="m221.717 206.391c-9.992 0-10.008 15 0 15 9.992 0 10.008-15 0-15z"/>
            <path d="m187.437 221.391c9.992 0 10.008-15 0-15-9.992 0-10.009 15 0 15z"/>
            <path d="m266.67 327.212c1.471 1.515 6.374 4.038 10.605.156l172.581-167.561c6.957-6.755-3.491-17.516-10.449-10.762l-172.581 167.561c-2.972 2.886-3.042 7.634-.156 10.606z"/>
            <path d="m61.63 159.808 171.976 166.955c3.557 2.876 7.092 2.824 10.605-.157 2.885-2.972 2.815-7.72-.157-10.605l-171.976-166.956c-2.972-2.885-7.72-2.815-10.605.157-2.886 2.973-2.816 7.721.157 10.606z"/>
            <path d="m442.715 188.234-43.233 41.678c-2.982 2.875-3.069 7.623-.194 10.604 1.472 1.527 6.756 3.733 10.604.194l43.233-41.678c6.982-6.728-3.429-17.527-10.41-10.798z"/>
            <path d="m58.361 199.033 44.998 43.379c3.561 2.864 7.096 2.799 10.604-.194 2.875-2.982 2.788-7.73-.194-10.604l-44.998-43.379c-2.982-2.875-7.73-2.789-10.604.194-2.876 2.982-2.789 7.73.194 10.604z"/>
        </g>
    </g>
</svg>